<svg width="20" height="20" viewBox="0 0 20 20" fill="none" xmlns="http://www.w3.org/2000/svg">
<path d="M2.88231 0.132885C3.51912 -0.0932061 4.2538 -0.0290905 4.83855 0.312216C5.16251 0.489136 5.4074 0.770665 5.66675 1.02665C6.59956 1.95897 7.53141 2.89178 8.46421 3.82362C8.69464 4.05357 8.88796 4.32498 9.00847 4.62868C9.3681 5.49352 9.13719 6.55697 8.45023 7.19378C7.93586 7.70671 7.42246 8.22059 6.90905 8.73448C6.68971 8.95189 6.45157 9.15244 6.18884 9.31586C5.03765 10.052 3.49309 10.0973 2.29611 9.44071C2.90352 10.8064 3.78523 12.0323 4.76576 13.1531C5.61903 14.1163 6.54509 15.0163 7.5478 15.8233C8.47482 16.5619 9.47367 17.2218 10.5588 17.7049C10.1867 17.0112 10.0295 16.2051 10.1216 15.4227C10.2127 14.5767 10.6008 13.7707 11.1947 13.1633C11.7307 12.6233 12.2711 12.0878 12.8077 11.5483C13.0439 11.3078 13.3254 11.1087 13.6407 10.9858C14.3344 10.709 15.1645 10.7891 15.7845 11.2099C15.9657 11.33 16.1248 11.4794 16.2762 11.6351C17.2861 12.6465 18.2975 13.6564 19.3079 14.6678C19.7461 15.1036 20.0093 15.7178 19.9959 16.3382C20.0113 17.0121 19.6955 17.6793 19.1739 18.104C17.734 19.2123 15.9706 19.9315 14.144 20H13.5318C11.8083 19.9287 10.1428 19.3347 8.66379 18.4685C7.57624 17.8394 6.57498 17.07 5.64024 16.2331C4.6033 15.2964 3.63627 14.2797 2.7777 13.1768C1.74365 11.8376 0.865801 10.3509 0.382283 8.7205C0.162458 7.98968 0.0390478 7.23186 0 6.47019V5.85603C0.0694183 4.03091 0.786741 2.26846 1.89358 0.828996C2.15341 0.514686 2.49617 0.267383 2.88231 0.132885ZM3.10117 1.79699C2.8394 2.13975 2.60897 2.50612 2.40168 2.88455C1.7586 4.05743 1.43947 5.4188 1.57107 6.7551C1.88779 7.06651 2.19969 7.3842 2.51545 7.69706C2.87797 8.04898 3.35425 8.28567 3.85754 8.34304C4.53774 8.43029 5.25121 8.19167 5.74051 7.71008C6.30164 7.1475 6.8647 6.58637 7.42583 6.02379C7.70351 5.74371 7.70013 5.24236 7.41523 4.96902C6.34599 3.89979 5.27676 2.83104 4.208 1.76132C3.9149 1.46485 3.36872 1.46919 3.10117 1.79699ZM13.9049 12.6436C13.3678 13.1835 12.8284 13.721 12.2899 14.2595C11.8773 14.6789 11.642 15.2632 11.6406 15.8503C11.6324 16.4438 11.8715 17.0314 12.2798 17.46C12.5994 17.7854 12.9258 18.1045 13.2459 18.4294C14.0543 18.5085 14.8767 18.4222 15.6572 18.2004C16.5688 17.9387 17.4168 17.4821 18.1775 16.92C18.5289 16.6607 18.5419 16.0933 18.2387 15.792C17.1854 14.7392 16.1316 13.6868 15.0797 12.6325C14.7885 12.2763 14.1912 12.2869 13.9049 12.6436Z" fill="#6F6F9D"/>
</svg>
