<svg width="22" height="22" viewBox="0 0 22 22" fill="none" xmlns="http://www.w3.org/2000/svg">
<path d="M2.67647 3.66606C8.02951 3.65875 13.383 3.6652 18.7365 3.66305C19.0562 3.66649 19.3806 3.64329 19.6955 3.71375C20.2735 3.84094 20.8007 4.22422 21.0692 4.75532C21.2295 5.04879 21.3116 5.38223 21.3129 5.71567C21.312 9.23911 21.3129 12.7625 21.3124 16.286C21.3094 16.6164 21.3356 16.9541 21.2403 17.2756C21.0228 18.1229 20.2112 18.7726 19.335 18.7881C14.0206 18.7881 8.7067 18.7881 3.39275 18.7881C2.94201 18.7773 2.47451 18.8388 2.04396 18.6695C1.26795 18.3983 0.704199 17.6257 0.688301 16.8029C0.686152 13.1072 0.688301 9.41141 0.687012 5.71567C0.68873 5.11668 0.962441 4.51555 1.43166 4.13957C1.77885 3.84868 2.22486 3.68325 2.67647 3.66606ZM3.04428 5.0359C5.22666 6.70653 7.40174 8.38704 9.58197 10.0607C9.89307 10.2991 10.2647 10.456 10.6519 10.5153C11.2698 10.6102 11.9216 10.4422 12.4171 10.0611C14.5977 8.38704 16.7732 6.70696 18.9556 5.0359C13.652 5.03934 8.34791 5.03977 3.04428 5.0359ZM2.0633 6.01817C2.06158 9.58457 2.06287 13.1514 2.06244 16.7178C2.05084 17.071 2.35162 17.401 2.70654 17.4122C8.22158 17.4143 13.7366 17.4118 19.2517 17.4135C19.6225 17.4251 19.9508 17.0856 19.9374 16.717C19.937 13.1506 19.9383 9.58457 19.9366 6.01817C17.7108 7.7309 15.4842 9.44235 13.2584 11.1551C12.616 11.6475 11.8078 11.9229 10.9978 11.9143C10.1887 11.9221 9.38174 11.6462 8.74021 11.1542C6.51486 9.44149 4.28865 7.73047 2.0633 6.01817Z" fill="#6F6F9D"/>
</svg>
