<svg width="18" height="20" viewBox="0 0 18 20" fill="none" xmlns="http://www.w3.org/2000/svg">
<path d="M12.8571 8.75C12.8571 10.8211 11.1302 12.5 9 12.5C6.86976 12.5 5.14286 10.8211 5.14286 8.75C5.14286 6.67893 6.86976 5 9 5C11.1302 5 12.8571 6.67893 12.8571 8.75ZM11.5714 8.75C11.5714 7.36929 10.4202 6.25 9 6.25C7.57984 6.25 6.42857 7.36929 6.42857 8.75C6.42857 10.1307 7.57984 11.25 9 11.25C10.4202 11.25 11.5714 10.1307 11.5714 8.75ZM15.364 14.9437C18.8787 11.5251 18.8787 5.98252 15.364 2.56394C11.8492 -0.854645 6.15076 -0.854645 2.63604 2.56394C-0.87868 5.98252 -0.87868 11.5251 2.63604 14.9437L4.59165 16.8173L7.2181 19.2987L7.38889 19.4458C8.38502 20.2308 9.84372 20.1819 10.7821 19.2989L13.9144 16.3364L15.364 14.9437ZM3.54213 3.44524C6.55643 0.513394 11.4436 0.513394 14.4579 3.44524C17.3949 6.30192 17.4702 10.888 14.6838 13.8333L14.4579 14.0624L12.7591 15.6924L9.89119 18.4031L9.77163 18.5027C9.31621 18.8373 8.6841 18.8373 8.22872 18.5026L8.10917 18.403L4.27667 14.7712L3.54213 14.0624L3.31621 13.8333C0.529814 10.888 0.605122 6.30192 3.54213 3.44524Z" fill="#6F6F9D"/>
</svg>
