<svg width="21" height="20" viewBox="0 0 21 20" fill="none" xmlns="http://www.w3.org/2000/svg">
<path d="M5.54818 16.8802L5.5481 16.8802L2.73513 17.6983L2.42696 17.7879L2.55587 17.494L3.61558 15.0779L5.54818 16.8802ZM5.54818 16.8802C5.66184 16.8471 5.78155 16.8381 5.89917 16.8538C6.01679 16.8696 6.12938 16.9098 6.22935 16.9715L5.54818 16.8802ZM2.29222 9.99986C2.29225 8.3683 2.78846 6.7737 3.71765 5.41773C4.64684 4.06177 5.96712 3.00549 7.51111 2.38189C9.05507 1.7583 10.7538 1.5952 12.3926 1.91305C14.0315 2.23091 15.5373 3.01558 16.7196 4.1684C17.902 5.32126 18.7076 6.79056 19.034 8.39071C19.3604 9.99089 19.1929 11.6495 18.5526 13.1566C17.9125 14.6636 16.8286 15.9511 15.4387 16.8566C14.0489 17.7621 12.4154 18.2452 10.7446 18.2452C10.7446 18.2452 10.7445 18.2452 10.7444 18.2452V18.0952L2.29222 9.99986ZM2.29222 9.99986C2.28951 11.5346 2.72819 13.0391 3.55809 14.3425M2.29222 9.99986L3.55807 14.3424C3.55808 14.3424 3.55808 14.3425 3.55809 14.3425M3.55809 14.3425C3.6277 14.4518 3.66911 14.5757 3.67908 14.7035C3.68906 14.8313 3.66734 14.9597 3.61562 15.0778L3.55809 14.3425ZM1.90077 14.8917L1.93096 14.8228L1.89388 14.7574C1.09363 13.3459 0.63877 11.7237 0.63877 9.99999C0.63877 4.56353 5.15961 0.15 10.7444 0.15C16.3292 0.15 20.85 4.56353 20.85 9.99999C20.85 15.4365 16.3292 19.85 10.7444 19.85H10.7442C8.98313 19.8525 7.25243 19.4045 5.72491 18.5509L5.67012 18.5203L5.60986 18.5379L1.21459 19.816L1.2145 19.816C1.06339 19.86 0.902442 19.8612 0.750666 19.8193C0.598908 19.7774 0.463037 19.6944 0.358721 19.5804C0.254437 19.4665 0.185964 19.3264 0.16079 19.1767C0.135622 19.027 0.154679 18.8733 0.215916 18.7336C0.215923 18.7336 0.215929 18.7335 0.215935 18.7335L1.90077 14.8917ZM11.6262 13.0908L11.7076 13.1365L11.7845 13.0836L13.0689 12.2018C13.0689 12.2018 13.0689 12.2018 13.0689 12.2017C13.1997 12.112 13.3537 12.061 13.514 12.0551C13.6744 12.0492 13.8329 12.0888 13.9703 12.1687L13.9704 12.1687L15.6093 13.1211C15.7236 13.1875 15.8194 13.2796 15.8889 13.3893C15.9583 13.4989 15.9995 13.623 16.0091 13.751C16.0188 13.879 15.9966 14.0075 15.9445 14.1257C15.8923 14.2438 15.8114 14.3484 15.7085 14.4302L15.7085 14.4302L15.1313 14.8892C14.5935 15.3167 13.8386 15.5816 13.046 15.3831C12.0127 15.1233 10.2391 14.454 8.49129 12.7497L8.49105 12.7495C7.23193 11.5272 6.2774 10.0399 5.70059 8.40204C5.36195 7.42343 5.76768 6.44907 6.47267 5.8495L6.78119 5.5877L6.78135 5.58756C6.875 5.50787 6.98615 5.4496 7.10661 5.41736C7.22708 5.38511 7.35353 5.37979 7.47646 5.40182C7.59939 5.42384 7.71538 5.4726 7.81583 5.54423C7.91627 5.61584 7.99851 5.70841 8.05668 5.81481L9.09584 7.71943C9.09584 7.71944 9.09585 7.71945 9.09585 7.71946C9.18379 7.88074 9.21237 8.06611 9.17723 8.24499C9.14207 8.42393 9.04508 8.58652 8.90141 8.70537L8.90136 8.70541L8.0858 9.38065L7.98706 9.46239L8.05242 9.57267C8.49527 10.3198 9.03668 11.007 9.66272 11.6167C10.2467 12.1916 10.9071 12.6874 11.6262 13.0908Z" fill="#6F6F9D" stroke="#ECECF2" stroke-width="0.3"/>
</svg>
