<svg width="40" height="36" viewBox="0 0 40 36" fill="none" xmlns="http://www.w3.org/2000/svg">
<path d="M32.2179 24.7164C32.2179 24.7164 34.1634 34.0043 31.9844 35.4627C31.9066 35.5394 31.8288 35.5394 31.6732 35.6162C31.4397 35.693 31.2062 35.7697 30.9728 35.7697C30.1167 35.7697 28.9494 35.3859 27.7821 34.8486C25.214 33.6972 22.4903 31.7782 22.4903 31.7782C22.4903 31.7782 21.7899 32.2388 20.7004 32.9296C20.4669 33.0831 20.3113 33.1599 20.0778 33.3134C20.0778 33.3134 20.0778 33.3134 20 33.3134C18.288 34.3113 16.109 35.3859 14.5525 35.693C14.3969 35.693 14.2413 35.7697 14.0856 35.7697H14.0078C13.6965 35.7697 13.463 35.7697 13.2296 35.693C13.0739 35.6162 12.9961 35.6162 12.9183 35.5394C12.6848 35.3859 12.5292 35.1556 12.3736 34.9254C11.5175 33.1599 12.1401 28.9382 12.607 26.4819C12.8405 25.484 12.9961 24.7932 12.9961 24.7932C12.9961 24.7932 9.33854 21.8763 7.08173 19.113C5.91441 17.6546 5.1362 16.3497 5.36967 15.3518C5.68095 13.7399 8.63815 12.8955 11.4397 12.435C13.5409 12.0512 15.5642 11.9744 16.1868 11.9744C16.3424 11.9744 16.4202 11.9744 16.4202 11.9744C16.4202 11.9744 18.0545 6.52451 20.0778 3.07036C21.0117 1.53517 21.9455 0.460548 22.8794 0.383789H22.9572C23.1129 0.383789 23.1907 0.383789 23.3463 0.460548C26.3035 1.38166 29.1829 12.0512 29.1829 12.0512C29.1829 12.0512 39.5331 12.3582 40.0778 15.4286C40.5448 18.2687 32.2179 24.7164 32.2179 24.7164Z" fill="url(#paint0_linear_394_1176)"/>
<path d="M31.6731 35.6162C31.5953 35.6162 31.284 35.693 30.8949 35.7697C29.8054 35.9232 27.8599 36.0768 26.2257 35.7697L20.7004 32.9296L19.6109 32.3923L19.0661 32.7761L14.9416 35.4627L14.5525 35.693C14.4747 35.693 14.3191 35.693 14.0856 35.7697H14.0078C12.7626 35.8465 9.96108 36.0768 8.63813 35.693C8.48248 35.6162 8.40466 35.4627 8.40466 35.1556C8.56031 33.6972 10.7393 29.7058 12.607 26.4819C14.0856 24.0256 15.3307 21.9531 15.3307 21.9531L15.5642 19.42L16.1868 11.9744L17.1206 0.84435V0.307036C17.1206 0.307036 20.6226 -0.383795 22.8794 0.307036C23.6576 0.690831 25.1362 5.91045 26.6926 12.1279C27.0817 13.8934 27.5486 15.7356 27.9377 17.5011C28.3268 19.3433 28.7159 21.1855 29.1051 22.951C30.5837 29.936 31.6731 35.6162 31.6731 35.6162Z" fill="url(#paint1_linear_394_1176)"/>
<path d="M27.1595 24.7165C27.1595 24.7165 29.0273 32.3157 27.7821 34.8487C27.6265 35.1557 27.4708 35.3093 27.2374 35.4628C27.0039 35.6163 26.6926 35.6931 26.3035 35.7698C24.6693 35.8466 22.0234 34.4649 20.0778 33.3135C19.6887 33.0832 19.3774 32.9297 19.0662 32.6995C18.2101 32.1621 17.6654 31.7783 17.6654 31.7783C17.6654 31.7783 14.9416 33.6973 12.3736 34.8487C11.5953 35.1557 10.895 35.4628 10.1946 35.6163C9.572 35.7698 9.02725 35.7698 8.63814 35.6931C8.4825 35.6163 8.32686 35.6163 8.17122 35.4628C5.99223 34.0044 7.85993 25.1003 7.93775 24.7165C7.93775 24.7165 -0.544736 18.2687 1.1418e-05 15.3519C0.62258 12.2815 10.895 11.9745 10.895 11.9745C10.895 11.9745 14.0078 0.307129 17.1206 0.307129C18.0545 0.307129 19.0662 1.45851 20 2.9937C22.0234 6.44785 23.6576 11.8977 23.6576 11.8977C23.6576 11.8977 24.9806 11.9745 26.6926 12.128C28.6381 12.3583 31.1284 12.7421 32.7627 13.5097C33.7743 13.9702 34.4747 14.5076 34.6304 15.2751C35.0973 17.2709 31.4397 20.8786 29.1051 22.9511C28.0156 24.0257 27.1595 24.7165 27.1595 24.7165Z" fill="url(#paint2_linear_394_1176)"/>
<g style="mix-blend-mode:multiply">
<path d="M23.6576 11.9745C23.6576 11.9745 27.8599 11.821 29.6498 11.9745C36.6537 12.5886 38.5214 13.6632 39.0662 14.5075C39.6109 15.2751 35.0973 14.5843 34.786 14.5843C34.4747 14.5843 34.2413 13.4329 30.5058 12.9723C26.7704 12.435 23.6576 11.9745 23.6576 11.9745Z" fill="white"/>
</g>
<path opacity="0.3" d="M32.2179 24.7163C31.2841 25.0233 28.4047 24.793 27.9378 24.7163C27.5487 24.6395 33.4631 19.4967 34.6304 17.4242C35.7977 15.2749 39.2218 15.5819 39.7666 15.889C40.3113 16.2728 37.5876 19.8037 35.7977 21.6459C33.93 23.4881 32.2179 24.7163 32.2179 24.7163Z" fill="#B30053"/>
<g style="mix-blend-mode:multiply">
<path d="M31.1284 16.5033C30.1946 16.8871 29.1051 17.2709 27.9377 17.5779C24.358 18.5758 19.8444 19.2666 15.4864 19.4201C12.4514 19.5737 9.49416 19.4201 7.00389 19.0363C4.20233 18.5758 1.94553 17.8082 0.77821 16.5033C0.466926 16.1963 0.233463 15.8125 0 15.3519C0.077821 14.8146 0.466926 14.4308 1.01167 14.047C1.08949 13.9702 1.24514 13.8935 1.32296 13.8167C1.32296 13.8167 1.32296 13.8167 1.40078 13.8167C4.4358 12.128 10.8949 11.9745 10.8949 11.9745C10.8949 11.9745 14.0078 0.307129 17.1206 0.307129C17.3541 0.307129 17.6654 0.383888 17.8988 0.537406C18.5992 0.921201 19.2996 1.84231 20 2.9937C22.0233 6.44785 23.6576 11.8977 23.6576 11.8977C23.6576 11.8977 24.9805 11.9745 26.6926 12.128C28.6381 12.3583 31.1284 12.7421 32.7626 13.5097C33.0739 14.8914 32.607 15.8892 31.1284 16.5033Z" fill="white"/>
</g>
<path opacity="0.2" d="M1.47861 17.808C0.311299 18.3453 3.34632 21.0319 5.91441 22.567C8.4825 24.0255 28.4825 19.6502 30.2724 20.034C32.0623 20.4178 35.0195 17.1939 34.4747 15.7355C33.93 14.3538 33.0739 14.2003 33.0739 14.4306C33.0739 14.6609 31.9844 16.7334 29.572 17.3474C27.1595 17.9615 8.40468 19.3432 6.22569 19.4967C4.12453 19.6502 1.63426 17.6545 1.47861 17.808Z" fill="#D81BDC"/>
<g style="mix-blend-mode:multiply">
<path d="M8.56038 35.3094C6.77049 34.9256 7.00396 30.013 8.09345 28.7081C9.26076 27.3264 23.5798 27.48 26.3036 28.3243C29.0273 29.1687 27.86 34.7721 26.8483 35.3094C25.9145 35.8467 17.8989 31.1644 17.2763 31.3179C16.7316 31.4714 12.1401 36.1537 8.56038 35.3094Z" fill="white"/>
</g>
<path d="M24.6693 22.7206L23.5798 23.6417L23.891 24.9466C24.5914 27.6332 24.9805 30.4733 24.9027 32.0084C24.9027 32.162 24.9027 32.3155 24.9027 32.469C23.5798 32.0084 21.1673 30.7803 19.2218 29.3219L18.2101 28.5543L17.6654 28.1705L16.1089 29.3219C14.6303 30.3965 12.9183 31.3944 11.5953 32.0084C11.2062 32.162 10.8171 32.3155 10.5058 32.469C10.2724 31.0106 10.5837 27.9402 11.284 24.9466L11.5953 23.6417L10.428 22.7206C7.70427 20.5713 4.98054 17.7312 4.43579 16.5031C5.52529 15.889 8.87159 15.275 11.9066 15.1982L13.8521 15.1214L14.3191 13.4327C15.1751 10.5159 16.4202 7.36878 17.4319 5.75684C17.6654 6.06387 17.8988 6.44767 18.0545 6.90822C18.9883 8.67368 20 11.0532 20.7004 13.4327L21.2451 15.1982L23.1907 15.275C26.2257 15.3517 29.572 15.9658 30.6615 16.5799C29.9611 17.7312 27.3152 20.5713 24.6693 22.7206Z" fill="url(#paint3_linear_394_1176)"/>
<path d="M30.5059 16.5031C30.0389 17.6545 27.7821 20.1108 25.2919 22.1833C25.0584 22.3368 24.8249 22.5671 24.5915 22.7206L23.502 23.6417L23.8133 24.9466C24.5137 27.6332 24.9028 30.4732 24.8249 32.0084C23.502 31.3943 21.7899 30.3965 20.2335 29.3218L18.6771 28.1705H17.5098L15.9533 29.3218C14.4747 30.3965 12.7627 31.3943 11.4397 32.0084C11.4397 31.7781 11.4397 31.6246 11.4397 31.3943C11.4397 31.0873 11.4397 30.857 11.4397 30.55C11.5175 29.2451 11.751 27.5564 12.1401 25.8677C12.2179 25.5607 12.2958 25.3304 12.2958 25.0233L12.607 23.7184L11.4397 22.7973C8.71599 20.6481 5.99226 17.808 5.44751 16.5798C6.45918 15.9658 9.88331 15.3517 12.9183 15.2749L14.8639 15.1982L15.4086 13.4327C16.109 11.13 17.0428 8.67366 17.8989 6.9082C18.8327 8.67366 19.8444 11.0532 20.5448 13.4327L21.0895 15.1982L23.0351 15.2749C26.0701 15.2749 29.4164 15.889 30.5059 16.5031Z" fill="url(#paint4_linear_394_1176)"/>
<path d="M17.5098 28.1704C17.5098 28.1704 18.5993 28.1704 19.0662 28.4774C19.5331 28.7845 22.2568 30.6267 22.2568 30.9337C22.2568 31.2408 19.2996 29.4753 17.5098 28.1704Z" fill="#FFD8C3"/>
<g style="mix-blend-mode:multiply">
<path d="M10.3502 32.3926C9.96112 32.239 10.8172 29.706 11.0506 29.4757C11.3619 29.2454 11.2841 31.7785 11.3619 32.0088C11.4397 31.932 10.6615 32.3926 10.3502 32.3926Z" fill="white"/>
</g>
<path opacity="0.5" d="M11.4397 23.5649H12.607C12.607 23.5649 11.4397 27.0191 11.2062 27.9402C11.0506 28.8613 10.5058 27.0191 11.4397 23.5649Z" fill="#D42F55"/>
<path opacity="0.5" d="M4.90272 17.5011C4.20233 16.1962 14.9416 16.6567 14.9416 16.6567C14.9416 16.6567 17.1206 9.59489 18.7549 8.8273C18.7549 8.8273 17.3541 5.68018 17.1206 5.68018C16.8872 5.68018 13.5409 15.0448 13.5409 15.0448C13.5409 15.0448 8.71595 14.8913 4.12451 16.4264L4.90272 17.5011Z" fill="#D42F55"/>
<path opacity="0.5" d="M21.0895 15.1216C21.0895 15.1216 29.1829 16.5032 29.9611 17.2708L30.5058 16.5032C30.5058 16.5032 28.0155 15.2751 21.0895 15.1216Z" fill="#D42F55"/>
<path opacity="0.3" d="M20 1.22818C18.4435 1.22818 20.7003 3.83799 21.7898 6.29428C22.8793 8.67381 27.8599 8.67381 27.8599 8.67381C27.8599 8.67381 25.6809 2.53309 24.3579 1.7655C23.035 0.997906 20 1.22818 20 1.22818Z" fill="#B8038B"/>
<path opacity="0.3" d="M27.1596 35.9231C26.8483 35.6929 27.8599 35.8464 28.249 34.1577C28.6382 32.3922 32.4514 32.6225 32.7627 32.776C33.1518 33.0063 32.5292 35.1555 31.9066 35.5393C31.3619 35.8464 27.1596 35.9231 27.1596 35.9231Z" fill="#B8038B"/>
<g style="mix-blend-mode:multiply">
<path d="M28.6381 32.6228C28.249 32.4693 28.249 28.4778 28.249 27.7102C28.249 26.9426 32.3735 27.2497 32.5292 27.7102C32.7626 28.1708 32.9183 32.1622 32.6848 32.3925C32.4514 32.6996 28.8716 32.6996 28.6381 32.6228Z" fill="white"/>
</g>
<path opacity="0.5" d="M15.1752 35.4627C16.109 35.3092 18.1324 34.3881 18.2102 34.1578C18.288 33.8508 16.0312 33.6205 15.4865 33.6205C14.9417 33.5437 11.8289 35.386 11.6732 35.4627C11.3619 35.5395 15.1752 35.4627 15.1752 35.4627Z" fill="white"/>
<path opacity="0.5" d="M17.6654 31.9316C17.1985 32.0852 15.642 33.0063 15.642 33.3133C15.5642 33.5436 18.0545 33.8506 18.3658 33.9274C18.6771 34.0041 20.0778 33.3901 20.0778 33.3901C20.0778 33.3901 17.7432 31.9316 17.6654 31.9316Z" fill="#D42F55"/>
<path opacity="0.3" d="M35.0973 16.9639C34.786 17.2709 33.3074 19.1132 33.3074 19.5737C33.3074 20.0343 37.6654 19.497 37.8988 19.1899C38.1323 18.8061 40.0778 16.2731 39.6887 15.966C39.2996 15.659 35.9533 16.1196 35.0973 16.9639Z" fill="#B8038B"/>
<path d="M23.6576 11.9746C23.6576 11.9746 32.5292 12.819 33.7743 14.5844C35.5642 17.271 29.8055 22.4138 29.8055 22.4138C29.8055 22.4138 35.5642 17.3477 34.786 14.8915C34.0078 12.3584 23.6576 11.9746 23.6576 11.9746Z" fill="#FFD8C3"/>
<path d="M34.0078 13.9702C33.3074 13.6632 34.3969 15.2751 34.2412 16.5033C34.0078 17.6547 34.8638 16.1195 34.8638 15.3519C34.8638 14.5076 34.0078 13.9702 34.0078 13.9702Z" fill="white"/>
<g style="mix-blend-mode:multiply">
<path d="M18.5214 1.07444C16.7315 0.46037 17.821 6.52434 19.6887 10.9764C21.4786 15.1981 23.2685 13.5094 23.5798 12.4348C23.9689 11.2834 20 2.14907 18.5214 1.07444Z" fill="white"/>
</g>
<g style="mix-blend-mode:multiply">
<path d="M20.3892 4.98934C19.144 4.83582 19.8444 8.67377 20.6226 10.0554C21.4008 11.3603 22.5682 10.516 22.5682 9.3646C22.5682 8.13646 20.8561 5.0661 20.3892 4.98934Z" fill="white"/>
</g>
<g style="mix-blend-mode:multiply">
<path d="M18.288 0.460744C17.7432 0.614262 19.9222 0.998057 21.5564 1.22833C23.2685 1.45861 23.6576 1.45861 23.6576 0.998057C23.6576 0.537503 21.4008 -0.460365 18.288 0.460744Z" fill="white"/>
</g>
<path d="M27.1595 35.7695C27.0039 35.616 31.4397 35.0787 31.8288 35.1554C32.2957 35.2322 31.284 35.6927 31.284 35.6927C31.284 35.6927 28.3268 36.1533 27.1595 35.7695Z" fill="white"/>
<g style="mix-blend-mode:multiply" opacity="0.5">
<path d="M23.891 24.87C24.5914 27.5566 24.9805 30.3967 24.9027 31.9319C23.5797 31.3178 21.8677 30.3199 20.3113 29.2453L18.677 28.1707H17.5097L15.9533 29.3221C14.4747 30.3967 12.7626 31.3945 11.4397 32.0086C11.4397 31.7783 11.4397 31.6248 11.4397 31.3945L11.8288 31.0107C11.6731 31.0107 11.5175 30.7805 11.4397 30.4734C11.2062 29.5523 11.284 27.6333 12.1401 25.7911C12.7626 24.3327 13.8521 22.8743 15.4864 21.9532C20.1556 19.3434 25.3696 22.1835 25.3696 22.1835C25.1362 22.337 24.9027 22.5673 24.6692 22.7208L23.5797 23.6419L23.891 24.87Z" fill="white"/>
</g>
<g style="mix-blend-mode:multiply">
<path d="M7.54867 34.1576C7.31521 33.0062 7.78214 32.2386 8.17124 32.3153C8.56035 32.3921 9.10509 34.9251 8.71599 35.2322C8.4047 35.5392 7.54867 34.4646 7.54867 34.1576Z" fill="white"/>
</g>
<path opacity="0.8" d="M20 33.39C18.288 34.3879 16.109 35.4625 14.5525 35.7695C14.3969 35.7695 14.2413 35.8463 14.0856 35.8463H14.0078C12.7627 35.923 9.96111 36.1533 8.63815 35.7695C8.48251 35.6928 8.32687 35.6928 8.17122 35.5392C5.99223 34.0808 7.85994 25.1768 7.93776 24.793C7.78212 25.1768 6.77044 32.6992 7.7043 34.5414C7.85994 34.7716 8.01558 35.0019 8.32686 35.1554C8.79379 35.3857 9.41636 35.5392 10.1167 35.6928C11.0506 35.7695 12.1401 35.7695 13.1518 35.6928C13.7743 35.616 14.3969 35.5392 14.8638 35.4625C15.3308 35.3857 15.642 35.309 15.8755 35.2322C17.0428 34.8484 19.6109 33.5435 20 33.39Z" fill="#D42F55"/>
<path opacity="0.8" d="M23.2685 0.383795C23.2685 0.383795 23.1129 0.383795 22.9572 0.307036H22.8794C21.9456 0.230277 19.8444 0.076759 18.0545 0.537313C17.6654 0.614072 17.3541 0.767591 17.1207 0.84435C17.0428 0.84435 16.8872 0.921109 16.8094 0.997868C12.3736 3.83795 11.4397 12.435 11.4397 12.435C11.4397 12.435 3.50198 12.9723 1.47864 13.7399C4.43584 12.1279 10.895 11.9744 10.895 11.9744C10.895 11.9744 14.0078 0.307036 17.1207 0.307036C17.1207 0.307036 20.6226 -0.383795 22.8794 0.307036C23.0351 0.307036 23.1129 0.307036 23.2685 0.383795Z" fill="#D42F55"/>
<path d="M32.5292 19.9576C32.5292 18.8829 29.8833 21.0322 29.7277 21.416C29.572 21.8765 29.4164 22.4139 29.4942 22.5674C29.6499 22.8744 32.2179 22.2603 32.5292 19.9576Z" fill="#CC1F38"/>
<path opacity="0.5" d="M32.2958 19.727C31.5954 19.6502 30.7393 20.4178 30.6615 21.1854C30.5837 21.953 31.3619 21.953 32.0623 21.1854C32.6849 20.4178 32.4514 19.8038 32.2958 19.727Z" fill="#D42F55"/>
<path d="M29.7276 21.416C29.7276 21.416 29.7276 22.0301 29.9611 22.1836C30.3502 22.4139 31.2062 22.1068 31.2062 22.1068C31.2062 22.1068 30.2724 22.7977 29.572 22.7977C28.7938 22.8744 29.7276 21.416 29.7276 21.416Z" fill="#FF7940"/>
<path d="M29.2607 22.7976C29.0272 22.4906 30.428 22.4906 30.5058 22.4906C30.6615 22.4138 29.572 23.0279 29.2607 22.7976Z" fill="white"/>
<path d="M13.3852 34.3882C13.2296 34.3882 13.5409 33.6206 14.0078 33.467C14.3969 33.3135 15.0195 33.3135 15.0195 33.6206C14.9416 33.9276 14.1634 34.5417 13.3852 34.3882Z" fill="#CC1F38"/>
<path d="M13.6965 33.6973C13.3853 34.3881 13.8522 34.3881 14.3969 34.2346C14.3969 34.2346 13.8522 34.5416 13.074 34.5416C13.074 34.5416 13.1518 34.0811 13.6965 33.6973Z" fill="#FF7940"/>
<path d="M13.1517 34.5418C13.0739 34.465 13.3852 34.3115 13.6186 34.3115C13.8521 34.3115 14.0077 34.3883 14.0077 34.3883C14.0077 34.3883 13.463 34.5418 13.1517 34.5418Z" fill="white"/>
<path opacity="0.5" d="M14.2413 33.3901C13.6187 33.6972 13.7744 34.1577 14.3191 34.1577C14.8639 34.081 15.0195 33.6204 14.8639 33.4669C14.786 33.3901 14.2413 33.3901 14.2413 33.3901Z" fill="#D42F55"/>
<g style="mix-blend-mode:multiply">
<path d="M9.02729 20.648C7.62651 19.9572 9.8055 22.4135 10.4281 22.874C11.0506 23.3346 11.3619 23.6416 11.3619 23.6416H12.5292C12.6071 23.5649 9.57204 20.8783 9.02729 20.648Z" fill="white"/>
</g>
<path d="M11.4397 23.5652C11.1284 23.3349 10.9728 22.5673 11.2841 22.644C11.5953 22.644 12.607 23.5652 12.607 23.5652H11.4397Z" fill="white"/>
<path d="M17.5098 28.1704C17.5098 28.1704 18.6771 28.1704 19.0662 28.4007C19.4553 28.631 20.2335 29.3986 20.2335 29.3986C20.2335 29.3986 18.8327 29.0148 17.5098 28.1704Z" fill="#FFD8C3"/>
<path opacity="0.8" d="M19.3774 32.9297C19.3774 32.9297 23.8911 35.0022 26.2257 35.5395C28.4825 36.0768 31.4397 35.693 31.4397 35.693C31.4397 35.693 28.4825 36.2303 25.8366 35.7698C23.1907 35.3092 19.3774 32.9297 19.3774 32.9297Z" fill="#D42F55"/>
<g style="mix-blend-mode:multiply">
<path d="M0.233521 15.4287C0.466984 16.6568 2.17905 15.0449 2.56815 14.3541C2.87943 13.5865 0.311342 13.6632 0.233521 15.4287Z" fill="white"/>
</g>
<path d="M23.502 23.5649C23.502 23.5649 29.1051 19.7269 30.5058 16.4263C30.5058 16.503 27.7821 20.8015 23.502 23.5649Z" fill="#FFD8C3"/>
<path opacity="0.3" d="M13.1517 23.1043C12.607 23.1811 10.0389 21.0318 9.64979 20.034C9.26069 19.0361 12.7626 20.034 18.2101 19.7269C23.6576 19.4199 29.7276 16.9636 29.6498 17.2706C29.572 17.5777 26.2257 21.3389 25.3696 21.5691C24.5136 21.7227 22.7237 20.4945 18.9105 20.648C15.0194 20.7248 13.8521 23.0276 13.1517 23.1043Z" fill="#B8038B"/>
<defs>
<linearGradient id="paint0_linear_394_1176" x1="30.2159" y1="36.1757" x2="17.9533" y2="2.01845" gradientUnits="userSpaceOnUse">
<stop stop-color="#E52436"/>
<stop offset="0.2263" stop-color="#FE3931"/>
<stop offset="0.595" stop-color="#FB6134"/>
<stop offset="0.8492" stop-color="#F63C3B"/>
<stop offset="1" stop-color="#CC0721"/>
</linearGradient>
<linearGradient id="paint1_linear_394_1176" x1="23.4191" y1="38.6158" x2="10.5255" y2="2.70087" gradientUnits="userSpaceOnUse">
<stop stop-color="#E52436"/>
<stop offset="0.2263" stop-color="#FE3931"/>
<stop offset="0.595" stop-color="#FB6134"/>
<stop offset="0.8492" stop-color="#F63C3B"/>
<stop offset="1" stop-color="#CC0721"/>
</linearGradient>
<linearGradient id="paint2_linear_394_1176" x1="24.9745" y1="36.3514" x2="12.5974" y2="1.8753" gradientUnits="userSpaceOnUse">
<stop stop-color="#FFB092"/>
<stop offset="0.6341" stop-color="#FF4F26"/>
<stop offset="0.6955" stop-color="#FF6F3B"/>
<stop offset="1" stop-color="#FF938D"/>
</linearGradient>
<linearGradient id="paint3_linear_394_1176" x1="23.4396" y1="32.908" x2="14.0729" y2="6.8172" gradientUnits="userSpaceOnUse">
<stop stop-color="#FF9019"/>
<stop offset="0.2095" stop-color="#FE3919"/>
<stop offset="1" stop-color="#BB1538"/>
</linearGradient>
<linearGradient id="paint4_linear_394_1176" x1="23.8399" y1="32.3369" x2="15.0518" y2="7.85778" gradientUnits="userSpaceOnUse">
<stop stop-color="#FC8C6C"/>
<stop offset="1" stop-color="#CC0721"/>
</linearGradient>
</defs>
</svg>
