<svg width="20" height="20" viewBox="0 0 20 20" fill="none" xmlns="http://www.w3.org/2000/svg">
<path d="M20 10C20 15.5228 15.5228 20 10 20C4.47778 20 0 15.5228 0 10C0 4.47778 4.47778 0 10 0C15.5228 0 20 4.47778 20 10Z" fill="#FFCD4D"/>
<path d="M3.88892 11.8127C3.88892 14.015 6.44225 16.8127 10 16.8127C13.5578 16.8127 16.1111 14.035 16.1111 11.8127C16.1111 11.8127 10.3706 13.3439 3.88892 11.8127Z" fill="#664500"/>
<path d="M6.66663 12.7793V16.6465C6.66663 18.3132 7.77774 19.9799 9.99996 19.9799C12.2222 19.9799 13.3333 18.3132 13.3333 16.6465V12.8021C9.83829 13.5199 6.66663 12.7793 6.66663 12.7793Z" fill="#5D9040"/>
<path d="M6.8244 6.84997C6.4044 6.68774 6.00718 6.53441 6.00718 6.31219C6.00718 5.94608 6.49829 5.92719 6.59662 5.92719C6.94384 5.92719 7.11662 6.05719 7.26884 6.17219C7.38551 6.26052 7.50662 6.35163 7.67496 6.35163C7.98829 6.35163 8.13107 6.13108 8.13107 5.92608C8.13107 5.51719 7.62996 5.2283 7.09884 5.10719V4.88885C7.09884 4.60108 6.86496 4.36719 6.57718 4.36719C6.2894 4.36719 6.05551 4.60108 6.05551 4.88885V5.12552C5.41996 5.31052 5.03051 5.77774 5.03051 6.36719C5.03051 7.09552 5.74884 7.39441 6.38273 7.65774C6.83662 7.84663 7.26551 8.02497 7.26551 8.3033C7.26551 8.50663 7.00996 8.72663 6.59718 8.72663C6.18051 8.72663 5.94162 8.55997 5.73051 8.4133C5.58496 8.31163 5.44718 8.21552 5.28273 8.21552C5.04384 8.21552 4.85718 8.41663 4.85718 8.6733C4.85718 9.05052 5.3744 9.42663 6.05551 9.55885V9.81997C6.05551 10.1077 6.2894 10.3411 6.57718 10.3411C6.86496 10.3411 7.09884 10.1072 7.09884 9.81997L7.09607 9.5433C7.81607 9.3683 8.24162 8.86441 8.24162 8.17719C8.24218 7.39719 7.45607 7.09385 6.8244 6.84997ZM14.83 8.18663C14.83 7.40663 14.0438 7.1033 13.4122 6.85941C12.9922 6.69719 12.5955 6.54385 12.5955 6.32163C12.5955 5.95552 13.0866 5.93663 13.185 5.93663C13.5322 5.93663 13.7044 6.06663 13.8572 6.18163C13.9744 6.26997 14.095 6.36108 14.2627 6.36108C14.5766 6.36108 14.7194 6.14052 14.7194 5.93552C14.7194 5.52608 14.2183 5.23774 13.6872 5.11663V4.89885C13.6872 4.61108 13.4527 4.37719 13.1655 4.37719C12.8777 4.37719 12.6433 4.61108 12.6433 4.89885V5.13552C12.0083 5.32052 11.6183 5.78774 11.6183 6.37719C11.6183 7.10552 12.3366 7.40441 12.9705 7.66774C13.4244 7.85663 13.8533 8.03496 13.8533 8.3133C13.8533 8.51663 13.5983 8.73663 13.1855 8.73663C12.7688 8.73663 12.53 8.56996 12.3194 8.4233C12.1733 8.32163 12.0355 8.22552 11.8716 8.22552C11.6322 8.22552 11.4455 8.42663 11.4455 8.6833C11.4455 9.06052 11.9627 9.43663 12.6433 9.56885V9.82997C12.6433 10.1172 12.8783 10.3511 13.1661 10.3511C13.4538 10.3511 13.6872 10.1172 13.6872 9.82997L13.6855 9.5533C14.405 9.37719 14.83 8.87385 14.83 8.18663Z" fill="#664500"/>
<path d="M11.65 17.2605C11.65 16.5005 10.8839 16.2044 10.2683 15.9666C9.85886 15.8089 9.47164 15.6589 9.47164 15.4427C9.47164 15.0855 9.94998 15.0677 10.0461 15.0677C10.3844 15.0677 10.5528 15.195 10.7016 15.3066C10.8155 15.3927 10.9339 15.4816 11.0978 15.4816C11.4033 15.4816 11.5428 15.2661 11.5428 15.0666C11.5428 14.6683 11.0544 14.3866 10.5361 14.2683V14.0555C10.5361 13.775 10.3078 13.5466 10.0272 13.5466C9.74664 13.5466 9.51831 13.775 9.51831 14.0555V14.2861C8.89886 14.4661 8.51886 14.9222 8.51886 15.4966C8.51886 16.2066 9.21942 16.4983 9.8372 16.755C10.28 16.9389 10.6978 17.1127 10.6978 17.3839C10.6978 17.5822 10.4489 17.7966 10.0461 17.7966C9.63998 17.7966 9.4072 17.6344 9.20164 17.4905C9.05998 17.3916 8.92553 17.2977 8.76553 17.2977C8.53275 17.2977 8.34998 17.4944 8.34998 17.7444C8.34998 18.1127 8.85386 18.4789 9.51775 18.6077V18.8627C9.51775 19.1427 9.74609 19.3705 10.0272 19.3705C10.3078 19.3705 10.5355 19.1427 10.5355 18.8627L10.5339 18.5927C11.2355 18.4211 11.65 17.93 11.65 17.2605Z" fill="white"/>
</svg>
