<svg width="40" height="36" viewBox="0 0 40 36" fill="none" xmlns="http://www.w3.org/2000/svg">
<path d="M31.6205 35.6095C31.5415 35.6095 31.3043 35.6876 30.83 35.7657C29.7233 35.9219 27.747 36.0781 26.166 35.7657L20.6324 32.9544L19.5256 32.4078L18.9723 32.7202L14.8616 35.4534L14.4664 35.6876C14.3873 35.6876 14.2292 35.6876 13.992 35.7657H13.913C12.6482 35.8438 9.88137 36.0781 8.61655 35.6876C8.45845 35.6095 8.37939 35.4534 8.37939 35.141C8.5375 33.6573 10.6719 29.6746 12.6482 26.4729C14.0711 23.974 15.415 21.9436 15.415 21.9436L15.6521 19.4447L16.2845 11.9479L17.2331 0.859002L17.3122 0.312364C17.3122 0.312364 20.7905 -0.390456 23.0039 0.312364C23.7944 0.70282 25.2964 5.93492 26.7984 12.1822C27.1936 13.9002 27.6679 15.7744 28.0632 17.5705C28.4584 19.4447 28.8537 21.2408 29.249 23.0369C30.5928 29.987 31.6205 35.6095 31.6205 35.6095Z" fill="url(#paint0_linear_394_1017)"/>
<path d="M32.1739 24.7551C32.1739 24.7551 34.1502 34.0479 31.9368 35.5317C31.8577 35.6097 31.7787 35.6097 31.6206 35.6878C31.3834 35.7659 31.1462 35.844 30.9091 35.844C30.0395 35.844 28.8538 35.4536 27.747 34.9069C25.1383 33.7356 22.4506 31.8614 22.4506 31.8614C22.4506 31.8614 21.7391 32.3299 20.7115 33.0327C20.4743 33.1889 20.3162 33.267 20.0791 33.4232C20.0791 33.4232 20.0791 33.4232 20 33.4232C18.3399 34.4384 16.1265 35.5317 14.5455 35.7659C14.3874 35.7659 14.2292 35.844 14.0711 35.844H13.9921C13.6759 35.844 13.4387 35.844 13.2016 35.7659C13.1225 35.6878 12.9644 35.6878 12.8854 35.6097C12.6482 35.4536 12.4901 35.2193 12.4111 34.985C11.5415 33.1889 12.1739 28.972 12.6482 26.5512C12.8063 25.536 13.0435 24.8332 13.0435 24.8332C13.0435 24.8332 9.40712 21.9438 7.11463 19.1325C6.00791 17.7269 5.29644 16.3993 5.45455 15.4622C5.77075 13.9004 8.69565 13.0414 11.4625 12.5729C13.5968 12.2605 15.5731 12.1043 16.2055 12.1043C16.3636 12.1043 16.4427 12.1043 16.4427 12.1043C16.4427 12.1043 18.0237 6.63795 20.0791 3.20194C20.9486 1.71821 21.9763 0.546841 22.8459 0.46875H22.9249C23.083 0.46875 23.1621 0.46875 23.3202 0.546841C26.3241 1.48393 29.17 12.1043 29.17 12.1043C29.17 12.1043 39.4466 12.4167 40.0791 15.4622C40.4743 18.2735 32.1739 24.7551 32.1739 24.7551Z" fill="url(#paint1_linear_394_1017)"/>
<path d="M27.1146 24.755C27.1146 24.755 28.9328 32.4079 27.6679 34.9069C27.5098 35.1411 27.3517 35.3754 27.1936 35.5316C26.9565 35.6878 26.6403 35.7659 26.245 35.7659C24.5849 35.844 21.9762 34.4383 20 33.345C19.6047 33.1108 19.2885 32.9546 18.9723 32.7203C18.1027 32.1737 17.5494 31.7832 17.5494 31.7832C17.5494 31.7832 14.8616 33.6574 12.2529 34.8288C11.4624 35.1411 10.7509 35.4535 10.0395 35.6097C9.40707 35.7659 8.93276 35.7659 8.45845 35.6878C8.30035 35.6097 8.14225 35.6097 7.98414 35.4535C5.84976 33.9698 7.66794 25.1455 7.74699 24.6769C7.74699 24.6769 -0.632458 18.2735 -0.0790984 15.306C0.553313 12.2604 10.83 11.9481 10.83 11.9481C10.83 11.9481 13.992 0.3125 17.0751 0.3125C18.0237 0.3125 19.0513 1.48387 19.9209 3.04569C21.9762 6.55979 23.5573 11.9481 23.5573 11.9481C23.5573 11.9481 24.8221 11.9481 26.5612 12.1823C28.5375 12.4166 30.9881 12.8071 32.6482 13.588C33.6758 14.0565 34.3873 14.6032 34.5454 15.3841C34.9407 17.4145 31.3834 21.0066 29.0118 23.1151C27.9841 24.0522 27.1146 24.755 27.1146 24.755Z" fill="url(#paint2_linear_394_1017)"/>
<g style="mix-blend-mode:multiply">
<path d="M23.6364 11.9478C23.6364 11.9478 27.8261 11.7917 29.6443 11.9478C36.6008 12.4945 38.498 13.6658 38.9723 14.4467C39.5257 15.2277 35.0198 14.5248 34.7035 14.5248C34.3873 14.5248 34.1502 13.4316 30.4348 12.8849C26.7194 12.4945 23.6364 11.9478 23.6364 11.9478Z" fill="white"/>
</g>
<path opacity="0.3" d="M32.1739 24.7547C31.2253 25.0671 28.3004 24.8328 27.9051 24.7547C27.5099 24.6766 33.4387 19.6007 34.5454 17.4922C35.7312 15.3838 39.1304 15.618 39.6838 16.0085C40.2371 16.3989 37.4703 19.9911 35.6521 21.7872C33.913 23.5052 32.1739 24.7547 32.1739 24.7547Z" fill="#B30053"/>
<g style="mix-blend-mode:multiply">
<path d="M31.0671 16.4774C30.1185 16.8678 29.0908 17.2583 27.9051 17.5707C24.3478 18.5859 19.7628 19.2106 15.494 19.4449C12.49 19.601 9.48609 19.4449 7.0355 19.0544C4.2687 18.5859 1.97621 17.8049 0.790442 16.5555C0.474236 16.2431 0.316134 15.8527 0.0789795 15.3841C0.158031 14.8375 0.474236 14.3689 1.0276 14.0566C1.10665 13.9785 1.26475 13.9004 1.3438 13.8223C1.3438 13.8223 1.3438 13.8223 1.42285 13.8223C4.42681 12.1824 10.909 12.0262 10.909 12.0262C10.909 12.0262 14.0711 0.390625 17.1541 0.390625C17.3912 0.390625 17.7074 0.468716 17.9446 0.624898C18.6561 1.01535 19.3675 1.95245 19.9999 3.04572C22.0553 6.55982 23.6363 11.9481 23.6363 11.9481C23.6363 11.9481 24.9011 11.9481 26.6402 12.1824C28.6165 12.4167 31.0671 12.8071 32.7272 13.588C33.0434 14.8375 32.5691 15.8527 31.0671 16.4774Z" fill="white"/>
</g>
<path opacity="0.2" d="M1.50188 17.8046C0.31611 18.2732 3.39911 21.0845 5.92876 22.5682C8.4584 24.0519 28.4584 19.6007 30.2766 19.9912C32.0948 20.3817 35.0197 17.1018 34.5454 15.6962C33.992 14.2905 33.1224 14.1344 33.1224 14.3686C33.1224 14.6029 32.0157 16.6333 29.5651 17.258C27.1936 17.8827 8.37935 19.2103 6.24496 19.4446C4.11058 19.6788 1.65998 17.7266 1.50188 17.8046Z" fill="#DA0553"/>
<g style="mix-blend-mode:multiply">
<path d="M8.53747 35.3754C6.71928 34.9849 6.95644 30.1433 8.06316 28.7377C9.24893 27.4101 23.5572 27.4882 26.245 28.3472C28.9327 29.2062 27.747 34.8288 26.7983 35.3754C26.0078 35.922 18.0236 31.1585 17.3912 31.3147C16.7588 31.4708 12.0948 36.1563 8.53747 35.3754Z" fill="white"/>
</g>
<path d="M24.5849 22.7245L23.4782 23.6616L23.7944 24.9111C24.5058 27.6443 24.9011 30.4556 24.822 32.0174C24.822 32.1736 24.822 32.3298 24.822 32.4859C23.4782 32.0174 21.1066 30.7679 19.1303 29.3623L18.1027 28.6595L17.5493 28.269L15.9683 29.4404C14.4663 30.5337 12.7272 31.5488 11.4624 32.0955C11.0671 32.2517 10.6718 32.4078 10.3556 32.564C10.1185 31.1584 10.4347 28.0347 11.1461 25.0673L11.4624 23.8178L10.2766 22.7245C7.50978 20.538 4.82204 17.7267 4.26868 16.4773C5.29634 15.8525 8.69555 15.2278 11.6995 15.1497L13.6758 15.0716L14.1501 13.3536C15.0197 10.3862 16.2845 7.3406 17.2331 5.70068C17.4703 6.01305 17.6284 6.4035 17.8655 6.87205C18.7351 8.59005 19.7627 11.0109 20.4742 13.3536L21.0276 15.0716L23.0039 15.1497C26.0078 15.2278 29.407 15.8525 30.4347 16.4773C29.9604 17.7267 27.2726 20.538 24.5849 22.7245Z" fill="url(#paint3_linear_394_1017)"/>
<path d="M30.4348 16.4773C29.9605 17.6487 27.668 20.0695 25.2964 22.178C25.0593 22.3341 24.8221 22.5684 24.585 22.7246L23.4783 23.6617L23.7945 24.9111C24.5059 27.6443 24.9012 30.4556 24.8221 32.0174C23.4783 31.3927 21.7391 30.3775 20.2371 29.3623L18.6561 28.191H17.5494L15.9684 29.3623C14.4664 30.4556 12.7273 31.4708 11.4624 32.0174C11.4624 31.7832 11.4624 31.627 11.4624 31.3927C11.4624 31.1584 11.4624 30.8461 11.4624 30.5337C11.5415 29.2062 11.7787 27.4882 12.0949 25.8482C12.1739 25.5359 12.253 25.3016 12.253 24.9892L12.5692 23.7398L11.3834 22.8027C8.61659 20.6161 5.92885 17.8049 5.37549 16.5554C6.40316 15.9307 9.80237 15.3059 12.8063 15.2279L14.7826 15.1498L15.2569 13.4318C15.9684 11.089 16.917 8.6682 17.7866 6.9502C18.6561 8.6682 19.6838 11.089 20.3953 13.4318L20.9486 15.1498L22.9249 15.2279C26.0079 15.2279 29.4071 15.8526 30.4348 16.4773Z" fill="url(#paint4_linear_394_1017)"/>
<path d="M17.4703 28.1909C17.4703 28.1909 18.5771 28.1909 18.9723 28.4252C19.3676 28.7376 22.2134 30.6117 22.2134 30.9241C22.2134 31.2365 19.2885 29.4404 17.4703 28.1909Z" fill="#FFE016"/>
<g style="mix-blend-mode:darken">
<path d="M10.3557 32.4078C9.96046 32.2516 10.751 29.6746 11.0672 29.4403C11.3834 29.2061 11.3043 31.7831 11.3834 31.9393C11.3834 31.9393 10.6719 32.4078 10.3557 32.4078Z" fill="white"/>
</g>
<path opacity="0.5" d="M11.3833 23.5835H12.5691C12.5691 23.5835 11.3833 27.0195 11.2252 27.9566C11.0671 28.8937 10.4347 27.0195 11.3833 23.5835Z" fill="#D42F55"/>
<path opacity="0.5" d="M4.90109 17.5705C4.18963 16.2429 15.0197 16.7115 15.0197 16.7115C15.0197 16.7115 17.2331 9.60521 18.8141 8.82429C18.8141 8.82429 17.4703 5.70065 17.2331 5.62256C16.9959 5.62256 13.6758 14.9935 13.6758 14.9935C13.6758 14.9935 8.85366 14.8373 4.26868 16.3991L4.90109 17.5705Z" fill="#D42F55"/>
<path opacity="0.5" d="M21.0276 15.0718C21.0276 15.0718 29.1699 16.4774 29.8813 17.1802L30.4347 16.4774C30.4347 16.4774 27.9841 15.228 21.0276 15.0718Z" fill="#D42F55"/>
<path opacity="0.3" d="M20 1.17144C18.498 1.17144 20.7114 3.74845 21.7391 6.24736C22.7668 8.5901 27.826 8.66819 27.826 8.66819C27.826 8.66819 25.6917 2.49899 24.3478 1.79617C23.0039 1.01526 20 1.17144 20 1.17144Z" fill="#B30053"/>
<path opacity="0.3" d="M27.1146 35.922C26.7984 35.6877 27.826 35.8439 28.2213 34.1259C28.6166 32.4079 32.411 32.564 32.7272 32.7983C33.1225 33.0326 32.4901 35.141 31.9367 35.5315C31.3043 35.922 27.1146 35.922 27.1146 35.922Z" fill="#B30053"/>
<g style="mix-blend-mode:multiply">
<path d="M28.5375 32.642C28.1422 32.4858 28.1422 28.5031 28.1422 27.7222C28.1422 26.9413 32.2529 27.2537 32.411 27.7222C32.6481 28.1908 32.8062 32.1734 32.5691 32.4077C32.411 32.642 28.8537 32.7201 28.5375 32.642Z" fill="white"/>
</g>
<path opacity="0.5" d="M15.1778 35.4533C16.1265 35.2971 18.1027 34.4381 18.1818 34.1258C18.2608 33.8915 15.9684 33.6572 15.494 33.5791C14.9407 33.501 11.8577 35.2971 11.6205 35.4533C11.3043 35.6095 15.1778 35.4533 15.1778 35.4533Z" fill="white"/>
<path opacity="0.5" d="M17.6284 31.9395C17.2331 32.0956 15.6521 33.0327 15.573 33.267C15.494 33.5013 17.9446 33.8136 18.2608 33.8917C18.577 33.9698 19.9999 33.3451 19.9999 33.3451C19.9999 33.3451 17.7074 31.9395 17.6284 31.9395Z" fill="#D42F55"/>
<path opacity="0.5" d="M35.0988 17.0239C34.7826 17.3363 33.2806 19.1324 33.2806 19.6009C33.2806 20.0695 37.6285 19.5228 37.8656 19.2105C38.1028 18.8981 40.0791 16.3211 39.6048 16.0087C39.2095 15.6964 35.8893 16.0868 35.0988 17.0239Z" fill="#D42F55"/>
<path d="M23.6364 11.9478C23.6364 11.9478 32.4901 12.8068 33.7549 14.5248C35.5731 17.1799 29.8024 22.412 29.8024 22.412C29.8024 22.412 35.5731 17.336 34.7826 14.8371C33.913 12.3382 23.6364 11.9478 23.6364 11.9478Z" fill="#FFE016"/>
<g style="mix-blend-mode:multiply">
<path d="M33.913 13.9783C33.2015 13.6659 34.3083 15.3058 34.1501 16.4772C33.992 17.6486 34.8616 16.1648 34.8616 15.3058C34.7826 14.5249 33.913 13.9783 33.913 13.9783Z" fill="white"/>
</g>
<g style="mix-blend-mode:darken">
<path d="M18.498 1.01517C16.7589 0.39044 17.7865 6.48155 19.6838 10.9327C21.4229 15.1497 23.2411 13.5097 23.6363 12.4165C23.9525 11.2451 20 2.10844 18.498 1.01517Z" fill="white"/>
</g>
<g style="mix-blend-mode:multiply">
<path d="M20.3162 4.99781C19.0514 4.84163 19.7628 8.66809 20.5533 9.99564C21.3438 11.3232 22.4506 10.4642 22.5296 9.29282C22.5296 8.12145 20.7905 5.0759 20.3162 4.99781Z" fill="white"/>
</g>
<g style="mix-blend-mode:multiply">
<path d="M18.2608 0.468755C17.7074 0.624938 19.8418 1.01539 21.5809 1.24967C23.241 1.40585 23.6363 1.48394 23.6363 1.01539C23.6363 0.546846 21.3438 -0.468338 18.2608 0.468755Z" fill="white"/>
</g>
<path d="M27.1146 35.7656C26.9565 35.6094 31.3834 35.0628 31.7786 35.1409C32.2529 35.219 31.2253 35.6875 31.2253 35.6875C31.2253 35.6875 28.3004 36.1561 27.1146 35.7656Z" fill="white"/>
<g style="mix-blend-mode:multiply" opacity="0.5">
<path d="M23.7944 24.911C24.5059 27.6442 24.9011 30.4554 24.8221 32.0173C23.4782 31.3925 21.7391 30.3774 20.2371 29.3622L18.6561 28.1908H17.5494L15.9683 29.3622C14.4664 30.4554 12.7272 31.4706 11.4624 32.0173C11.4624 31.783 11.4624 31.6268 11.4624 31.3925L11.8577 31.0021C11.6996 31.0021 11.6205 30.7678 11.5415 30.4554C11.3043 29.5964 11.3834 27.6442 12.1739 25.77C12.8063 24.2862 13.913 22.8806 15.494 21.9435C20.1581 19.2884 25.3755 22.1778 25.3755 22.1778C25.1383 22.334 24.9011 22.5682 24.664 22.7244L23.5573 23.6615L23.7944 24.911Z" fill="white"/>
</g>
<g style="mix-blend-mode:darken">
<path d="M7.50989 34.2038C7.35179 33.0324 7.74705 32.3296 8.22136 32.3296C8.61661 32.4077 9.16997 34.9847 8.77472 35.2971C8.37946 35.5313 7.58895 34.438 7.50989 34.2038Z" fill="white"/>
</g>
<path opacity="0.8" d="M19.9209 33.3449C18.2608 34.3601 16.0474 35.4533 14.4663 35.6876C14.3082 35.6876 14.1501 35.7657 13.992 35.7657H13.913C12.6482 35.8438 9.88137 36.0781 8.61654 35.6876C8.45844 35.6095 8.30034 35.6095 8.14224 35.4533C6.00785 33.9696 7.82603 25.1453 7.90508 24.6768C7.82603 25.0672 6.79836 32.642 7.74698 34.4381C7.90508 34.6724 8.06318 34.9067 8.37939 35.0629C8.8537 35.2971 9.48611 35.4533 10.1976 35.5314C11.1462 35.6095 12.2529 35.6095 13.2015 35.5314C13.8339 35.4533 14.4663 35.3752 14.9407 35.2971C15.415 35.2191 15.7312 35.141 15.9683 35.0629C16.996 34.9067 19.6047 33.5791 19.9209 33.3449Z" fill="#D42F55"/>
<path opacity="0.8" d="M23.2411 0.390489C23.2411 0.390489 23.083 0.390489 22.9249 0.312398H22.8458C21.9763 0.234307 19.8419 0.078125 18.0237 0.546672C17.7075 0.624763 17.4703 0.702854 17.1541 0.859036C17.0751 0.859036 16.917 0.937127 16.8379 1.01522C12.332 3.8265 11.3834 12.4946 11.3834 12.4946C11.3834 12.4946 3.47824 13.0412 1.50195 13.8222C4.50591 12.1822 10.9881 12.0261 10.9881 12.0261C10.9881 12.0261 14.1502 0.390489 17.2332 0.390489C17.2332 0.390489 20.7114 -0.312331 22.9249 0.390489C23.0039 0.312398 23.083 0.312398 23.2411 0.390489Z" fill="#D42F55"/>
<path d="M32.49 19.9916C32.49 18.8983 29.8813 21.0848 29.7232 21.4753C29.5651 21.8657 29.407 22.4905 29.5651 22.6466C29.5651 22.8809 32.1738 22.2562 32.49 19.9916Z" fill="#DC2C00"/>
<path opacity="0.5" d="M32.253 19.7569C31.5415 19.6788 30.6719 20.4597 30.5929 21.2406C30.5138 22.0215 31.3043 22.0215 32.0158 21.2406C32.6482 20.4597 32.4111 19.7569 32.253 19.7569Z" fill="#D42F55"/>
<path d="M29.7233 21.397C29.7233 21.397 29.7233 22.0217 29.9605 22.1779C30.3557 22.4122 31.1462 22.0998 31.1462 22.0998C31.1462 22.0998 30.1976 22.8026 29.4862 22.8026C28.7747 22.8807 29.7233 21.397 29.7233 21.397Z" fill="#FFBA00"/>
<path d="M29.2489 22.8026C29.0118 22.4902 30.3556 22.4902 30.5137 22.4902C30.5928 22.4121 29.4861 23.0368 29.2489 22.8026Z" fill="white"/>
<path d="M13.3596 34.36C13.2015 34.36 13.5177 33.5791 13.992 33.4229C14.3873 33.2667 15.0197 33.2667 14.9406 33.5791C14.8616 33.8914 14.1501 34.5162 13.3596 34.36Z" fill="#DC2C00"/>
<path d="M13.6759 33.6572C13.3597 34.36 13.834 34.282 14.3083 34.2039C14.3083 34.2039 13.7549 34.5162 13.0435 34.5162C13.0435 34.5162 13.1225 34.0477 13.6759 33.6572Z" fill="#FFBA00"/>
<path d="M13.1225 34.5165C13.0434 34.4384 13.3596 34.2822 13.5968 34.2822C13.7549 34.2822 13.9921 34.3603 13.9921 34.3603C13.9921 34.3603 13.4387 34.5946 13.1225 34.5165Z" fill="white"/>
<path opacity="0.5" d="M14.2292 33.4229C13.5968 33.7352 13.7549 34.2038 14.3083 34.2038C14.8617 34.1257 15.0198 33.6571 14.8616 33.5009C14.7035 33.4229 14.2292 33.4229 14.2292 33.4229Z" fill="#D42F55"/>
<g style="mix-blend-mode:darken">
<path d="M9.01175 20.6162C7.58883 19.9133 9.80227 22.3342 10.4347 22.8808C11.0671 23.3493 11.3833 23.6617 11.3833 23.6617H12.5691C12.5691 23.5836 9.56511 20.8504 9.01175 20.6162Z" fill="white"/>
</g>
<path d="M11.3833 23.5836C11.0671 23.3493 10.909 22.6465 11.2252 22.6465C11.5414 22.6465 12.5691 23.5836 12.5691 23.5836H11.3833Z" fill="white"/>
<path d="M17.4703 28.1909C17.4703 28.1909 18.6561 28.1909 18.9723 28.4252C19.3676 28.6595 20.079 29.4404 20.079 29.4404C20.079 29.4404 18.7352 29.0499 17.4703 28.1909Z" fill="#FFE016"/>
<path opacity="0.8" d="M19.2885 32.9546C19.2885 32.9546 23.7944 34.985 26.1659 35.5316C28.4584 36.0782 31.3833 35.6878 31.3833 35.6878C31.3833 35.6878 28.3794 36.2344 25.7707 35.7659C23.162 35.2973 19.2885 32.9546 19.2885 32.9546Z" fill="#D42F55"/>
<g style="mix-blend-mode:darken">
<path d="M0.237061 15.3837C0.474215 16.6332 2.13429 14.9933 2.52955 14.2904C2.92481 13.5876 0.316112 13.6657 0.237061 15.3837Z" fill="white"/>
</g>
<path d="M23.4783 23.5833C23.4783 23.5833 29.0909 19.7569 30.4348 16.4771C30.4348 16.4771 27.747 20.7721 23.4783 23.5833Z" fill="#FFE016"/>
<path opacity="0.3" d="M12.9644 22.7243C12.411 22.8024 9.88135 20.6158 9.48609 19.6007C9.09084 18.5855 12.6481 19.6007 18.0236 19.2883C23.4782 18.9759 29.5651 16.477 29.407 16.8675C29.328 17.1798 25.9288 20.9282 25.1383 21.1625C24.2687 21.3187 22.5296 20.1473 18.6561 20.2254C14.8616 20.3035 13.6758 22.6462 12.9644 22.7243Z" fill="#B30053"/>
<defs>
<linearGradient id="paint0_linear_394_1017" x1="23.384" y1="38.6165" x2="10.4751" y2="2.71338" gradientUnits="userSpaceOnUse">
<stop stop-color="#FF5900"/>
<stop offset="0.2263" stop-color="#FE6800"/>
<stop offset="0.662" stop-color="#FA9300"/>
<stop offset="0.8492" stop-color="#F66A00"/>
<stop offset="1" stop-color="#F63F00"/>
</linearGradient>
<linearGradient id="paint1_linear_394_1017" x1="30.1706" y1="36.1766" x2="17.8934" y2="2.03056" gradientUnits="userSpaceOnUse">
<stop stop-color="#FF5900"/>
<stop offset="0.2263" stop-color="#FE6800"/>
<stop offset="0.662" stop-color="#FA9300"/>
<stop offset="0.8492" stop-color="#F66A00"/>
<stop offset="1" stop-color="#F63F00"/>
</linearGradient>
<linearGradient id="paint2_linear_394_1017" x1="24.937" y1="36.3522" x2="12.5452" y2="1.88731" gradientUnits="userSpaceOnUse">
<stop stop-color="#FFEA34"/>
<stop offset="0.6341" stop-color="#FF8100"/>
<stop offset="0.6955" stop-color="#FFA400"/>
<stop offset="1" stop-color="#FFBA00"/>
</linearGradient>
<linearGradient id="paint3_linear_394_1017" x1="23.4044" y1="32.9087" x2="14.0266" y2="6.82657" gradientUnits="userSpaceOnUse">
<stop stop-color="#FFBA00"/>
<stop offset="0.2095" stop-color="#FE6800"/>
<stop offset="1" stop-color="#D41B00"/>
</linearGradient>
<linearGradient id="paint4_linear_394_1017" x1="23.8041" y1="32.3376" x2="15.0056" y2="7.86666" gradientUnits="userSpaceOnUse">
<stop offset="0.0418994" stop-color="#FF9000"/>
<stop offset="1" stop-color="#E13E00"/>
</linearGradient>
</defs>
</svg>
