<svg width="40" height="36" viewBox="0 0 40 36" fill="none" xmlns="http://www.w3.org/2000/svg">
<path d="M31.6371 35.6881C31.5582 35.6881 31.3215 35.766 30.8481 35.844C29.7436 35.9998 27.7712 36.1556 26.1933 35.844L20.6706 33.0388L19.5661 32.4933L19.0138 32.7271L14.9112 35.4543L14.5168 35.6881C14.4379 35.6881 14.2801 35.6881 14.0434 35.766H13.9645C12.7022 35.844 9.94082 36.0777 8.5996 35.6881C8.44181 35.6102 8.36292 35.4543 8.36292 35.1427C8.52071 33.6621 10.6509 29.6881 12.6233 26.4154C14.0434 23.9219 15.3846 21.8959 15.3846 21.8959L15.6213 19.4024L16.2525 11.9219L17.1992 0.779018L17.2781 0.233563C17.2781 0.233563 20.7495 -0.467735 23.0375 0.233563C23.8264 0.623174 25.3254 5.84395 26.8245 12.0777C27.2189 13.8699 27.6923 15.6621 28.0868 17.4543C28.4813 19.3245 28.8757 21.1167 29.2702 22.9089C30.5325 29.9998 31.6371 35.6881 31.6371 35.6881Z" fill="url(#paint0_linear_394_1097)"/>
<path d="M32.1893 24.7013C32.1893 24.7013 34.1617 33.9741 31.9526 35.4546C31.8737 35.5325 31.7948 35.5325 31.6371 35.6104C31.4004 35.6884 31.1637 35.7663 30.927 35.7663C30.0591 35.7663 28.8757 35.3767 27.7712 34.8312C25.1676 33.6624 22.4852 31.7922 22.4852 31.7922C22.4852 31.7922 21.7751 32.2598 20.6706 32.9611C20.4339 33.1169 20.2761 33.1948 20.0394 33.3507C20.0394 33.3507 20.0394 33.3507 19.9605 33.3507C18.3037 34.3637 16.0946 35.4546 14.5167 35.6884C14.3589 35.6884 14.2012 35.7663 14.0434 35.7663H13.9645C13.6489 35.7663 13.4122 35.7663 13.1755 35.6884C13.0966 35.6104 12.9388 35.6104 12.8599 35.5325C12.6232 35.3767 12.4655 35.1429 12.3866 34.9091C11.5187 33.1169 12.1499 28.9091 12.6232 26.4935C12.781 25.4806 13.0177 24.7793 13.0177 24.7793C13.0177 24.7793 9.30964 21.8961 7.10057 19.0909C5.99603 17.6884 5.28597 16.3637 5.44376 15.4286C5.75934 13.8702 8.75737 13.013 11.4398 12.5455C13.57 12.2338 15.5424 12.078 16.1735 12.078C16.3313 12.078 16.4102 12.078 16.4102 12.078C16.4102 12.078 17.9881 6.62341 20.1183 3.11692C20.9862 1.55848 22.0118 0.467571 22.8797 0.389648H22.9586C23.1163 0.389648 23.1952 0.389648 23.353 0.467571C26.3511 1.40264 29.1913 12.078 29.1913 12.078C29.1913 12.078 39.5266 12.3896 40.0789 15.4286C40.5522 18.3117 32.1893 24.7013 32.1893 24.7013Z" fill="url(#paint1_linear_394_1097)"/>
<path d="M27.14 24.7013C27.14 24.7013 28.9546 32.3377 27.6923 34.8312C27.5345 35.065 27.3767 35.2987 27.2189 35.4546C26.9822 35.6104 26.6666 35.6884 26.2721 35.6884C24.6153 35.7663 22.0118 34.3637 20.0394 33.2728C19.6449 33.039 19.3293 32.8832 19.0138 32.6494C18.1459 32.1039 17.5936 31.7143 17.5936 31.7143C17.5936 31.7143 14.9112 33.5845 12.3076 34.7533C11.5187 35.065 10.8086 35.3767 10.0986 35.5325C9.46741 35.6884 8.99403 35.6884 8.52066 35.6104C8.36287 35.5325 8.20508 35.5325 8.04729 35.3767C5.91711 33.8961 7.73171 25.013 7.8106 24.6234C7.8106 24.6234 -0.552317 18.3117 -4.86206e-05 15.3507C0.631115 12.3117 10.8875 12 10.8875 12C10.8875 12 14.0433 0.389648 17.1203 0.389648C18.067 0.389648 19.0927 1.55848 19.9605 3.11692C22.0118 6.54549 23.6686 12 23.6686 12C23.6686 12 24.9309 12 26.6666 12.2338C28.639 12.4676 31.0848 12.8572 32.7416 13.6364C33.7672 14.1039 34.4773 14.6494 34.6351 15.4286C35.1084 17.4546 31.4792 21.039 29.1124 23.1429C27.9289 24.078 27.14 24.7013 27.14 24.7013Z" fill="url(#paint2_linear_394_1097)"/>
<g style="mix-blend-mode:multiply">
<path d="M23.6686 11.9999C23.6686 11.9999 27.85 11.8441 29.6646 11.9999C36.6074 12.5454 38.5009 13.7142 39.0532 14.4934C39.6055 15.2727 35.1084 14.5714 34.7928 14.5714C34.4773 14.5714 34.2406 13.4025 30.5325 12.935C26.7455 12.4675 23.6686 11.9999 23.6686 11.9999Z" fill="white"/>
</g>
<path opacity="0.5" d="M32.1894 24.701C31.2426 25.0127 28.3235 24.7789 27.929 24.701C27.5345 24.6231 33.4517 19.4802 34.5562 17.4543C35.7397 15.3504 39.1322 15.5841 39.6844 15.9737C40.2367 16.3634 37.4754 19.9478 35.6608 21.74C33.9251 23.5322 32.1894 24.701 32.1894 24.701Z" fill="#6E5066"/>
<g style="mix-blend-mode:multiply">
<path d="M31.0848 16.5195C30.1381 16.9091 29.1124 17.2987 27.929 17.6104C24.3787 18.6234 19.8028 19.2468 15.4635 19.4806C12.4655 19.6364 9.46746 19.4806 6.9428 19.0909C4.10256 18.6234 1.89349 17.8442 0.710059 16.5974C0.394477 16.2858 0.236686 15.8961 0 15.4286C0.157791 14.8052 0.473373 14.4156 1.02564 14.026C1.10454 13.9481 1.26233 13.8702 1.34122 13.7922C1.34122 13.7922 1.34122 13.7922 1.42012 13.7922C4.41815 12.1559 10.8876 12 10.8876 12C10.8876 12 14.0434 0.389648 17.1203 0.389648C17.357 0.389648 17.6726 0.467571 17.9093 0.623415C18.6193 1.01303 19.3294 1.94809 19.9606 3.039C22.0118 6.54549 23.6686 12 23.6686 12C23.6686 12 24.931 12 26.6667 12.2338C28.6391 12.4676 31.0848 12.8572 32.7416 13.6364C33.0572 14.8832 32.5838 15.8961 31.0848 16.5195Z" fill="white"/>
</g>
<path opacity="0.2" d="M1.49892 17.7663C0.315491 18.3117 3.39241 21.039 5.91707 22.5195C8.44172 24 28.4023 19.5585 30.2958 19.9481C32.1104 20.3377 35.0295 17.065 34.5561 15.6624C34.0039 14.2598 33.136 14.1039 33.136 14.3377C33.136 14.5714 32.0315 16.6753 29.5857 17.2208C27.1399 17.9221 8.44172 19.3247 6.23265 19.4805C4.10247 19.6364 1.65671 17.6883 1.49892 17.7663Z" fill="#7F6593"/>
<g style="mix-blend-mode:multiply">
<path d="M8.59953 35.3764C6.78493 34.9868 7.02162 30.0777 8.12615 28.753C9.30959 27.4284 23.5897 27.5063 26.351 28.3634C29.1123 29.2206 27.85 34.831 26.9033 35.3764C25.9565 35.9219 17.9881 31.1686 17.3569 31.3245C16.7258 31.4803 12.0709 36.1556 8.59953 35.3764Z" fill="white"/>
</g>
<path d="M24.6153 22.675L23.5107 23.6101L23.8263 24.8568C24.5364 27.5841 24.9309 30.3893 24.852 31.9477C24.852 32.1036 24.852 32.2594 24.852 32.4153C23.5107 31.9477 21.1439 30.701 19.1715 29.2984L18.1459 28.5971L17.5936 28.2075L16.0157 29.3763C14.5167 30.4672 12.781 31.4802 11.5186 32.0257C11.1242 32.1815 10.7297 32.3373 10.4141 32.4932C10.1774 31.0906 10.493 27.9737 11.2031 24.9347L11.5186 23.688L10.2563 22.675C7.49497 20.4932 4.81252 17.688 4.26025 16.4412C5.28589 15.8179 8.6784 15.1945 11.6764 15.1166L13.6488 15.0386L14.1222 13.3244C14.99 10.3633 16.2524 7.32435 17.1991 5.68799C17.4358 5.99968 17.5936 6.38929 17.8303 6.85682C18.6981 8.57111 19.7238 11.0646 20.5127 13.4023L21.065 15.1166L23.0374 15.1945C26.0354 15.2724 29.4279 15.8958 30.5324 16.5192C29.9802 17.688 27.2977 20.5711 24.6153 22.675Z" fill="url(#paint3_linear_394_1097)"/>
<path d="M30.4536 16.4413C29.9802 17.6102 27.6922 20.0258 25.2465 22.1297C25.0098 22.2855 24.7731 22.5193 24.5364 22.6751L23.4319 23.6102L23.7475 24.8569C24.4575 27.5842 24.852 30.3894 24.7731 31.9478C23.4319 31.3245 21.6962 30.3115 20.1972 29.2985L18.6193 28.1297H17.5147L15.9368 29.2985C14.4378 30.3894 12.7021 31.4024 11.4398 31.9478C11.4398 31.7141 11.4398 31.5582 11.4398 31.3245C11.4398 31.0907 11.4398 30.779 11.4398 30.4673C11.5187 29.1426 11.7554 27.4284 12.1498 25.792C12.2287 25.4803 12.3076 25.2465 12.3076 24.9349L12.6232 23.6881L11.4398 22.753C8.67844 20.5712 5.99599 17.766 5.44373 16.5193C6.46937 15.8959 9.86187 15.2725 12.8599 15.1946L14.8323 15.1167L15.3057 13.4024C16.0157 11.0647 16.9625 8.64914 17.8303 6.85693C18.6982 8.57122 19.7238 11.0647 20.5128 13.4024L21.065 15.1167L23.0374 15.1946C26.0354 15.2725 29.4279 15.818 30.4536 16.4413Z" fill="url(#paint4_linear_394_1097)"/>
<path d="M17.5148 28.1299C17.5148 28.1299 18.6193 28.1299 19.0138 28.3637C19.4083 28.6753 22.2485 30.5455 22.2485 30.8572C22.2485 31.2468 19.3294 29.4546 17.5148 28.1299Z" fill="#EBF0FF"/>
<g style="mix-blend-mode:multiply">
<path d="M10.3352 32.4155C9.94076 32.2597 10.7297 29.6882 11.0453 29.4545C11.3609 29.2207 11.282 31.7921 11.3609 31.948C11.4398 31.948 10.6508 32.4155 10.3352 32.4155Z" fill="white"/>
</g>
<path opacity="0.5" d="M11.4398 23.6104H12.6232C12.6232 23.6104 11.4398 27.0389 11.282 27.974C11.0453 28.9091 10.493 26.961 11.4398 23.6104Z" fill="#7E527C"/>
<path opacity="0.5" d="M4.97031 17.5324C4.18136 16.2078 14.99 16.6753 14.99 16.6753C14.99 16.6753 17.1991 9.58438 18.8559 8.80516C18.8559 8.80516 17.5147 5.61035 17.278 5.61035C17.0413 5.61035 13.6488 15.0389 13.6488 15.0389C13.6488 15.0389 8.83619 14.8831 4.26025 16.4415L4.97031 17.5324Z" fill="#7E527C"/>
<path opacity="0.5" d="M21.0651 15.1167C21.0651 15.1167 29.1913 16.5193 29.9014 17.2206L30.4536 16.5193C30.4536 16.4414 28.0079 15.2725 21.0651 15.1167Z" fill="#7E527C"/>
<path opacity="0.5" d="M19.9605 1.16848C18.4615 1.16848 20.6706 3.81783 21.6962 6.23342C22.7218 8.649 27.7712 8.649 27.7712 8.649C27.7712 8.649 25.641 2.49316 24.2997 1.79186C23.0374 1.01264 19.9605 1.16848 19.9605 1.16848Z" fill="#6E5066"/>
<path opacity="0.5" d="M27.14 35.9217C26.8244 35.6879 27.85 35.8438 28.2445 34.1295C28.639 32.3373 32.426 32.571 32.8204 32.8048C33.2149 33.0386 32.5838 35.1425 32.0315 35.5321C31.3214 35.9217 27.14 35.9217 27.14 35.9217Z" fill="#6E5066"/>
<g style="mix-blend-mode:multiply">
<path d="M28.5601 32.6493C28.1656 32.4935 28.1656 28.5195 28.1656 27.7402C28.1656 26.961 32.2682 27.2727 32.5049 27.7402C32.7416 28.2078 32.8994 32.1818 32.6627 32.4156C32.426 32.6493 28.8757 32.7273 28.5601 32.6493Z" fill="white"/>
</g>
<path opacity="0.5" d="M15.1479 35.4541C16.0947 35.2983 18.067 34.4412 18.1459 34.1295C18.2248 33.8957 15.9369 33.6619 15.3846 33.584C14.8323 33.5061 11.7554 35.2983 11.5187 35.4541C11.3609 35.61 15.1479 35.4541 15.1479 35.4541Z" fill="white"/>
<path opacity="0.5" d="M17.5937 31.9478C17.1203 32.1036 15.6213 33.0387 15.5424 33.2724C15.4635 33.5062 17.9093 33.8179 18.2248 33.8958C18.5404 33.9737 19.9605 33.3504 19.9605 33.3504C19.9605 33.3504 17.6726 31.9478 17.5937 31.9478Z" fill="#6E5066"/>
<path opacity="0.5" d="M35.1084 16.9868C34.7928 17.2985 33.2938 19.0907 33.2938 19.5583C33.2938 20.0258 37.6331 19.4803 37.8698 19.1686C38.1064 18.857 40.0788 16.2855 39.6055 15.9738C39.211 15.6621 35.8974 16.1297 35.1084 16.9868Z" fill="#6E5066"/>
<path d="M23.6686 12C23.6686 12 32.5838 12.8571 33.7672 14.5714C35.5818 17.2208 29.8224 22.4416 29.8224 22.4416C29.8224 22.4416 35.5818 17.3766 34.7928 14.8831C33.925 12.3117 23.6686 12 23.6686 12Z" fill="#EED6DD"/>
<path d="M33.925 13.9479C33.2149 13.6362 34.3194 15.2726 34.1617 16.5193C34.0039 17.6881 34.8717 16.2076 34.8717 15.3505C34.7928 14.4933 33.925 13.9479 33.925 13.9479Z" fill="white"/>
<g style="mix-blend-mode:multiply">
<path d="M18.5404 1.01263C16.8047 0.389254 17.8304 6.46718 19.7239 10.9087C21.5385 15.1165 23.2742 13.4802 23.6686 12.3893C23.9842 11.2983 19.9605 2.10354 18.5404 1.01263Z" fill="white"/>
</g>
<g style="mix-blend-mode:multiply">
<path d="M20.355 4.98657C19.0927 4.83072 19.8027 8.6489 20.5917 10.0515C21.3806 11.3762 22.4852 10.519 22.5641 9.3502C22.5641 8.10345 20.8284 5.06449 20.355 4.98657Z" fill="white"/>
</g>
<g style="mix-blend-mode:multiply">
<path d="M18.3037 0.467436C17.7514 0.62328 19.8816 1.01289 21.6173 1.24666C23.2741 1.4025 23.6686 1.4025 23.6686 1.01289C23.6686 0.545358 21.3806 -0.467629 18.3037 0.467436Z" fill="white"/>
</g>
<path d="M27.14 35.7662C26.9822 35.6104 31.4003 35.0649 31.8737 35.1428C32.3471 35.2207 31.3214 35.6883 31.3214 35.6883C31.3214 35.6883 28.3234 36.1558 27.14 35.7662Z" fill="white"/>
<g style="mix-blend-mode:multiply" opacity="0.5">
<path d="M23.8264 24.8567C24.5365 27.584 24.9309 30.3892 24.852 31.9476C23.5108 31.3242 21.7751 30.3113 20.2761 29.2983L18.6982 28.1294H17.5937L16.0158 29.2983C14.5167 30.3892 12.781 31.4022 11.5187 31.9476C11.5187 31.7139 11.5187 31.558 11.5187 31.3242L11.9132 30.9346C11.7554 30.9346 11.6765 30.7009 11.5976 30.3892C11.3609 29.532 11.4398 27.584 12.3077 25.7139C12.9388 24.2333 14.0434 22.8307 15.7002 21.8957C20.355 19.2463 25.5621 22.1294 25.5621 22.1294C25.3254 22.2853 25.0887 22.5191 24.852 22.6749L23.7475 23.61L23.8264 24.8567Z" fill="white"/>
</g>
<g style="mix-blend-mode:multiply">
<path d="M7.49505 34.2075C7.33726 33.0387 7.73174 32.2595 8.20511 32.3374C8.59959 32.4153 9.15186 34.9867 8.75738 35.2984C8.3629 35.5322 7.57395 34.4413 7.49505 34.2075Z" fill="white"/>
</g>
<path opacity="0.8" d="M19.9605 33.3505C18.3037 34.3635 16.0946 35.4544 14.5167 35.6882C14.3589 35.6882 14.2011 35.7661 14.0433 35.7661H13.9644C12.7021 35.844 9.94075 36.0778 8.59953 35.6882C8.44174 35.6103 8.28395 35.6103 8.12616 35.4544C5.99598 33.9739 7.81058 25.0908 7.88947 24.7012C7.81058 25.1687 6.78493 32.7271 7.65278 34.5194C7.81058 34.7531 7.96837 34.9869 8.28395 35.1427C8.75732 35.3765 9.38849 35.5323 10.0985 35.6103C11.0453 35.6882 12.1498 35.6882 13.0966 35.6103C13.7277 35.5323 14.3589 35.4544 14.8323 35.3765C15.3056 35.2986 15.6212 35.2207 15.8579 35.1427C17.0413 34.909 19.566 33.5843 19.9605 33.3505Z" fill="#7E527C"/>
<path opacity="0.8" d="M23.1952 0.389325C23.1952 0.389325 23.0374 0.389325 22.8796 0.311403H22.8007C21.9329 0.233481 19.8027 0.0776367 17.9092 0.545169C17.6725 0.623091 17.3569 0.778935 17.1202 0.856857C17.0413 0.856857 16.8836 0.93478 16.8047 1.0127C12.3865 3.8179 11.3609 12.4672 11.3609 12.4672C11.3609 12.4672 3.47133 13.0127 1.42004 13.7919C4.41807 12.1556 10.8875 11.9997 10.8875 11.9997C10.8875 11.9997 14.0433 0.389325 17.1202 0.389325C17.1202 0.389325 20.5916 -0.311974 22.8796 0.389325C22.9585 0.311403 23.1163 0.311403 23.1952 0.389325Z" fill="#7E527C"/>
<path d="M32.426 20.0256C32.426 18.9347 29.8225 21.1165 29.6647 21.5061C29.5069 21.8957 29.3491 22.5191 29.5069 22.6749C29.5858 22.8308 32.1893 22.2853 32.426 20.0256Z" fill="#63495F"/>
<path opacity="0.5" d="M32.2682 19.792C31.5582 19.7141 30.6903 20.4933 30.6114 21.2725C30.5325 22.0518 31.3215 22.0518 32.0315 21.2725C32.6627 20.4154 32.426 19.792 32.2682 19.792Z" fill="#5B3952"/>
<path d="M29.6647 21.4282C29.6647 21.4282 29.6647 22.0516 29.9014 22.2074C30.2959 22.4412 31.0848 22.1295 31.0848 22.1295C31.0848 22.1295 30.1381 22.8308 29.428 22.8308C28.718 22.9087 29.6647 21.4282 29.6647 21.4282Z" fill="#A89AA6"/>
<path d="M29.2701 22.8312C29.0334 22.5195 30.3747 22.5195 30.5324 22.5195C30.6113 22.4416 29.5068 23.0649 29.2701 22.8312Z" fill="white"/>
<path d="M13.3333 34.3636C13.1755 34.3636 13.4911 33.5844 13.9644 33.4285C14.3589 33.2727 14.9901 33.2727 14.9112 33.5844C14.9112 33.8961 14.2011 34.5194 13.3333 34.3636Z" fill="#63495F"/>
<path d="M13.6489 33.6621C13.3333 34.3634 13.8067 34.3634 14.28 34.2076C14.28 34.2076 13.7278 34.5193 13.0177 34.5193C13.0177 34.5193 13.0966 34.0517 13.6489 33.6621Z" fill="#A89AA6"/>
<path d="M13.0966 34.5194C13.0177 34.4415 13.3333 34.2856 13.57 34.2856C13.7277 34.2856 13.9644 34.3636 13.9644 34.3636C13.9644 34.3636 13.4911 34.5973 13.0966 34.5194Z" fill="white"/>
<path opacity="0.5" d="M14.2011 33.4282C13.5699 33.7399 13.7277 34.2074 14.28 34.2074C14.8323 34.1295 14.99 33.662 14.8323 33.5061C14.7534 33.4282 14.2011 33.4282 14.2011 33.4282Z" fill="#5B3952"/>
<g style="mix-blend-mode:multiply">
<path d="M8.99398 20.6491C7.57387 19.9478 9.78294 22.3634 10.4141 22.9088C11.0453 23.3764 11.3608 23.688 11.3608 23.688H12.5443C12.5443 23.6101 9.54625 20.8829 8.99398 20.6491Z" fill="white"/>
</g>
<path d="M11.4398 23.61C11.1242 23.3762 10.9664 22.597 11.282 22.6749C11.5976 22.6749 12.6232 23.61 12.6232 23.61H11.4398Z" fill="white"/>
<path opacity="0.8" d="M19.3293 32.9609C19.3293 32.9609 23.9053 35.0648 26.1933 35.5324C28.4812 36.0778 31.4004 35.6882 31.4004 35.6882C31.4004 35.6882 28.4023 36.2337 25.7988 35.7661C23.1952 35.2986 19.3293 32.9609 19.3293 32.9609Z" fill="#7E527C"/>
<g style="mix-blend-mode:multiply">
<path d="M0.236694 15.4282C0.473381 16.6749 2.20908 15.0386 2.52466 14.3373C2.91914 13.636 0.31559 13.636 0.236694 15.4282Z" fill="white"/>
</g>
<path d="M23.5107 23.6102C23.5107 23.6102 29.1123 19.7921 30.4535 16.4414C30.4535 16.4414 27.7711 20.805 23.5107 23.6102Z" fill="#EED6DD"/>
<path opacity="0.5" d="M13.0177 23.0646C12.4655 23.1425 9.94081 20.9607 9.54634 19.9477C9.15186 18.9347 12.7022 19.9477 18.067 19.636C23.5108 19.3243 29.5858 16.8308 29.5069 17.2204C29.428 17.5321 26.0355 21.3503 25.2465 21.5061C24.3787 21.662 22.643 20.4931 18.7771 20.5711C14.9112 20.649 13.7278 22.9866 13.0177 23.0646Z" fill="#6E5066"/>
<defs>
<linearGradient id="paint0_linear_394_1097" x1="23.3904" y1="38.6195" x2="10.4824" y2="2.7118" gradientUnits="userSpaceOnUse">
<stop stop-color="#728EE3"/>
<stop offset="0.2989" stop-color="#836888"/>
<stop offset="0.5726" stop-color="#E1D9E0"/>
<stop offset="0.8492" stop-color="#937D9A"/>
<stop offset="1" stop-color="#6D636A"/>
</linearGradient>
<linearGradient id="paint1_linear_394_1097" x1="30.1789" y1="36.1795" x2="17.9026" y2="2.02911" gradientUnits="userSpaceOnUse">
<stop stop-color="#728EE3"/>
<stop offset="0.2989" stop-color="#836888"/>
<stop offset="0.5726" stop-color="#E1D9E0"/>
<stop offset="0.8492" stop-color="#937D9A"/>
<stop offset="1" stop-color="#6D636A"/>
</linearGradient>
<linearGradient id="paint2_linear_394_1097" x1="24.9439" y1="36.3551" x2="12.5529" y2="1.88591" gradientUnits="userSpaceOnUse">
<stop stop-color="#DECDD1"/>
<stop offset="0.1468" stop-color="#DBC9CE"/>
<stop offset="0.2783" stop-color="#D3BFC4"/>
<stop offset="0.4041" stop-color="#C5ACB4"/>
<stop offset="0.5255" stop-color="#B2939E"/>
<stop offset="0.6341" stop-color="#9B7584"/>
<stop offset="0.6955" stop-color="#AE959A"/>
<stop offset="1" stop-color="#DDD4EA"/>
</linearGradient>
<linearGradient id="paint3_linear_394_1097" x1="23.4109" y1="32.9111" x2="14.0337" y2="6.82563" gradientUnits="userSpaceOnUse">
<stop stop-color="#FFF1DE"/>
<stop offset="0.2095" stop-color="#A690A5"/>
<stop offset="1" stop-color="#5C475E"/>
</linearGradient>
<linearGradient id="paint4_linear_394_1097" x1="23.8107" y1="32.3399" x2="15.0128" y2="7.86595" gradientUnits="userSpaceOnUse">
<stop stop-color="#AD99A0"/>
<stop offset="0.9944" stop-color="#655167"/>
</linearGradient>
</defs>
</svg>
