<svg width="44" height="31" viewBox="0 0 44 31" fill="none" xmlns="http://www.w3.org/2000/svg">
<path d="M11.1381 3.40039C11.1381 3.40039 9.55825 3.95396 9.16327 5.0611C9.00528 5.61468 8.61031 9.48968 7.42539 10.8341C6.24047 12.1785 11.8491 8.9361 11.8491 8.9361L11.1381 3.40039Z" fill="url(#paint0_linear_394_1256)"/>
<path d="M0.157959 9.25247C2.13282 8.22441 3.55473 10.755 6.39853 11.0713C9.24234 11.3086 9.63731 3.79584 11.1382 3.40043C12.6391 3.00502 19.4326 11.9412 22.7504 12.8902L22.3554 25.7015C22.3554 25.7015 10.1113 25.6224 8.2944 24.9106C6.39853 24.1989 0.157959 9.25247 0.157959 9.25247Z" fill="url(#paint1_linear_394_1256)"/>
<path d="M43.9209 9.17323C43.9209 9.17323 42.578 12.4156 40.9192 15.9743C39.9712 18.0304 38.9443 20.1656 37.9964 21.8263C37.0484 23.487 36.2585 24.7523 35.7845 24.9105C34.2046 25.5431 24.9622 25.7013 22.3554 25.7013H22.0394C21.8025 25.7013 21.6445 25.7013 21.6445 25.7013L21.5655 23.487L21.3285 12.8901C21.5655 12.811 21.8025 12.7319 22.0394 12.5737C23.4613 11.862 25.2782 10.1222 27.0951 8.30334C29.7019 5.69364 32.1508 3.08395 32.9407 3.32119C34.4416 3.7166 33.8886 11.4666 36.7324 11.1503C39.5762 10.913 42.4201 8.30334 43.9209 9.17323Z" fill="url(#paint2_linear_394_1256)"/>
<path d="M36.2584 11.2295C34.0466 9.48968 34.9155 6.32641 34.5206 5.29835C33.9676 3.87488 32.9407 3.40039 32.9407 3.40039C32.9407 3.40039 33.5726 3.87488 34.0466 7.35447C34.5206 10.755 36.2584 11.2295 36.2584 11.2295Z" fill="url(#paint3_linear_394_1256)"/>
<path opacity="0.5" d="M40.9191 15.8954C39.9712 17.9515 38.9443 20.0867 37.9963 21.7474L22.4344 23.4081L21.6445 23.4872L13.271 24.3571L4.66061 16.7653C3.71268 13.6811 9.40029 9.72702 16.9838 8.46171C20.0646 7.90814 23.5403 7.82906 27.0161 8.38263C27.806 8.5408 28.596 8.69896 29.3069 8.85712C35.3895 10.4388 38.9443 13.3648 40.9191 15.8954Z" fill="#DE376D"/>
<path d="M44 9.33128C43.763 7.82873 39.3393 13.7599 36.1005 14.4716C32.7827 15.1833 27.2531 2.13486 22.5134 0.553223C17.7737 2.21394 12.4021 15.1833 9.16333 14.5507C5.84556 13.8389 0.236941 7.9869 -4.24343e-05 9.48945C-0.158032 10.9129 4.73963 21.7471 4.73963 21.7471C12.0861 23.4078 22.4344 23.9614 22.4344 23.9614C22.4344 23.9614 32.8617 23.4078 40.1292 21.7471C40.2082 21.668 44.2369 10.8338 44 9.33128Z" fill="url(#paint4_linear_394_1256)"/>
<path d="M4.73962 21.6679L4.97661 28.1526C4.97661 28.1526 11.6122 30.8414 22.4344 30.8414C33.2567 30.8414 40.3662 27.9154 40.3662 27.9154L40.2082 21.5889C40.2082 21.6679 22.9874 24.9103 4.73962 21.6679Z" fill="url(#paint5_linear_394_1256)"/>
<path d="M4.10767 20.2445C4.10767 20.2445 3.08074 20.719 3.15973 21.1935C3.15973 21.668 4.81862 22.9333 4.81862 22.9333C4.81862 22.9333 21.8815 27.3619 40.2082 22.5379C40.2082 22.5379 41.5511 21.1144 41.7091 20.5609C41.8671 20.0073 40.8402 19.9282 40.8402 19.9282C40.8402 19.9282 33.6517 23.0915 22.0394 23.0915C10.4272 23.1706 4.10767 20.2445 4.10767 20.2445Z" fill="url(#paint6_linear_394_1256)"/>
<path d="M36.2584 11.2293C37.6014 11.7829 41.1561 9.88493 41.8671 10.0431C42.578 10.2013 37.1274 13.9972 35.4685 13.9972C33.8096 13.9181 32.3087 11.7038 32.3087 11.7038C32.3087 11.7038 33.8886 14.3926 35.6265 14.7089C38.7863 15.3416 43.6839 9.5686 43.9209 9.17319C44.1579 8.6987 43.368 8.77778 41.3931 9.41044C39.2602 10.1222 38.3123 11.2293 36.2584 11.2293Z" fill="url(#paint7_linear_394_1256)"/>
<path d="M7.26747 10.913C5.76657 11.7038 3.71271 10.2013 3.00176 10.3594C2.29081 10.5176 7.26747 14.2344 8.84736 14.1554C10.5062 14.0763 12.8761 11.862 12.8761 11.862C12.8761 11.862 11.0592 14.4717 9.32133 14.788C6.16154 15.4207 0.473932 9.72679 0.236949 9.33139C-3.53158e-05 8.8569 0.789911 8.8569 2.84377 9.48955C4.81864 10.1222 5.13461 11.0712 7.26747 10.913Z" fill="url(#paint8_linear_394_1256)"/>
<path d="M15.4039 8.22426C15.4039 8.22426 20.9336 1.34416 22.9874 1.81865C25.0413 2.29314 28.359 6.3263 28.359 6.3263C28.359 6.3263 24.3303 0.157932 22.5134 -0.000231071C20.6966 -0.158394 15.4039 8.22426 15.4039 8.22426Z" fill="url(#paint9_linear_394_1256)"/>
<path d="M17.3787 22.1429C12.955 20.1658 19.7486 12.1786 22.2764 11.1505C24.8042 10.1225 32.0717 19.5332 28.6749 21.273C24.5672 23.4872 17.3787 22.1429 17.3787 22.1429Z" fill="url(#paint10_linear_394_1256)"/>
<path d="M16.8258 20.2449C16.4308 17.0816 19.8276 12.6531 22.7504 12.2576C25.6732 11.8622 29.7019 17.9515 29.149 20.2449C28.675 22.6173 17.1418 22.9337 16.8258 20.2449Z" fill="url(#paint11_linear_394_1256)"/>
<g style="mix-blend-mode:multiply">
<path d="M19.0376 19.7705C18.8006 18.5842 21.6444 15.0256 22.9874 14.6301C24.4093 14.3138 26.8581 17.8725 26.8581 19.296C26.8581 20.7985 19.2746 21.0358 19.0376 19.7705Z" fill="white"/>
</g>
<g style="mix-blend-mode:soft-light" opacity="0.75">
<path d="M17.0627 19.217C17.3787 19.7706 18.5636 19.7706 19.0376 19.0588C19.4326 18.3471 22.8294 14.7093 22.9873 14.1558C23.1453 13.6022 22.8294 12.2578 22.8294 12.2578C22.8294 12.2578 18.0897 13.444 17.0627 19.217Z" fill="white"/>
</g>
<path opacity="0.8" d="M17.2997 21.0355C16.8258 20.561 19.1956 20.0074 19.1956 20.0074C19.1956 20.0074 20.8545 20.7192 22.9084 20.6401C24.9622 20.561 26.3051 19.7702 26.6211 19.6911C26.9371 19.612 28.596 20.4819 28.596 20.7982C28.675 21.1146 26.2261 22.1426 22.8294 22.1426C19.4326 22.1426 17.2997 21.0355 17.2997 21.0355Z" fill="#B82774"/>
<path d="M16.8258 21.7473C16.8258 21.7473 20.0646 22.3799 22.9874 22.3009C27.6481 22.1427 29.4649 20.6401 29.4649 20.6401C29.4649 20.6401 29.07 22.5381 22.9874 22.6963C17.7737 22.6963 16.8258 21.7473 16.8258 21.7473Z" fill="url(#paint12_linear_394_1256)"/>
<path d="M19.7485 14.1558C19.7485 14.1558 19.5115 15.7374 20.6174 15.9746C21.7234 16.2119 22.5923 14.4721 22.7503 13.9185C22.9083 13.365 22.7503 12.2578 22.7503 12.2578C22.7503 12.2578 20.6174 13.0486 19.7485 14.1558Z" fill="white"/>
<path d="M26.779 18.7426C26.7 18.6635 26.0681 19.8497 26.2261 19.8497C26.384 19.8497 27.253 19.7706 27.332 19.8497C27.411 19.9288 27.016 18.9798 26.779 18.7426Z" fill="white"/>
<path opacity="0.7" d="M4.8186 22.9335C4.8186 22.9335 23.6193 29.7345 40.2082 22.5381C40.2082 22.5381 25.5942 27.283 4.8186 22.9335Z" fill="#DE376D"/>
<g style="mix-blend-mode:multiply">
<path d="M26.1472 23.0918C23.4614 24.4361 28.675 24.1989 32.2298 23.8826C35.7845 23.5662 37.9964 21.5892 38.0754 21.2729C38.1544 20.8775 26.1472 23.0918 26.1472 23.0918Z" fill="white"/>
</g>
<path opacity="0.2" d="M7.66239 23.1707C5.45054 22.459 7.03043 21.4309 12.4021 22.5381C17.8527 23.6452 11.5331 24.436 7.66239 23.1707Z" fill="#E02774"/>
<g style="mix-blend-mode:soft-light" opacity="0.5">
<path d="M14.219 10.992C12.4021 13.2063 10.1113 21.668 14.061 20.8772C15.4829 20.5609 17.5367 11.6247 22.1974 10.1221C26.8581 8.54049 30.8078 18.9002 32.2297 19.691C33.6516 20.4818 34.9156 16.9231 34.9156 16.0532C34.9156 15.1833 25.9892 2.13488 22.5134 2.53029C19.1166 3.00478 19.7486 4.34917 14.219 10.992Z" fill="white"/>
</g>
<path opacity="0.2" d="M3.08069 13.0485C3.08069 12.7321 7.3464 14.9464 8.68931 16.8444C10.0322 18.6633 10.9802 21.6684 11.0591 21.9847C11.1381 22.301 7.50439 21.6684 6.63545 21.0357C5.68751 20.2449 3.08069 13.0485 3.08069 13.0485Z" fill="#E02774"/>
<path opacity="0.2" d="M7.03047 28.4691C5.84555 27.9156 6.6355 24.6732 6.87248 24.2778C7.10947 23.8824 16.3518 25.3059 17.7737 25.6222C19.1956 25.9385 19.3536 30.0508 19.2746 30.5253C19.1166 30.9997 9.87428 29.6554 7.03047 28.4691Z" fill="#E02774"/>
<g style="mix-blend-mode:multiply">
<path d="M26.8581 30.7627C25.3572 30.9208 27.885 26.0969 28.438 25.8596C28.9119 25.6224 35.9425 23.8826 36.5744 24.1198C37.2064 24.3571 37.5223 28.9438 37.5223 28.9438C37.5223 28.9438 31.5978 30.3673 26.8581 30.7627Z" fill="white"/>
</g>
<path d="M23.3823 0.790583C22.3554 0.474257 23.9353 3.08395 25.5152 4.03293C27.1741 4.90283 24.9622 1.34415 23.3823 0.790583Z" fill="white"/>
<g style="mix-blend-mode:multiply">
<path d="M37.2854 14.5509C36.1004 14.709 39.8132 11.8621 41.0771 11.2294C42.341 10.5968 40.6031 14.1555 37.2854 14.5509Z" fill="white"/>
</g>
<path d="M32.9407 21.9844C31.9138 22.3798 34.7576 22.6961 35.9425 22.4589C37.1274 22.1425 37.3644 21.4308 37.5224 21.1936C37.7594 21.0354 32.9407 21.9844 32.9407 21.9844Z" fill="white"/>
<g style="mix-blend-mode:multiply">
<path d="M3.47576 20.8774C3.15978 21.3519 5.13465 22.4591 5.76661 22.5382C6.39856 22.5382 7.42549 21.9846 7.58348 21.7473C7.74147 21.5101 3.87073 20.2448 3.47576 20.8774Z" fill="white"/>
</g>
<g style="mix-blend-mode:multiply">
<path d="M5.37164 23.329C4.97667 23.1708 4.89767 27.9948 5.45064 28.0739C6.0036 28.153 6.63556 24.8316 6.71455 24.1989C6.79355 23.5662 5.37164 23.329 5.37164 23.329Z" fill="white"/>
</g>
<g style="mix-blend-mode:multiply">
<path d="M0.789917 11.6246C0.789917 10.5966 5.13462 18.0302 5.4506 19.2164C5.76658 20.4818 4.34467 20.4818 4.0287 19.9282C3.71272 19.4537 0.789917 12.2573 0.789917 11.6246Z" fill="white"/>
</g>
<path opacity="0.3" d="M38.7863 20.3237C36.9694 20.64 38.8653 15.0252 41.7091 12.2574C44.4739 9.48952 40.5242 19.7701 40.3662 20.0074C40.2082 20.2446 38.7863 20.3237 38.7863 20.3237Z" fill="#FF6F74"/>
<path opacity="0.3" d="M37.5224 23.5663C36.9695 23.9617 37.5224 28.2321 37.8384 28.4694C38.1544 28.7857 39.8133 27.9158 40.0503 27.6786C40.3662 27.3622 40.2082 23.4872 40.0503 23.0918C39.8923 22.6964 37.5224 23.5663 37.5224 23.5663Z" fill="#FF6F74"/>
<path opacity="0.7" d="M4.89758 25.7012C4.89758 25.7012 8.05737 31.4741 23.3823 30.6042C38.7863 29.8134 40.2082 25.7803 40.2082 25.7803L40.2872 27.9945C40.2872 27.9945 23.4613 34.4792 4.97658 28.1527L4.89758 25.7012Z" fill="#DE376D"/>
<path d="M0.789948 9.41064C0.31598 9.96422 3.31778 12.2576 3.79174 12.5739C4.26571 12.8902 5.05566 12.9693 5.21365 12.9693C5.37164 12.9693 1.81688 9.48973 0.789948 9.41064Z" fill="white"/>
<path d="M24.0143 22.4589C23.8563 21.9844 27.0951 21.9844 27.0951 21.9844C27.0951 21.9844 25.1202 22.8543 24.0143 22.4589Z" fill="white"/>
<path opacity="0.8" d="M15.9569 20.1654C15.9569 20.1654 18.8797 12.6527 22.7504 12.4154C26.6211 12.1782 29.544 19.8491 29.544 19.8491C29.544 17.2394 25.7522 10.8338 22.9874 10.4384C20.2226 10.1221 15.7989 17.6348 15.9569 20.1654Z" fill="#D12774"/>
<path opacity="0.7" d="M4.10771 20.2448C4.10771 20.2448 20.2226 26.4132 40.8402 20.0076L41.8671 17.0815C41.8671 17.0815 35.2316 23.0127 22.4345 22.6963C9.63733 22.38 3.23877 18.3468 3.23877 18.3468L4.10771 20.2448Z" fill="#DE376D"/>
<defs>
<linearGradient id="paint0_linear_394_1256" x1="9.5208" y1="11.1136" x2="9.5208" y2="3.3724" gradientUnits="userSpaceOnUse">
<stop offset="0.0502793" stop-color="#F33C00"/>
<stop offset="1" stop-color="#FF4F04"/>
</linearGradient>
<linearGradient id="paint1_linear_394_1256" x1="11.4303" y1="25.7026" x2="11.4303" y2="3.36121" gradientUnits="userSpaceOnUse">
<stop offset="0.0502793" stop-color="#FF3F00"/>
<stop offset="1" stop-color="#FF7C04"/>
</linearGradient>
<linearGradient id="paint2_linear_394_1256" x1="32.5948" y1="25.7041" x2="32.5948" y2="3.3499" gradientUnits="userSpaceOnUse">
<stop offset="0.0502793" stop-color="#FF3F00"/>
<stop offset="1" stop-color="#FF7C04"/>
</linearGradient>
<linearGradient id="paint3_linear_394_1256" x1="34.5711" y1="11.192" x2="34.5711" y2="3.36164" gradientUnits="userSpaceOnUse">
<stop offset="0.0502793" stop-color="#F33C00"/>
<stop offset="1" stop-color="#FF4F04"/>
</linearGradient>
<linearGradient id="paint4_linear_394_1256" x1="-4.24346e-05" y1="12.1938" x2="44.009" y2="12.1938" gradientUnits="userSpaceOnUse">
<stop stop-color="#FF9600"/>
<stop offset="1" stop-color="#FFA900"/>
</linearGradient>
<linearGradient id="paint5_linear_394_1256" x1="4.75282" y1="26.3059" x2="40.3472" y2="26.3059" gradientUnits="userSpaceOnUse">
<stop stop-color="#FF9600"/>
<stop offset="1" stop-color="#FFA900"/>
</linearGradient>
<linearGradient id="paint6_linear_394_1256" x1="3.09337" y1="22.3756" x2="41.6804" y2="22.3756" gradientUnits="userSpaceOnUse">
<stop stop-color="#FF9600"/>
<stop offset="1" stop-color="#FFA900"/>
</linearGradient>
<linearGradient id="paint7_linear_394_1256" x1="38.1041" y1="14.7561" x2="38.1041" y2="8.86406" gradientUnits="userSpaceOnUse">
<stop stop-color="#FFDE00"/>
<stop offset="1" stop-color="#FFE834"/>
</linearGradient>
<linearGradient id="paint8_linear_394_1256" x1="6.4464" y1="14.8013" x2="6.4464" y2="8.92317" gradientUnits="userSpaceOnUse">
<stop stop-color="#FFDE00"/>
<stop offset="1" stop-color="#FFE834"/>
</linearGradient>
<linearGradient id="paint9_linear_394_1256" x1="21.8917" y1="8.21856" x2="21.8917" y2="-0.000231075" gradientUnits="userSpaceOnUse">
<stop stop-color="#FFDE00"/>
<stop offset="1" stop-color="#FFE834"/>
</linearGradient>
<linearGradient id="paint10_linear_394_1256" x1="22.7642" y1="22.5273" x2="22.7642" y2="11.0275" gradientUnits="userSpaceOnUse">
<stop offset="0.0502793" stop-color="#FF4B00"/>
<stop offset="1" stop-color="#FF7204"/>
</linearGradient>
<linearGradient id="paint11_linear_394_1256" x1="22.9996" y1="22.1394" x2="22.9996" y2="12.2372" gradientUnits="userSpaceOnUse">
<stop stop-color="#DE0086"/>
<stop offset="1" stop-color="#FF003B"/>
</linearGradient>
<linearGradient id="paint12_linear_394_1256" x1="16.7903" y1="21.6253" x2="29.3847" y2="21.6253" gradientUnits="userSpaceOnUse">
<stop stop-color="#FFDE00"/>
<stop offset="1" stop-color="#FFE834"/>
</linearGradient>
</defs>
</svg>
