<svg width="18" height="18" viewBox="0 0 18 18" fill="none" xmlns="http://www.w3.org/2000/svg">
<path opacity="0.4" fill-rule="evenodd" clip-rule="evenodd" d="M5.041 15.5539C5.40597 15.5539 5.70262 15.8505 5.70262 16.2155C5.70262 16.5805 5.40597 16.8763 5.041 16.8763C4.67603 16.8763 4.38025 16.5805 4.38025 16.2155C4.38025 15.8505 4.67603 15.5539 5.041 15.5539Z" stroke="#212121" stroke-width="1.2" stroke-linecap="round" stroke-linejoin="round"/>
<path opacity="0.4" fill-rule="evenodd" clip-rule="evenodd" d="M14.7728 15.5539C15.1377 15.5539 15.4344 15.8505 15.4344 16.2155C15.4344 16.5805 15.1377 16.8763 14.7728 16.8763C14.4078 16.8763 14.1111 16.5805 14.1111 16.2155C14.1111 15.8505 14.4078 15.5539 14.7728 15.5539Z" stroke="#212121" stroke-width="1.2" stroke-linecap="round" stroke-linejoin="round"/>
<path d="M1 1.2229L2.79891 1.53425L3.63177 11.4568C3.69923 12.2654 4.37469 12.8864 5.18593 12.8864H14.6233C15.3982 12.8864 16.0555 12.3173 16.1671 11.5493L16.9878 5.87758C17.089 5.17791 16.5467 4.55175 15.8402 4.55175H3.08777" stroke="#212121" stroke-width="1.2" stroke-linecap="round" stroke-linejoin="round"/>
<path opacity="0.4" d="M10.8383 7.74829H13.2365" stroke="#212121" stroke-width="1.2" stroke-linecap="round" stroke-linejoin="round"/>
</svg>
