<svg width="19" height="16" viewBox="0 0 19 16" fill="none" xmlns="http://www.w3.org/2000/svg">
<path d="M1 8.1999C1 5.19304 1 3.68961 1.89488 2.68587C2.03801 2.52532 2.19576 2.37685 2.36634 2.24214C3.43281 1.3999 5.03021 1.3999 8.225 1.3999H10.775C13.9698 1.3999 15.5672 1.3999 16.6337 2.24214C16.8042 2.37685 16.962 2.52532 17.1051 2.68587C18 3.68961 18 5.19304 18 8.1999C18 11.2068 18 12.7102 17.1051 13.7139C16.962 13.8745 16.8042 14.0229 16.6337 14.1577C15.5672 14.9999 13.9698 14.9999 10.775 14.9999H8.225C5.03021 14.9999 3.43281 14.9999 2.36634 14.1577C2.19576 14.0229 2.03801 13.8745 1.89488 13.7139C1 12.7102 1 11.2068 1 8.1999Z" stroke="#212121" stroke-width="1.2" stroke-linecap="round" stroke-linejoin="round"/>
<path opacity="0.4" d="M7.79999 11.5999H9.07499" stroke="#212121" stroke-width="1.2" stroke-miterlimit="10" stroke-linecap="round" stroke-linejoin="round"/>
<path opacity="0.4" d="M11.625 11.5999L14.6 11.5999" stroke="#212121" stroke-width="1.2" stroke-miterlimit="10" stroke-linecap="round" stroke-linejoin="round"/>
<path d="M1 5.6499H18" stroke="#212121" stroke-width="1.2" stroke-linejoin="round"/>
</svg>
