<svg width="18" height="17" viewBox="0 0 18 17" fill="none" xmlns="http://www.w3.org/2000/svg">
<path fill-rule="evenodd" clip-rule="evenodd" d="M14.0655 15.5408C15.6871 15.5408 17 14.2271 17 12.6063V10.2712C15.9276 10.2712 15.0627 9.40632 15.0627 8.33475C15.0627 7.26232 15.9276 6.39832 17 6.39832L16.9983 4.06059C16.9983 2.43983 15.6854 1.1261 14.0646 1.1261H3.93535C2.31459 1.1261 1.00086 2.43983 1.00086 4.06059L1 6.47356C2.07157 6.47356 2.93643 7.26232 2.93643 8.33475C2.93643 9.40632 2.07157 10.2712 1 10.2712V12.6063C1 14.2271 2.31286 15.5408 3.93362 15.5408H14.0655Z" stroke="#212121" stroke-width="1.3" stroke-linecap="round" stroke-linejoin="round"/>
<path opacity="0.4" fill-rule="evenodd" clip-rule="evenodd" d="M8.99958 9.86515L10.5044 10.6565C10.6454 10.73 10.8106 10.6107 10.7838 10.4541L10.4958 8.77715L11.7144 7.59142C11.8285 7.47985 11.7654 7.28699 11.608 7.26364L9.92498 7.01888L9.17168 5.49326C9.10163 5.35055 8.89839 5.35055 8.82747 5.49326L8.07417 7.01888L6.39201 7.26364C6.2346 7.28699 6.17147 7.47985 6.28563 7.59142L7.50336 8.77715L7.21536 10.4541C7.18855 10.6107 7.35374 10.73 7.49471 10.6565L8.99958 9.86515Z" stroke="#212121" stroke-width="1.3" stroke-linecap="round" stroke-linejoin="round"/>
</svg>
