<svg width="301" height="226" viewBox="0 0 301 226" fill="none" xmlns="http://www.w3.org/2000/svg">
<path d="M164.798 23.0521C183.686 20.6038 202.574 18.0048 221.462 15.5941C224.998 16.1591 228.798 16.9501 231.432 19.5491C233.313 21.3948 233.652 24.1821 233.69 26.7058C233.69 48.2888 233.69 69.9094 233.69 91.4924C233.614 103.659 233.84 115.787 233.577 127.954C231.696 128.632 231.846 130.929 232.072 132.549C232.185 133.98 233.012 135.148 233.915 136.165C233.953 136.994 233.991 137.822 234.066 138.651C233.652 138.425 233.238 138.237 232.824 138.011C232.034 137.483 231.206 136.918 230.228 136.768C230.379 100.306 230.228 63.8828 230.303 27.4214C230.341 25.0861 229.438 22.6378 227.557 21.2064C225.939 19.9258 223.832 19.4361 221.8 19.6998C219.054 20.0388 216.307 20.4531 213.56 20.8674C213.41 22.2988 213.447 23.8054 213.109 25.1991C212.657 26.6681 211.002 27.0448 209.647 27.1578C200.504 28.1371 191.362 29.1164 182.181 30.0958C180.45 30.2464 178.682 30.6231 176.914 30.4724C176.123 30.4348 175.484 29.7944 175.296 29.0788C175.032 27.9488 175.145 26.7811 174.957 25.6511C174.581 24.7094 173.339 24.9731 172.549 24.9731C169.84 25.2744 167.056 25.2744 164.384 25.8018C161.224 26.5928 159.456 30.0204 159.531 33.1091C159.531 64.6361 159.531 96.1631 159.531 127.69C158.59 127.351 157.687 127.012 156.709 126.786C156.972 125.091 156.859 123.358 156.859 121.663C156.897 98.9128 156.822 76.1621 156.897 53.4491C157.01 51.9424 156.897 50.4358 156.784 48.9291C156.972 43.1661 156.822 37.4031 156.859 31.6401C156.859 29.3424 157.8 27.0448 159.38 25.3874C160.772 23.9184 162.804 23.3158 164.798 23.0521ZM196.14 23.5041C193.092 24.0691 189.932 23.9561 186.922 24.8601C187.035 25.2744 187.148 25.6888 187.26 26.0654C187.787 26.3668 188.427 26.1784 188.991 26.1408C192.114 25.6888 195.275 25.3874 198.397 25.0108C199.15 24.9354 199.827 24.6718 200.354 24.1068C199.376 22.7131 197.532 23.4664 196.14 23.5041Z" fill="#C6E1DD"/>
<path d="M156.859 146.147C157.649 146.674 158.514 147.088 159.455 147.277C159.379 154.961 159.53 162.645 159.379 170.329C158.439 168.219 157.536 166.148 156.633 164.038C157.047 158.087 156.595 152.136 156.859 146.147Z" fill="#C6E1DD"/>
<path d="M160.697 194.209C161.11 194.774 161.487 195.377 161.901 195.942C162.126 196.281 162.39 196.658 162.615 196.997C163.481 196.771 164.346 196.582 165.249 196.356C166.528 197.411 168.259 197.373 169.839 197.562C187.373 199.633 204.906 201.818 222.439 203.852C222.514 205.208 222.665 206.526 222.778 207.845C222.552 207.845 222.063 207.807 221.837 207.769C216.156 206.941 210.437 206.376 204.718 205.66C194.032 204.379 183.384 203.099 172.737 201.856C168.41 201.479 163.556 200.914 160.396 197.524C160.584 197.449 160.922 197.336 161.073 197.26C161.073 196.997 161.035 196.432 161.035 196.168C160.96 195.528 160.809 194.85 160.697 194.209Z" fill="#C6E1DD"/>
<path d="M221.46 15.6316C224.734 14.9913 228.308 15.142 231.281 16.7616C233.576 18.0423 235.419 20.114 236.247 22.6376C237.301 25.538 237 28.6643 237.037 31.6776C237.037 64.2593 237 96.841 237.075 129.423C236.661 129.573 236.209 129.724 235.796 129.875C235.081 129.234 234.291 128.632 233.613 127.954C233.877 115.825 233.613 103.659 233.726 91.4923C233.726 69.9093 233.726 48.2886 233.726 26.7056C233.726 24.182 233.35 21.3946 231.469 19.549C228.76 16.9876 224.997 16.1966 221.46 15.6316Z" fill="#B6D5D1"/>
<path d="M196.139 23.504C197.531 23.4663 199.375 22.713 200.353 24.1066C199.864 24.6716 199.149 24.973 198.397 25.0106C195.274 25.425 192.113 25.6886 188.99 26.1406C188.426 26.1783 187.786 26.3666 187.26 26.0653C187.147 25.651 186.996 25.2366 186.921 24.86C189.893 23.956 193.091 24.1066 196.139 23.504Z" fill="#B6D5D1"/>
<path d="M236.435 135.073C236.548 134.884 236.849 134.545 236.962 134.357C237 136.391 237.075 138.463 236.962 140.534C236.774 140.534 236.36 140.534 236.134 140.572C236.097 139.065 235.833 137.596 235.532 136.127C235.833 135.788 236.172 135.449 236.435 135.073Z" fill="#B6D5D1"/>
<path d="M127.549 27.6096C128.038 24.3326 128.264 20.7166 130.408 18.0046C130.672 19.9633 130.898 21.9596 131.424 23.8806C129.543 28.1746 129.543 33.0713 130.032 37.6666C129.882 37.6666 129.618 37.6666 129.505 37.6666L129.43 37.29C129.054 35.595 128.565 33.9 127.474 32.5063C127.549 30.849 127.511 29.2293 127.549 27.6096Z" fill="#CCE2DF"/>
<path d="M221.724 19.7373C223.756 19.4736 225.863 20.001 227.481 21.244C229.362 22.713 230.265 25.1236 230.228 27.459C230.152 63.9203 230.303 100.344 230.152 136.805C229.626 138.237 229.475 139.743 229.588 141.212C228.647 141.815 227.97 142.719 227.519 143.736C227.519 143.585 227.481 143.322 227.443 143.171V143.02C228.384 141.438 229.212 139.517 228.534 137.672C228.346 136.881 227.406 137.069 226.766 136.994C226.239 136.24 225.637 135.299 224.584 135.336C223.154 136.353 222.966 138.387 223.267 139.969C223.493 141.514 224.584 142.644 225.487 143.811C225.562 143.962 225.675 144.226 225.75 144.376C224.885 144.188 224.057 143.962 223.229 143.698C222.176 144.715 221.837 146.147 221.762 147.578C220.746 148.181 220.031 149.122 219.805 150.29C219.241 152.023 220.106 153.642 220.859 155.149C220.144 155.036 219.203 154.622 218.79 155.488C217.774 157.371 219.128 159.405 220.332 160.837C219.768 161.213 218.94 161.515 219.203 162.343C219.617 163.963 221.198 164.829 222.477 165.696C221.724 165.733 220.972 165.771 220.257 165.922C219.918 167.089 220.219 168.332 220.295 169.5V169.801C220.934 181.139 221.724 192.477 222.326 203.814C204.793 201.78 187.26 199.596 169.727 197.524C168.146 197.336 166.453 197.373 165.136 196.319C169.501 195.302 173.903 194.247 178.267 193.268C179.246 193.004 180.299 192.929 181.202 192.439C181.202 192.025 181.202 191.61 181.165 191.234C180.751 190.593 180.149 190.028 179.321 190.028C175.935 189.765 172.511 189.802 169.125 189.501C168.41 190.33 168.033 191.723 166.829 191.987C167.281 191.121 167.845 190.292 168.41 189.463C167.958 189.463 167.507 189.426 167.055 189.426C166.378 190.405 165.738 191.46 164.76 192.175C165.061 191.121 165.738 190.254 166.378 189.388C166.039 189.35 165.362 189.313 165.023 189.275C164.384 190.179 163.819 191.121 163.029 191.912C162.916 191.874 162.691 191.836 162.578 191.836C163.029 190.895 163.707 190.066 164.309 189.2C162.728 189.049 161.148 188.861 159.605 188.597C159.342 187.919 159.116 187.241 158.853 186.563C158.702 186.149 158.514 185.697 158.364 185.282C160.471 184.529 162.54 183.7 164.534 182.646C164.346 181.478 164.083 180.31 163.631 179.18C163.481 179.143 163.105 179.067 162.954 178.992C161.712 176.092 160.471 173.191 159.267 170.291C159.417 162.607 159.267 154.923 159.342 147.239C159.53 147.239 159.944 147.239 160.132 147.277C160.283 148.557 160.433 149.951 161.411 150.893C162.503 152.136 164.271 152.362 165.851 152.362C180.901 152.625 195.951 153.19 211.001 153.454C212.356 153.454 213.785 153.077 214.651 151.985C215.742 150.817 215.591 149.085 215.629 147.616C215.554 144.226 215.704 140.836 215.591 137.446C215.516 134.96 213.033 133.34 210.7 133.491C210.663 131.909 210.926 130.138 209.91 128.745C209.007 127.389 207.352 126.635 205.734 126.748C190.608 127.163 175.483 127.615 160.358 128.029C160.019 127.916 159.681 127.765 159.342 127.652C159.342 96.1253 159.342 64.5983 159.342 33.0713C159.229 29.945 160.998 26.555 164.196 25.764C166.905 25.2743 169.651 25.2743 172.36 24.9353C173.15 24.9353 174.392 24.6716 174.768 25.6133C174.994 26.7433 174.881 27.911 175.107 29.041C175.295 29.7943 175.935 30.397 176.725 30.4346C178.493 30.5853 180.224 30.2086 181.992 30.058C191.135 29.0786 200.278 28.0993 209.459 27.12C210.813 27.007 212.469 26.5926 212.92 25.1613C213.259 23.73 213.221 22.261 213.372 20.8296C216.231 20.5283 218.978 20.0763 221.724 19.7373ZM224.396 32.5816C205.395 34.691 186.394 36.612 167.431 38.6836C165.738 38.9096 163.97 38.872 162.314 39.3616C161.675 39.8136 161.487 40.68 161.487 41.4333C161.524 67.0466 161.487 92.66 161.524 118.273C161.524 119.78 161.411 121.249 161.562 122.756C161.637 123.471 162.089 124.375 162.954 124.3C166.19 124.338 169.463 124.262 172.737 124.225C176.838 123.622 181.014 124.187 185.115 123.66C188.501 123.321 191.963 123.773 195.349 123.321C199.074 122.982 202.837 123.396 206.561 122.906C209.684 122.643 212.807 122.944 215.93 122.643C218.564 122.304 221.235 122.417 223.869 122.379C224.998 122.341 226.202 122.53 227.255 122.078C228.196 121.588 228.309 120.383 228.271 119.441C228.233 91.191 228.271 62.941 228.271 34.691C228.271 34.126 228.196 33.4856 227.707 33.0713C226.917 32.092 225.487 32.5063 224.396 32.5816Z" fill="#EEF6F5"/>
<path d="M131.462 23.8807C132.515 21.922 134.208 19.9257 136.654 20.001C136.127 21.4324 135.036 22.6377 134.66 24.1444C134.321 25.2744 134.246 26.442 134.284 27.6474C131.763 30.2087 130.182 33.8624 130.521 37.4784L130.408 37.7044H129.994C129.543 33.0337 129.543 28.1747 131.462 23.8807Z" fill="#E6F9F6"/>
<path d="M117.578 28.1747C120.024 27.12 122.77 28.589 124.802 29.945C125.743 30.736 126.608 31.6023 127.474 32.4687C128.527 33.8623 129.054 35.5573 129.43 37.2523C128 37.2147 126.533 37.403 125.141 37.064C124.614 36.5743 124.238 35.9717 123.824 35.4067C124.087 35.1053 124.351 34.8417 124.614 34.5403C123.448 32.5063 121.604 30.9243 119.572 29.7567C118.82 29.38 118.18 28.815 117.578 28.1747Z" fill="#E6F9F6"/>
<path d="M56.0987 21.1687C66.4832 21.0557 76.9053 21.1687 87.2898 21.1311C88.7196 21.2064 90.2246 20.8297 91.5791 21.3571C91.8801 22.3741 91.7672 23.4287 91.7672 24.4834C91.6543 32.7324 91.9177 40.9814 91.6543 49.2304C89.585 49.5317 87.478 49.3434 85.4086 49.3811C78.147 49.3811 70.8477 49.3811 63.5861 49.3811C61.0652 49.3434 58.582 49.4941 56.0611 49.2681C55.9482 41.1321 56.0987 32.9961 55.9858 24.8601C55.9858 23.6171 56.0235 22.3741 56.0987 21.1687ZM60.99 25.6511C60.8018 31.1504 61.0276 36.6497 60.8771 42.1867C60.8395 43.1661 60.9147 44.1454 61.1028 45.0871C67.5743 45.2754 74.0835 45.1247 80.555 45.1624C82.5115 45.0871 84.468 45.3131 86.4245 45.0494C87.1017 44.7481 86.8007 43.8817 86.876 43.3167C86.7631 37.4784 86.9888 31.6024 86.7631 25.7641C85.7096 25.6134 84.6185 25.5381 83.565 25.5757C76.04 25.6134 68.515 25.4627 60.99 25.6511Z" fill="#D1E6E3"/>
<path d="M134.322 27.5719C136.541 25.6132 139.514 23.8429 142.561 24.2196C142.674 25.0106 141.696 25.2742 141.207 25.6886C139.138 26.7432 137.407 28.4006 136.504 30.5476C135.262 31.1879 134.058 31.9789 133.042 32.9959C131.838 34.2389 131.274 35.8962 130.559 37.4029C130.183 33.7869 131.763 30.1332 134.322 27.5719Z" fill="#CFF4EF"/>
<path d="M124.351 25.086C124.463 25.0483 124.652 25.0106 124.764 24.973C125.818 25.6886 126.646 26.668 127.549 27.572C127.473 29.1916 127.549 30.849 127.473 32.4686C126.608 31.6023 125.743 30.736 124.802 29.945C125.103 28.3253 124.689 26.7056 124.351 25.086Z" fill="#CDF3ED"/>
<path d="M60.9903 25.6511C68.5153 25.4627 76.0403 25.6511 83.5653 25.5757C84.6188 25.5381 85.7099 25.6134 86.7634 25.7641C86.9892 31.6024 86.7634 37.4784 86.8763 43.3167C86.7634 43.8817 87.0644 44.7481 86.4248 45.0494C84.5059 45.3131 82.5118 45.0871 80.5553 45.1624C74.0838 45.0871 67.5747 45.2754 61.1032 45.0871C60.9527 44.1077 60.8398 43.1661 60.8774 42.1867C60.9903 36.6497 60.7645 31.1504 60.9903 25.6511Z" fill="#E3F1EF"/>
<path d="M136.503 30.5477C138.874 29.7567 141.696 28.9281 144.066 30.1711C143.803 30.9244 142.824 30.8867 142.185 31.2257C139.927 32.2051 137.82 33.5987 135.789 34.9547C136.052 35.2184 136.315 35.4821 136.541 35.7457C135.977 36.3107 135.412 36.8757 134.886 37.4784C133.418 37.4407 131.913 37.5914 130.446 37.6291L130.559 37.4031C131.274 35.8587 131.838 34.2014 133.042 32.9961C134.058 31.9791 135.262 31.1881 136.503 30.5477Z" fill="#CDE3E0"/>
<path d="M224.395 32.5817C225.487 32.5063 226.916 32.092 227.744 33.0337C228.233 33.4103 228.271 34.0883 228.308 34.6533C228.308 62.9033 228.308 91.1533 228.308 119.403C228.308 120.345 228.233 121.513 227.293 122.04C226.239 122.53 225.035 122.304 223.906 122.341C221.273 122.379 218.601 122.304 215.967 122.605C212.845 122.906 209.684 122.605 206.599 122.869C202.874 123.321 199.111 122.944 195.387 123.283C192 123.773 188.539 123.283 185.153 123.622C181.051 124.149 176.875 123.584 172.774 124.187C169.501 124.262 166.227 124.338 162.991 124.262C162.126 124.375 161.675 123.471 161.599 122.718C161.449 121.249 161.562 119.742 161.562 118.236C161.524 92.6223 161.562 67.009 161.524 41.3957C161.524 40.6423 161.675 39.776 162.352 39.324C164.007 38.8343 165.776 38.872 167.469 38.646C186.394 36.612 205.395 34.691 224.395 32.5817ZM197.531 42.6387C197.004 42.2243 196.44 41.8477 195.913 41.471C195.499 41.9983 195.123 42.5257 194.747 43.0907C194.408 42.601 194.032 42.1113 193.693 41.6593C192.941 41.9607 192.414 42.601 192 43.2413C191.474 42.8647 190.909 42.5633 190.307 42.262C189.479 44.183 189.517 46.7443 190.872 48.364C190.796 48.5523 190.683 48.9667 190.608 49.155C189.78 49.1927 188.802 49.042 188.163 49.72C186.469 51.2643 186.168 54.6167 188.351 55.8597C187.899 58.3457 187.786 61.2837 189.479 63.3553C190.345 64.4477 191.812 64.41 193.016 64.184C193.016 64.4477 193.054 64.9373 193.054 65.201C193.016 65.5023 192.941 66.0673 192.903 66.331C192.151 66.67 191.474 67.0843 190.872 67.6117C190.345 69.2313 191.173 72.0187 188.877 72.4706L188.99 72.5083C187.561 72.5083 186.281 73.3746 185.228 74.2786C183.422 75.8983 182.782 78.2713 181.729 80.3806C181.428 80.9833 181.127 81.586 180.863 82.1887C180.826 82.4146 180.713 82.829 180.638 83.055C180.337 83.5823 180.036 84.1097 179.735 84.6747C179.584 84.637 179.321 84.524 179.17 84.4863C179.509 81.7367 179.772 78.9493 180.487 76.275C180.638 75.823 180.6 75.371 180.449 74.919C181.127 74.2033 181.879 73.4876 182.444 72.659C183.083 71.642 182.857 70.286 182.331 69.269C183.121 67.2726 183.836 65.2763 184.739 63.3177C185.566 61.6603 183.798 60.5303 182.556 59.8523C182.782 59.0613 183.046 58.308 183.309 57.517C184.663 57.9313 186.018 58.4587 187.335 58.986C187.485 58.5717 187.636 58.1573 187.824 57.743C186.319 57.2533 184.889 56.4623 183.309 56.274C181.804 56.5 181.766 58.308 181.352 59.438C181.051 59.438 180.487 59.4003 180.186 59.4003C179.735 58.4587 178.869 57.8183 177.929 57.4417L177.74 57.291C177.176 57.291 176.574 57.2533 176.01 57.404C173.94 58.082 173 60.6056 174.091 62.489L174.354 61.924C174.016 63.054 175.295 63.732 176.198 63.958C176.198 64.1087 176.235 64.4477 176.235 64.636C175.596 64.4477 174.956 64.3347 174.279 64.2593C174.128 64.636 174.016 65.0127 173.94 65.3893V66.218C173.79 66.1427 173.451 65.992 173.301 65.879C172.887 66.218 172.511 66.5947 172.134 67.009C172.21 67.6116 172.247 68.252 172.322 68.8547L171.758 68.5533L171.796 68.591C170.742 69.043 170.629 70.2107 170.893 71.19H170.705L170.742 71.303C169.237 72.3577 170.817 74.0527 171.871 74.693C171.419 74.7307 171.006 74.806 170.592 74.8813C169.162 77.5933 168.259 80.4937 167.318 83.3563C165.738 88.4413 164.421 93.6393 163.819 98.9503C163.631 101.323 163.33 103.922 164.609 106.069C165.588 107.953 167.732 109.007 169.802 109.007C173.827 109.045 177.778 107.312 180.675 104.563C180.638 104.826 180.562 105.354 180.487 105.617C179.471 106.597 178.455 107.727 178.117 109.12C177.891 110.702 178.041 112.36 178.681 113.829C178.38 114.883 178.117 115.938 178.041 117.03C178.305 118.198 179.659 118.575 180.675 118.876C187.109 120.458 194.032 120.081 200.278 117.859C205.395 116.202 210.813 116.013 216.118 116.767C216.607 114.394 216.118 111.945 215.93 109.572C215.817 108.819 215.666 108.066 215.554 107.312C218.225 106.446 221.047 105.73 223.191 103.847C224.584 102.642 225.336 100.796 225.336 98.9503C225.374 94.6563 224.734 90.3623 223.756 86.219L223.681 86.2567C223.568 85.654 223.492 85.0137 223.38 84.411C223.116 83.846 222.928 83.281 222.74 82.6783C222.552 82.1133 222.364 81.586 222.138 81.021C221.31 78.648 220.219 76.388 218.94 74.2033C217.924 72.2823 216.419 70.5497 214.425 69.6833C211.641 68.4403 208.48 68.252 205.47 68.6287C205.131 68.0636 204.793 67.461 204.529 66.8206C204.492 66.6323 204.417 66.2933 204.379 66.105C203.852 65.9167 203.325 65.7283 202.799 65.5777C202.686 64.636 202.912 63.6943 203.1 62.7527C204.304 61.359 205.771 60.116 206.486 58.3833C207.238 56.5377 207.539 54.5413 207.502 52.5827C207.502 51.415 207.163 50.2097 207.728 49.155C208.179 48.251 208.066 47.2717 207.878 46.33C207.163 46.33 206.411 46.4053 205.696 46.5183C205.733 45.6143 205.621 44.6727 205.207 43.844C204.492 43.9947 203.739 44.183 203.024 44.3337C202.987 43.5427 202.987 42.6763 202.46 42.036C201.708 42.4127 200.955 42.7893 200.24 43.166C199.902 42.4503 199.826 41.471 199.074 41.0943C198.434 41.6217 197.983 42.149 197.531 42.6387Z" fill="#F7FBFA"/>
<path d="M188.313 55.4076C186.432 53.6373 187.41 49.4186 190.345 49.6446L190.307 49.72C189.593 51.415 189.066 53.223 188.501 54.9556L188.313 55.4076Z" fill="#F7FBFA"/>
<path d="M106.855 39.1734C106.893 37.8927 106.667 36.499 107.156 35.2937C107.457 39.8137 107.231 44.3714 107.344 48.929C111.22 48.9667 115.133 49.042 119.008 48.8914C121.115 48.8537 123.222 49.042 125.329 48.929C125.668 48.8914 125.931 48.7407 126.194 48.5147C127.775 49.3434 129.618 48.929 131.311 49.042C132.365 48.9667 133.682 49.3057 134.51 48.477C134.886 48.816 135.337 49.042 135.864 48.9667C138.385 49.0044 140.906 48.929 143.389 49.0044C146.023 49.0797 148.619 49.1174 151.253 49.042C151.441 48.816 151.629 48.59 151.855 48.4017C152.005 48.5147 152.306 48.7784 152.457 48.8914C153.886 49.0797 155.316 48.9667 156.746 49.0044C156.859 50.511 156.972 52.0177 156.859 53.5244C144.217 53.562 131.612 53.449 118.97 53.562C118.895 54.9934 119.046 56.4247 118.707 57.8184C117.729 58.2327 116.374 58.2704 115.434 57.7807C114.907 56.4624 115.246 54.9557 115.133 53.562C111.408 53.449 107.645 53.4867 103.92 53.5244C103.356 53.4867 102.754 53.5997 102.265 53.2984C101.851 51.9424 102.077 50.4734 102.077 49.0797C103.657 48.9667 105.275 48.9667 106.893 48.929C106.893 45.652 106.855 42.4127 106.855 39.1734Z" fill="#CFE3E1"/>
<path d="M70.8481 59.6641C73.2937 59.1744 75.8146 59.8147 78.0344 60.8694C82.0979 63.1671 84.8446 67.4234 85.7099 71.9811C86.8011 77.0284 85.6347 82.5654 82.5871 86.7464C79.5771 91.2664 73.2184 93.3757 68.2519 91.0027C64.0379 89.1947 61.1408 85.0891 60.0497 80.7197C58.9209 76.1244 59.2972 71.0771 61.5923 66.8961C62.6834 65.0504 63.8874 63.1671 65.6934 61.9617C67.2737 60.9447 68.9668 60.0407 70.8481 59.6641ZM70.4718 63.8074C65.7687 65.3894 63.0597 70.5497 63.1349 75.3334C62.8716 79.3261 64.4142 83.5071 67.4618 86.1814C69.2302 87.4997 71.4877 88.4414 73.7452 88.0647C76.0403 87.7257 78.2226 86.4451 79.5394 84.5241C83.7911 79.1001 83.3019 70.3614 78.1849 65.6531C76.1532 63.7321 73.1432 63.1294 70.4718 63.8074Z" fill="#CFE3E1"/>
<path d="M130.446 37.629C131.913 37.5913 133.418 37.4406 134.885 37.4783C135.563 37.516 136.24 37.5913 136.917 37.7043C136.729 38.7213 136.503 39.7006 136.24 40.7176H135.901C132.139 40.68 128.376 40.7553 124.614 40.7176C124.2 39.7383 123.937 38.7213 123.824 37.6666C125.743 37.5913 127.624 37.7043 129.543 37.6666C129.693 37.6666 129.957 37.6666 130.069 37.6666L130.446 37.629Z" fill="#BCDBDB"/>
<path d="M124.576 40.68C128.339 40.7177 132.101 40.68 135.864 40.68C135.488 43.2413 135.074 45.8403 134.472 48.364C133.606 49.1927 132.327 48.8537 131.274 48.929C129.581 48.816 127.737 49.2303 126.157 48.4017C125.592 45.878 125.367 43.2413 124.576 40.68Z" fill="#C7E1E1"/>
<path d="M197.531 42.6387C197.983 42.149 198.434 41.6217 198.998 41.245C199.751 41.6217 199.864 42.601 200.165 43.3167C200.88 42.9023 201.632 42.5257 202.385 42.1867C202.911 42.8647 202.911 43.6933 202.949 44.4843C203.664 44.3337 204.416 44.1453 205.131 43.9947C205.545 44.8233 205.62 45.765 205.62 46.669C206.335 46.556 207.05 46.4807 207.803 46.4807C207.991 47.4223 208.104 48.4393 207.652 49.3057C207.088 50.3603 207.389 51.5657 207.426 52.7333C207.464 54.692 207.163 56.726 206.411 58.534C205.696 60.2667 204.266 61.5473 203.024 62.9033C201.632 61.9993 200.729 60.568 200.466 58.9483C201.707 58.4587 203.363 58.0067 203.438 56.387C204.04 56.613 204.642 56.726 205.244 56.8767C204.642 56.161 203.739 55.8973 202.911 55.596C202.61 55.483 202.309 55.4077 202.046 55.2947C201.143 54.9933 200.24 54.692 199.337 54.3907C199.337 53.562 199.299 52.7333 199.299 51.867C199.977 51.8293 200.692 51.7917 201.369 51.754C200.616 51.6033 199.901 51.4903 199.149 51.302C199.826 51.0007 200.541 50.8123 201.294 50.737C200.654 50.5863 200.014 50.4357 199.45 50.1343C200.24 49.9837 201.03 49.9083 201.783 49.7953C201.143 49.72 200.541 49.6823 199.939 49.607C200.014 49.381 200.202 48.929 200.278 48.703C197.155 48.8913 193.919 49.268 190.871 48.3263C189.479 46.7067 189.442 44.1453 190.307 42.2243C190.871 42.488 191.436 42.827 192 43.2037C192.414 42.5257 192.903 41.8853 193.693 41.6217C194.032 42.1113 194.408 42.5633 194.747 43.053C195.123 42.488 195.499 41.9607 195.913 41.4333C196.44 41.8853 196.967 42.262 197.531 42.6387Z" fill="#0D1B3B"/>
<path d="M190.872 48.4017C193.919 49.381 197.155 48.9667 200.278 48.7783C200.203 49.0043 200.015 49.4563 199.939 49.6823C200.541 49.7577 201.181 49.833 201.783 49.8707C200.993 49.9837 200.203 50.0967 199.45 50.2097C200.015 50.511 200.654 50.6617 201.294 50.8123C200.541 50.8877 199.827 51.076 199.149 51.3773C199.864 51.5657 200.617 51.6787 201.369 51.8293C200.692 51.867 199.977 51.9047 199.3 51.9423C199.3 52.771 199.3 53.5997 199.337 54.466C198.924 54.353 198.547 54.2023 198.133 54.0893C198.021 52.8463 198.058 51.2267 196.741 50.5863C195.349 49.946 194.108 51.1137 193.468 52.2437C193.242 52.2813 192.828 52.3567 192.64 52.3943C192.452 52.3567 192.113 52.319 191.963 52.2813C191.775 51.1513 191.323 50.1343 190.571 49.2303C190.684 49.0043 190.797 48.59 190.872 48.4017Z" fill="#92415C"/>
<path d="M188.501 54.9933C189.028 53.2229 189.592 51.4526 190.307 49.7576C192.339 51.4149 191.21 55.6336 188.388 55.4453L188.501 54.9933Z" fill="#92415C"/>
<path d="M195.386 50.9631C196.252 50.5111 197.117 51.2267 197.418 52.0554C197.945 53.5997 197.418 55.5584 195.988 56.3871C195.236 56.839 194.258 56.3871 193.919 55.5961C193.204 54.0141 193.768 51.8294 195.386 50.9631Z" fill="#92415C"/>
<path d="M190.872 56.048C191.586 55.1064 192.301 54.1647 192.941 53.1854C193.091 54.6167 193.167 56.726 194.935 57.065C196.553 57.3287 197.381 55.7467 198.058 54.579C198.773 54.805 199.488 55.031 200.24 55.2194L199.939 55.4077C199.224 56.387 201.256 56.4624 200.955 55.4077C201.331 55.37 201.708 55.37 202.084 55.3324C202.385 55.4454 202.648 55.5207 202.949 55.6337C203.062 55.822 203.325 56.1987 203.476 56.387C203.401 58.0067 201.745 58.4587 200.504 58.9484C200.767 60.568 201.67 61.9994 203.062 62.9034C202.874 63.845 202.686 64.7867 202.761 65.7284C202.799 66.331 202.874 66.896 202.949 67.461C200.014 68.591 196.779 68.8924 193.656 68.3274C195.274 66.783 196.703 65.0127 197.343 62.828C197.569 62.4137 197.795 61.9994 198.02 61.585C196.591 62.5644 195.086 63.393 193.505 64.1087L193.317 64.5984C193.28 64.749 193.167 65.0504 193.129 65.201C193.129 64.9374 193.091 64.4477 193.091 64.184C191.85 64.3724 190.382 64.4477 189.555 63.3554C187.862 61.2837 187.974 58.3834 188.426 55.8597C189.291 55.7844 190.119 55.5584 190.909 55.2194C190.759 55.4454 190.458 55.935 190.307 56.1987C191.097 56.6884 191.963 57.1027 192.828 57.3664C192.188 56.8767 191.511 56.4624 190.872 56.048ZM199.751 58.3834C200.203 58.0444 200.654 57.743 201.106 57.404C201.519 57.5547 201.933 57.7054 202.347 57.8184C202.197 57.63 201.933 57.2157 201.783 56.9897C202.159 56.6884 202.535 56.3494 202.912 56.048C201.557 56.1234 200.203 57.1027 199.751 58.3834ZM192.64 59.0614C191.812 59.1744 191.022 59.1367 190.194 59.1744C191.549 60.455 194.408 59.4757 194.596 57.5924C193.957 58.082 193.392 58.7224 192.64 59.0614Z" fill="#92415C"/>
<path d="M174.166 64.3346C174.806 64.41 175.483 64.523 176.123 64.7113C176.198 65.8413 176.386 67.235 175.22 67.9129C174.731 67.122 174.242 66.3309 173.828 65.5023C173.941 65.088 174.053 64.6736 174.166 64.3346Z" fill="#92415C"/>
<path d="M171.984 67.0843C172.36 66.7076 172.736 66.3309 173.15 65.9543C173.752 66.6699 174.354 67.3856 174.881 68.1389C175.596 69.1183 175.671 70.3613 175.746 71.5289C175.37 71.6796 174.994 71.8303 174.618 71.9809C173.978 70.2483 172.059 69.1183 171.984 67.0843Z" fill="#92415C"/>
<path d="M180.938 68.8171C181.465 68.3651 181.917 69.0431 182.33 69.3068C182.895 70.3238 183.083 71.6798 182.443 72.6968C181.879 73.5254 181.164 74.2411 180.449 74.9568C180.299 75.1074 179.96 75.4464 179.81 75.6348C179.998 74.5801 180.299 73.6008 180.6 72.5838C180.976 72.9228 182.105 72.8098 181.804 72.1318C181.39 71.9058 181.014 71.9811 180.675 72.3578C179.772 71.2654 179.697 69.6458 180.938 68.8171Z" fill="#92415C"/>
<path d="M170.742 71.2653C170.479 70.286 170.592 69.1183 171.645 68.6663C172.586 69.947 173.639 71.1899 174.655 72.3953C174.617 72.8849 174.505 73.3746 174.279 73.8643C173.338 73.0733 172.435 72.207 171.495 71.416C171.344 71.416 170.968 71.3406 170.742 71.2653Z" fill="#92415C"/>
<path d="M171.758 74.8059C170.705 74.1656 169.087 72.4706 170.629 71.4159C171.57 72.1693 172.511 72.9603 173.414 73.7513C173.414 74.0526 173.376 74.6176 173.376 74.9189C172.962 74.9566 172.548 74.9943 172.134 75.0319C172.059 74.9566 171.871 74.8436 171.758 74.8059Z" fill="#92415C"/>
<path d="M104.673 88.253L104.974 88.366C108.36 89.4583 111.859 90.2493 115.283 91.1533C115.81 91.304 116.336 91.4547 116.826 91.6053C116.976 92.1703 117.164 92.7353 117.315 93.338C117.616 94.6563 117.729 95.9746 117.841 97.3306C112.762 94.9576 107.758 92.4716 102.603 90.287C103.168 89.496 103.92 88.8557 104.673 88.253Z" fill="#92415C"/>
<path d="M180.374 105.73C182.707 103.659 185.905 103.32 188.802 102.566C188.689 105.203 188.99 107.877 190.307 110.213C188.99 111.23 187.447 111.832 185.867 112.397C186.131 112.736 186.394 113.038 186.62 113.377C186.507 113.565 186.319 113.979 186.243 114.205C185.491 114.243 184.701 114.356 183.986 114.092C183.497 113.716 183.083 113.264 182.631 112.849C183.723 111.983 184.851 111.154 185.98 110.326C184.362 110.326 183.233 111.493 182.33 112.661C181.992 112.435 181.653 112.171 181.352 111.908C182.33 110.74 183.572 109.836 184.626 108.744C183.196 108.894 182.105 109.911 181.427 111.079C181.239 111.117 180.901 111.23 180.75 111.267C180.637 111.267 180.412 111.267 180.299 111.267C180.073 112.284 180.223 114.243 178.643 113.979C177.966 112.51 177.853 110.853 178.079 109.271C178.342 107.802 179.396 106.71 180.374 105.73ZM179.847 110.778C180.75 110.589 180.901 109.535 181.465 108.932C182.293 107.614 183.986 107.312 184.964 106.145C182.481 106.371 180.412 108.405 179.847 110.778Z" fill="#92415C"/>
<path d="M102.265 112.058C107.833 113.339 113.627 112.887 119.083 111.418C119.008 112.322 118.857 113.226 118.669 114.13C114.568 115.147 110.316 115.373 106.102 115.147C104.861 115.072 103.694 114.77 102.49 114.507C102.453 113.678 102.34 112.849 102.265 112.058Z" fill="#92415C"/>
<path d="M188.163 49.7576C188.802 49.0796 189.743 49.2303 190.608 49.1926C191.323 50.059 191.775 51.1136 192 52.2436C192.189 52.2813 192.527 52.319 192.678 52.3566C192.828 52.3943 193.167 52.432 193.355 52.4696L193.543 52.206C194.183 51.076 195.424 49.9083 196.816 50.5486C198.133 51.189 198.096 52.8086 198.209 54.0516C198.585 54.1646 198.999 54.3153 199.413 54.4283C200.316 54.7296 201.219 55.031 202.122 55.3323C201.745 55.37 201.369 55.4076 200.993 55.4076C200.805 55.37 200.466 55.257 200.278 55.2193C199.563 54.9933 198.811 54.7673 198.096 54.579C197.418 55.7466 196.591 57.3286 194.973 57.065C193.204 56.726 193.129 54.579 192.979 53.1853C192.979 53.11 192.979 52.9216 192.979 52.8086C192.64 52.8463 192.301 52.884 191.963 52.9593C191.662 53.7503 191.323 54.5413 190.872 55.257C190.082 55.596 189.254 55.8596 188.388 55.8973C186.169 54.6543 186.47 51.302 188.163 49.7576ZM188.313 55.4076L188.501 54.9933L188.388 55.4076C191.21 55.596 192.339 51.3773 190.307 49.72L190.345 49.6446C187.41 49.4563 186.432 53.6373 188.313 55.4076ZM195.387 50.963C193.769 51.7916 193.204 54.014 193.882 55.596C194.22 56.387 195.199 56.839 195.951 56.387C197.381 55.5206 197.908 53.562 197.381 52.0553C197.117 51.2643 196.214 50.5486 195.387 50.963Z" fill="#FFAA3F"/>
<path d="M202.912 55.6335C203.739 55.9349 204.642 56.1986 205.244 56.9142C204.642 56.7636 204.003 56.6506 203.438 56.4245C203.288 56.2362 203.024 55.8219 202.912 55.6335Z" fill="#FFAA3F"/>
<path d="M202.874 67.4986C203.401 67.3479 203.928 67.1596 204.455 67.0089C204.756 67.6116 205.057 68.2142 205.395 68.8169C208.368 68.4402 211.528 68.6286 214.35 69.8716C216.344 70.7379 217.849 72.5082 218.865 74.3916C220.144 76.5762 221.235 78.8363 222.063 81.2093C218.188 83.5823 213.786 84.9759 209.346 85.9552C208.894 83.5446 208.48 81.1716 208.292 78.7232C208.179 77.8569 208.217 76.9152 207.653 76.1996C207.69 81.6989 208.857 87.1229 210.399 92.3586C204.191 95.6733 197.607 98.1969 190.91 100.419C189.931 100.608 189.668 101.625 189.442 102.453C189.292 102.491 188.953 102.566 188.803 102.604C185.905 103.357 182.707 103.696 180.375 105.768C180.412 105.504 180.487 104.977 180.563 104.713C181.691 99.5906 182.933 94.4679 184.25 89.3829C184.4 88.7049 184.551 88.0646 184.551 87.3866C184.701 87.0476 184.852 86.7086 185.002 86.3319C185.228 85.6916 185.379 84.9759 185.416 84.2979C186.884 80.4559 187.9 76.4632 189.555 72.6589C189.405 72.6212 189.104 72.5836 188.991 72.5459L188.878 72.5082C191.173 72.0562 190.345 69.2689 190.872 67.6492C191.474 67.8376 192.114 68.0259 192.716 68.1766C192.941 68.2142 193.355 68.3272 193.581 68.3649C196.704 68.9299 199.94 68.6286 202.874 67.4986Z" fill="#FFAA3F"/>
<path d="M209.722 87.6127C214.199 86.558 218.676 85.2397 222.627 82.7913C222.815 83.394 223.041 83.959 223.267 84.524C219.128 86.7463 214.575 88.253 209.947 89.0816C209.91 88.705 209.797 87.9893 209.722 87.6127Z" fill="#FFAA3F"/>
<path d="M210.587 90.7766C215.102 89.8726 219.504 88.4036 223.605 86.3696L223.681 86.3319C224.659 90.5129 225.299 94.7692 225.261 99.0632C225.261 100.909 224.546 102.755 223.116 103.96C220.972 105.843 218.15 106.597 215.478 107.425C211.189 108.555 206.787 109.083 202.423 109.497C199.638 109.685 196.892 110.024 194.107 109.949C193.28 109.987 192.602 109.497 192.038 109.007C190.608 107.049 189.781 104.676 189.856 102.265C190.383 100.796 192.038 100.608 193.317 100.118C199.375 98.0839 205.282 95.6356 210.926 92.6976C213.033 92.3209 215.177 92.4339 217.322 92.6599C215.478 91.2662 212.995 91.8689 210.888 92.2832C210.813 91.7559 210.7 91.2662 210.587 90.7766Z" fill="#FFAA3F"/>
<path d="M215.855 109.723C216.043 112.134 216.494 114.544 216.043 116.917C210.775 116.164 205.32 116.315 200.203 118.01C193.957 120.194 187.034 120.609 180.6 119.027C179.584 118.688 178.23 118.349 177.966 117.181C178.042 116.089 178.305 115.034 178.606 113.979C180.186 114.243 180.073 112.284 180.261 111.267C180.374 111.267 180.6 111.267 180.713 111.267C180.939 111.456 181.127 111.682 181.353 111.87C181.654 112.134 181.992 112.397 182.331 112.623L182.632 112.849C183.083 113.264 183.497 113.753 183.986 114.092C184.701 114.356 185.491 114.243 186.244 114.205C186.507 114.168 186.996 114.13 187.26 114.092C187.485 113.678 187.674 113.226 187.899 112.812C189.216 112.322 190.458 111.531 191.85 111.267C193.092 111.493 194.296 112.021 195.612 111.983C201.52 111.87 207.427 111.569 213.296 110.815C214.237 110.665 215.328 110.627 215.855 109.723Z" fill="#FFAA3F"/>
<path d="M192.678 52.319C192.866 52.2813 193.28 52.206 193.505 52.1683L193.317 52.432C193.167 52.432 192.828 52.3567 192.678 52.319Z" fill="#602544"/>
<path d="M191.925 52.9594C192.264 52.9217 192.602 52.884 192.941 52.8087C192.941 52.884 192.941 53.0724 192.941 53.1854C192.301 54.1647 191.586 55.1064 190.872 56.048C191.549 56.4624 192.188 56.8767 192.79 57.404C191.887 57.1404 191.06 56.6884 190.27 56.2364C190.42 56.0104 190.721 55.5207 190.872 55.257C191.285 54.5414 191.624 53.7504 191.925 52.9594Z" fill="#16202A"/>
<path d="M173.827 65.4646C174.241 66.2933 174.73 67.0843 175.219 67.8753C175.144 67.9506 174.994 68.0636 174.918 68.1389C174.354 67.3856 173.79 66.6699 173.188 65.9543C173.338 66.0296 173.677 66.1803 173.827 66.2933V65.4646Z" fill="#16202A"/>
<path d="M172.172 68.9677C172.097 68.3273 172.059 67.7247 171.984 67.122C172.059 69.156 173.94 70.286 174.655 72.0563L174.693 72.4707C173.677 71.2277 172.623 70.0223 171.683 68.7417L171.645 68.704L172.172 68.9677Z" fill="#16202A"/>
<path d="M170.592 71.3029H170.78C170.968 71.3406 171.382 71.4159 171.57 71.4536C172.548 72.2446 173.414 73.1109 174.354 73.9019C174.129 73.8643 173.677 73.7889 173.451 73.7889C172.511 72.9979 171.608 72.2069 170.667 71.4536L170.592 71.3029Z" fill="#16202A"/>
<path d="M154.338 190.782C156.144 190.066 157.912 189.35 159.718 188.635C161.299 188.861 162.879 189.049 164.421 189.237C163.819 190.104 163.142 190.932 162.691 191.874C162.804 191.874 163.029 191.949 163.142 191.949C163.895 191.158 164.459 190.179 165.136 189.313C165.475 189.35 166.152 189.388 166.491 189.426C165.851 190.292 165.174 191.158 164.873 192.213C165.851 191.497 166.491 190.48 167.168 189.463C167.619 189.463 168.071 189.501 168.522 189.501C167.958 190.33 167.394 191.121 166.942 192.025C168.146 191.799 168.522 190.367 169.237 189.539C172.624 189.802 176.047 189.765 179.434 190.066C180.261 190.066 180.826 190.631 181.277 191.271C174.843 192.891 168.372 194.36 161.938 195.98C161.524 195.377 161.148 194.812 160.734 194.247C160.847 194.925 160.998 195.565 161.073 196.243C159.229 196.733 157.386 197.223 155.542 197.712C155.015 195.415 154.752 193.079 154.338 190.782Z" fill="#16202A"/>
<path d="M100.271 201.667C101.399 199.257 102.867 196.997 104.296 194.774C106.253 195.641 108.285 196.319 110.204 197.223C111.295 197.938 112.273 198.767 113.326 199.52C112.235 199.671 110.956 199.709 110.354 200.801C112.047 200.236 113.966 199.859 115.509 201.027C114.493 201.328 113.214 201.366 112.649 202.383C114.267 201.893 116.148 201.366 117.578 202.571C116.562 202.873 115.321 202.91 114.719 203.927C115.847 203.701 116.976 203.174 118.142 203.4C119.045 203.701 119.76 204.304 120.588 204.643C121.867 205.246 123.335 205.208 124.689 205.509C125.442 205.622 125.63 206.451 125.931 207.054C123.335 206.978 120.701 207.016 118.105 207.016C114.53 207.242 111.295 205.509 107.908 204.718C107.796 203.626 107.683 202.496 107.57 201.404C107.194 202.383 106.817 203.4 106.441 204.417C104.409 203.513 102.34 202.609 100.271 201.667Z" fill="#16202A"/>
<path d="M199.902 55.4076L200.203 55.2193C200.391 55.2569 200.73 55.3699 200.918 55.4076C201.181 56.4623 199.187 56.3869 199.902 55.4076Z" fill="#1E1F3E"/>
<path d="M199.751 58.3833C200.24 57.1026 201.557 56.1233 202.949 56.048C202.573 56.3493 202.197 56.6883 201.82 56.9896C201.971 57.178 202.234 57.5923 202.385 57.8183C201.971 57.6676 201.557 57.517 201.143 57.404C200.654 57.743 200.202 58.082 199.751 58.3833Z" fill="#40132F"/>
<path d="M181.277 59.4757C181.691 58.3457 181.729 56.5 183.234 56.3117C184.814 56.4623 186.244 57.291 187.749 57.7807C187.598 58.195 187.448 58.6093 187.26 59.0237C185.905 58.4963 184.588 58.0067 183.234 57.5547C182.97 58.308 182.707 59.099 182.481 59.89C182.143 60.9447 181.842 61.9993 181.465 63.054C181.428 63.167 181.352 63.3553 181.315 63.4307C181.014 63.3553 180.412 63.2047 180.148 63.1293C180.562 61.924 180.939 60.7187 181.277 59.4757Z" fill="#FBB6A7"/>
<path d="M175.897 57.4416C176.461 57.291 177.063 57.3286 177.627 57.3286L177.816 57.4793C178.568 58.0443 179.321 58.6093 179.923 59.3626C179.208 60.2666 177.74 60.0406 177.214 61.133C177.251 61.246 177.289 61.4719 177.326 61.5473C177.552 62.3759 177.816 63.2046 178.004 64.0333C177.364 64.0333 176.724 64.0333 176.085 63.9956C175.182 63.7696 173.865 63.054 174.241 61.9616C174.354 61.472 174.505 61.0199 174.617 60.5303C175.182 60.5303 175.784 60.5303 176.348 60.568C175.821 60.2666 175.295 59.9653 174.881 59.5133C175.031 58.7223 175.445 58.082 175.897 57.4416Z" fill="#FFCD8D"/>
<path d="M173.978 62.5267C172.925 60.6433 173.865 58.1197 175.897 57.4417C175.446 58.082 174.994 58.7223 174.881 59.5133C175.295 59.9653 175.822 60.229 176.349 60.568C175.784 60.568 175.182 60.5303 174.618 60.5303C174.505 61.02 174.392 61.472 174.242 61.9617L173.978 62.5267Z" fill="#FFDBAD"/>
<path d="M179.923 59.3626C179.321 58.6093 178.568 58.0443 177.816 57.4793C178.757 57.8559 179.622 58.4963 180.073 59.4379C180.412 60.6056 180.149 61.7356 179.66 62.8279L179.509 62.7149C180.036 61.6603 180.299 60.5303 179.923 59.3626Z" fill="#F5911F"/>
<path d="M185.228 74.3163C186.281 73.4123 187.56 72.546 188.99 72.546C189.141 72.5836 189.442 72.6213 189.555 72.659C187.899 76.4256 186.883 80.456 185.416 84.298C184.137 83.055 182.895 81.7743 181.691 80.4183C182.782 78.309 183.422 75.8983 185.228 74.3163Z" fill="#F5911F"/>
<path d="M171.758 74.806C171.871 74.8813 172.021 74.9566 172.134 75.032C172.059 75.258 171.871 75.7476 171.758 75.9736C170.667 77.8193 172.736 79.2883 174.279 79.7403C175.709 80.2676 178.079 80.569 178.643 78.7233C179.02 77.6686 179.396 76.6516 179.772 75.597C179.923 75.4463 180.261 75.1073 180.412 74.919C180.562 75.371 180.6 75.823 180.449 76.275C179.735 78.9493 179.434 81.7366 179.133 84.4863C179.057 85.2396 178.944 85.993 178.794 86.7463C178.305 88.5543 178.079 90.4753 177.515 92.2833C177.214 93.338 176.8 94.4303 177.026 95.5603C178.455 92.5846 179.02 89.2323 179.245 85.9553C179.434 85.654 179.622 85.3526 179.885 85.1266C181.24 86.5956 182.594 88.14 184.174 89.383C182.82 94.468 181.616 99.5906 180.487 104.713C177.59 107.463 173.639 109.196 169.613 109.158C167.544 109.158 165.399 108.103 164.421 106.22C163.142 104.073 163.443 101.474 163.631 99.101C164.233 93.79 165.55 88.592 167.13 83.507C168.071 80.6443 169.011 77.7063 170.404 75.032C170.893 74.8813 171.344 74.8436 171.758 74.806Z" fill="#F5911F"/>
<path d="M192.64 59.0614C193.392 58.7224 193.957 58.082 194.596 57.5924C194.371 59.4757 191.549 60.455 190.194 59.1744C190.984 59.1367 191.812 59.1744 192.64 59.0614Z" fill="#4A1835"/>
<path d="M179.923 59.3626C180.299 60.4926 180.036 61.6603 179.547 62.7149C178.832 62.2629 178.192 61.5849 177.327 61.5473C177.289 61.4343 177.251 61.2459 177.214 61.1329C177.741 60.0406 179.208 60.2666 179.923 59.3626Z" fill="#FFCB87"/>
<path d="M180.111 59.438C180.412 59.438 180.976 59.4756 181.277 59.4756C180.939 60.681 180.563 61.8863 180.186 63.1293C180.487 63.2046 181.089 63.3553 181.353 63.4306C181.39 63.3176 181.466 63.1293 181.503 63.054C182.218 64.1463 183.648 63.4306 184.701 63.3553C183.798 65.314 183.121 67.348 182.293 69.3066C181.879 69.0806 181.428 68.365 180.901 68.817C179.66 69.6456 179.772 71.2653 180.638 72.32L180.563 72.546C180.224 73.563 179.961 74.58 179.772 75.597C179.396 76.6516 179.02 77.6686 178.644 78.7233C177.327 76.275 174.317 75.5593 171.758 75.9736C171.834 75.7476 172.022 75.258 172.135 75.032C172.548 74.9943 172.962 74.9566 173.376 74.919C173.376 74.6176 173.414 74.0526 173.414 73.7513C173.64 73.789 174.091 73.8643 174.317 73.8643C174.505 73.3746 174.655 72.9226 174.693 72.3953L174.655 71.981C175.032 71.8303 175.408 71.6796 175.784 71.529C175.709 70.3613 175.634 69.1183 174.919 68.139C174.994 68.0636 175.145 67.913 175.22 67.8753C176.386 67.1973 176.198 65.8413 176.123 64.6736C176.123 64.523 176.085 64.184 176.085 63.9956C176.725 64.0333 177.364 64.0333 178.004 64.0333C177.816 63.2046 177.59 62.376 177.327 61.5473C178.192 61.585 178.832 62.263 179.547 62.715L179.697 62.828C180.186 61.7356 180.45 60.6056 180.111 59.438Z" fill="#6CC1ED"/>
<path d="M182.519 59.89C183.799 60.568 185.529 61.698 184.702 63.3553C183.648 63.4307 182.218 64.1463 181.503 63.054C181.88 61.9993 182.218 60.9447 182.519 59.89Z" fill="#50B0DF"/>
<path d="M171.796 75.9736C174.354 75.5593 177.364 76.275 178.681 78.7233C178.117 80.6066 175.747 80.2676 174.317 79.7403C172.737 79.2506 170.705 77.8193 171.796 75.9736Z" fill="#50B0DF"/>
<path d="M193.468 64.184C195.048 63.4684 196.553 62.6397 197.983 61.6604C197.757 62.0747 197.531 62.489 197.306 62.9034C196.026 63.6567 194.672 64.184 193.28 64.636L193.468 64.184Z" fill="#3B0E2D"/>
<path d="M108.247 66.0296C108.924 64.749 109.451 62.8656 110.994 62.4513C112.386 63.167 113.176 64.636 114.079 65.879C114.493 65.653 114.907 65.3893 115.321 65.201C116.035 67.1973 116.148 69.3066 116.186 71.416C115.659 70.9263 115.095 70.4743 114.53 70.0223C112.499 72.546 109.827 74.3916 107.231 76.2373C107.645 77.4426 107.796 78.6856 107.796 79.9286C107.118 80.004 106.253 79.665 105.726 80.1923C104.898 80.9833 105.275 82.3393 105.99 83.055C106.817 83.8836 108.059 83.6953 109.112 83.733C108.699 84.4863 108.285 85.2396 107.871 85.993C107.344 85.9176 106.855 85.8046 106.328 85.6916C103.393 84.8253 100.797 83.0173 98.6527 80.8703C97.9755 79.7403 98.9537 78.4596 99.631 77.5556C98.6527 77.8946 97.7121 78.2713 96.6962 78.3843C96.0942 77.4426 97.6745 77.3296 98.2012 76.953C97.8626 76.9153 97.1853 76.84 96.8467 76.8023C97.5992 75.8983 98.8032 76.1243 99.631 76.84C98.5022 73.4876 101.061 70.4743 103.506 68.5533C104.936 67.6493 105.839 66.218 106.893 64.9373C107.344 65.2763 107.796 65.653 108.247 66.0296Z" fill="#5E1212"/>
<path d="M193.242 64.636C194.634 64.184 195.989 63.6567 197.268 62.9033C196.628 65.088 195.199 66.8583 193.581 68.4026C193.355 68.365 192.941 68.252 192.715 68.2143C192.791 67.6116 192.828 67.009 192.903 66.4063C192.941 66.105 193.016 65.54 193.054 65.2763C193.129 65.088 193.204 64.7867 193.242 64.636Z" fill="#551449"/>
<path d="M188.802 102.566C188.953 102.529 189.292 102.453 189.442 102.416L189.931 102.265C189.856 104.713 190.684 107.049 192.113 109.007C191.511 109.384 190.947 109.798 190.345 110.213C188.991 107.877 188.69 105.203 188.802 102.566Z" fill="#551449"/>
<path d="M70.4717 63.8073C73.1431 63.1293 76.1531 63.6943 78.1848 65.6153C83.3018 70.3613 83.7909 79.0623 79.5393 84.4863C78.2224 86.4073 76.0402 87.688 73.7451 88.027C71.4876 88.4036 69.2301 87.462 67.4617 86.1436C64.4517 83.4693 62.8714 79.3259 63.1348 75.2956C63.0596 70.5496 65.7686 65.3893 70.4717 63.8073Z" fill="#E1EFEE"/>
<path d="M202.724 65.7659C203.25 65.9543 203.777 66.1426 204.304 66.2933C204.342 66.4816 204.417 66.8206 204.454 67.0089C203.928 67.1596 203.401 67.3479 202.874 67.4986C202.799 66.8959 202.761 66.3309 202.724 65.7659Z" fill="#F59B34"/>
<path d="M190.872 67.6494C191.474 67.122 192.188 66.7077 192.903 66.3687C192.828 66.9714 192.79 67.574 192.715 68.1767C192.113 68.026 191.474 67.8377 190.872 67.6494Z" fill="#F68E1D"/>
<path d="M202.423 109.535C206.787 109.12 211.189 108.593 215.479 107.463C215.591 108.216 215.742 108.97 215.855 109.723C215.328 110.627 214.237 110.665 213.334 110.815C207.464 111.569 201.557 111.87 195.65 111.983C194.333 112.021 193.129 111.493 191.888 111.267C190.496 111.531 189.254 112.284 187.937 112.812C187.711 113.226 187.486 113.678 187.297 114.092C187.034 114.13 186.545 114.168 186.282 114.205C186.394 114.017 186.583 113.603 186.658 113.377C186.394 113.038 186.131 112.736 185.905 112.397C187.448 111.832 189.028 111.23 190.345 110.213C190.909 109.798 191.511 109.384 192.113 109.007C192.678 109.535 193.355 109.987 194.183 109.949C196.892 110.062 199.676 109.723 202.423 109.535Z" fill="#F68E1D"/>
<path d="M114.531 69.9846C115.095 70.4366 115.659 70.8886 116.186 71.3783C117.353 72.5836 118.707 73.6006 119.761 74.9189C119.196 75.3333 118.669 75.7476 118.105 76.162C118.858 77.0283 119.572 77.8946 120.137 78.8363C118.782 78.6856 117.39 78.5349 116.036 78.3089C117.353 79.3259 119.046 79.6649 120.664 79.2506C121.416 80.2676 121.905 81.6613 121.19 82.8289C119.986 84.7876 117.654 85.4656 115.622 86.106C114.23 85.7293 112.8 85.541 111.408 85.3526L111.671 85.8046C112.273 87.1983 113.327 88.2906 114.719 88.931C114.907 89.6466 115.095 90.3623 115.283 91.1156C111.859 90.2116 108.36 89.383 104.974 88.3283C105.538 87.4996 105.99 86.5956 106.291 85.6539C106.818 85.7669 107.307 85.8423 107.833 85.9553C108.247 85.202 108.661 84.4486 109.075 83.6953C108.022 83.6576 106.78 83.8459 105.952 83.0173C105.237 82.3016 104.861 80.9456 105.689 80.1546C106.253 79.6273 107.081 79.9663 107.758 79.891C107.758 78.648 107.608 77.3673 107.194 76.1996C109.828 74.354 112.499 72.5083 114.531 69.9846ZM106.291 80.9456C106.554 81.1716 106.818 81.36 107.081 81.586C106.78 81.925 106.516 82.264 106.215 82.603C107.043 82.2263 107.909 81.5859 108.736 82.377C108.398 81.2846 107.344 80.9079 106.291 80.9456Z" fill="#FF8B66"/>
<path d="M102.604 117.821C107.984 118.273 113.477 117.633 118.519 115.599C118.444 116.917 118.331 118.273 118.067 119.592C116.525 119.516 114.832 119.29 113.44 120.119C115.471 120.307 117.503 120.157 119.535 120.081C120.062 120.119 120.626 120.194 121.153 120.232C126.383 120.722 131.612 121.475 136.617 123.095C140.04 124.451 143.577 125.543 147.152 126.56C148.017 126.786 148.882 127.05 149.785 126.899C152.08 126.598 154.376 126.447 156.671 126.786C157.649 127.012 158.552 127.351 159.493 127.69C159.831 127.803 160.17 127.954 160.508 128.067C162.277 128.82 164.083 129.385 165.889 130.063C166.641 130.364 167.77 131.231 167.055 132.097C164.76 132.587 162.427 131.796 160.207 131.306C158.815 130.327 157.235 129.686 155.542 129.498C156.558 130.59 158.063 130.892 159.455 131.155C159.417 131.909 159.342 132.7 158.966 133.415C157.762 132.888 156.52 132.511 155.203 132.436C156.106 133.34 157.423 133.566 158.59 133.867C158.627 134.508 158.702 135.186 158.364 135.788C157.386 135.336 156.332 134.922 155.241 134.847C155.918 135.562 156.859 135.939 157.837 136.165C157.762 136.692 157.95 137.295 157.649 137.747C156.972 138.011 156.219 138.086 155.504 138.161C153.698 138.048 151.93 137.521 150.35 136.617C148.619 135.6 146.55 135.374 144.593 135.525C144.217 135.525 143.427 135.6 143.05 135.6C143.013 135.6 142.9 135.6 142.862 135.6C135.413 135.901 127.925 135.374 120.513 134.658C116.863 134.282 113.214 133.867 109.602 133.302C108.134 133.039 106.592 132.775 105.275 132.022C104.522 131.683 104.372 130.779 104.184 130.063C103.394 126.635 103.055 123.132 102.792 119.592C102.641 119.027 102.641 118.424 102.604 117.821Z" fill="#FF8B66"/>
<path d="M153.36 188.748C155.279 188.258 157.16 187.58 158.928 186.638C159.192 187.316 159.455 187.994 159.681 188.672C157.875 189.388 156.106 190.104 154.3 190.819C154.037 190.104 153.698 189.426 153.36 188.748Z" fill="#FF8B66"/>
<path d="M104.259 194.774C104.748 193.908 105.2 193.004 105.614 192.1C107.269 193.418 109.075 194.548 110.994 195.339C110.693 195.98 110.43 196.62 110.129 197.223C108.247 196.319 106.216 195.641 104.259 194.774Z" fill="#FF8B66"/>
<path d="M180.638 72.32C180.976 71.9433 181.353 71.868 181.766 72.094C182.067 72.772 180.939 72.885 180.562 72.546L180.638 72.32Z" fill="#411632"/>
<path d="M210.399 92.3211C208.856 87.0854 207.69 81.6614 207.652 76.162C208.254 76.8777 208.217 77.8194 208.292 78.6857C208.48 81.0964 208.894 83.5071 209.346 85.9177C213.785 84.9384 218.187 83.5447 222.063 81.1717C222.289 81.6991 222.477 82.2641 222.665 82.8291C218.714 85.2397 214.237 86.5957 209.759 87.6504C209.835 88.0271 209.948 88.7427 210.023 89.1194C214.651 88.3284 219.166 86.7841 223.342 84.5617C223.455 85.1644 223.568 85.8047 223.643 86.4074C219.504 88.4414 215.102 89.9104 210.625 90.8144C210.738 91.3041 210.888 91.7937 210.963 92.2834L211.001 92.6977C205.357 95.6357 199.45 98.0841 193.393 100.118C192.113 100.57 190.458 100.758 189.931 102.265L189.442 102.416C189.705 101.587 189.931 100.57 190.909 100.382C197.569 98.1594 204.191 95.6357 210.399 92.3211Z" fill="white"/>
<path d="M135.751 84.2604C136.089 83.055 137.519 83.4317 138.46 83.507C142.824 84.1474 147.264 84.411 151.629 85.1644C151.854 86.7464 151.064 88.1777 150.575 89.6467C149.183 93.6394 147.64 97.5567 146.248 101.549C145.985 102.19 145.834 103.169 144.931 103.169C144.593 102.905 144.292 102.642 143.991 102.34C143.539 102.491 143.088 102.642 142.636 102.792C142.373 102.491 142.109 102.227 141.846 101.926C141.47 102.114 141.094 102.265 140.717 102.453C140.341 102.152 139.965 101.888 139.551 101.662C139.137 101.851 138.723 102.114 138.309 102.34C138.234 102.152 138.084 101.775 138.008 101.587C137.369 100.909 136.767 101.738 136.202 102.114C135.901 101.399 135.149 100.495 134.472 101.436L134.283 101.549C134.246 100.871 134.171 100.231 134.095 99.5907C137.858 99.44 141.545 100.344 145.27 100.532C145.42 99.9674 145.533 99.3647 145.684 98.7997C141.357 98.3854 137.03 97.7074 132.703 97.519C132.365 96.9917 131.763 96.2384 132.515 95.7864C133.757 95.6734 134.923 96.3137 136.165 96.4267C137.105 96.3514 137.068 95.1837 137.256 94.5057C135.713 93.8277 133.945 93.6017 132.628 92.5094C133.794 89.7597 134.66 86.9724 135.751 84.2604ZM136.654 86.0684C137.519 86.0684 138.836 86.9347 139.4 85.88C138.573 85.7294 137.745 85.6164 136.917 85.5034C136.842 85.654 136.729 85.9177 136.654 86.0684ZM139.438 85.9554C139.814 86.7464 140.793 86.558 141.47 86.7087C142.862 86.784 144.292 87.2737 145.646 86.8594C143.765 85.9177 141.507 86.106 139.438 85.9554ZM146.248 86.558C146.098 87.7257 147.339 87.349 148.092 87.462C147.941 86.4827 146.963 86.671 146.248 86.558ZM148.017 86.897C148.167 87.8387 149.145 87.688 149.86 87.8387C150.086 86.5957 148.769 87.01 148.017 86.897ZM135.676 87.7257C136.202 88.8934 137.67 88.4414 138.686 88.5167C138.159 87.349 136.654 87.7634 135.676 87.7257ZM138.648 88.027C138.761 88.1777 138.949 88.479 139.062 88.592C140.868 88.8934 142.711 89.1194 144.517 89.1947L144.63 88.8557C142.749 88.1777 140.642 88.2154 138.648 88.027ZM145.383 88.7427C145.42 89.9857 146.7 89.5714 147.49 89.4207C146.963 88.7427 146.135 88.818 145.383 88.7427ZM147.415 88.9687C147.377 89.9104 148.355 89.722 148.957 89.8727C149.145 88.8934 147.979 89.157 147.415 88.9687ZM134.923 90.4C137.858 90.6637 140.717 91.2664 143.652 91.4547C143.727 91.304 143.84 90.965 143.915 90.7767C141.884 90.626 139.89 90.0987 137.82 90.2494C136.917 90.0987 135.412 89.1947 134.923 90.4ZM144.555 91.4924C145.797 91.869 147.114 91.8314 148.393 91.982C148.242 90.965 147.189 91.2664 146.474 91.2287C145.834 91.078 144.781 90.5507 144.555 91.4924ZM142.975 95.2967C143.652 95.4474 144.405 95.7864 145.044 95.372C144.706 94.581 143.389 94.468 142.975 95.2967ZM145.232 94.9577C144.743 95.9747 146.323 95.9747 146.85 95.6357C146.813 94.7694 145.797 95.033 145.232 94.9577Z" fill="white"/>
<path d="M116.073 78.3467C117.428 78.5727 118.782 78.7233 120.174 78.874C120.325 78.987 120.588 79.1754 120.701 79.2884C119.083 79.7027 117.39 79.3637 116.073 78.3467Z" fill="#E9592D"/>
<path d="M180.826 82.2263C181.089 81.6237 181.39 81.021 181.691 80.4183C182.895 81.7367 184.099 83.055 185.416 84.298C185.378 84.976 185.228 85.6917 185.002 86.332C183.572 84.976 182.293 83.507 180.826 82.2263Z" fill="#FDE9D2"/>
<path d="M179.697 84.6747C179.998 84.1473 180.299 83.5823 180.6 83.055C181.729 84.637 183.083 85.993 184.551 87.3113C184.551 87.9893 184.362 88.6673 184.25 89.3077C182.632 88.0647 181.315 86.558 179.96 85.0513C179.697 85.315 179.509 85.5787 179.321 85.88C179.208 86.0683 178.944 86.4827 178.832 86.671C178.982 85.9177 179.057 85.1643 179.17 84.411C179.283 84.524 179.584 84.637 179.697 84.6747Z" fill="#FDE9D2"/>
<path d="M106.291 80.9457C107.306 80.908 108.398 81.2847 108.736 82.377C107.908 81.586 107.005 82.2263 106.215 82.603C106.516 82.264 106.78 81.925 107.081 81.586C106.817 81.36 106.554 81.134 106.291 80.9457Z" fill="#E44C1D"/>
<path d="M180.826 82.2263C182.293 83.507 183.535 85.0137 185.002 86.332C184.852 86.671 184.701 87.01 184.551 87.3867C183.121 86.106 181.729 84.7123 180.6 83.1303C180.675 82.8667 180.788 82.4147 180.826 82.2263Z" fill="#F69628"/>
<path d="M111.407 85.3904C112.837 85.541 114.229 85.767 115.621 86.1437C114.305 86.3697 112.95 86.2567 111.671 85.8424L111.407 85.3904Z" fill="#E24717"/>
<path d="M136.654 86.0684C136.729 85.9177 136.842 85.654 136.917 85.5034C137.745 85.6164 138.573 85.6917 139.4 85.88C138.836 86.9347 137.519 86.0307 136.654 86.0684Z" fill="#3FB8AA"/>
<path d="M139.438 85.9554C141.507 86.1061 143.765 85.9177 145.646 86.8594C144.292 87.2738 142.862 86.7841 141.47 86.7087C140.792 86.5581 139.814 86.7464 139.438 85.9554Z" fill="#3FB8AA"/>
<path d="M138.648 88.027C140.642 88.2154 142.749 88.1777 144.668 88.8557L144.555 89.1947C142.711 89.1571 140.905 88.8934 139.099 88.5921C138.949 88.479 138.723 88.1777 138.648 88.027Z" fill="#3FB8AA"/>
<path d="M147.415 88.9688C147.979 89.1571 149.146 88.8934 148.957 89.8727C148.318 89.7221 147.339 89.9104 147.415 88.9688Z" fill="#3FB8AA"/>
<path d="M160.433 128.104C175.558 127.69 190.683 127.238 205.809 126.824C207.426 126.711 209.082 127.426 209.985 128.82C210.963 130.176 210.737 131.946 210.775 133.566C210.7 137.144 210.813 140.723 210.737 144.301C210.775 146.712 208.593 148.783 206.222 148.633C190.909 148.218 175.558 147.766 160.245 147.352C160.057 147.352 159.643 147.314 159.455 147.314C158.514 147.126 157.649 146.712 156.858 146.184C154.751 144.037 155.579 140.836 155.429 138.124C156.144 138.048 156.896 137.973 157.573 137.709C157.874 137.257 157.724 136.655 157.761 136.127C157.912 136.014 158.175 135.826 158.326 135.751C158.627 135.148 158.552 134.47 158.552 133.83C158.664 133.717 158.853 133.491 158.928 133.415C159.304 132.737 159.379 131.946 159.417 131.155C159.605 131.193 159.981 131.268 160.132 131.306C162.352 131.796 164.684 132.587 166.98 132.097C167.694 131.231 166.566 130.364 165.813 130.063C164.045 129.385 162.201 128.858 160.433 128.104Z" fill="#3FB8AA"/>
<path d="M190.834 136.391C191.473 135.977 192.489 136.203 192.79 136.918C193.317 137.898 192.828 139.63 191.511 139.517C190.044 139.442 189.818 137.22 190.834 136.391Z" fill="#3FB8AA"/>
<path d="M111.708 85.8424C112.988 86.2191 114.342 86.3321 115.659 86.1437C115.208 87.0477 114.907 87.9894 114.756 89.0064C113.364 88.3284 112.31 87.2361 111.708 85.8424Z" fill="#F65B2B"/>
<path d="M152.682 187.316C154.601 186.676 156.558 185.998 158.476 185.32C158.627 185.734 158.815 186.149 158.966 186.601C157.197 187.542 155.316 188.258 153.397 188.71C153.134 188.258 152.908 187.768 152.682 187.316Z" fill="#F65B2B"/>
<path d="M106.253 190.706C108.097 191.686 109.903 192.703 111.746 193.682C111.483 194.209 111.257 194.774 111.031 195.302C109.075 194.511 107.269 193.381 105.651 192.062C105.839 191.648 106.027 191.158 106.253 190.706Z" fill="#F65B2B"/>
<path d="M178.832 86.7463C178.944 86.558 179.208 86.1437 179.321 85.9553C179.095 89.2323 178.531 92.5847 177.101 95.5603C176.875 94.4303 177.289 93.338 177.59 92.2833C178.117 90.4377 178.342 88.5543 178.832 86.7463Z" fill="#E07A08"/>
<path d="M146.248 86.558C146.963 86.671 147.941 86.4826 148.092 87.462C147.339 87.349 146.098 87.7257 146.248 86.558Z" fill="#75C0C0"/>
<path d="M148.017 86.897C148.769 87.01 150.086 86.5957 149.86 87.8387C149.145 87.688 148.205 87.8387 148.017 86.897Z" fill="#7BC3C3"/>
<path d="M135.676 87.7257C136.692 87.7633 138.159 87.349 138.686 88.5167C137.67 88.4413 136.203 88.8557 135.676 87.7257Z" fill="#79C2C2"/>
<path d="M145.383 88.7426C146.135 88.8179 146.963 88.7426 147.49 89.4206C146.7 89.5713 145.42 89.9856 145.383 88.7426Z" fill="#79C2C2"/>
<path d="M134.923 90.4C135.412 89.1947 136.917 90.0987 137.82 90.2117C139.852 90.061 141.884 90.5883 143.916 90.739C143.84 90.8897 143.728 91.2287 143.652 91.417C140.718 91.304 137.82 90.6637 134.923 90.4Z" fill="#5CB6B6"/>
<path d="M89.9615 102.905C93.2349 97.8581 97.637 93.6017 102.604 90.287C107.758 92.4717 112.8 94.9577 117.842 97.3307C117.729 95.9747 117.616 94.6564 117.315 93.3381C118.97 97.2177 119.384 101.474 120.062 105.58C120.739 109.949 121.002 114.356 121.077 118.801C121.077 119.29 121.077 119.78 121.115 120.27C120.588 120.232 120.024 120.157 119.497 120.119C119.008 119.968 118.519 119.78 118.03 119.629C118.293 118.311 118.406 116.955 118.481 115.637C118.519 115.147 118.594 114.657 118.669 114.168C118.858 113.264 119.008 112.36 119.083 111.456C113.628 112.925 107.796 113.377 102.265 112.096C102.378 112.887 102.453 113.716 102.528 114.544C102.566 115.637 102.604 116.767 102.641 117.859C102.679 118.462 102.679 119.064 102.679 119.667C102.265 122.379 102.378 125.129 102.604 127.841C102.829 129.95 103.13 132.21 104.334 134.018C104.936 134.997 106.216 135.11 107.269 135.336C111.483 136.09 115.772 136.391 120.062 136.504L119.986 136.805C119.798 137.822 119.497 138.839 118.895 139.668C114.042 143.51 107.909 145.243 101.851 146.071C99.6312 146.41 97.3737 146.41 95.1538 146.749C92.9715 145.883 91.3913 143.962 90.4507 141.853C88.4565 137.408 88.1179 132.511 87.7417 127.728C87.5159 125.355 87.704 122.944 87.403 120.609C87.0268 118.236 85.9733 116.013 84.4307 114.205C85.898 110.589 87.403 107.011 89.3972 103.659C89.0209 109.459 89.8487 115.335 91.3913 120.91C91.5418 121.626 91.918 122.266 92.4824 122.756C92.3319 121.852 92.1062 120.985 91.8428 120.119C90.3378 114.544 89.811 108.706 89.9615 102.905Z" fill="#67A4C3"/>
<path d="M144.555 91.4924C144.781 90.5507 145.834 91.0781 146.474 91.2287C147.189 91.2664 148.242 90.9274 148.393 91.9821C147.114 91.8314 145.797 91.8691 144.555 91.4924Z" fill="#67A4C3"/>
<path d="M142.975 95.2968C143.389 94.4681 144.706 94.5811 145.044 95.3721C144.405 95.7865 143.652 95.4475 142.975 95.2968Z" fill="#67A4C3"/>
<path d="M145.233 94.9578C145.797 95.0331 146.813 94.7694 146.85 95.6357C146.286 95.9747 144.743 95.9747 145.233 94.9578Z" fill="#67A4C3"/>
<path d="M210.926 92.2833C212.995 91.9067 215.516 91.304 217.36 92.66C215.253 92.434 213.108 92.321 210.963 92.6977L210.926 92.2833Z" fill="#E57906"/>
<path d="M128.64 94.9201C129.693 93.7148 131.198 93.1121 132.591 92.4341C133.945 93.5264 135.676 93.7524 137.218 94.4304C137.03 95.1084 137.068 96.2761 136.127 96.3514C134.886 96.2384 133.719 95.6358 132.478 95.7111C131.725 96.1631 132.327 96.9541 132.666 97.4438C133.155 98.1218 133.644 98.7997 134.096 99.5531C134.171 100.193 134.246 100.871 134.284 101.512L134.472 101.399C134.359 102.19 134.472 103.018 134.472 103.847C134.058 104.337 133.494 104.751 133.117 105.278C130.032 109.61 126.683 113.791 122.808 117.482C122.394 115.637 122.319 113.716 122.695 111.832C123.184 109.309 123.222 106.747 123.109 104.186C125.329 102.905 127.85 101.625 128.941 99.1764C129.656 97.7451 127.511 96.2761 128.64 94.9201Z" fill="#F3693F"/>
<path d="M106.103 115.147C110.317 115.335 114.568 115.147 118.669 114.13C118.594 114.62 118.519 115.109 118.481 115.599C113.439 117.595 107.984 118.273 102.566 117.821C102.528 116.729 102.491 115.637 102.453 114.507C103.657 114.808 104.861 115.072 106.103 115.147Z" fill="#F3693F"/>
<path d="M132.666 97.4813C137.03 97.6697 141.319 98.3477 145.646 98.762C145.496 99.327 145.383 99.9297 145.232 100.495C141.507 100.306 137.82 99.4023 134.058 99.553C133.681 98.8373 133.155 98.1593 132.666 97.4813Z" fill="#D9EDE9"/>
<path d="M134.434 101.436C135.149 100.457 135.864 101.399 136.165 102.114C136.729 101.738 137.331 100.909 137.971 101.587C136.842 102.453 135.676 103.244 134.396 103.885C134.434 103.056 134.321 102.265 134.434 101.436Z" fill="#EA501E"/>
<path d="M120.099 105.58C121.077 105.128 122.093 104.676 123.072 104.224C123.184 106.785 123.147 109.346 122.658 111.87C122.281 113.753 122.357 115.674 122.77 117.52C122.206 117.934 121.679 118.386 121.115 118.801C121.002 114.356 120.739 109.949 120.099 105.58Z" fill="#EA501E"/>
<path d="M64.1128 102.981C67.8377 102.604 71.9764 102.265 75.2498 104.374C77.0934 105.655 78.5232 107.764 78.5984 110.062C77.5073 107.99 75.9271 105.843 73.5191 105.316C70.7724 104.751 67.9129 105.241 65.1663 105.58C63.8118 105.73 62.5702 106.295 61.4414 106.973C61.8177 107.576 62.1563 108.292 62.8712 108.518C65.0158 109.422 67.3486 109.648 69.6437 109.911C72.6913 110.175 75.7766 110.439 78.8242 110.853C81.0064 111.343 83.0758 112.435 84.5432 114.168C86.0858 115.976 87.1393 118.236 87.5156 120.571C87.8166 122.944 87.6284 125.317 87.8542 127.69C88.2304 132.474 88.5691 137.408 90.5632 141.815C91.4662 143.924 93.0464 145.845 95.2663 146.712C97.4109 147.465 99.7813 147.691 102.039 147.201C106.027 146.335 110.053 145.657 114.116 145.13C118.631 144.527 123.523 144.941 127.473 147.39C130.822 149.386 132.929 152.964 134.133 156.618C135.939 162.569 135.186 169.086 133.004 174.811C132.778 174.397 132.59 173.945 132.365 173.53C133.456 167.428 132.628 160.95 130.107 155.3C128.677 151.985 125.442 149.8 122.018 149.009C116.524 147.691 110.805 148.557 105.425 149.951C101.362 150.855 96.9971 151.269 93.0088 149.8C90.6384 148.972 89.1711 146.749 88.1176 144.565C85.9729 140.007 85.2581 134.922 84.8066 129.912C84.5056 126.899 84.8442 123.848 84.2422 120.835C83.7154 118.123 81.9094 115.637 79.3509 114.469C77.8459 113.716 76.1152 113.565 74.4597 113.414C70.1328 113.075 65.8059 112.435 61.5543 111.531C60.0869 111.192 58.6196 110.853 57.3403 110.062C56.2492 109.346 55.6848 108.066 55.0076 106.973C57.1898 104.337 60.8771 103.621 64.1128 102.981Z" fill="#F6DED0"/>
<path d="M54.9325 108.442C55.7979 109.836 57.0771 111.004 58.6573 111.493C61.8178 112.51 65.0912 112.962 68.327 113.49C71.8637 127.652 74.6856 142.003 77.3946 156.354C78.8996 164.754 80.5175 173.116 81.7591 181.553C77.7709 181.968 73.8579 182.834 69.8696 183.098C69.9449 182.947 70.0954 182.683 70.1706 182.533C71.2241 181.817 72.2024 180.875 72.6539 179.632C74.949 174.058 75.0619 167.767 73.8202 161.929C73.0677 157.861 72.0895 153.793 70.1706 150.102C69.9449 149.574 69.531 149.122 69.0795 148.821C66.521 137.898 62.6832 127.276 57.9425 117.106C56.6632 114.356 54.8949 111.606 54.9325 108.442Z" fill="#F6DED0"/>
<path d="M69.1169 113.64C71.4873 113.866 73.8577 114.092 76.2281 114.318C79.1252 114.62 81.8342 116.465 82.9629 119.14C84.2422 121.814 83.7907 124.827 84.0164 127.652C84.3551 133.189 84.9571 138.839 87.1393 144C88.2681 146.561 89.7731 149.273 92.5197 150.328C96.809 152.023 101.625 151.495 106.027 150.516C110.805 149.235 115.885 148.557 120.814 149.424C124.313 150.026 127.774 151.985 129.317 155.3C132.101 161.176 132.666 167.88 131.612 174.246C126.796 175.301 121.867 175.715 117.014 176.506C105.5 178.163 93.9871 179.783 82.4738 181.44C78.6737 158.727 74.4221 136.09 69.1169 113.64Z" fill="#F6DED0"/>
<path d="M89.4723 103.621C89.5852 103.433 89.8486 103.094 89.9614 102.905C89.8109 108.706 90.3377 114.544 91.9555 120.081C92.2189 120.948 92.407 121.814 92.5952 122.718C92.0308 122.228 91.6545 121.588 91.504 120.872C89.9238 115.298 89.0961 109.422 89.4723 103.621Z" fill="#397194"/>
<path d="M65.1287 105.58C67.8753 105.241 70.7348 104.751 73.4815 105.316C75.8895 105.881 77.4697 107.99 78.5608 110.062C78.5985 110.25 78.6737 110.627 78.749 110.853C75.7013 110.439 72.6537 110.137 69.5685 109.911C67.2733 109.685 64.9406 109.459 62.796 108.518C62.0811 108.292 61.7425 107.576 61.3662 106.973C62.5702 106.295 63.8118 105.73 65.1287 105.58Z" fill="#EFD1C0"/>
<path d="M69.0417 148.859C69.4932 149.198 69.9071 149.612 70.1329 150.139C72.0517 153.831 73.03 157.899 73.7825 161.967C75.0241 167.805 74.9113 174.095 72.6161 179.67C72.2023 180.913 71.224 181.855 70.1329 182.57C70.1705 181.327 70.4339 180.16 70.622 178.954C72.127 168.935 71.3369 158.69 69.0417 148.859Z" fill="#EFD1C0"/>
<path d="M132.139 174.321C132.176 174.133 132.252 173.756 132.289 173.568C132.477 173.982 132.703 174.434 132.929 174.849C132.666 175.414 132.402 175.979 132.139 176.581C129.731 177.109 127.323 177.636 124.915 178.05C119.309 179.03 113.665 179.858 108.021 180.574C98.3515 181.892 88.6443 182.909 78.937 183.964C76.9053 184.152 74.9111 184.303 72.917 184.567C71.9388 184.604 70.9981 184.303 70.0575 184.152C70.0199 183.889 69.907 183.361 69.8694 183.098C73.8576 182.834 77.7706 181.968 81.7589 181.553C81.947 181.516 82.2856 181.478 82.4738 181.44C93.987 179.783 105.5 178.126 117.014 176.506C121.867 175.715 126.796 175.301 131.612 174.246C131.725 174.284 131.988 174.321 132.139 174.321Z" fill="#EFD1C0"/>
<path d="M179.848 110.778C180.412 108.405 182.519 106.371 184.965 106.145C183.986 107.312 182.293 107.614 181.466 108.932C180.901 109.535 180.751 110.589 179.848 110.778Z" fill="#421230"/>
<path d="M55.0076 107.086C55.7225 108.179 56.2493 109.459 57.3404 110.175C58.6196 110.966 60.1246 111.305 61.5544 111.644C65.806 112.548 70.1329 113.188 74.4597 113.527C76.1152 113.678 77.8084 113.829 79.351 114.582C81.8719 115.75 83.6779 118.236 84.2422 120.948C84.8442 123.923 84.5056 127.012 84.8066 130.025C85.2581 134.997 85.973 140.082 88.1176 144.678C89.1711 146.862 90.6385 149.085 93.0089 149.913C96.9595 151.382 101.362 150.968 105.425 150.064C110.805 148.633 116.524 147.804 122.018 149.122C125.442 149.913 128.677 152.136 130.107 155.413C132.628 161.1 133.456 167.541 132.365 173.643C132.327 173.832 132.252 174.208 132.214 174.397C132.064 174.397 131.8 174.359 131.65 174.359C132.703 167.993 132.139 161.251 129.355 155.413C127.812 152.098 124.35 150.139 120.851 149.537C115.922 148.67 110.843 149.348 106.065 150.629C101.663 151.646 96.8466 152.173 92.5574 150.441C89.8107 149.386 88.3057 146.674 87.177 144.113C84.9947 138.952 84.3927 133.302 84.0541 127.765C83.8284 124.903 84.2799 121.889 83.0006 119.253C81.8719 116.578 79.1629 114.695 76.2657 114.431C73.8954 114.205 71.525 113.979 69.1546 113.753C74.4598 136.165 78.7114 158.84 82.5115 181.591C82.3234 181.629 81.9847 181.666 81.7966 181.704C80.555 173.267 78.9748 164.867 77.4321 156.505C74.7608 142.154 71.9013 127.841 68.3645 113.64C65.1288 113.113 61.8178 112.661 58.6949 111.644C57.1146 111.154 55.8354 109.987 54.97 108.593C54.9324 108.103 55.0076 107.425 55.0076 107.086Z" fill="#F9C3A5"/>
<path d="M181.39 111.041C182.105 109.836 183.159 108.819 184.588 108.706C183.535 109.798 182.293 110.702 181.315 111.87C181.089 111.682 180.901 111.456 180.675 111.267C180.901 111.192 181.24 111.079 181.39 111.041Z" fill="#491A2E"/>
<path d="M182.331 112.586C183.271 111.418 184.4 110.25 185.98 110.25C184.851 111.079 183.723 111.945 182.632 112.774L182.331 112.586Z" fill="#390E2B"/>
<path d="M113.402 120.119C114.794 119.29 116.487 119.516 118.03 119.592C118.519 119.742 119.008 119.931 119.497 120.081C117.465 120.157 115.434 120.345 113.402 120.119Z" fill="#E14F23"/>
<path d="M102.566 127.803C102.34 125.091 102.227 122.341 102.641 119.629C102.867 123.132 103.243 126.635 104.033 130.101C104.221 130.816 104.409 131.683 105.124 132.059C106.441 132.813 107.946 133.076 109.451 133.34C113.063 133.905 116.713 134.282 120.362 134.696C120.249 135.299 120.137 135.939 120.024 136.542C115.734 136.429 111.445 136.127 107.231 135.374C106.215 135.11 104.936 135.035 104.296 134.056C103.13 132.135 102.791 129.912 102.566 127.803Z" fill="#356D90"/>
<path d="M232.071 132.549C231.845 130.929 231.695 128.594 233.576 127.954C234.291 128.632 235.043 129.234 235.758 129.875C237.188 131.268 236.323 133.34 236.435 135.073C236.134 135.412 235.833 135.751 235.532 136.09C234.968 136.127 234.404 136.127 233.877 136.165C233.012 135.148 232.146 133.98 232.071 132.549Z" fill="#F9AB93"/>
<path d="M241.703 133.867C242.756 133.34 243.471 134.884 243.885 135.675C244.374 137.295 244.562 139.028 244.713 140.723C244.6 140.798 244.412 140.949 244.299 141.024C243.96 141.099 243.321 141.288 242.982 141.363C242.756 140.082 242.267 138.764 241.101 138.086C240.988 139.969 242.23 141.627 242.531 143.472C242.305 143.585 241.853 143.811 241.59 143.887C241.289 143.585 240.95 143.284 240.649 142.983C240.123 143.548 239.634 144.15 239.257 144.828C238.053 142.983 237.715 140.497 238.354 138.425C238.806 137.408 239.972 138.161 240.649 138.463C240.574 136.918 240.386 134.997 241.703 133.867Z" fill="#F9AB93"/>
<path d="M223.342 139.932C223.041 138.35 223.229 136.316 224.659 135.299C225.712 135.261 226.277 136.24 226.841 136.956C227.518 138.915 227.293 140.986 227.481 143.02V143.171C226.841 143.359 226.202 143.585 225.562 143.774C224.659 142.606 223.568 141.476 223.342 139.932Z" fill="#F9AB93"/>
<path d="M230.19 136.805C231.168 136.956 231.996 137.483 232.786 138.048C232.974 139.028 233.162 139.969 233.313 140.911C233.162 141.664 232.899 142.455 232.711 143.209C231.958 142.832 231.206 142.418 230.491 141.966C230.19 141.74 229.889 141.476 229.626 141.212C229.513 139.743 229.626 138.237 230.19 136.805Z" fill="#F9AB93"/>
<path d="M244.111 141.853C244.676 142.267 245.315 142.606 245.767 143.133C246.218 144.565 246.595 146.034 247.046 147.465C246.783 148.218 246.03 148.708 245.428 149.198C245.353 148.52 245.353 147.766 245.052 147.126C244.789 146.599 244.111 146.749 243.622 146.636C243.472 146.109 243.246 145.619 243.095 145.13C243.02 144.941 242.87 144.527 242.794 144.301C243.208 143.51 243.697 142.719 244.111 141.853Z" fill="#F9AB93"/>
<path d="M221.988 149.386C222.853 149.951 223.681 150.629 224.283 151.458C224.433 152.06 224.584 152.625 224.772 153.228C224.772 153.906 224.734 154.622 224.697 155.3L224.207 155.111C223.38 154.923 222.514 154.848 221.649 154.735C221.461 154.848 221.085 155.036 220.896 155.111C220.144 153.605 219.279 151.985 219.843 150.252C220.558 150.328 221.31 150.441 222.025 150.516C222.063 150.252 222.025 149.687 221.988 149.386Z" fill="#F9AB93"/>
<path d="M248.513 160.686C248.739 160.573 249.002 160.46 249.266 160.347C251.034 160.309 252.84 160.724 254.232 161.816C254.872 162.419 255.135 163.285 255.098 164.151C253.103 164.867 250.658 164.566 249.228 162.871C248.927 162.155 248.739 161.402 248.513 160.686Z" fill="#F9AB93"/>
<path d="M155.466 129.498C157.159 129.686 158.74 130.364 160.132 131.306C159.944 131.268 159.567 131.193 159.417 131.155C157.987 130.892 156.482 130.553 155.466 129.498Z" fill="#E14516"/>
<path d="M235.758 129.875C236.172 129.724 236.623 129.573 237.037 129.423C238.128 130.892 237.714 132.85 236.962 134.395C236.849 134.583 236.548 134.922 236.435 135.11C236.322 133.34 237.188 131.268 235.758 129.875Z" fill="#EE8F81"/>
<path d="M243.885 135.675C244.186 135.487 244.75 135.148 245.014 134.96C245.841 135.525 245.691 136.617 245.691 137.483C245.691 138.651 245.39 139.781 244.675 140.723C244.562 138.99 244.374 137.295 243.885 135.675Z" fill="#EE8F81"/>
<path d="M226.803 136.956C227.405 137.031 228.384 136.843 228.572 137.634C229.249 139.48 228.421 141.401 227.48 142.983C227.255 140.986 227.48 138.915 226.803 136.956Z" fill="#EE8F81"/>
<path d="M249.228 160.347C250.544 159.292 252.426 159.066 253.931 159.782C254.345 159.97 255.022 160.272 254.909 160.874C254.721 161.1 254.382 161.59 254.194 161.816C252.802 160.724 250.996 160.309 249.228 160.347Z" fill="#EE8F81"/>
<path d="M155.128 132.398C156.445 132.474 157.686 132.888 158.89 133.378C158.778 133.491 158.589 133.717 158.514 133.792C157.348 133.528 156.031 133.302 155.128 132.398Z" fill="#DD4314"/>
<path d="M210.775 133.528C213.108 133.378 215.591 134.997 215.666 137.483C215.779 140.873 215.629 144.263 215.704 147.653C215.704 149.16 215.817 150.855 214.726 152.023C213.86 153.115 212.431 153.529 211.076 153.492C196.026 153.228 180.976 152.663 165.926 152.399C164.346 152.399 162.615 152.173 161.486 150.93C160.508 149.989 160.395 148.595 160.207 147.314C175.52 147.729 190.871 148.181 206.185 148.595C208.555 148.746 210.775 146.674 210.7 144.263C210.813 140.723 210.7 137.107 210.775 133.528Z" fill="#B1E6E0"/>
<path d="M120.4 134.621C127.812 135.336 135.299 135.901 142.749 135.562C143.088 136.09 143.426 136.617 143.727 137.182C138.46 138.011 133.08 137.333 127.774 137.446C129.016 138.048 130.408 138.689 131.048 139.969C134.133 145.205 136.767 150.667 139.476 156.091C143.916 165.018 148.017 174.133 152.118 183.211C151.93 183.286 151.591 183.399 151.441 183.474C148.882 177.071 145.834 170.894 142.975 164.641C139.626 157.748 136.278 150.855 132.703 144.075C131.876 142.644 131.161 141.137 130.22 139.781C129.58 138.764 128.339 138.463 127.248 138.161C124.877 137.559 122.432 137.182 120.024 136.843L120.099 136.542C120.174 135.864 120.287 135.223 120.4 134.621Z" fill="#1B5175"/>
<path d="M101.888 146.071C107.946 145.243 114.041 143.51 118.933 139.668C121.717 140.346 124.576 140.61 127.398 141.024C129.919 145.808 132.402 150.591 134.81 155.413C134.584 155.827 134.321 156.279 134.095 156.693C132.929 153.04 130.822 149.499 127.436 147.465C123.485 145.017 118.594 144.565 114.079 145.205C110.015 145.732 105.99 146.41 102.001 147.277C99.7438 147.766 97.3734 147.54 95.2288 146.787C97.411 146.373 99.6685 146.41 101.888 146.071Z" fill="#1B5175"/>
<path d="M107.984 180.574C113.627 179.858 119.271 179.03 124.877 178.05C124.915 178.917 124.99 179.783 125.065 180.649C121.641 181.403 118.218 182.118 114.756 182.344C113.59 182.495 112.31 182.344 111.219 182.834C110.166 184.303 109.564 185.998 108.698 187.58C108.548 187.505 108.285 187.354 108.134 187.279C108.962 185.772 109.79 184.228 110.58 182.683C109.413 182.646 108.209 182.646 107.043 182.646C107.382 181.968 107.683 181.29 107.984 180.574Z" fill="#1B5175"/>
<path d="M155.166 134.809C156.257 134.884 157.31 135.299 158.288 135.751C158.138 135.864 157.875 136.052 157.724 136.127C156.783 135.901 155.843 135.525 155.166 134.809Z" fill="#E24617"/>
<path d="M142.938 135.562C143.314 135.525 144.104 135.487 144.48 135.487C144.442 136.165 144.367 136.881 144.33 137.559C143.878 136.918 143.427 136.203 142.938 135.562Z" fill="#275C7E"/>
<path d="M233.877 136.203C234.441 136.165 234.968 136.165 235.532 136.127C235.833 137.596 236.097 139.065 236.134 140.572C236.134 140.647 236.134 140.798 236.172 140.873C235.796 140.384 235.344 139.932 234.742 139.781C234.592 139.743 234.328 139.593 234.216 139.555C234.178 139.329 234.065 138.877 234.027 138.689C233.952 137.86 233.915 137.031 233.877 136.203Z" fill="#879A52"/>
<path d="M225.562 143.774C226.201 143.585 226.841 143.359 227.48 143.171C227.48 143.322 227.518 143.585 227.556 143.736C227.631 144.64 227.706 145.544 227.668 146.41C227.593 146.674 227.405 147.201 227.292 147.503C227.029 146.975 226.803 146.448 226.54 145.921C226.314 145.393 226.088 144.866 225.863 144.339C225.75 144.226 225.637 143.924 225.562 143.774Z" fill="#879A52"/>
<path d="M219.88 150.29C220.068 149.123 220.783 148.143 221.837 147.578C221.874 148.181 221.95 148.784 221.987 149.424C222.025 149.725 222.063 150.29 222.1 150.554C221.348 150.479 220.633 150.366 219.88 150.29Z" fill="#879A52"/>
<path d="M238.204 152.362C238.58 151.872 238.956 151.382 239.295 150.893C239.445 151.043 239.784 151.307 239.934 151.42C240.123 152.173 240.386 152.927 240.649 153.68C240.423 153.68 239.972 153.605 239.746 153.605C239.483 153.379 239.22 153.19 238.994 152.964C238.73 152.776 238.467 152.55 238.204 152.362Z" fill="#879A52"/>
<path d="M247.271 157.221C247.723 156.844 248.137 156.43 248.551 155.978C249.755 157.447 248.964 159.255 247.873 160.498C247.497 159.971 247.271 159.067 246.481 159.142C245.428 159.255 244.449 159.707 243.509 160.084C243.735 159.594 243.998 159.142 244.224 158.652C245.277 158.351 246.368 157.974 247.271 157.221Z" fill="#879A52"/>
<path d="M248.136 161.025L248.513 160.686C248.738 161.439 248.927 162.155 249.228 162.908C248.55 164.001 247.723 164.98 246.744 165.809C245.766 165.771 244.788 165.771 243.81 165.771C245.54 164.453 246.669 162.569 248.136 161.025Z" fill="#879A52"/>
<path d="M119.986 136.768C122.394 137.107 124.84 137.483 127.21 138.086C128.301 138.387 129.505 138.689 130.182 139.706C131.123 141.062 131.875 142.568 132.666 144C136.278 150.78 139.626 157.673 142.937 164.566C145.797 170.818 148.844 176.996 151.403 183.399C150.349 183.776 149.333 184.152 148.28 184.567C144.028 174.698 139.513 164.98 134.735 155.337C132.327 150.478 129.844 145.695 127.323 140.949C124.501 140.572 121.641 140.271 118.857 139.593C119.497 138.802 119.798 137.785 119.986 136.768Z" fill="#376F92"/>
<path d="M143.727 137.182C144.856 139.517 146.248 141.702 147.377 144C150.688 150.591 153.66 157.334 156.633 164.038C157.536 166.148 158.439 168.257 159.379 170.329C160.583 173.229 161.825 176.129 163.067 179.03C159.455 180.536 155.767 181.779 152.118 183.173C148.017 174.095 143.916 164.98 139.476 156.053C136.767 150.629 134.133 145.167 131.048 139.932C130.371 138.613 129.016 138.011 127.774 137.408C133.08 137.295 138.46 138.011 143.727 137.182Z" fill="#376F92"/>
<path d="M114.756 182.344C118.255 182.081 121.679 181.403 125.065 180.649V180.8C123.034 184.868 121.039 188.974 119.008 193.042C115.584 191.234 112.122 189.426 108.698 187.618C109.564 186.036 110.166 184.341 111.219 182.872C112.31 182.382 113.59 182.495 114.756 182.344Z" fill="#376F92"/>
<path d="M105.576 185.847C106.065 184.793 106.554 183.738 107.043 182.683C108.209 182.683 109.413 182.721 110.58 182.721C109.79 184.265 108.962 185.772 108.134 187.316C107.269 186.827 106.441 186.299 105.576 185.847Z" fill="#376F92"/>
<path d="M232.748 138.048C233.162 138.274 233.576 138.463 233.99 138.689C234.027 138.915 234.14 139.367 234.178 139.555C234.328 139.63 234.592 139.743 234.705 139.781C234.215 140.158 233.726 140.534 233.237 140.911C233.162 139.969 232.936 138.99 232.748 138.048Z" fill="#E7947F"/>
<path d="M241.101 138.086C242.305 138.764 242.757 140.082 242.982 141.363C242.87 142.116 242.719 142.907 242.569 143.661L242.493 143.472C242.23 141.627 240.951 140.007 241.101 138.086Z" fill="#EB9181"/>
<path d="M234.742 139.781C235.344 139.932 235.796 140.384 236.172 140.873C236.285 142.192 236.398 143.548 236.586 144.866C237 144.828 237.451 144.791 237.903 144.753C238.354 144.753 238.655 145.167 239.031 145.318C239.521 147.126 239.746 149.047 239.295 150.855C238.956 151.345 238.58 151.834 238.204 152.324C238.467 152.512 238.73 152.738 238.994 152.964C239.822 155.45 239.709 158.087 238.994 160.573C238.693 160.761 238.354 160.95 238.053 161.138L237.715 161.063C236.924 160.724 235.984 160.347 235.72 159.443C234.893 156.957 235.946 154.283 237.79 152.55C237.075 152.512 236.36 152.475 235.645 152.437C235.833 150.93 235.758 149.311 235.231 147.879C234.93 146.787 233.312 147.126 233.011 146.034C232.748 145.092 232.673 144.15 232.673 143.171C232.861 142.418 233.087 141.627 233.275 140.873C233.764 140.534 234.253 140.158 234.742 139.781Z" fill="#F7DD7D"/>
<path d="M227.519 143.736C228.008 142.719 228.647 141.815 229.588 141.212C229.851 141.476 230.152 141.702 230.453 141.966C230.641 143.397 231.055 144.828 231.657 146.147C232.673 146.297 233.35 147.051 233.651 147.992C234.442 149.913 234.931 151.985 234.855 154.094L234.818 154.509C233.915 154.622 232.899 155.074 232.109 154.396C230.942 153.605 230.792 152.098 230.416 150.855C230.265 150.78 230.002 150.629 229.889 150.554C229.701 150.478 229.325 150.29 229.136 150.177C229.249 148.708 228.798 147.314 227.631 146.41C227.669 145.544 227.594 144.64 227.519 143.736Z" fill="#F7DD7D"/>
<path d="M239.934 151.42C239.784 149.047 240.348 145.732 243.095 145.167C243.283 145.657 243.471 146.147 243.622 146.674C244.186 148.482 244.224 150.403 244.261 152.286C244.487 152.06 244.713 151.797 244.939 151.571C245.465 151.382 245.653 151.081 245.465 150.629C246.03 150.441 246.632 150.177 247.196 150.026C247.986 150.177 248.137 151.156 248.362 151.797C248.174 153.642 247.685 155.413 247.234 157.221C246.331 157.974 245.24 158.313 244.148 158.69C242.982 157.673 242.944 156.091 243.321 154.697C243.584 153.944 243.923 153.19 244.224 152.437C243.622 152.927 243.02 153.416 242.455 153.944C241.966 153.868 241.515 153.793 241.063 153.755L240.649 153.718C240.386 152.927 240.123 152.173 239.934 151.42Z" fill="#F7DD7D"/>
<path d="M224.32 151.458C224.245 149.499 223.944 146.26 226.54 145.921C226.803 146.448 227.029 146.975 227.292 147.503C227.932 149.386 228.233 151.345 228.496 153.341C228.421 153.454 228.271 153.642 228.195 153.755C227.97 153.944 227.556 154.358 227.368 154.546C227.18 154.509 226.766 154.471 226.578 154.433C226.389 154.433 226.051 154.358 225.9 154.358C225.524 153.981 225.185 153.642 224.847 153.228C224.621 152.625 224.471 152.06 224.32 151.458Z" fill="#F7DD7D"/>
<path d="M220.934 155.111C221.122 154.998 221.498 154.81 221.686 154.735C222.552 154.848 223.38 154.923 224.245 155.111C225.223 157.447 225.75 159.933 225.449 162.456C224.471 162.381 223.38 162.456 222.627 161.741C220.821 160.083 220.144 157.447 220.934 155.111Z" fill="#F7DD7D"/>
<path d="M228.835 157.447C229.287 156.618 229.776 155.639 230.679 155.187C231.544 154.772 232.033 155.752 232.635 156.204C232.711 158.652 232.635 161.1 232.146 163.511C230.829 163.549 229.701 162.758 229.287 161.515C229.211 161.364 229.061 161.025 228.986 160.874C228.91 160.686 228.798 160.347 228.76 160.159C228.722 159.255 228.76 158.351 228.835 157.447Z" fill="#F7DD7D"/>
<path d="M236.134 140.572C236.322 140.572 236.736 140.534 236.962 140.534C238.166 141.438 237.715 143.397 237.903 144.753C237.451 144.791 237.037 144.791 236.586 144.866C236.398 143.548 236.247 142.192 236.172 140.873C236.172 140.798 236.172 140.647 236.134 140.572Z" fill="#E1BE61"/>
<path d="M230.491 141.966C231.206 142.418 231.958 142.832 232.711 143.209C232.711 144.15 232.786 145.13 233.049 146.071C233.35 147.164 234.968 146.825 235.269 147.917C235.796 149.348 235.871 150.93 235.683 152.475C235.645 152.625 235.608 152.964 235.57 153.115C235.344 153.454 235.081 153.793 234.893 154.132C234.968 152.023 234.479 149.951 233.689 148.03C233.388 147.088 232.711 146.335 231.695 146.184C231.093 144.828 230.679 143.435 230.491 141.966Z" fill="#E1BE61"/>
<path d="M239.257 144.828C239.634 144.15 240.123 143.585 240.65 142.983C240.951 143.284 241.289 143.585 241.59 143.887C241.816 143.774 242.267 143.548 242.531 143.472L242.606 143.661C242.681 143.849 242.794 144.188 242.832 144.339C242.907 144.565 243.058 144.941 243.133 145.167C240.349 145.732 239.822 149.047 239.972 151.42C239.822 151.269 239.483 151.006 239.333 150.893C239.784 149.047 239.596 147.164 239.069 145.356C239.107 145.205 239.22 144.979 239.257 144.828Z" fill="#E1BE61"/>
<path d="M221.837 147.578C221.912 146.147 222.251 144.715 223.304 143.698C224.132 143.962 224.96 144.188 225.825 144.376C226.051 144.904 226.277 145.431 226.502 145.958C223.906 146.297 224.245 149.537 224.283 151.495C223.643 150.667 222.815 150.026 221.987 149.424C221.95 148.783 221.875 148.181 221.837 147.578Z" fill="#E1BE61"/>
<path d="M227.631 146.448C228.835 147.352 229.249 148.783 229.136 150.215C229.136 150.704 229.136 151.232 229.136 151.721C228.91 152.249 228.685 152.814 228.421 153.303C228.158 151.345 227.857 149.348 227.217 147.465C227.368 147.239 227.556 146.712 227.631 146.448Z" fill="#E1BE61"/>
<path d="M243.622 146.712C244.111 146.825 244.751 146.674 245.052 147.201C245.353 147.842 245.353 148.557 245.428 149.273C245.39 149.725 245.278 150.177 245.165 150.629C245.127 150.893 245.014 151.382 244.939 151.608C244.713 151.834 244.487 152.098 244.262 152.324C244.224 150.403 244.186 148.52 243.622 146.712Z" fill="#E1BE61"/>
<path d="M248.363 151.797C248.588 151.382 248.927 151.307 249.341 151.533C250.282 153.002 249.379 154.735 248.513 155.978C248.099 156.392 247.685 156.806 247.234 157.221C247.685 155.45 248.175 153.642 248.363 151.797Z" fill="#E1BE61"/>
<path d="M238.994 152.964C239.219 153.19 239.483 153.379 239.746 153.605C239.972 153.605 240.423 153.68 240.649 153.68L241.063 153.718C241.627 156.166 241.477 159.255 238.994 160.573C239.709 158.125 239.821 155.45 238.994 152.964Z" fill="#E1BE61"/>
<path d="M224.245 155.111L224.734 155.3C225.261 155.789 225.788 156.317 226.277 156.844C226.653 158.049 226.916 159.255 227.142 160.498C226.653 161.213 226.164 161.929 225.449 162.456C225.75 159.933 225.223 157.409 224.245 155.111Z" fill="#E1BE61"/>
<path d="M232.636 156.204C232.974 156.128 233.313 156.053 233.651 155.94C234.442 157.748 234.893 159.82 234.178 161.741C233.764 162.569 232.861 162.984 232.146 163.511C232.673 161.1 232.711 158.652 232.636 156.204Z" fill="#E1BE61"/>
<path d="M242.982 141.363C243.321 141.288 243.96 141.099 244.299 141.024C244.261 141.25 244.149 141.664 244.111 141.853C243.697 142.681 243.208 143.51 242.794 144.339C242.719 144.15 242.606 143.811 242.568 143.661C242.719 142.907 242.869 142.154 242.982 141.363Z" fill="#919B57"/>
<path d="M245.767 143.171C246.933 142.719 247.159 144 247.347 144.828C247.573 145.732 247.309 146.674 247.046 147.54C246.632 146.071 246.218 144.602 245.767 143.171Z" fill="#ED988A"/>
<path d="M229.174 150.215C229.362 150.29 229.738 150.478 229.926 150.591C230.114 151.684 230.227 152.814 230.303 153.906C229.889 153.19 229.512 152.475 229.211 151.759C229.174 151.232 229.174 150.704 229.174 150.215Z" fill="#8EA058"/>
<path d="M227.33 154.509C227.518 154.32 227.97 153.906 228.158 153.718C228.534 154.923 228.835 156.166 228.835 157.409C228.76 158.313 228.722 159.217 228.76 160.121C228.195 158.313 227.932 156.354 227.33 154.509Z" fill="#8EA058"/>
<path d="M229.889 150.591C230.039 150.667 230.303 150.817 230.416 150.893C230.792 152.136 230.942 153.642 232.109 154.433C232.861 155.111 233.915 154.659 234.818 154.546C234.705 155.337 234.742 156.128 234.78 156.919C235.307 155.714 235.457 154.396 235.57 153.115C235.608 152.964 235.645 152.625 235.683 152.475C236.398 152.512 237.113 152.55 237.828 152.588C235.984 154.32 234.931 157.032 235.758 159.481C236.022 160.385 236.962 160.761 237.752 161.1C237.602 161.138 237.339 161.213 237.188 161.251C236.812 162.758 236.586 164.264 236.247 165.771C231.695 165.733 227.105 165.846 222.552 165.696C221.273 164.829 219.692 163.925 219.279 162.343C219.015 161.515 219.843 161.176 220.407 160.837C219.203 159.368 217.849 157.371 218.865 155.488C219.279 154.622 220.219 155.036 220.934 155.149C220.106 157.447 220.784 160.121 222.59 161.741C223.342 162.494 224.433 162.381 225.411 162.456C226.089 161.929 226.615 161.213 227.105 160.498C227.217 161.063 227.406 161.59 227.556 162.155C227.594 159.556 227.029 156.957 226.503 154.433C226.691 154.471 227.105 154.509 227.293 154.546C227.895 156.392 228.158 158.313 228.722 160.159C228.798 160.347 228.911 160.686 228.948 160.874C228.534 161.402 228.534 162.08 228.835 162.645C229.136 162.306 229.287 161.929 229.212 161.477C229.625 162.72 230.754 163.511 232.071 163.473C232.824 162.984 233.689 162.532 234.103 161.703C234.818 159.82 234.366 157.71 233.576 155.902C233.237 155.978 232.899 156.053 232.56 156.166C231.958 155.752 231.469 154.735 230.604 155.149C229.701 155.601 229.212 156.543 228.76 157.409C228.76 156.128 228.459 154.923 228.083 153.718C228.158 153.605 228.309 153.416 228.384 153.303C228.647 152.776 228.873 152.249 229.099 151.721C229.4 152.475 229.814 153.19 230.19 153.868C230.19 152.776 230.077 151.684 229.889 150.591ZM232.297 155.224C232.485 155.413 232.485 155.413 232.297 155.224V155.224Z" fill="#AEC47A"/>
<path d="M241.064 153.718C241.515 153.755 242.004 153.831 242.456 153.906C242.757 154.17 243.058 154.433 243.321 154.659C242.945 156.053 242.982 157.635 244.149 158.652C243.923 159.142 243.66 159.594 243.434 160.083C244.412 159.707 245.353 159.255 246.406 159.142C247.196 159.066 247.422 159.97 247.798 160.498C247.874 160.611 248.024 160.874 248.099 161.025C246.632 162.569 245.503 164.453 243.735 165.733C241.477 165.809 239.22 165.771 236.962 165.771C237.339 164.264 237.64 162.72 238.016 161.176C238.317 160.987 238.656 160.799 238.957 160.611C241.477 159.255 241.628 156.166 241.064 153.718ZM241.59 154.17C241.176 154.433 241.477 155.45 241.967 154.923C242.38 154.622 242.079 153.642 241.59 154.17Z" fill="#AEC47A"/>
<path d="M244.939 151.571C245.014 151.307 245.089 150.817 245.165 150.591L245.466 150.629C245.616 151.081 245.466 151.42 244.939 151.571Z" fill="#A9B26D"/>
<path d="M242.493 153.906C243.058 153.379 243.66 152.889 244.262 152.399C243.961 153.153 243.622 153.906 243.359 154.659C243.058 154.433 242.794 154.17 242.493 153.906Z" fill="#9BA75B"/>
<path d="M224.772 153.228C225.111 153.605 225.449 153.981 225.826 154.358C225.938 155.187 226.089 156.053 226.239 156.882C225.75 156.354 225.261 155.827 224.697 155.337C224.734 154.622 224.772 153.906 224.772 153.228Z" fill="#ACC579"/>
<path d="M234.893 154.094C235.118 153.755 235.344 153.416 235.57 153.077C235.457 154.358 235.307 155.676 234.78 156.882C234.742 156.091 234.705 155.3 234.817 154.509L234.893 154.094Z" fill="#8D9F57"/>
<path d="M241.59 154.17C242.079 153.642 242.38 154.622 241.966 154.923C241.477 155.413 241.176 154.433 241.59 154.17Z" fill="#8A9F58"/>
<path d="M225.825 154.32C226.013 154.358 226.352 154.396 226.502 154.396C227.029 156.957 227.594 159.518 227.556 162.117C227.368 161.552 227.217 161.025 227.104 160.46C226.841 159.217 226.615 158.012 226.239 156.806C226.089 156.015 225.938 155.187 225.825 154.32Z" fill="#8FA159"/>
<path d="M232.297 155.224C232.485 155.413 232.485 155.413 232.297 155.224V155.224Z" fill="#7E924C"/>
<path d="M228.873 162.645C228.572 162.08 228.572 161.364 228.986 160.874C229.061 161.025 229.212 161.326 229.287 161.515C229.325 161.929 229.174 162.343 228.873 162.645Z" fill="#94A75E"/>
<path d="M237.188 161.251C237.339 161.213 237.602 161.138 237.753 161.1L238.091 161.176C237.715 162.72 237.452 164.264 237.038 165.771C236.85 165.771 236.473 165.771 236.248 165.771C236.549 164.264 236.812 162.758 237.188 161.251Z" fill="#8B9F56"/>
<path d="M220.332 165.959C221.047 165.771 221.799 165.733 222.552 165.733C227.104 165.922 231.695 165.771 236.247 165.809C236.435 165.809 236.812 165.809 237.037 165.809C239.295 165.809 241.552 165.846 243.81 165.771C243.81 166.637 243.848 167.504 243.848 168.408C236.059 168.558 228.271 168.445 220.482 168.445C220.445 168.709 220.407 169.274 220.37 169.575C220.294 168.37 219.993 167.127 220.332 165.959Z" fill="#B2D3E4"/>
<path d="M220.37 169.877C228.158 169.801 235.946 169.726 243.735 169.914C242.945 182.608 242.418 195.302 241.552 207.995C235.269 207.958 229.023 208.071 222.74 207.92C222.627 206.602 222.477 205.246 222.401 203.927C221.799 192.514 221.009 181.214 220.37 169.877Z" fill="#B2D3E4"/>
<path d="M243.772 165.733C244.751 165.733 245.729 165.696 246.707 165.771C247.46 166.072 247.083 167.014 247.159 167.617C246.256 181.064 245.616 194.511 244.638 207.92C243.622 207.92 242.606 207.958 241.59 207.958C242.418 195.264 242.945 182.57 243.772 169.877C235.984 169.688 228.196 169.764 220.407 169.839V169.538C220.445 169.274 220.482 168.709 220.52 168.408C228.308 168.37 236.097 168.483 243.885 168.37C243.81 167.504 243.81 166.637 243.772 165.733Z" fill="#8FB9CE"/>
<path d="M124.915 178.05C127.323 177.636 129.731 177.109 132.139 176.581C131.951 178.502 131.913 180.423 131.8 182.307C129.656 182.834 127.586 183.55 125.404 183.964C125.291 182.909 125.178 181.855 125.066 180.8V180.649C125.028 179.783 124.953 178.917 124.915 178.05Z" fill="#EEBF84"/>
<path d="M72.8796 184.604C74.8738 184.341 76.9055 184.152 78.8997 184.002C78.8244 185.659 78.7492 187.354 78.6739 189.011C76.9055 189.463 75.1748 189.991 73.4064 190.405C73.2183 188.484 73.0301 186.525 72.8796 184.604Z" fill="#EEBF84"/>
<path d="M163.067 179.067C163.255 179.105 163.594 179.18 163.744 179.256C164.196 180.386 164.459 181.516 164.647 182.721C162.653 183.776 160.584 184.604 158.477 185.358C156.558 186.036 154.639 186.676 152.682 187.354C151.591 187.693 150.538 188.145 149.409 188.296C148.544 187.354 148.055 186.111 147.49 184.981C147.678 184.906 148.092 184.717 148.318 184.642C149.334 184.228 150.387 183.851 151.441 183.474C151.591 183.399 151.968 183.286 152.118 183.211C155.768 181.817 159.455 180.574 163.067 179.067Z" fill="#63A5C7"/>
<path d="M104.334 186.149C104.522 185.584 105.124 185.81 105.613 185.847C106.479 186.337 107.307 186.827 108.172 187.279C108.322 187.354 108.586 187.505 108.736 187.58C112.16 189.388 115.622 191.234 119.046 193.004C119.234 193.155 119.648 193.418 119.873 193.531C119.158 194.511 118.556 195.603 117.616 196.394C117.202 196.658 116.713 196.319 116.299 196.13C114.756 195.339 113.289 194.435 111.746 193.644C109.903 192.665 108.097 191.648 106.253 190.669C105.312 190.141 104.297 189.727 103.506 188.974C103.356 187.994 103.883 187.015 104.334 186.149Z" fill="#63A5C7"/>
<path d="M125.404 183.964C127.586 183.55 129.656 182.834 131.8 182.307C131.499 188.333 131.274 194.36 130.973 200.387C130.86 202.91 131.01 205.585 129.881 207.92C129.355 207.92 128.79 207.92 128.264 207.92C127.662 206.489 127.248 204.944 127.135 203.4C126.533 196.921 126.006 190.443 125.404 183.964Z" fill="#F4D0A2"/>
<path d="M73.4062 190.405C75.1746 189.991 76.9054 189.463 78.6738 189.011C78.4856 194.209 78.2223 199.37 77.9213 204.568C77.8836 205.698 77.5826 206.828 77.2064 207.92C76.6796 207.92 76.1529 207.92 75.5885 207.92C75.2875 207.317 74.9865 206.752 74.9489 206.074C74.4221 200.839 73.933 195.603 73.4062 190.405Z" fill="#F4D0A2"/>
<path d="M161.9 195.942C168.334 194.36 174.806 192.891 181.24 191.234C181.277 191.648 181.277 192.025 181.277 192.439C180.374 192.929 179.321 193.004 178.343 193.268C173.978 194.285 169.576 195.302 165.211 196.319C164.346 196.507 163.443 196.733 162.578 196.959C162.352 196.658 162.126 196.319 161.9 195.942Z" fill="#2D8ECB"/>
<path d="M155.504 197.712C157.348 197.223 159.192 196.733 161.035 196.243C161.035 196.507 161.073 197.072 161.073 197.336C160.885 197.411 160.546 197.524 160.396 197.599C158.853 198.089 157.31 198.466 155.73 198.767C155.655 198.466 155.542 197.938 155.504 197.712Z" fill="#2D8ECB"/>
<path d="M99.7815 202.684C99.932 202.345 100.082 202.006 100.233 201.705C102.302 202.647 104.409 203.513 106.441 204.492C106.215 204.831 105.914 205.472 105.388 205.208C103.431 204.568 101.55 203.777 99.7815 202.684Z" fill="#2D8ECB"/>
<path d="M107.946 204.794C111.333 205.585 114.568 207.317 118.143 207.091C120.739 207.091 123.373 207.054 125.969 207.129C125.668 208.334 124.351 207.882 123.448 207.995C120.287 207.807 117.052 208.297 113.929 207.694C111.972 207.091 110.016 206.526 108.059 205.961C108.022 205.66 107.946 205.057 107.946 204.794Z" fill="#2E8ECC"/>
<path d="M125.968 207.091C126.006 207.28 126.119 207.656 126.157 207.845C126.871 207.845 127.586 207.882 128.301 207.882C128.828 207.882 129.355 207.882 129.919 207.882C157.874 207.845 185.792 207.882 213.748 207.845C216.457 207.807 219.166 207.995 221.837 207.769C222.063 207.769 222.552 207.807 222.778 207.845C229.061 207.995 235.307 207.882 241.59 207.92C242.606 207.92 243.622 207.92 244.638 207.882C247.234 207.882 249.868 207.769 252.501 207.882C253.291 207.769 254.307 208.711 253.743 209.464C253.404 210.067 252.689 210.067 252.125 210.067C190.909 210.067 129.731 210.067 68.5151 210.067C66.7844 210.029 65.0536 210.18 63.3605 209.992C62.9466 209.653 62.7961 209.088 62.4951 208.636C63.0219 208.184 63.6239 207.769 64.3764 207.845C68.1389 207.807 71.8637 207.845 75.6262 207.807C76.153 207.807 76.6797 207.807 77.2441 207.807C88.7574 207.845 100.308 207.807 111.821 207.845C112.536 207.807 113.251 207.694 113.966 207.543C117.089 208.146 120.325 207.656 123.485 207.845C124.313 207.845 125.667 208.297 125.968 207.091Z" fill="#C9DCDA"/>
</svg>
