<svg width="487" height="226" viewBox="0 0 487 226" fill="none" xmlns="http://www.w3.org/2000/svg">
<mask id="mask0_878_6" style="mask-type:alpha" maskUnits="userSpaceOnUse" x="0" y="0" width="487" height="226">
<rect width="487" height="226" rx="20" fill="#01D1B2"/>
</mask>
<g mask="url(#mask0_878_6)">
<g opacity="0.25">
<path d="M94.253 0.0136719H96.3267C96.354 2.80392 96.2963 5.59114 96.3601 8.38139C97.7476 8.50587 99.1382 8.45426 100.529 8.46337C100.007 9.07668 99.4752 9.67784 98.9378 10.276C102.779 10.3306 106.622 10.276 110.463 10.2911C112.531 10.3215 114.608 10.1636 116.663 10.4521C115.916 10.6008 115.154 10.5857 114.398 10.5857C108.532 10.5614 102.663 10.6069 96.7973 10.5614C95.516 10.5887 94.2712 9.54425 94.2651 8.22655C94.2226 5.48791 94.2682 2.75231 94.253 0.0136719Z" fill="#6F6F9D"/>
<path d="M101.276 0.0136719H102.754C101.983 0.81826 101.233 1.66232 100.723 2.66122C101.558 2.69462 102.396 2.69766 103.234 2.69462C103.219 3.08629 103.204 3.47492 103.192 3.86355C102.005 3.86962 100.817 3.86962 99.6333 3.86052C99.6758 3.18648 99.612 2.48209 99.8428 1.83235C100.18 1.13099 100.738 0.569293 101.276 0.0136719Z" fill="#6F6F9D"/>
<path d="M106.337 0.0136719H107.552C107.582 1.01258 107.67 2.03577 107.433 3.01949C107.005 4.09734 105.563 4.12163 104.667 3.68745C103.866 3.21077 103.963 2.18758 103.881 1.3921C104.191 1.38603 104.807 1.37692 105.117 1.37388C105.126 1.81109 105.141 2.24527 105.156 2.68248C105.52 2.68551 105.882 2.67944 106.249 2.66426C106.431 1.79287 106.361 0.897201 106.337 0.0136719Z" fill="#6F6F9D"/>
<path d="M119.964 0.0136719H128.207C129.443 0.833441 129.871 2.30903 130.73 3.43849C131.738 4.53151 133.353 4.46168 134.713 4.50722C134.225 5.07195 133.711 5.61846 133.28 6.22874C132.117 6.07086 130.864 5.91297 129.928 5.13875C128.641 4.13984 128.486 2.18454 126.971 1.41335C124.982 0.402303 122.669 0.827369 120.528 0.766645C120.386 0.578402 120.103 0.201915 119.964 0.0136719Z" fill="#6F6F9D"/>
<path d="M43.0874 56.4625C46.0963 56.3472 49.1082 56.3502 52.12 56.3198C51.6859 57.2519 50.602 57.5586 50.1496 58.4421C48.3279 58.4452 46.5061 58.512 44.6875 58.4907C44.0225 57.929 43.5185 57.2094 43.0874 56.4625Z" fill="#6F6F9D"/>
<path d="M41.1654 59.8268C41.1594 59.2864 41.217 58.746 41.3476 58.2207C41.9579 58.9889 42.5773 59.7509 43.2695 60.4462C43.2331 62.0918 43.2209 63.7374 43.1906 65.3831C42.6714 65.6715 42.3192 66.1542 41.8395 66.4973C41.7787 66.6279 41.6573 66.889 41.5966 67.0226C42.1947 66.6188 42.7594 66.1846 43.1511 65.5683C43.1997 67.1501 43.1207 68.732 43.145 70.3138C47.4048 74.5068 51.6585 78.7089 55.8393 82.9747C55.3444 83.4787 54.8465 83.9827 54.3364 84.4776C50.2193 80.3545 46.0719 76.2647 41.9548 72.1416C41.4083 71.6346 41.0136 70.9362 41.0349 70.1742C41.0683 66.725 41.1503 63.2759 41.1654 59.8268Z" fill="#6F6F9D"/>
<path d="M183.299 63.7618C181.343 63.4035 181.204 60.3309 183.047 59.6842C183.323 59.6265 183.875 59.5051 184.152 59.4443C183.475 60.0728 182.946 61.3936 183.973 61.9553C184.823 62.4168 185.506 61.5909 186.068 61.0839C186.429 62.6839 184.908 64.2992 183.299 63.7618Z" fill="#6F6F9D"/>
<path d="M234.683 130.685C234.716 129.188 234.804 127.697 234.862 126.204C235.937 126.234 237.011 126.234 238.089 126.216C238.086 126.504 238.077 127.081 238.074 127.373C237.382 127.376 236.69 127.376 236 127.382C235.973 127.907 235.94 128.429 235.903 128.957C236.601 128.387 237.889 128.423 238.171 129.416C238.472 130.482 238.372 131.651 238.25 132.741C237.959 134.316 235.578 134.474 234.844 133.178C234.616 132.613 234.695 131.994 234.692 131.405C235.059 131.402 235.43 131.399 235.803 131.395C235.894 132.03 235.782 133.226 236.793 132.819C237.345 132.218 237.054 131.292 237.109 130.551C237.184 129.956 236.644 129.577 236.104 129.765C235.973 130.069 235.858 130.381 235.754 130.697C235.393 130.688 235.038 130.685 234.683 130.685Z" fill="#6F6F9D"/>
<path d="M170.282 175.812C170.996 175.117 171.654 174.245 172.675 173.999C173.358 173.79 174.041 174.142 174.712 174.251C174.32 174.725 173.95 175.211 173.613 175.721C174.038 175.335 174.487 174.974 174.933 174.61C179.381 179.021 183.817 183.445 188.268 187.853C188.936 188.412 189.377 189.25 189.301 190.143C189.632 190.917 188.733 190.613 188.472 190.984C188.12 191.254 187.719 192.134 187.218 191.703C187.169 191.075 187.181 190.449 187.178 189.827C182.518 185.239 177.897 180.618 173.273 175.997C172.96 176.21 172.653 176.422 172.389 176.692C168.946 180.139 165.491 183.575 162.03 187.003C161.684 187.31 161.462 187.708 161.353 188.16C161.186 188.093 160.855 187.963 160.688 187.896L161.198 188.263C160.994 188.473 160.591 188.889 160.387 189.095L160.084 188.649C160.065 188.874 160.029 189.323 160.011 189.548C158.909 188.634 159.066 186.882 160.068 185.971C163.484 182.598 166.879 179.2 170.282 175.812Z" fill="#6F6F9D"/>
<path d="M170.461 183.205C170.874 182.865 171.229 182.427 171.733 182.215C172.884 181.668 174.351 182.801 174.196 184.04C174.214 184.902 173.485 185.503 172.82 185.919C171.506 186.778 169.708 185.965 168.457 186.96C169.004 187.504 169.56 188.041 170.13 188.564C169.86 188.84 169.596 189.125 169.329 189.408C168.549 188.615 167.72 187.868 166.97 187.052C166.869 186.629 167.352 186.411 167.571 186.132C168.998 184.765 171.454 185.955 172.757 184.358C173.191 183.991 172.872 183.135 172.277 183.305C171.876 183.542 171.545 183.873 171.187 184.167C170.941 183.845 170.698 183.53 170.461 183.205Z" fill="#6F6F9D"/>
<path d="M172.125 187.632C173.261 186.633 174.348 185.576 175.526 184.632C176.257 185.43 177.044 186.174 177.803 186.945C177.484 187.213 177.159 187.471 176.804 187.689C176.376 187.179 175.92 186.696 175.459 186.226C175.046 186.593 174.63 186.961 174.208 187.322C174.9 187.319 175.413 187.753 175.671 188.363C175.835 189.235 175.064 189.854 174.536 190.422C173.965 190.941 173.461 191.624 172.684 191.84C171.682 192.037 170.692 191.187 170.473 190.252C170.282 189.326 171.078 188.682 171.649 188.096C171.901 188.397 172.165 188.706 172.417 189.016C172.104 189.371 171.806 189.742 171.536 190.133C171.849 190.395 172.341 190.905 172.714 190.422C173.312 189.781 174.457 189.22 174.162 188.184C173.707 187.975 173.303 188.066 172.948 188.463C172.672 188.184 172.395 187.908 172.125 187.632Z" fill="#6F6F9D"/>
<path d="M44.2503 199.063C44.0863 197.867 44.7543 196.467 46.0386 196.294C47.3867 195.984 48.7894 197.199 48.592 198.586C48.5799 199.828 47.3745 200.645 46.2238 200.702C46.658 200.044 47.3958 199.069 46.6003 198.371C45.8291 197.56 44.7846 198.44 44.2503 199.063Z" fill="#6F6F9D"/>
<path d="M182.145 197.113C182.925 196.105 184.634 195.963 185.469 196.98C185.97 197.426 186.043 198.097 186.098 198.735C185.858 198.543 185.375 198.161 185.135 197.97C184.583 198.024 183.842 197.918 183.611 198.574C183.183 199.397 184.033 200.031 184.485 200.599C183.699 200.632 182.819 200.538 182.263 199.922C181.507 199.187 181.61 197.939 182.145 197.113Z" fill="#6F6F9D"/>
<path d="M184.079 199.697C183.474 199.266 183.845 198.286 184.537 198.24C184.983 198.034 185.302 198.516 185.627 198.741C187.124 200.162 188.73 201.616 189.501 203.584C189.884 204.549 189.747 205.603 189.629 206.608C189.389 206.659 189.149 206.669 188.918 206.605C189.182 207.352 189.131 208.138 189.091 208.918C189.383 210.415 190.634 211.423 191.624 212.483C191.915 212.783 191.706 213.23 191.709 213.597C191.299 213.706 190.773 214.074 190.409 213.667C189.161 212.559 187.941 211.296 187.418 209.677C187.048 208.42 187.622 207.191 187.904 205.985C188.047 205.992 188.329 206.001 188.472 206.004L188.038 205.952C188.208 203.216 185.843 201.401 184.079 199.697Z" fill="#6F6F9D"/>
<path d="M103.932 0.0136719H105.271C105.208 0.17459 105.086 0.499461 105.022 0.663415C104.761 0.666451 104.242 0.672523 103.981 0.67556C103.969 0.511606 103.945 0.180662 103.932 0.0136719Z" fill="#6F6F9D"/>
<path d="M117.589 0.0136719H119.569C120.07 0.888093 120.926 1.25851 121.937 1.11277C121.312 1.74126 120.501 2.40011 119.545 2.14811C118.406 2.07524 117.926 0.930599 117.589 0.0136719Z" fill="#6F6F9D"/>
<path d="M116.448 8.11756C118.776 5.73112 121.136 3.372 123.455 0.979492C124.305 1.04325 125.149 1.14345 125.99 1.27704C125.395 2.17878 124.585 2.9014 123.832 3.66651C121.983 5.56716 120.103 7.43745 118.263 9.34721C117.799 9.7996 117.316 10.3066 116.663 10.4524C114.608 10.1639 112.531 10.3218 110.463 10.2915C106.623 10.2763 102.779 10.3309 98.938 10.2763C99.4754 9.67815 100.007 9.07699 100.529 8.46368C105.356 8.46368 110.181 8.46065 115.009 8.46975C115.494 8.42725 116.102 8.5578 116.448 8.11756Z" fill="#6F6F9D"/>
<path d="M241.818 18.7378C243.169 18.7226 244.52 18.7317 245.874 18.7317V20.8024C244.857 20.851 243.84 20.8236 242.823 20.8297C242.425 20.1648 242.088 19.4634 241.818 18.7378Z" fill="#6F6F9D"/>
<path d="M38.697 47.6427C38.0017 46.8472 39.3467 45.7815 40.0116 46.5527C41.2474 47.6427 42.4497 48.9209 42.9325 50.5362C43.482 52.4095 41.7362 54.1796 42.5499 56.0286C43.394 57.9596 45.0821 59.332 46.5971 60.7286C46.6245 61.4937 45.9899 62.2194 45.2066 61.8065C43.4486 60.2793 41.6087 58.6154 40.7707 56.3838C40.1969 54.7777 40.9589 53.1867 41.2868 51.6292C41.2109 49.9259 39.7596 48.7995 38.697 47.6427Z" fill="#6F6F9D"/>
<path d="M197.763 54.2034C198.118 53.6326 199.105 53.7206 199.308 54.3764C199.539 55.0383 198.91 55.4603 198.531 55.8854C197.307 57.1272 195.774 58.3903 193.931 58.3174C192.537 58.0441 191.189 57.3913 189.735 57.6585C189.261 57.2608 188.848 56.7993 188.454 56.3287C189.929 55.6 191.636 55.8004 193.129 56.3651C195 57.0574 196.569 55.4148 197.763 54.2034Z" fill="#6F6F9D"/>
<path d="M51.9986 56.4893C53.6442 56.1644 55.8364 55.876 57.069 57.3303C61.1588 61.3927 65.2516 65.4551 69.3352 69.5236C69.9728 70.1491 70.6985 70.7624 71.0051 71.6337C71.2419 72.5142 70.9474 73.4555 70.3159 74.0991C67.9416 76.5159 65.4853 78.8568 63.1323 81.2949C62.6981 80.9457 62.2609 80.6026 61.8419 80.2383C62.1486 80.7028 62.4886 81.1491 62.9076 81.5226C61.5413 82.7887 60.2692 84.1489 58.9333 85.4423C58.2106 86.1801 57.0326 86.3441 56.0914 85.9736C55.4052 85.6397 54.9164 85.0294 54.379 84.5102C54.8982 84.0153 55.4082 83.5052 55.8971 82.98C56.3009 83.3686 56.6986 83.7663 57.0873 84.1701C61.0161 80.5298 64.7111 76.6343 68.5428 72.8877C68.9709 72.5932 68.9284 72.0133 68.5306 71.7157C64.0523 67.2799 59.5951 62.8197 55.1077 58.393C53.5046 58.3838 51.9015 58.481 50.3014 58.3778C50.8752 57.9709 51.4369 57.5489 52.029 57.1663C52.0199 56.9963 52.0047 56.6593 51.9986 56.4893Z" fill="#6F6F9D"/>
<path d="M173.567 57.0421C174.193 56.362 175.174 56.2284 176.051 56.2952C179.846 56.4257 183.648 56.3134 187.44 56.5411C186.629 57.1665 185.897 57.88 185.09 58.5025C181.795 58.5419 178.498 58.3537 175.204 58.4326C170.707 62.9353 166.18 67.4106 161.681 71.9102C161.234 72.2503 161.617 72.7664 161.93 73.0336C165.607 76.6467 169.217 80.3265 172.912 83.9183C173.267 84.3343 173.643 83.7908 173.917 83.5631C178.334 79.1515 182.767 74.7491 187.197 70.3466C187.206 66.8398 187.088 63.3361 187.112 59.8293C187.759 59.301 188.408 58.7666 189.137 58.3476C189.261 62.41 189.316 66.4755 189.292 70.5409L189.28 70.544C187.868 70.9053 187.075 72.2442 186.046 73.1581C183.553 75.83 180.8 78.2407 178.322 80.9216C176.619 82.6887 174.642 84.1977 173.176 86.1864C171.849 86.1651 171.023 85.066 170.167 84.2189C166.93 80.9945 163.691 77.7761 160.451 74.5578C159.841 73.9475 159.182 73.1945 159.252 72.2685C159.212 71.4548 159.741 70.7565 160.299 70.2191C164.729 65.8348 169.132 61.4202 173.567 57.0421Z" fill="#6F6F9D"/>
<path d="M183.763 60.4338C185.132 58.9582 186.486 57.2853 188.393 56.502C188.63 57.009 189.043 57.3946 189.422 57.8014C187.698 58.7518 186.359 60.2031 185.026 61.6179C184.303 62.2494 183.271 61.2171 183.763 60.4338Z" fill="#6F6F9D"/>
<path d="M167.452 72.8577C167.656 71.8618 168.761 71.0572 169.772 71.3153C170.859 71.7859 171.652 72.9002 171.721 74.0873C171.87 75.0802 171.7 76.1702 172.295 77.0476C172.875 76.495 173.434 75.9273 173.998 75.3625C174.25 75.6388 174.518 75.9121 174.751 76.2157C173.962 77.078 173.121 77.8947 172.241 78.6598C171.84 78.2257 171.381 77.8279 171.096 77.3057C170.595 76.2916 170.829 75.1196 170.546 74.0539C170.434 73.3222 169.775 72.885 169.298 72.3962C169.037 72.633 168.782 72.8789 168.533 73.1279C168.804 73.4619 169.107 73.7807 169.356 74.1389C169.426 74.6338 168.849 74.8069 168.555 75.0741C168.054 74.4244 167.27 73.7776 167.452 72.8577Z" fill="#6F6F9D"/>
<path d="M119.754 109.531C119.933 109.455 120.291 109.303 120.471 109.228C120.659 109.297 121.038 109.437 121.23 109.507C121.469 111.368 121.533 113.451 120.51 115.106C119.73 116.369 118.133 116.63 117.1 117.604L117.185 117.796C117.222 117.844 117.298 117.941 117.334 117.99C116.439 117.811 116.36 118.977 116.071 119.526C116.244 119.508 116.59 119.472 116.763 119.453C119.414 121.937 121.98 124.515 124.591 127.044C125.171 127.584 125.744 128.246 125.766 129.09C125.826 130.532 125.799 131.978 125.79 133.423C125.587 133.632 125.377 133.836 125.165 134.036C124.736 134.58 124.223 135.041 123.662 135.445C123.616 133.35 123.643 131.255 123.646 129.163C121.363 126.84 118.986 124.615 116.663 122.335C115.822 121.636 116.436 120.434 116.366 119.526L116.047 119.821C115.594 121.567 116.144 123.403 115.704 125.143C115.218 125.128 114.574 125.389 114.353 124.779C113.955 123.731 114.073 122.559 114.107 121.46C114.256 119.699 114.429 117.726 115.768 116.423C116.727 115.421 118.303 115.209 119.08 114.01C119.836 112.646 119.596 111.022 119.754 109.531Z" fill="#6F6F9D"/>
<path d="M105.454 127.366C108.286 124.621 111.068 121.813 113.988 119.159C113.861 120.201 113.979 121.281 113.739 122.302C111.408 124.551 109.079 126.804 106.744 129.051C106.677 135.123 106.741 141.199 106.711 147.271C106.723 147.745 106.674 148.234 106.811 148.695C111.156 148.871 115.51 148.683 119.857 148.747C121.117 148.735 122.383 148.807 123.64 148.668C123.637 144.405 123.653 140.145 123.631 135.882C124.09 135.521 124.524 135.12 124.852 134.635C125.165 134.407 125.474 134.179 125.796 133.964C125.793 138.7 125.799 143.44 125.787 148.176C125.915 149.594 124.648 150.972 123.206 150.884C118.254 150.893 113.302 150.945 108.35 150.872C107.479 150.872 106.522 151.003 105.751 150.505C104.853 149.989 104.473 148.896 104.54 147.903C104.543 141.727 104.531 135.548 104.546 129.373C104.509 128.599 104.868 127.861 105.454 127.366ZM124.518 142.438C124.339 142.817 124.882 143.373 125.271 143.218C125.438 142.829 124.913 142.265 124.518 142.438Z" fill="#6F6F9D"/>
<path d="M116.314 123.368C117.003 123.996 117.616 124.928 117.279 125.9C116.955 127.284 115.112 128.046 113.964 127.139C112.71 126.355 112.74 124.488 113.809 123.556C113.842 124.361 113.955 125.481 115.018 125.484C116.193 125.563 116.363 124.245 116.314 123.368Z" fill="#6F6F9D"/>
<path d="M230.881 126.519C231.646 125.994 232.739 125.978 233.489 126.549C234.352 127.576 234.069 129.142 233.335 130.162C232.752 131.052 231.674 131.665 231.574 132.816C232.336 132.81 233.098 132.807 233.866 132.798C233.869 133.089 233.878 133.672 233.881 133.964C232.694 133.955 231.507 133.955 230.323 133.964C230.332 133.068 230.326 132.09 230.887 131.343C231.601 130.335 232.788 129.491 232.77 128.134C232.812 127.569 232.46 127.129 231.871 127.275C231.467 127.7 231.592 128.335 231.51 128.866C231.106 128.851 230.705 128.842 230.304 128.829C230.377 128.046 230.311 127.147 230.881 126.519Z" fill="#6F6F9D"/>
<path d="M-10.5104 129.267C-9.11981 128.893 -7.67155 128.975 -6.25062 129.079C-4.8479 129.209 -3.37232 129.425 -2.22464 130.308C-0.903899 131.192 -0.758163 133.041 0.550431 133.933C1.5463 134.501 2.7213 134.608 3.84773 134.568L3.79004 134.999C3.83254 134.996 3.91756 134.987 3.95703 134.984L3.94792 134.529C4.24243 134.565 4.83145 134.635 5.12292 134.671C5.22008 134.869 5.41136 135.266 5.50548 135.464C5.08345 136.502 3.85076 136.293 2.95509 136.238C2.99456 135.588 2.51788 136.004 2.26284 136.229C1.29126 136.05 0.243777 135.943 -0.575992 135.336C-2.05158 134.413 -2.14266 132.309 -3.70326 131.471C-5.66463 130.478 -7.93873 130.861 -10.0489 130.788C-10.814 130.673 -10.5468 129.771 -10.5104 129.267Z" fill="#6F6F9D"/>
<path d="M243.245 129.191C243.779 128.717 244.896 128.908 245.115 129.655C245.243 130.466 245.176 131.292 245.194 132.112C245.164 132.719 245.306 133.539 244.62 133.848C243.831 134.395 242.68 133.654 242.817 132.707C242.935 131.559 242.416 130.138 243.245 129.191ZM243.794 129.71C243.469 130.882 243.676 132.157 243.709 133.366C244.113 133.326 244.335 133.123 244.377 132.758C244.411 131.753 244.477 130.724 244.268 129.734C244.149 129.728 243.913 129.716 243.794 129.71Z" fill="#6F6F9D"/>
<path d="M55.299 174.713C56.2068 173.705 57.8828 173.675 58.8452 174.622C62.6708 178.387 66.4478 182.206 70.2765 185.971C70.7714 186.457 70.9961 187.131 71.1175 187.799C68.1299 190.158 65.7192 193.14 62.9137 195.699C60.4332 198.262 57.8312 200.7 55.3354 203.247C55.3445 203.399 55.3627 203.7 55.3719 203.851V203.854C51.1971 203.775 47.0224 203.86 42.8506 203.645C43.637 202.947 44.4902 202.321 45.228 201.568C48.5374 201.492 51.8651 201.844 55.1654 201.638C59.3128 197.576 63.3965 193.44 67.5287 189.36C68.054 188.85 68.5914 188.339 68.98 187.711C65.1484 183.904 61.3349 180.072 57.4881 176.28C57.1875 175.897 56.7199 176.243 56.4801 176.501C52.0442 180.931 47.5901 185.349 43.1482 189.776C43.1178 193.219 43.2332 196.662 43.2332 200.108C42.7869 200.876 41.8973 201.31 41.1777 201.817C41.0714 198.01 41.0714 194.202 41.0077 190.395C40.95 189.521 41.2324 188.607 41.9033 188.021C46.3817 183.597 50.8237 179.137 55.299 174.713Z" fill="#6F6F9D"/>
<path d="M159.977 189.586C160.46 189.043 160.979 188.533 161.544 188.077C165.892 192.546 170.379 196.879 174.77 201.306C175.438 202.119 176.658 201.497 177.539 201.713C177.095 202.296 176.637 202.866 176.187 203.443C176.585 203.033 176.928 202.575 177.299 202.141L177.526 202.681C177.563 202.532 177.636 202.232 177.675 202.08C177.757 201.986 177.924 201.795 178.006 201.701C179.983 201.655 181.962 201.649 183.939 201.655C184.552 202.344 185.144 203.055 185.697 203.795C182.178 203.789 178.659 203.859 175.14 203.844C174.463 203.868 173.91 203.428 173.452 202.994C168.964 198.519 164.477 194.046 159.977 189.586Z" fill="#6F6F9D"/>
<path d="M188.029 191.791C188.241 191.238 188.83 191.044 189.295 190.75C189.21 194.487 189.24 198.225 189.098 201.959C188.396 201.218 187.756 200.423 187.075 199.667C187.109 197.344 187.124 195.021 187.176 192.699C187.245 192.614 187.379 192.441 187.449 192.356C187.561 192.252 187.783 192.046 187.895 191.943L188.029 191.791Z" fill="#6F6F9D"/>
<path d="M45.2402 198.571C45.7138 198.106 46.403 198.416 46.6581 198.944C46.8068 199.673 46.1267 200.153 45.7199 200.645C44.2109 202.184 42.5592 203.851 40.358 204.276C38.6061 204.677 36.9483 203.089 35.2268 203.839C33.9668 204.328 33.1653 205.469 32.1542 206.298C31.3344 206.589 30.6149 205.572 31.1766 204.923C32.4426 203.48 34.0184 201.935 36.0587 201.856C37.5677 201.777 38.9644 202.964 40.4673 202.418C42.4651 201.738 43.801 200.013 45.2402 198.571Z" fill="#6F6F9D"/>
<path d="M108.156 0.0136719H109.003C109.067 0.532859 109.85 0.602691 109.847 0.0136719H110.649C110.521 0.365869 110.394 0.71503 110.263 1.06419C109.786 1.06723 109.307 1.10063 108.836 1.02776C108.56 0.724139 108.374 0.353724 108.156 0.0136719Z" fill="#6F6F9D"/>
<path d="M239.1 126.559C239.793 126.055 240.992 125.93 241.365 126.893C241.432 128.016 241.414 129.148 241.371 130.275C241.262 131.48 239.046 131.468 239.043 130.238C238.994 129.012 238.982 127.782 239.1 126.559ZM239.887 127.032C239.677 128.068 239.711 129.215 239.89 130.263C239.905 130.667 240.461 130.393 240.539 130.157C240.637 129.1 240.564 128.037 240.561 126.981C240.394 126.993 240.054 127.02 239.887 127.032Z" fill="#6F6F9D"/>
<path d="M53.5138 189.881C54.9286 189.96 55.7089 191.39 56.6623 192.268C57.5671 193.1 56.389 194.685 55.3385 194.144C54.3609 193.425 53.4956 192.535 52.7395 191.591C52.3297 190.859 53.0553 190.325 53.5138 189.881ZM53.3741 190.993C53.8629 191.791 54.622 192.377 55.2656 193.048C55.5268 193.446 56.0095 193.422 56.3647 193.145C55.5996 192.292 54.8193 191.445 53.9328 190.722C53.7931 190.789 53.5138 190.926 53.3741 190.993Z" fill="#6F6F9D"/>
<path d="M183.984 201.595C184.549 201.622 185.156 201.473 185.709 201.659C186.304 202.235 186.762 202.934 187.285 203.58C186.866 203.696 186.441 203.781 186.013 203.835C185.436 203.001 184.54 202.451 183.984 201.595Z" fill="#6F6F9D"/>
<path d="M109.003 0.0136719H109.847C109.85 0.602691 109.067 0.532859 109.003 0.0136719Z" fill="#6F6F9D"/>
<path d="M111.034 0.0136719H111.736C111.21 1.2828 110.715 2.56407 110.233 3.84837C110.047 3.85444 109.674 3.86962 109.489 3.8757C109.959 2.57317 110.424 1.26154 111.034 0.0136719Z" fill="#6F6F9D"/>
<path d="M112.145 0.0136719H112.859C112.838 1.08241 112.856 2.15418 112.959 3.21988C113.132 3.20774 113.472 3.17737 113.645 3.16523C113.694 2.11471 113.691 1.06419 113.688 0.0136719H114.501C114.489 1.03687 114.565 2.06613 114.453 3.08325C114.283 4.09127 112.649 4.21575 112.23 3.35651C112.06 2.25134 112.17 1.12795 112.145 0.0136719Z" fill="#6F6F9D"/>
<path d="M114.793 130.728C115.941 130.764 117.094 130.676 118.242 130.779C119.42 130.946 119.359 133.108 118.087 133.038C116.864 133.002 115.552 133.284 114.392 132.826C113.685 132.188 114.058 131.156 114.793 130.728ZM114.842 131.617C114.845 131.775 114.857 132.088 114.86 132.243C115.977 132.355 117.113 132.364 118.23 132.252C118.239 132.088 118.257 131.766 118.266 131.602C117.128 131.526 115.977 131.511 114.842 131.617Z" fill="#6F6F9D"/>
<path d="M111.192 132.224C111.55 132.027 111.927 132.221 112.276 132.343C114.398 133.181 116.514 134.034 118.649 134.844C119.031 134.92 119.007 135.406 119.18 135.679C118.348 135.564 117.592 135.19 116.824 134.878C115.124 134.164 113.381 133.554 111.681 132.847C111.359 132.786 111.241 132.51 111.192 132.224Z" fill="#6F6F9D"/>
<path d="M50.608 188.87C50.7811 188.685 50.9542 188.5 51.1272 188.318C52.1717 190.956 53.4469 193.498 54.4397 196.154C54.3 196.212 54.0146 196.33 53.875 196.388C52.7759 193.886 51.6525 191.397 50.608 188.87Z" fill="#6F6F9D"/>
<path d="M178.507 192.833C179.303 192.21 180.095 193.003 180.478 193.677C180.074 194.943 178.893 195.68 178.024 196.606C177.229 197.514 175.535 196.33 176.115 195.295C176.828 194.399 177.681 193.619 178.507 192.833ZM176.749 195.811C176.88 195.902 177.144 196.084 177.278 196.175C178.021 195.486 178.75 194.779 179.439 194.035C179.813 193.777 179.342 193.428 179.169 193.255C178.389 194.132 177.445 194.858 176.749 195.811Z" fill="#6F6F9D"/>
<path d="M235.284 0.0136719H237.388C237.327 4.57402 237.373 9.13133 237.361 13.6917C237.376 15.3646 237.282 17.0406 237.47 18.7074C238.566 18.7348 239.665 18.7287 240.761 18.7378C240.543 19.4756 240.212 20.1709 239.826 20.8328C238.909 20.8146 237.986 20.8965 237.081 20.7508C236.016 20.435 235.214 19.3845 235.29 18.2581C235.272 12.1766 235.29 6.09515 235.284 0.0136719Z" fill="#6F6F9D"/>
<path d="M242.003 7.77382C242.398 7.77382 242.795 7.77685 243.196 7.77685C243.193 8.45696 243.193 9.1401 243.196 9.8202C243.718 9.86271 244.244 9.90825 244.769 9.9629C244.569 9.50748 244.247 9.04598 244.414 8.52375C244.468 7.789 245.361 7.72827 245.874 7.44287V8.80915C245.276 9.00954 245.328 9.78377 245.874 10.0115V11.1075C244.578 11.1227 243.287 11.0165 242 10.9163C241.997 9.86878 241.997 8.8213 242.003 7.77382Z" fill="#6F6F9D"/>
<path d="M169.997 70.0464C170.78 69.2873 171.542 68.507 172.341 67.7632C172.578 68.0425 172.845 68.3097 173.036 68.6346C172.602 69.1538 172.101 69.6092 171.618 70.0798C171.958 70.4411 172.298 70.7994 172.641 71.1607C172.869 70.5959 173.209 69.9249 173.904 69.8764C174.806 69.8126 175.389 70.5959 175.987 71.1394C176.455 71.6465 177.08 72.108 177.226 72.8245C177.493 74.0116 176.291 75.2049 175.113 74.9832C174.405 74.9438 173.968 74.3517 173.537 73.875C173.813 73.5957 174.096 73.3194 174.372 73.037C174.751 73.5866 175.304 73.8993 175.981 73.6989C176.078 72.445 174.776 71.7102 173.865 71.1121C173.37 71.5341 173.379 72.1444 173.798 72.618C173.54 72.8852 173.285 73.1524 173.03 73.4196C172.031 72.281 170.987 71.188 169.997 70.0464Z" fill="#6F6F9D"/>
<path d="M53.125 68.0879C53.969 67.3379 55.4325 68.5251 54.9315 69.524C54.3668 70.283 53.6351 70.8933 52.9762 71.5643C52.6088 71.9013 52.1382 72.3659 51.5917 72.1442C50.778 71.9469 50.3863 70.863 50.9511 70.2223C51.6433 69.4815 52.3508 68.7467 53.125 68.0879ZM51.5826 70.8022C51.0209 71.2759 51.9895 71.5704 52.2506 71.1514C52.9671 70.5199 53.6108 69.8094 54.2878 69.1354C54.2028 68.9866 54.0328 68.689 53.9448 68.5403C53.0764 69.2052 52.3052 69.9855 51.5826 70.8022Z" fill="#6F6F9D"/>
<path d="M57.0084 68.6008C58.1287 67.6626 59.914 68.8012 59.8624 70.1523C59.9019 70.8324 59.3857 71.3638 58.9333 71.801C58.5022 72.1683 58.232 71.4032 57.901 71.2302C58.1682 70.884 58.4445 70.547 58.6692 70.1705C58.742 69.5663 57.9101 69.375 57.5579 69.7455C56.9264 70.2889 56.2554 70.8628 55.9913 71.6826C56.1643 71.7949 56.5135 72.0196 56.6865 72.1319C57.2513 71.4579 57.8099 71.974 58.2228 72.4871C57.1025 73.4951 56.0034 74.5244 54.8588 75.5021C54.0359 74.7916 53.3224 73.9658 52.5239 73.231C52.8184 72.9486 53.1129 72.6602 53.4075 72.3748C53.8993 72.8454 54.3062 73.4314 54.8952 73.7927C55.296 73.5984 55.6391 73.2917 55.8485 72.9001C55.2686 72.5357 54.3365 71.9892 54.71 71.1664C55.1806 70.0977 56.137 69.3386 57.0084 68.6008Z" fill="#6F6F9D"/>
<path d="M60.2449 71.5916C60.4848 71.3031 60.7307 71.0208 60.9766 70.7354C61.8632 71.549 62.686 72.4265 63.5635 73.2463C62.8439 73.9416 62.0423 74.7219 60.9797 74.7553C59.8836 74.8342 58.6357 74.7097 57.7886 75.5659C57.2907 75.8726 57.1632 76.8138 57.9253 76.8442C58.4141 76.7106 58.7359 76.2855 59.1215 75.9849C59.3978 76.2703 59.6772 76.5527 59.9595 76.8381C59.3796 77.4089 58.7208 77.8977 57.9465 78.1679C57.0721 77.9129 56.1157 77.248 56.1309 76.243C56.0337 75.1621 57.0235 74.4243 57.904 74.0357C59.164 73.4163 60.6912 74.0205 61.8936 73.2281C61.3592 72.6664 60.8127 72.1199 60.2449 71.5916Z" fill="#6F6F9D"/>
<path d="M114.529 137.716C115.601 137.516 116.712 137.595 117.799 137.656C119.405 137.838 119.599 140.397 118.23 141.038C117.696 141.22 117.064 141.375 116.527 141.144C116.493 140.789 116.475 140.434 116.469 140.078C116.979 140.021 117.489 139.945 117.999 139.854C117.914 139.532 118.048 139.037 117.665 138.891C116.885 138.767 116.086 138.809 115.306 138.87C114.884 138.837 114.559 139.672 115.021 139.845C115.215 139.914 115.607 140.048 115.804 140.115C115.801 140.47 115.801 140.825 115.804 141.181C114.295 141.165 112.789 141.096 111.283 141.032C111.295 139.948 111.286 138.864 111.292 137.783C111.581 137.786 112.161 137.795 112.449 137.798C112.449 138.494 112.449 139.189 112.449 139.887C112.98 139.908 113.515 139.933 114.049 139.966C113.478 139.28 113.545 137.971 114.529 137.716Z" fill="#6F6F9D"/>
<path d="M111.368 144.572C110.728 143.3 111.705 141.627 113.193 141.837C115.212 141.679 116.111 143.977 117.929 144.275C117.923 143.51 117.92 142.748 117.911 141.986C118.288 141.989 118.664 141.995 119.044 142.004C119.038 143.173 119.041 144.342 119.041 145.511C118.081 145.468 116.973 145.547 116.226 144.821C115.294 144.008 114.262 142.887 112.898 143.145C112.391 143.072 112.252 143.695 112.388 144.056C112.862 144.345 113.433 144.278 113.967 144.329C113.943 144.724 113.928 145.122 113.906 145.52C113.02 145.486 111.766 145.571 111.368 144.572Z" fill="#6F6F9D"/>
<path d="M58.0405 181.462C58.7752 182.078 59.4645 182.84 59.5373 183.851C59.6739 185.166 59.5555 186.881 60.9431 187.586C61.101 187.54 61.4167 187.446 61.5776 187.401C62.0057 186.763 61.1586 186.332 60.8156 185.925C61.0797 185.618 61.3469 185.318 61.6141 185.017C62.2729 185.621 63.0988 186.353 62.8711 187.364C62.5948 188.151 61.8479 188.849 60.9765 188.834C59.9411 188.813 59.2064 187.883 58.8269 187.012C58.2834 185.761 58.8724 184.225 58.001 183.101C57.4454 183.63 56.8989 184.167 56.3767 184.726C56.0943 184.45 55.821 184.17 55.5569 183.885C56.3979 183.092 57.2207 182.276 58.0405 181.462Z" fill="#6F6F9D"/>
<path d="M53.365 187.92C52.4389 186.715 53.7536 184.899 55.1594 185.106C55.8729 185.148 56.3222 185.819 56.8019 186.271C56.556 186.514 56.304 186.751 56.0459 186.979C55.5844 186.882 55.3476 186.341 54.8618 186.277C54.2273 186.378 54.1726 187.213 54.6645 187.531C55.2504 188.12 56.2949 189.572 56.9841 188.315C56.8323 188.051 56.6198 187.817 56.5408 187.522C56.7807 187.24 57.0479 186.988 57.309 186.73C58.3291 187.829 59.3432 188.934 60.3118 190.082C59.6104 190.883 58.7967 191.576 58.0802 192.365C57.8191 192.104 57.5519 191.855 57.3151 191.582C57.5944 190.935 58.232 190.54 58.7147 190.058C58.3625 189.657 58.0103 189.259 57.6612 188.861C57.564 189.736 56.638 190.665 55.7453 190.149C54.8314 189.554 54.0663 188.746 53.365 187.92Z" fill="#6F6F9D"/>
<path d="M244.796 1.81415C244.666 1.10065 245.406 0.860791 245.874 0.541992V1.67145L245.622 1.60162L245.51 1.84451C245.601 1.93864 245.783 2.12384 245.874 2.21493V3.24419C245.4 2.84949 244.605 2.58838 244.796 1.81415Z" fill="#6F6F9D"/>
<path d="M48.6042 190.786C49.3056 190.288 50.013 190.992 50.4927 191.469C51.1273 192.195 52.0594 192.744 52.3266 193.725C52.2962 194.538 51.1941 195.407 50.4958 194.766C49.6821 194.071 48.9352 193.288 48.2095 192.501C47.7055 191.973 48.0395 191.114 48.6042 190.786ZM48.9352 191.296C48.9321 191.49 48.9261 191.876 48.92 192.07C49.5788 192.75 50.2316 193.448 50.9664 194.053C51.1819 194.375 51.5068 193.956 51.525 193.71C50.7356 192.835 49.9523 191.912 48.9352 191.296Z" fill="#6F6F9D"/>
<path d="M241.945 1.92334C243.269 2.40002 244.578 2.91617 245.874 3.46268V5.27832C244.82 5.2935 243.755 5.19027 242.713 5.37244C242.656 5.66088 242.798 5.91896 242.914 6.16792C243.897 6.11327 244.884 6.11631 245.874 6.11934V6.80856C244.863 6.80856 243.849 6.86928 242.844 6.78123C241.684 6.75998 241.663 4.78342 242.716 4.53749C243.758 4.39783 244.817 4.51017 245.871 4.44944C244.909 3.45965 243.357 3.36856 242.176 2.68846C242.118 2.49718 242.003 2.11462 241.945 1.92334Z" fill="#6F6F9D"/>
<path d="M176.097 64.6022C175.769 64.2014 176.145 63.916 176.452 63.7065C177.514 66.266 178.768 68.7557 179.716 71.3577C179.573 71.464 179.288 71.6705 179.145 71.7767C178.237 69.3387 177.086 67.0038 176.097 64.6022Z" fill="#6F6F9D"/>
<path d="M56.5165 66.0298C56.5286 65.9205 56.5499 65.7079 56.562 65.5986C56.5499 65.796 56.5317 66.1877 56.5195 66.385C53.9357 67.4295 51.4309 68.6652 48.8137 69.6216C48.7408 69.4758 48.5951 69.1813 48.5253 69.0326C50.8176 68.1096 53.0613 67.0742 55.3354 66.1117C55.715 65.9356 56.1097 65.9083 56.5165 66.0298Z" fill="#6F6F9D"/>
<path d="M174.017 66.0323C174.442 65.8926 174.991 65.8501 175.338 66.2023C176.087 66.9158 176.847 67.6263 177.511 68.4248C178.225 69.3084 176.734 70.79 175.863 69.9945C175.082 69.366 174.399 68.6313 173.71 67.9087C173.124 67.4016 173.285 66.3056 174.017 66.0323ZM174.466 66.6153C174.348 66.7246 174.117 66.9492 173.999 67.0616C174.779 67.8965 175.586 68.7041 176.421 69.4844C176.567 69.3994 176.856 69.2294 177.001 69.1444C176.245 68.2184 175.423 67.3288 174.466 66.6153Z" fill="#6F6F9D"/>
<path d="M112 136.833C111.004 136.544 111.14 135.33 111.608 134.644C112.941 134.571 114.289 134.48 115.616 134.647C116.648 134.935 116.49 136.848 115.346 136.869C114.231 136.918 113.108 136.939 112 136.833ZM111.957 135.381C111.997 135.53 112.079 135.828 112.118 135.976C113.202 136.165 114.435 136.195 115.516 135.94C115.51 135.788 115.494 135.488 115.488 135.336C114.31 135.333 113.132 135.302 111.957 135.381Z" fill="#6F6F9D"/>
<path d="M180.933 190.701C181.367 190.349 181.671 190.68 181.823 191.084C179.406 192.065 177.047 193.179 174.636 194.166C174.254 194.445 173.959 194.011 173.695 193.816C176.1 192.763 178.522 191.746 180.933 190.701Z" fill="#6F6F9D"/>
<path d="M134.965 4.38538C136.001 4.32769 136.441 5.48448 135.721 6.17369C135.023 6.18584 134.322 6.20709 133.626 6.22834C134.106 5.63932 134.662 5.09585 134.965 4.38538Z" fill="#6F6F9D"/>
<path d="M242.134 12.5965C242.987 11.4033 244.748 11.7889 245.874 12.3688V13.8019C245.121 13.2219 244.165 12.9335 243.23 13.1734C243.19 13.5134 243.16 13.8535 243.145 14.1966C243.636 14.2451 244.134 14.2876 244.632 14.3302C244.623 14.7097 244.617 15.0892 244.614 15.4687C243.992 15.4201 243.345 15.4839 242.762 15.2471C241.76 14.8129 241.815 13.4557 242.134 12.5965Z" fill="#6F6F9D"/>
<path d="M47.4443 59.2471C47.4413 59.3624 47.4322 59.5962 47.4261 59.7146C48.9472 60.4342 49.0444 62.9057 47.4716 63.6131C46.0143 64.3843 44.1804 63.1911 44.1986 61.5667C44.8484 61.925 45.5345 62.2043 46.2511 62.4047C45.9414 61.7033 46.9251 62.0221 47.165 61.5971C46.9251 60.8137 46.4029 60.1306 45.8533 59.5264C46.3634 59.5568 46.8735 59.5902 47.3836 59.6296L47.4443 59.2471Z" fill="#6F6F9D"/>
<path d="M50.2682 65.5351C51.1517 64.6972 51.9017 63.6254 53.0433 63.1274C53.7659 63.1578 54.0938 63.8683 54.4733 64.3692C53.7963 65.5321 52.764 66.4338 51.7681 67.3174C50.7297 68.1614 49.3391 66.4156 50.2682 65.5351ZM52.8793 64.1567C52.178 64.7973 51.4979 65.4683 50.8603 66.1727C50.5961 66.4855 50.9058 66.78 51.2671 66.7253C52.0474 65.9815 52.8308 65.2315 53.523 64.4087C53.3621 64.345 53.0403 64.2205 52.8793 64.1567Z" fill="#6F6F9D"/>
<path d="M178.352 65.4739C178.738 65.3586 179.127 65.2432 179.515 65.1309C180.496 65.8838 181.376 66.7613 182.181 67.6964C182.934 68.6346 181.434 70.092 180.517 69.2874C179.722 68.5921 178.969 67.8391 178.27 67.0467C177.839 66.5579 178.164 65.981 178.352 65.4739ZM178.935 66.0235C178.905 66.1267 178.847 66.3332 178.817 66.4364C179.534 67.2653 180.317 68.0517 181.167 68.75L181.568 68.6285C181.455 67.7723 180.569 67.3473 180.068 66.7279C179.707 66.4789 179.445 65.8383 178.935 66.0235Z" fill="#6F6F9D"/>
<path d="M243.266 126.195C243.439 126.201 243.788 126.216 243.964 126.222C242.944 128.812 241.948 131.411 240.88 133.98C240.701 133.977 240.336 133.964 240.157 133.961C241.159 131.359 242.173 128.76 243.266 126.195Z" fill="#6F6F9D"/>
<path d="M240.761 18.7373C241.11 18.7403 241.462 18.7403 241.818 18.7373C242.088 19.463 242.425 20.1643 242.823 20.8292C241.824 20.8323 240.822 20.8323 239.826 20.8323C240.211 20.1704 240.542 19.4751 240.761 18.7373Z" fill="#6F6F9D"/>
<path d="M186.046 73.1581C187.075 72.2442 187.868 70.9053 189.28 70.5439C189.164 71.5854 188.317 72.226 187.634 72.9122C183.414 77.096 179.202 81.286 174.991 85.4759C174.542 86.0194 173.828 86.1074 173.176 86.1864C174.642 84.1977 176.619 82.6887 178.322 80.9216C180.8 78.2407 183.553 75.8299 186.046 73.1581Z" fill="#6F6F9D"/>
<path d="M225.319 120.553C225.954 119.949 226.746 119.433 227.66 119.499C233.732 119.49 239.802 119.499 245.874 119.496V121.658C240.008 121.652 234.139 121.664 228.273 121.649C227.915 121.731 227.071 121.47 227.126 122.071C227.047 127.129 227.123 132.191 227.086 137.252C227.165 137.701 226.868 138.588 227.617 138.503C233.702 138.548 239.789 138.518 245.874 138.524V140.628C245.051 140.628 244.228 140.674 243.415 140.592C242.871 140.261 242.455 139.772 241.988 139.353C242.382 139.781 242.786 140.197 243.193 140.619C238.117 140.637 233.043 140.625 227.967 140.628C227.065 140.665 226.084 140.455 225.51 139.702C224.648 138.555 224.946 137.052 224.933 135.725C224.851 131.477 225.025 127.227 224.909 122.982C224.906 122.029 225.158 121.09 225.107 120.149L225.319 120.553Z" fill="#6F6F9D"/>
<path d="M124.518 142.438C124.912 142.265 125.438 142.83 125.271 143.219C124.882 143.374 124.339 142.818 124.518 142.438Z" fill="#6F6F9D"/>
<path d="M62.9138 195.698C65.7192 193.139 68.1299 190.157 71.1175 187.798C71.069 188.515 70.8018 189.21 70.2644 189.702C66.1109 193.837 61.9422 197.957 57.7917 202.096C57.0782 202.794 56.4194 203.668 55.3719 203.851C55.3628 203.699 55.3446 203.398 55.3354 203.246C57.8312 200.699 60.4332 198.261 62.9138 195.698Z" fill="#6F6F9D"/>
<path d="M177.936 188.06C178.999 187.51 180.126 188.849 179.482 189.815C178.738 190.622 177.976 191.436 177.12 192.122C176.394 192.577 175.593 192.028 175.304 191.336C175.158 190.598 175.799 190.13 176.233 189.654C176.789 189.11 177.305 188.518 177.936 188.06ZM176.239 190.859C175.92 191.117 176.339 191.363 176.506 191.557C177.311 190.768 178.161 190.018 178.884 189.15C178.781 189.031 178.574 188.797 178.468 188.682C177.657 189.332 176.956 190.109 176.239 190.859Z" fill="#6F6F9D"/>
</g>
<g opacity="0.25">
<path d="M254.654 0.0136719H256.716C256.71 6.09211 256.728 12.1675 256.707 18.2459C256.789 19.5545 255.675 20.8267 254.348 20.8206C251.606 20.854 248.868 20.8176 246.126 20.8297V18.7317C248.931 18.7166 251.734 18.756 254.539 18.7074C254.712 17.2349 254.651 15.7502 254.654 14.2716C254.658 9.51996 254.654 4.7653 254.654 0.0136719Z" fill="#6F6F9D"/>
<path d="M355.92 0.0136719H357.994C358.021 2.80392 357.963 5.59114 358.027 8.38139C359.415 8.50587 360.805 8.45426 362.196 8.46337C361.674 9.07668 361.142 9.67784 360.605 10.276C364.446 10.3306 368.29 10.276 372.13 10.2911C374.198 10.3215 376.275 10.1636 378.33 10.4521C377.583 10.6008 376.821 10.5857 376.065 10.5857C370.199 10.5614 364.33 10.6069 358.464 10.5614C357.183 10.5887 355.938 9.54425 355.932 8.22655C355.89 5.48791 355.935 2.75231 355.92 0.0136719Z" fill="#6F6F9D"/>
<path d="M362.943 0.0136719H364.422C363.65 0.81826 362.9 1.66232 362.39 2.66122C363.225 2.69462 364.063 2.69766 364.901 2.69462C364.886 3.08629 364.871 3.47492 364.859 3.86355C363.672 3.86962 362.485 3.86962 361.3 3.86052C361.343 3.18648 361.279 2.48209 361.51 1.83235C361.847 1.13099 362.406 0.569293 362.943 0.0136719Z" fill="#6F6F9D"/>
<path d="M368.004 0.0136719H369.219C369.249 1.01258 369.337 2.03577 369.1 3.01949C368.672 4.09734 367.23 4.12163 366.334 3.68745C365.533 3.21077 365.63 2.18758 365.548 1.3921C365.858 1.38603 366.474 1.37692 366.784 1.37388C366.793 1.81109 366.808 2.24527 366.823 2.68248C367.188 2.68551 367.549 2.67944 367.916 2.66426C368.098 1.79287 368.029 0.897201 368.004 0.0136719Z" fill="#6F6F9D"/>
<path d="M381.631 0.0136719H389.874C391.11 0.833441 391.538 2.30903 392.397 3.43849C393.405 4.53151 395.02 4.46168 396.38 4.50722C395.892 5.07195 395.378 5.61846 394.947 6.22874C393.784 6.07086 392.531 5.91297 391.595 5.13875C390.308 4.13984 390.153 2.18454 388.638 1.41335C386.649 0.402303 384.336 0.827369 382.195 0.766645C382.053 0.578402 381.77 0.201915 381.631 0.0136719Z" fill="#6F6F9D"/>
<path d="M304.755 56.4625C307.763 56.3472 310.775 56.3502 313.787 56.3198C313.353 57.2519 312.269 57.5586 311.817 58.4421C309.995 58.4452 308.173 58.512 306.355 58.4907C305.69 57.929 305.186 57.2094 304.755 56.4625Z" fill="#6F6F9D"/>
<path d="M302.832 59.8268C302.826 59.2864 302.884 58.746 303.015 58.2207C303.625 58.9889 304.244 59.7509 304.936 60.4462C304.9 62.0918 304.888 63.7374 304.858 65.3831C304.338 65.6715 303.986 66.1542 303.506 66.4973C303.446 66.6279 303.324 66.889 303.264 67.0226C303.862 66.6188 304.426 66.1846 304.818 65.5683C304.867 67.1501 304.788 68.732 304.812 70.3138C309.072 74.5068 313.325 78.7089 317.506 82.9747C317.011 83.4787 316.513 83.9827 316.003 84.4776C311.886 80.3545 307.739 76.2647 303.622 72.1416C303.075 71.6346 302.681 70.9362 302.702 70.1742C302.735 66.725 302.817 63.2759 302.832 59.8268Z" fill="#6F6F9D"/>
<path d="M444.965 63.7618C443.01 63.4035 442.87 60.3309 444.713 59.6842C444.99 59.6265 445.542 59.5051 445.819 59.4443C445.141 60.0728 444.613 61.3936 445.639 61.9553C446.49 62.4168 447.173 61.5909 447.734 61.0839C448.096 62.6839 446.575 64.2992 444.965 63.7618Z" fill="#6F6F9D"/>
<path d="M431.949 175.812C432.663 175.117 433.322 174.245 434.342 173.999C435.025 173.79 435.708 174.142 436.379 174.251C435.987 174.725 435.617 175.211 435.28 175.721C435.705 175.335 436.154 174.974 436.601 174.61C441.049 179.021 445.484 183.445 449.936 187.853C450.603 188.412 451.044 189.25 450.968 190.143C451.299 190.917 450.4 190.613 450.139 190.984C449.787 191.254 449.386 192.134 448.885 191.703C448.836 191.075 448.849 190.449 448.846 189.827C444.185 185.239 439.564 180.618 434.94 175.997C434.627 176.21 434.32 176.422 434.056 176.692C430.613 180.139 427.158 183.575 423.697 187.003C423.351 187.31 423.129 187.708 423.02 188.16C422.853 188.093 422.522 187.963 422.355 187.896L422.865 188.263C422.661 188.473 422.258 188.889 422.054 189.095L421.751 188.649C421.732 188.874 421.696 189.323 421.678 189.548C420.576 188.634 420.734 186.882 421.735 185.971C425.151 182.598 428.546 179.2 431.949 175.812Z" fill="#6F6F9D"/>
<path d="M432.128 183.205C432.541 182.865 432.897 182.427 433.401 182.215C434.551 181.668 436.018 182.801 435.863 184.04C435.881 184.902 435.152 185.503 434.488 185.919C433.173 186.778 431.375 185.965 430.125 186.96C430.671 187.504 431.227 188.041 431.797 188.564C431.527 188.84 431.263 189.125 430.996 189.408C430.216 188.615 429.387 187.868 428.637 187.052C428.537 186.629 429.019 186.411 429.238 186.132C430.665 184.765 433.121 185.955 434.424 184.358C434.858 183.991 434.539 183.135 433.944 183.305C433.543 183.542 433.212 183.873 432.854 184.167C432.608 183.845 432.365 183.53 432.128 183.205Z" fill="#6F6F9D"/>
<path d="M433.792 187.632C434.928 186.633 436.015 185.576 437.193 184.632C437.924 185.43 438.711 186.174 439.47 186.945C439.151 187.213 438.826 187.471 438.471 187.689C438.043 187.179 437.587 186.696 437.126 186.226C436.713 186.593 436.297 186.961 435.875 187.322C436.567 187.319 437.08 187.753 437.338 188.363C437.502 189.235 436.731 189.854 436.203 190.422C435.632 190.941 435.128 191.624 434.351 191.84C433.349 192.037 432.359 191.187 432.14 190.252C431.949 189.326 432.745 188.682 433.315 188.096C433.567 188.397 433.832 188.706 434.084 189.016C433.771 189.371 433.473 189.742 433.203 190.133C433.516 190.395 434.008 190.905 434.381 190.422C434.979 189.781 436.124 189.22 435.829 188.184C435.374 187.975 434.97 188.066 434.615 188.463C434.339 188.184 434.062 187.908 433.792 187.632Z" fill="#6F6F9D"/>
<path d="M305.917 199.063C305.753 197.867 306.421 196.467 307.706 196.294C309.054 195.984 310.456 197.199 310.259 198.586C310.247 199.828 309.042 200.645 307.891 200.702C308.325 200.044 309.063 199.069 308.267 198.371C307.496 197.56 306.452 198.44 305.917 199.063Z" fill="#6F6F9D"/>
<path d="M443.812 197.113C444.592 196.105 446.301 195.963 447.136 196.98C447.637 197.426 447.71 198.097 447.765 198.735C447.525 198.543 447.042 198.161 446.802 197.97C446.25 198.024 445.509 197.918 445.278 198.574C444.85 199.397 445.7 200.031 446.153 200.599C445.366 200.632 444.486 200.538 443.93 199.922C443.174 199.187 443.277 197.939 443.812 197.113Z" fill="#6F6F9D"/>
<path d="M445.746 199.697C445.141 199.266 445.512 198.286 446.204 198.24C446.65 198.034 446.969 198.516 447.294 198.741C448.791 200.162 450.397 201.616 451.168 203.584C451.551 204.549 451.414 205.603 451.296 206.608C451.056 206.659 450.816 206.669 450.585 206.605C450.849 207.352 450.798 208.138 450.758 208.918C451.05 210.415 452.301 211.423 453.29 212.483C453.582 212.783 453.372 213.23 453.375 213.597C452.966 213.706 452.44 214.074 452.076 213.667C450.828 212.559 449.608 211.296 449.085 209.677C448.715 208.42 449.289 207.191 449.571 205.985C449.714 205.992 449.996 206.001 450.139 206.004L449.705 205.952C449.875 203.216 447.51 201.401 445.746 199.697Z" fill="#6F6F9D"/>
<path d="M365.599 0.0136719H366.938C366.875 0.17459 366.753 0.499461 366.689 0.663415C366.428 0.666451 365.909 0.672523 365.648 0.67556C365.636 0.511606 365.612 0.180662 365.599 0.0136719Z" fill="#6F6F9D"/>
<path d="M379.256 0.0136719H381.236C381.737 0.888093 382.593 1.25851 383.604 1.11277C382.978 1.74126 382.168 2.40011 381.211 2.14811C380.073 2.07524 379.593 0.930599 379.256 0.0136719Z" fill="#6F6F9D"/>
<path d="M378.115 8.11756C380.444 5.73112 382.803 3.372 385.122 0.979492C385.972 1.04325 386.816 1.14345 387.657 1.27704C387.062 2.17878 386.252 2.9014 385.499 3.66651C383.65 5.56716 381.77 7.43745 379.93 9.34721C379.466 9.7996 378.983 10.3066 378.33 10.4524C376.275 10.1639 374.198 10.3218 372.13 10.2915C368.29 10.2763 364.446 10.3309 360.605 10.2763C361.143 9.67815 361.674 9.07699 362.196 8.46368C367.024 8.46368 371.848 8.46065 376.676 8.46975C377.161 8.42725 377.769 8.5578 378.115 8.11756Z" fill="#6F6F9D"/>
<path d="M246.126 7.52543C247.292 7.48292 248.464 7.52846 249.599 7.8169C250.052 8.60023 250.243 9.58396 249.845 10.4341C249.344 11.2205 248.321 11.1597 247.507 11.2235C247.501 10.8409 247.495 10.4614 247.486 10.0789C248.178 10.1031 249.435 9.82382 248.755 8.90082C247.908 8.6306 247 8.7733 246.126 8.76419V7.52543Z" fill="#6F6F9D"/>
<path d="M300.364 47.6427C299.669 46.8472 301.014 45.7815 301.679 46.5527C302.914 47.6427 304.117 48.9209 304.6 50.5362C305.149 52.4095 303.403 54.1796 304.217 56.0286C305.061 57.9596 306.749 59.332 308.264 60.7286C308.292 61.4937 307.657 62.2194 306.874 61.8065C305.116 60.2793 303.276 58.6154 302.438 56.3838C301.864 54.7777 302.626 53.1867 302.954 51.6292C302.878 49.9259 301.427 48.7995 300.364 47.6427Z" fill="#6F6F9D"/>
<path d="M459.43 54.2034C459.785 53.6326 460.772 53.7206 460.975 54.3764C461.206 55.0383 460.577 55.4603 460.198 55.8854C458.974 57.1272 457.441 58.3903 455.598 58.3174C454.205 58.0441 452.856 57.3913 451.402 57.6585C450.928 57.2608 450.516 56.7993 450.121 56.3287C451.596 55.6 453.303 55.8004 454.797 56.3651C456.667 57.0574 458.237 55.4148 459.43 54.2034Z" fill="#6F6F9D"/>
<path d="M313.666 56.4893C315.311 56.1644 317.503 55.876 318.736 57.3303C322.826 61.3927 326.919 65.4551 331.002 69.5236C331.64 70.1491 332.365 70.7624 332.672 71.6337C332.909 72.5142 332.614 73.4555 331.983 74.0991C329.609 76.5159 327.152 78.8568 324.799 81.2949C324.365 80.9457 323.928 80.6026 323.509 80.2383C323.816 80.7028 324.156 81.1491 324.575 81.5226C323.208 82.7887 321.936 84.1489 320.6 85.4423C319.878 86.1801 318.7 86.3441 317.758 85.9736C317.072 85.6397 316.583 85.0294 316.046 84.5102C316.565 84.0153 317.075 83.5052 317.564 82.98C317.968 83.3686 318.366 83.7663 318.754 84.1701C322.683 80.5298 326.378 76.6343 330.21 72.8877C330.638 72.5932 330.595 72.0133 330.198 71.7157C325.719 67.2799 321.262 62.8197 316.775 58.393C315.172 58.3838 313.568 58.481 311.968 58.3778C312.542 57.9709 313.104 57.5489 313.696 57.1663C313.687 56.9963 313.672 56.6593 313.666 56.4893Z" fill="#6F6F9D"/>
<path d="M435.234 57.0421C435.86 56.362 436.841 56.2284 437.718 56.2952C441.513 56.4257 445.315 56.3134 449.107 56.5411C448.296 57.1665 447.564 57.88 446.757 58.5025C443.462 58.5419 440.165 58.3537 436.871 58.4326C432.374 62.9353 427.847 67.4106 423.348 71.9102C422.901 72.2503 423.284 72.7664 423.597 73.0336C427.274 76.6467 430.884 80.3265 434.579 83.9183C434.934 84.3343 435.31 83.7908 435.584 83.5631C440.001 79.1515 444.434 74.7491 448.864 70.3466C448.873 66.8398 448.755 63.3361 448.779 59.8293C449.426 59.301 450.075 58.7666 450.804 58.3476C450.928 62.41 450.983 66.4755 450.959 70.5409L450.947 70.544C449.535 70.9053 448.742 72.2442 447.713 73.1581C445.22 75.83 442.467 78.2407 439.989 80.9216C438.286 82.6887 436.309 84.1977 434.843 86.1864C433.516 86.1651 432.69 85.066 431.834 84.2189C428.597 80.9945 425.358 77.7761 422.118 74.5578C421.508 73.9475 420.849 73.1945 420.919 72.2685C420.879 71.4548 421.408 70.7565 421.966 70.2191C426.396 65.8348 430.799 61.4202 435.234 57.0421Z" fill="#6F6F9D"/>
<path d="M445.43 60.4338C446.799 58.9582 448.153 57.2853 450.06 56.502C450.297 57.009 450.71 57.3946 451.089 57.8014C449.365 58.7518 448.026 60.2031 446.693 61.6179C445.97 62.2494 444.938 61.2171 445.43 60.4338Z" fill="#6F6F9D"/>
<path d="M429.12 72.8577C429.323 71.8618 430.428 71.0572 431.439 71.3153C432.526 71.7859 433.319 72.9002 433.388 74.0873C433.537 75.0802 433.367 76.1702 433.962 77.0476C434.542 76.495 435.101 75.9273 435.666 75.3625C435.918 75.6388 436.185 75.9121 436.419 76.2157C435.629 77.078 434.788 77.8947 433.908 78.6598C433.507 78.2257 433.048 77.8279 432.763 77.3057C432.262 76.2916 432.496 75.1196 432.213 74.0539C432.101 73.3222 431.442 72.885 430.966 72.3962C430.704 72.633 430.449 72.8789 430.2 73.1279C430.471 73.4619 430.774 73.7807 431.023 74.1389C431.093 74.6338 430.516 74.8069 430.222 75.0741C429.721 74.4244 428.937 73.7776 429.12 72.8577Z" fill="#6F6F9D"/>
<path d="M381.421 109.531C381.6 109.455 381.959 109.303 382.138 109.228C382.326 109.297 382.705 109.437 382.897 109.507C383.137 111.368 383.2 113.451 382.177 115.106C381.397 116.369 379.8 116.63 378.768 117.604L378.853 117.796C378.889 117.844 378.965 117.941 379.001 117.99C378.106 117.811 378.027 118.977 377.738 119.526C377.911 119.508 378.257 119.472 378.431 119.453C381.081 121.937 383.647 124.515 386.258 127.044C386.838 127.584 387.412 128.246 387.433 129.09C387.494 130.532 387.466 131.978 387.457 133.423C387.254 133.632 387.044 133.836 386.832 134.036C386.404 134.58 385.89 135.041 385.329 135.445C385.283 133.35 385.311 131.255 385.314 129.163C383.03 126.84 380.653 124.615 378.33 122.335C377.489 121.636 378.103 120.434 378.033 119.526L377.714 119.821C377.262 121.567 377.811 123.403 377.371 125.143C376.885 125.128 376.241 125.389 376.02 124.779C375.622 123.731 375.74 122.559 375.774 121.46C375.923 119.699 376.096 117.726 377.435 116.423C378.394 115.421 379.97 115.209 380.747 114.01C381.503 112.646 381.263 111.022 381.421 109.531Z" fill="#6F6F9D"/>
<path d="M246.126 119.415C247.064 119.5 248.115 119.555 248.773 120.329C251.545 123.192 254.39 125.985 257.111 128.894C256.051 128.76 254.879 128.973 253.886 128.572C251.579 126.319 249.387 123.948 247.104 121.668C246.861 121.662 246.372 121.656 246.126 121.653V119.415Z" fill="#6F6F9D"/>
<path d="M367.121 127.366C369.954 124.621 372.735 121.813 375.656 119.159C375.528 120.201 375.646 121.281 375.407 122.302C373.075 124.551 370.746 126.804 368.411 129.051C368.344 135.123 368.408 141.199 368.378 147.271C368.39 147.745 368.341 148.234 368.478 148.695C372.823 148.871 377.177 148.683 381.524 148.747C382.784 148.735 384.051 148.807 385.308 148.668C385.305 144.405 385.32 140.145 385.298 135.882C385.757 135.521 386.191 135.12 386.519 134.635C386.832 134.407 387.141 134.179 387.463 133.964C387.46 138.7 387.466 143.44 387.454 148.176C387.582 149.594 386.316 150.972 384.873 150.884C379.921 150.893 374.969 150.945 370.017 150.872C369.146 150.872 368.19 151.003 367.418 150.505C366.52 149.989 366.14 148.896 366.207 147.903C366.21 141.727 366.198 135.548 366.213 129.373C366.177 128.599 366.535 127.861 367.121 127.366ZM386.185 142.438C386.006 142.817 386.549 143.373 386.938 143.218C387.105 142.829 386.58 142.265 386.185 142.438Z" fill="#6F6F9D"/>
<path d="M377.981 123.368C378.67 123.996 379.284 124.928 378.947 125.9C378.622 127.284 376.779 128.046 375.631 127.139C374.377 126.355 374.407 124.488 375.476 123.556C375.51 124.361 375.622 125.481 376.685 125.484C377.86 125.563 378.03 124.245 377.981 123.368Z" fill="#6F6F9D"/>
<path d="M248.719 130.254C248.33 128.21 251.454 127.038 252.538 128.748C251.621 128.62 250.492 129.182 250.707 130.26C251.008 131.186 252.016 131.189 252.821 131.125C251.87 132.965 248.743 132.373 248.719 130.254Z" fill="#6F6F9D"/>
<path d="M251.157 129.267C252.547 128.893 253.995 128.975 255.416 129.079C256.819 129.209 258.295 129.425 259.442 130.308C260.763 131.192 260.909 133.041 262.217 133.933C263.213 134.501 264.388 134.608 265.515 134.568L265.457 134.999C265.5 134.996 265.585 134.987 265.624 134.984L265.615 134.529C265.909 134.565 266.498 134.635 266.79 134.671C266.887 134.869 267.078 135.266 267.172 135.464C266.75 136.502 265.518 136.293 264.622 136.238C264.662 135.588 264.185 136.004 263.93 136.229C262.958 136.05 261.911 135.943 261.091 135.336C259.615 134.413 259.524 132.309 257.964 131.471C256.002 130.478 253.728 130.861 251.618 130.788C250.853 130.673 251.12 129.771 251.157 129.267Z" fill="#6F6F9D"/>
<path d="M247.034 138.515C249.49 136.047 251.958 133.587 254.36 131.067C255.265 131.089 256.167 131.18 257.05 131.38C254.387 134.216 251.585 136.918 248.889 139.721C248.203 140.537 247.119 140.637 246.126 140.674V138.542C246.354 138.533 246.806 138.521 247.034 138.515Z" fill="#6F6F9D"/>
<path d="M316.966 174.713C317.874 173.705 319.55 173.675 320.512 174.622C324.338 178.387 328.115 182.206 331.944 185.971C332.438 186.457 332.663 187.131 332.785 187.799C329.797 190.158 327.386 193.14 324.581 195.699C322.1 198.262 319.498 200.7 317.003 203.247C317.012 203.399 317.03 203.7 317.039 203.851V203.854C312.864 203.775 308.689 203.86 304.518 203.645C305.304 202.947 306.157 202.321 306.895 201.568C310.205 201.492 313.532 201.844 316.833 201.638C320.98 197.576 325.064 193.44 329.196 189.36C329.721 188.85 330.259 188.339 330.647 187.711C326.815 183.904 323.002 180.072 319.155 176.28C318.855 175.897 318.387 176.243 318.147 176.501C313.711 180.931 309.257 185.349 304.815 189.776C304.785 193.219 304.9 196.662 304.9 200.108C304.454 200.876 303.564 201.31 302.845 201.817C302.739 198.01 302.739 194.202 302.675 190.395C302.617 189.521 302.899 188.607 303.57 188.021C308.049 183.597 312.491 179.137 316.966 174.713Z" fill="#6F6F9D"/>
<path d="M421.644 189.586C422.127 189.043 422.646 188.533 423.211 188.077C427.559 192.546 432.046 196.879 436.437 201.306C437.105 202.119 438.325 201.497 439.206 201.713C438.762 202.296 438.304 202.866 437.854 203.443C438.252 203.033 438.595 202.575 438.966 202.141L439.193 202.681C439.23 202.532 439.303 202.232 439.342 202.08C439.424 201.986 439.591 201.795 439.673 201.701C441.65 201.655 443.629 201.649 445.606 201.655C446.219 202.344 446.811 203.055 447.364 203.795C443.845 203.789 440.326 203.859 436.807 203.844C436.13 203.868 435.577 203.428 435.119 202.994C430.631 198.519 426.144 194.046 421.644 189.586Z" fill="#6F6F9D"/>
<path d="M449.696 191.791C449.908 191.238 450.497 191.044 450.962 190.75C450.877 194.487 450.907 198.225 450.765 201.959C450.063 201.218 449.423 200.423 448.742 199.667C448.776 197.344 448.791 195.021 448.843 192.699C448.912 192.614 449.046 192.441 449.116 192.356C449.228 192.252 449.45 192.046 449.562 191.943L449.696 191.791Z" fill="#6F6F9D"/>
<path d="M306.907 198.571C307.381 198.106 308.07 198.416 308.325 198.944C308.474 199.673 307.794 200.153 307.387 200.645C305.878 202.184 304.226 203.851 302.025 204.276C300.273 204.677 298.615 203.089 296.894 203.839C295.634 204.328 294.832 205.469 293.821 206.298C293.001 206.589 292.282 205.572 292.844 204.923C294.11 203.48 295.685 201.935 297.726 201.856C299.235 201.777 300.631 202.964 302.134 202.418C304.132 201.738 305.468 200.013 306.907 198.571Z" fill="#6F6F9D"/>
<path d="M369.823 0.0136719H370.67C370.734 0.532859 371.517 0.602691 371.514 0.0136719H372.316C372.188 0.365869 372.061 0.71503 371.93 1.06419C371.453 1.06723 370.974 1.10063 370.503 1.02776C370.227 0.724139 370.042 0.353724 369.823 0.0136719Z" fill="#6F6F9D"/>
<path d="M315.181 189.881C316.596 189.96 317.376 191.39 318.329 192.268C319.234 193.1 318.056 194.685 317.006 194.144C316.028 193.425 315.163 192.535 314.407 191.591C313.997 190.859 314.722 190.325 315.181 189.881ZM315.041 190.993C315.53 191.791 316.289 192.377 316.933 193.048C317.194 193.446 317.677 193.422 318.032 193.145C317.267 192.292 316.486 191.445 315.6 190.722C315.46 190.789 315.181 190.926 315.041 190.993Z" fill="#6F6F9D"/>
<path d="M445.651 201.595C446.216 201.622 446.823 201.473 447.376 201.659C447.971 202.235 448.43 202.934 448.952 203.58C448.533 203.696 448.108 203.781 447.68 203.835C447.103 203.001 446.207 202.451 445.651 201.595Z" fill="#6F6F9D"/>
<path d="M370.67 0.0136719H371.514C371.517 0.602691 370.734 0.532859 370.67 0.0136719Z" fill="#6F6F9D"/>
<path d="M372.701 0.0136719H373.403C372.877 1.2828 372.382 2.56407 371.9 3.84837C371.714 3.85444 371.341 3.86962 371.156 3.8757C371.626 2.57317 372.091 1.26154 372.701 0.0136719Z" fill="#6F6F9D"/>
<path d="M373.812 0.0136719H374.526C374.505 1.08241 374.523 2.15418 374.626 3.21988C374.799 3.20774 375.139 3.17737 375.312 3.16523C375.361 2.11471 375.358 1.06419 375.355 0.0136719H376.169C376.156 1.03687 376.232 2.06613 376.12 3.08325C375.95 4.09127 374.316 4.21575 373.897 3.35651C373.727 2.25134 373.837 1.12795 373.812 0.0136719Z" fill="#6F6F9D"/>
<path d="M376.46 130.728C377.608 130.764 378.761 130.676 379.909 130.779C381.087 130.946 381.026 133.108 379.754 133.038C378.531 133.002 377.219 133.284 376.059 132.826C375.352 132.188 375.725 131.156 376.46 130.728ZM376.509 131.617C376.512 131.775 376.524 132.088 376.527 132.243C377.644 132.355 378.78 132.364 379.897 132.252C379.906 132.088 379.924 131.766 379.933 131.602C378.795 131.526 377.644 131.511 376.509 131.617Z" fill="#6F6F9D"/>
<path d="M372.859 132.224C373.217 132.027 373.594 132.221 373.943 132.343C376.065 133.181 378.181 134.034 380.316 134.844C380.698 134.92 380.674 135.406 380.847 135.679C380.015 135.564 379.259 135.19 378.491 134.878C376.791 134.164 375.048 133.554 373.348 132.847C373.026 132.786 372.908 132.51 372.859 132.224Z" fill="#6F6F9D"/>
<path d="M312.275 188.87C312.448 188.685 312.621 188.5 312.794 188.318C313.839 190.956 315.114 193.498 316.107 196.154C315.967 196.212 315.682 196.33 315.542 196.388C314.443 193.886 313.32 191.397 312.275 188.87Z" fill="#6F6F9D"/>
<path d="M440.174 192.833C440.97 192.21 441.762 193.003 442.145 193.677C441.741 194.943 440.56 195.68 439.692 196.606C438.896 197.514 437.202 196.33 437.782 195.295C438.495 194.399 439.348 193.619 440.174 192.833ZM438.416 195.811C438.547 195.902 438.811 196.084 438.945 196.175C439.688 195.486 440.417 194.779 441.106 194.035C441.48 193.777 441.009 193.428 440.836 193.255C440.056 194.132 439.112 194.858 438.416 195.811Z" fill="#6F6F9D"/>
<path d="M246.126 9.81445C246.287 9.88732 246.612 10.0361 246.776 10.109C246.779 10.4581 246.785 10.8073 246.788 11.1564C246.624 11.1595 246.293 11.1716 246.126 11.1747V9.81445Z" fill="#6F6F9D"/>
<path d="M248.816 11.9697C249.113 11.9606 249.706 11.9485 250.003 11.9424C250.006 13.1508 250.009 14.3592 249.973 15.5676C248.476 15.6162 247.079 14.9725 246.126 13.8279V12.3857C246.952 13.1295 247.778 13.8977 248.783 14.3956C248.813 13.585 248.819 12.7773 248.816 11.9697Z" fill="#6F6F9D"/>
<path d="M431.664 70.0464C432.447 69.2873 433.209 68.507 434.008 67.7632C434.245 68.0425 434.512 68.3097 434.703 68.6346C434.269 69.1538 433.768 69.6092 433.285 70.0798C433.625 70.4411 433.965 70.7994 434.308 71.1607C434.536 70.5959 434.876 69.9249 435.571 69.8764C436.473 69.8126 437.056 70.5959 437.654 71.1394C438.122 71.6465 438.747 72.108 438.893 72.8245C439.16 74.0116 437.958 75.2049 436.78 74.9832C436.072 74.9438 435.635 74.3517 435.204 73.875C435.48 73.5957 435.763 73.3194 436.039 73.037C436.418 73.5866 436.971 73.8993 437.648 73.6989C437.745 72.445 436.443 71.7102 435.532 71.1121C435.037 71.5341 435.046 72.1444 435.465 72.618C435.207 72.8852 434.952 73.1524 434.697 73.4196C433.698 72.281 432.654 71.188 431.664 70.0464Z" fill="#6F6F9D"/>
<path d="M314.792 68.0879C315.636 67.3379 317.1 68.5251 316.599 69.524C316.034 70.283 315.302 70.8933 314.643 71.5643C314.276 71.9013 313.805 72.3659 313.259 72.1442C312.445 71.9469 312.053 70.863 312.618 70.2223C313.31 69.4815 314.018 68.7467 314.792 68.0879ZM313.25 70.8022C312.688 71.2759 313.657 71.5704 313.918 71.1514C314.634 70.5199 315.278 69.8094 315.955 69.1354C315.87 68.9866 315.7 68.689 315.612 68.5403C314.744 69.2052 313.972 69.9855 313.25 70.8022Z" fill="#6F6F9D"/>
<path d="M318.675 68.6008C319.796 67.6626 321.581 68.8012 321.529 70.1523C321.569 70.8324 321.053 71.3638 320.6 71.801C320.169 72.1683 319.899 71.4032 319.568 71.2302C319.835 70.884 320.111 70.547 320.336 70.1705C320.409 69.5663 319.577 69.375 319.225 69.7455C318.593 70.2889 317.922 70.8628 317.658 71.6826C317.831 71.7949 318.18 72.0196 318.354 72.1319C318.918 71.4579 319.477 71.974 319.89 72.4871C318.769 73.4951 317.67 74.5244 316.526 75.5021C315.703 74.7916 314.989 73.9658 314.191 73.231C314.485 72.9486 314.78 72.6602 315.074 72.3748C315.566 72.8454 315.973 73.4314 316.562 73.7927C316.963 73.5984 317.306 73.2917 317.516 72.9001C316.936 72.5357 316.004 71.9892 316.377 71.1664C316.848 70.0977 317.804 69.3386 318.675 68.6008Z" fill="#6F6F9D"/>
<path d="M321.912 71.5916C322.152 71.3031 322.398 71.0208 322.644 70.7354C323.53 71.549 324.353 72.4265 325.231 73.2463C324.511 73.9416 323.709 74.7219 322.647 74.7553C321.551 74.8342 320.303 74.7097 319.456 75.5659C318.958 75.8726 318.83 76.8138 319.592 76.8442C320.081 76.7106 320.403 76.2855 320.789 75.9849C321.065 76.2703 321.344 76.5527 321.627 76.8381C321.047 77.4089 320.388 77.8977 319.614 78.1679C318.739 77.9129 317.783 77.248 317.798 76.243C317.701 75.1621 318.691 74.4243 319.571 74.0357C320.831 73.4163 322.358 74.0205 323.561 73.2281C323.026 72.6664 322.48 72.1199 321.912 71.5916Z" fill="#6F6F9D"/>
<path d="M376.196 137.716C377.268 137.516 378.379 137.595 379.466 137.656C381.072 137.838 381.266 140.397 379.897 141.038C379.363 141.22 378.731 141.375 378.194 141.144C378.16 140.789 378.142 140.434 378.136 140.078C378.646 140.021 379.156 139.945 379.666 139.854C379.581 139.532 379.715 139.037 379.332 138.891C378.552 138.767 377.753 138.809 376.973 138.87C376.551 138.837 376.226 139.672 376.688 139.845C376.882 139.914 377.274 140.048 377.471 140.115C377.468 140.47 377.468 140.825 377.471 141.181C375.962 141.165 374.456 141.096 372.95 141.032C372.962 139.948 372.953 138.864 372.959 137.783C373.248 137.786 373.828 137.795 374.116 137.798C374.116 138.494 374.116 139.189 374.116 139.887C374.647 139.908 375.182 139.933 375.716 139.966C375.145 139.28 375.212 137.971 376.196 137.716Z" fill="#6F6F9D"/>
<path d="M373.035 144.572C372.395 143.3 373.372 141.627 374.86 141.837C376.879 141.679 377.778 143.977 379.596 144.275C379.59 143.51 379.587 142.748 379.578 141.986C379.955 141.989 380.331 141.995 380.711 142.004C380.705 143.173 380.708 144.342 380.708 145.511C379.748 145.468 378.64 145.547 377.893 144.821C376.961 144.008 375.929 142.887 374.566 143.145C374.058 143.072 373.919 143.695 374.055 144.056C374.529 144.345 375.1 144.278 375.634 144.329C375.61 144.724 375.595 145.122 375.574 145.52C374.687 145.486 373.433 145.571 373.035 144.572Z" fill="#6F6F9D"/>
<path d="M319.708 181.462C320.442 182.078 321.132 182.84 321.204 183.851C321.341 185.166 321.223 186.881 322.61 187.586C322.768 187.54 323.084 187.446 323.245 187.401C323.673 186.763 322.826 186.332 322.483 185.925C322.747 185.618 323.014 185.318 323.281 185.017C323.94 185.621 324.766 186.353 324.538 187.364C324.262 188.151 323.515 188.849 322.644 188.834C321.608 188.813 320.873 187.883 320.494 187.012C319.95 185.761 320.54 184.225 319.668 183.101C319.113 183.63 318.566 184.167 318.044 184.726C317.761 184.45 317.488 184.17 317.224 183.885C318.065 183.092 318.888 182.276 319.708 181.462Z" fill="#6F6F9D"/>
<path d="M315.032 187.92C314.106 186.715 315.42 184.899 316.826 185.106C317.54 185.148 317.989 185.819 318.469 186.271C318.223 186.514 317.971 186.751 317.713 186.979C317.251 186.882 317.014 186.341 316.529 186.277C315.894 186.378 315.839 187.213 316.331 187.531C316.917 188.12 317.962 189.572 318.651 188.315C318.499 188.051 318.287 187.817 318.208 187.522C318.448 187.24 318.715 186.988 318.976 186.73C319.996 187.829 321.01 188.934 321.979 190.082C321.277 190.883 320.464 191.576 319.747 192.365C319.486 192.104 319.219 191.855 318.982 191.582C319.261 190.935 319.899 190.54 320.382 190.058C320.029 189.657 319.677 189.259 319.328 188.861C319.231 189.736 318.305 190.665 317.412 190.149C316.498 189.554 315.733 188.746 315.032 187.92Z" fill="#6F6F9D"/>
<path d="M246.126 0.703031C247.201 0.721249 248.288 0.618018 249.353 0.7759C250.191 0.985396 250.188 2.1604 249.784 2.75245C248.664 3.32326 247.334 2.99839 246.126 3.07429V2.23023C247.152 2.22416 248.178 2.27577 249.202 2.17862C249.265 1.9509 249.32 1.72015 249.365 1.4894C248.285 1.47422 247.207 1.48029 246.126 1.48029V0.703031Z" fill="#6F6F9D"/>
<path d="M310.271 190.786C310.973 190.288 311.68 190.992 312.16 191.469C312.794 192.195 313.726 192.744 313.994 193.725C313.963 194.538 312.861 195.407 312.163 194.766C311.349 194.071 310.602 193.288 309.877 192.501C309.373 191.973 309.706 191.114 310.271 190.786ZM310.602 191.296C310.599 191.49 310.593 191.876 310.587 192.07C311.246 192.75 311.899 193.448 312.633 194.053C312.849 194.375 313.174 193.956 313.192 193.71C312.403 192.835 311.619 191.912 310.602 191.296Z" fill="#6F6F9D"/>
<path d="M246.126 3.4082C247.41 3.95472 248.731 4.41318 250.012 4.97184C250.003 5.16008 249.985 5.53353 249.973 5.72177C248.701 5.18133 247.413 4.6834 246.126 4.1885V3.4082Z" fill="#6F6F9D"/>
<path d="M437.764 64.6022C437.436 64.2014 437.812 63.916 438.119 63.7065C439.181 66.266 440.435 68.7557 441.383 71.3577C441.24 71.464 440.955 71.6705 440.812 71.7767C439.904 69.3387 438.753 67.0038 437.764 64.6022Z" fill="#6F6F9D"/>
<path d="M318.183 66.0298C318.196 65.9205 318.217 65.7079 318.229 65.5986C318.217 65.796 318.199 66.1877 318.187 66.385C315.603 67.4295 313.098 68.6652 310.481 69.6216C310.408 69.4758 310.262 69.1813 310.192 69.0326C312.485 68.1096 314.728 67.0742 317.002 66.1117C317.382 65.9356 317.777 65.9083 318.183 66.0298Z" fill="#6F6F9D"/>
<path d="M435.684 66.0323C436.109 65.8926 436.658 65.8501 437.005 66.2023C437.754 66.9158 438.514 67.6263 439.178 68.4248C439.892 69.3084 438.401 70.79 437.53 69.9945C436.749 69.366 436.066 68.6313 435.377 67.9087C434.791 67.4016 434.952 66.3056 435.684 66.0323ZM436.133 66.6153C436.015 66.7246 435.784 66.9492 435.666 67.0616C436.446 67.8965 437.253 68.7041 438.088 69.4844C438.234 69.3994 438.523 69.2294 438.668 69.1444C437.912 68.2184 437.09 67.3288 436.133 66.6153Z" fill="#6F6F9D"/>
<path d="M373.667 136.833C372.671 136.544 372.807 135.33 373.275 134.644C374.608 134.571 375.956 134.48 377.283 134.647C378.315 134.935 378.157 136.848 377.012 136.869C375.898 136.918 374.775 136.939 373.667 136.833ZM373.624 135.381C373.664 135.53 373.746 135.828 373.785 135.976C374.869 136.165 376.102 136.195 377.182 135.94C377.176 135.788 377.161 135.488 377.155 135.336C375.977 135.333 374.799 135.302 373.624 135.381Z" fill="#6F6F9D"/>
<path d="M442.6 190.701C443.034 190.349 443.338 190.68 443.49 191.084C441.073 192.065 438.714 193.179 436.303 194.166C435.921 194.445 435.626 194.011 435.362 193.816C437.767 192.763 440.19 191.746 442.6 190.701Z" fill="#6F6F9D"/>
<path d="M246.126 4.32471C246.688 4.6344 247.374 5.02303 247.216 5.78815C247.274 6.46522 246.584 6.68382 246.126 6.98744V6.09784C246.685 6.07355 246.639 5.27807 246.126 5.20824V4.32471Z" fill="#6F6F9D"/>
<path d="M396.633 4.38538C397.668 4.32769 398.108 5.48448 397.389 6.17369C396.69 6.18584 395.989 6.20709 395.294 6.22834C395.773 5.63932 396.329 5.09585 396.633 4.38538Z" fill="#6F6F9D"/>
<path d="M309.111 59.2471C309.108 59.3624 309.099 59.5962 309.093 59.7146C310.614 60.4342 310.711 62.9057 309.139 63.6131C307.681 64.3843 305.848 63.1911 305.866 61.5667C306.515 61.925 307.202 62.2043 307.918 62.4047C307.609 61.7033 308.592 62.0221 308.832 61.5971C308.592 60.8137 308.07 60.1306 307.52 59.5264C308.031 59.5568 308.541 59.5902 309.051 59.6296L309.111 59.2471Z" fill="#6F6F9D"/>
<path d="M311.935 65.5351C312.819 64.6972 313.569 63.6254 314.71 63.1274C315.433 63.1578 315.761 63.8683 316.14 64.3692C315.463 65.5321 314.431 66.4338 313.435 67.3174C312.397 68.1614 311.006 66.4156 311.935 65.5351ZM314.546 64.1567C313.845 64.7973 313.165 65.4683 312.527 66.1727C312.263 66.4855 312.573 66.78 312.934 66.7253C313.715 65.9815 314.498 65.2315 315.19 64.4087C315.029 64.345 314.707 64.2205 314.546 64.1567Z" fill="#6F6F9D"/>
<path d="M440.02 65.4739C440.405 65.3586 440.794 65.2432 441.182 65.1309C442.163 65.8838 443.044 66.7613 443.848 67.6964C444.601 68.6346 443.101 70.092 442.184 69.2874C441.389 68.5921 440.636 67.8391 439.938 67.0467C439.506 66.5579 439.831 65.981 440.02 65.4739ZM440.603 66.0235C440.572 66.1267 440.514 66.3332 440.484 66.4364C441.201 67.2653 441.984 68.0517 442.834 68.75L443.235 68.6285C443.123 67.7723 442.236 67.3473 441.735 66.7279C441.374 66.4789 441.113 65.8383 440.603 66.0235Z" fill="#6F6F9D"/>
<path d="M447.713 73.1581C448.742 72.2442 449.535 70.9053 450.947 70.5439C450.831 71.5854 449.984 72.226 449.301 72.9122C445.081 77.096 440.87 81.286 436.658 85.4759C436.209 86.0194 435.496 86.1074 434.843 86.1864C436.309 84.1977 438.286 82.6887 439.989 80.9216C442.467 78.2407 445.22 75.8299 447.713 73.1581Z" fill="#6F6F9D"/>
<path d="M486.986 120.553C487.621 119.949 488.413 119.433 489.327 119.499C495.399 119.49 501.469 119.499 507.541 119.496V121.658C501.675 121.652 495.806 121.664 489.94 121.649C489.582 121.731 488.738 121.47 488.793 122.071C488.714 127.129 488.79 132.191 488.753 137.252C488.832 137.701 488.535 138.588 489.285 138.503C495.369 138.548 501.457 138.518 507.541 138.524V140.628C506.718 140.628 505.896 140.674 505.082 140.592C504.538 140.261 504.122 139.772 503.655 139.353C504.05 139.781 504.453 140.197 504.86 140.619C499.784 140.637 494.71 140.625 489.634 140.628C488.732 140.665 487.751 140.455 487.177 139.702C486.315 138.555 486.613 137.052 486.601 135.725C486.519 131.477 486.692 127.227 486.576 122.982C486.573 122.029 486.825 121.09 486.774 120.149L486.986 120.553Z" fill="#6F6F9D"/>
<path d="M386.185 142.438C386.58 142.265 387.105 142.83 386.938 143.219C386.549 143.374 386.006 142.818 386.185 142.438Z" fill="#6F6F9D"/>
<path d="M324.581 195.698C327.386 193.139 329.797 190.157 332.785 187.798C332.736 188.515 332.469 189.21 331.931 189.702C327.778 193.837 323.609 197.957 319.459 202.096C318.745 202.794 318.086 203.668 317.039 203.851C317.03 203.699 317.012 203.398 317.002 203.246C319.498 200.699 322.1 198.261 324.581 195.698Z" fill="#6F6F9D"/>
<path d="M439.604 188.06C440.666 187.51 441.793 188.849 441.149 189.815C440.405 190.622 439.643 191.436 438.787 192.122C438.061 192.577 437.26 192.028 436.971 191.336C436.825 190.598 437.466 190.13 437.9 189.654C438.456 189.11 438.972 188.518 439.604 188.06ZM437.906 190.859C437.588 191.117 438.007 191.363 438.174 191.557C438.978 190.768 439.828 190.018 440.551 189.15C440.448 189.031 440.241 188.797 440.135 188.682C439.324 189.332 438.623 190.109 437.906 190.859Z" fill="#6F6F9D"/>
</g>
</g>
</svg>
