<svg width="42" height="58" viewBox="0 0 42 58" fill="none" xmlns="http://www.w3.org/2000/svg">
<path d="M22.8866 40.2812C23.7014 40.0766 24.6714 40.5599 24.3011 41.5264C22.9853 44.6164 21.5461 47.6606 20.1211 50.7012C19.7048 51.636 18.5655 51.181 18.2339 50.4296C19.7013 47.0115 21.2428 43.6181 22.8866 40.2812Z" fill="white"/>
<path d="M16.1239 40.7512C17.0904 40.4866 18.2968 40.5042 19.0023 41.3297C20.0887 42.4655 20.2016 44.2962 19.7078 45.7248C19.0023 47.5132 16.2121 47.8413 15.1503 46.2116C14.0709 44.5573 14.0215 41.6048 16.1239 40.7512ZM16.8012 42.402C16.7341 43.2451 16.6459 44.1022 16.8329 44.9382C16.8012 45.492 17.5419 45.5661 17.7536 45.1181C17.9123 44.2222 17.683 43.3227 17.4784 42.4549C17.3091 42.4443 16.9705 42.4161 16.8012 42.402Z" fill="white"/>
<path d="M24.1561 44.4828C25.3237 43.8902 27.0027 44.1159 27.7153 45.3047C28.4701 46.5745 28.6253 48.2748 27.9234 49.5975C27.0239 51.2307 24.3007 51.2872 23.4118 49.6117C22.5546 48.049 22.4206 45.4987 24.1561 44.4828ZM25.0697 46.1089C25.0379 47.146 24.731 48.6981 25.9304 49.206C26.1914 48.1196 26.269 46.8991 25.687 45.9008C25.5318 45.9537 25.2249 46.056 25.0697 46.1089Z" fill="white"/>
<path d="M6.0884 2.03727C7.96852 0.0901263 10.9527 -0.410768 13.4925 0.31941C17.1963 1.33884 19.8665 4.6899 20.6285 8.37606C20.7131 9.61066 20.5861 10.8453 20.3392 12.0552C19.6514 14.1117 18.0993 15.7872 16.1169 16.6585C15.3056 15.5755 14.78 13.6566 16.1063 12.7712C15.9405 12.9864 15.6054 13.4203 15.4396 13.639C15.6089 13.8365 15.7818 14.0341 15.9546 14.2316C16.7553 13.4908 17.5455 12.6972 17.9794 11.6707C18.4203 10.2879 18.4273 8.73586 17.8912 7.3778C16.8083 4.46061 13.8558 2.08312 10.6529 2.34768C8.56113 2.517 6.7445 4.19606 6.41292 6.26313C5.80973 9.48015 7.86622 12.676 10.6705 14.1328C10.1061 14.8912 9.53822 15.6531 8.93151 16.3833L9.21723 16.0235C7.22423 14.8242 5.52753 13.0605 4.6739 10.8735C3.47457 7.99157 3.78499 4.29482 6.0884 2.03727Z" fill="#440E07"/>
<path d="M24.2335 23.4349C25.7221 22.4472 27.5105 24.1509 27.5035 25.6818C27.6657 26.8 27.2953 27.9853 26.3359 28.6414C25.1754 29.1352 23.7503 28.6343 23.3199 27.4103C22.9213 26.0804 22.8755 24.2427 24.2335 23.4349Z" fill="#440E07"/>
<path d="M13.3514 24.1934C15.6689 23.8371 16.9953 27.1776 15.6795 28.8778C15.1716 29.9396 13.7183 30.0983 12.7906 29.548C11.0269 28.2182 11.2209 25.0576 13.3514 24.1934Z" fill="#440E07"/>
<path d="M39.7682 24.9829C39.7541 23.8224 41.5707 23.5755 41.9729 24.6231C42.2938 28.9725 39.7365 33.6287 35.4401 34.9797C34.597 35.2195 33.2672 35.3042 33.1331 34.1437C33.052 32.8279 34.7134 32.9056 35.567 32.4329C38.3678 31.0925 39.6518 27.9354 39.7682 24.9829Z" fill="#440E07"/>
<path d="M22.1946 31.2273C22.5226 31.2203 22.8472 31.2132 23.1752 31.2026C23.4327 31.4707 23.6867 31.7353 23.9477 32.0034C24.0923 33.887 22.6214 35.7072 20.7201 35.8694C18.6601 36.4091 16.2403 34.9276 16.1521 32.7265C16.1521 31.6189 17.3479 31.6824 18.1133 31.8834C18.3779 32.603 18.7448 33.2909 19.4114 33.7142C20.0922 33.6613 20.7695 33.5448 21.3409 33.1462C21.4468 32.4337 21.7819 31.8058 22.1946 31.2273Z" fill="#440E07"/>
<path d="M5.05487 36.1612C5.6757 36.013 6.31417 36.0413 6.94911 36.0483C7.06904 36.4751 7.16428 36.909 7.23835 37.3499C6.94557 38.2142 5.89087 38.3094 5.20302 38.7327C3.59099 39.5793 2.33875 41.41 2.88903 43.2795C3.1677 44.5282 4.58925 44.8528 5.68628 44.8457C6.33886 44.9198 7.18191 44.7646 7.53465 45.4736C8.1837 46.6941 5.972 47.0292 6.34944 48.2462C6.5893 49.9993 6.77273 51.7665 6.59989 53.5373C6.73746 51.3962 6.36708 49.2832 6.23656 47.1527L5.8944 47.1456C4.35644 47.1915 2.67033 46.8493 1.6121 45.6464C0.359864 44.3448 0.29637 42.3412 0.691442 40.6798C1.28405 38.5387 3.13948 37.0924 5.05487 36.1612Z" fill="#440E07"/>
<path d="M17.8912 7.37793C18.4274 8.73599 18.4203 10.2881 17.9794 11.6708C17.2986 11.9318 16.6178 12.2387 16.1063 12.7714C14.78 13.6568 15.3056 15.5757 16.1169 16.6586C16.766 17.2336 17.5138 17.8191 18.4344 17.7874C20.3816 17.9849 22.1171 15.9249 21.6197 14.0448C21.4574 13.2405 20.8684 12.6444 20.3392 12.0553C20.5862 10.8454 20.7132 9.61079 20.6285 8.37619C21.2987 8.55256 21.9372 8.8524 22.4557 9.32154C25.4646 12.0694 28.4206 14.8772 31.4295 17.6286C32.5442 18.6763 33.426 19.9744 33.9551 21.41C34.6394 23.0926 34.5548 24.941 34.7558 26.7153C34.8088 28.6483 35.1368 30.5602 35.1827 32.4897L35.5672 32.4333C34.7135 32.9059 33.0521 32.8283 33.1332 34.1441C33.2673 35.3046 34.5971 35.2199 35.4402 34.9801C35.7365 40.1125 36.2162 45.2378 36.5972 50.3632C36.8194 52.3386 35.5531 54.3598 33.6906 55.0406C31.814 55.6261 29.8139 55.4074 27.8879 55.6614C27.1225 55.7319 26.357 55.7884 25.5951 55.8378C22.9072 56.0953 20.2123 56.2328 17.5279 56.4939C16.766 56.5397 16.0005 56.5715 15.2386 56.6032C15.168 56.8219 15.0305 57.2523 14.9599 57.471C14.9846 57.2875 15.0305 56.9242 15.0552 56.7443C12.9775 56.6808 10.7235 57.4568 8.77986 56.4833C7.31245 55.7284 6.32477 54.1446 6.31066 52.4902C6.25069 50.7018 5.95439 48.9346 5.89442 47.1462L6.23658 47.1532C6.3671 49.2838 6.73748 51.3967 6.59991 53.5379C6.77275 51.7671 6.58932 49.9999 6.34946 48.2467C5.97202 47.0298 8.18372 46.6947 7.53468 45.4742C7.18193 44.7652 6.33888 44.9204 5.68631 44.8463C5.58754 42.8039 5.43585 40.7651 5.20304 38.7333C5.89089 38.31 6.9456 38.2147 7.23837 37.3505C7.1643 36.9096 7.06906 36.4757 6.94913 36.0489C6.31419 36.0418 5.67572 36.0136 5.05489 36.1618C4.8503 34.204 4.77975 32.2357 4.554 30.278C4.52225 27.904 3.86615 25.4807 4.57516 23.1455C5.24185 20.4647 7.28776 18.4929 8.93154 16.3835C9.53826 15.6533 10.1062 14.8914 10.6706 14.133C11.884 12.6126 12.9916 10.9935 14.3391 9.58963C15.1716 8.70424 16.3427 8.30564 17.4961 8.04814C17.5702 7.93174 17.7184 7.69893 17.796 7.58252L17.8912 7.37793ZM24.2335 23.4348C22.8755 24.2426 22.9213 26.0804 23.3199 27.4102C23.7503 28.6342 25.1754 29.1351 26.3359 28.6413C27.2953 27.9852 27.6657 26.8 27.5035 25.6818C27.5105 24.1509 25.7221 22.4471 24.2335 23.4348ZM13.3514 24.1932C11.2208 25.0574 11.0268 28.218 12.7905 29.5478C13.7183 30.0981 15.1716 29.9394 15.6795 28.8776C16.9952 27.1774 15.6689 23.8369 13.3514 24.1932ZM22.1947 31.2269C21.782 31.8054 21.4469 32.4333 21.341 33.1458C20.7696 33.5444 20.0923 33.6608 19.4115 33.7137C18.7448 33.2904 18.378 32.6026 18.1134 31.883C17.348 31.6819 16.1522 31.6184 16.1522 32.726C16.2404 34.9272 18.6602 36.4087 20.7202 35.869C22.6215 35.7067 24.0924 33.8866 23.9478 32.0029C23.6868 31.7348 23.4328 31.4703 23.1753 31.2022C22.8473 31.2128 22.5227 31.2198 22.1947 31.2269ZM22.8861 40.2818C21.2423 43.6187 19.7008 47.0121 18.2334 50.4302C18.5649 51.1815 19.7043 51.6366 20.1205 50.7018C21.5456 47.6612 22.9848 44.617 24.3005 41.527C24.6709 40.5605 23.7009 40.0772 22.8861 40.2818ZM16.124 40.7509C14.0216 41.6046 14.071 44.557 15.1504 46.2114C16.2122 47.8411 19.0024 47.513 19.7078 45.7246C20.2017 44.296 20.0888 42.4653 19.0024 41.3294C18.2969 40.504 17.0905 40.4864 16.124 40.7509ZM24.1559 44.483C22.4204 45.4989 22.5545 48.0492 23.4116 49.6118C24.3006 51.2874 27.0237 51.2309 27.9232 49.5977C28.6252 48.2749 28.47 46.5747 27.7151 45.3049C27.0026 44.1161 25.3235 43.8904 24.1559 44.483Z" fill="#FF5644"/>
<path d="M16.8012 42.4019C16.9705 42.416 17.3091 42.4442 17.4785 42.4548C17.6831 43.3225 17.9123 44.222 17.7536 45.118C17.542 45.566 16.8012 45.4919 16.8329 44.9381C16.646 44.1021 16.7342 43.2449 16.8012 42.4019Z" fill="#FF5644"/>
<path d="M25.0695 46.1095C25.2247 46.0566 25.5316 45.9543 25.6868 45.9014C26.2688 46.8996 26.1912 48.1201 25.9302 49.2066C24.7309 48.6986 25.0378 47.1465 25.0695 46.1095Z" fill="#FF5644"/>
</svg>
