<svg width="18" height="18" viewBox="0 0 18 18" fill="none" xmlns="http://www.w3.org/2000/svg">
<path d="M8.77324 0H9.22781C10.3837 0.0432422 11.5295 0.377578 12.5153 0.984727C13.4736 1.56797 14.2819 2.39484 14.8433 3.36586C15.499 4.48875 15.8115 5.80605 15.7412 7.10367C15.6973 8.00578 15.4656 8.89699 15.0711 9.70945C15.9441 10.7933 16.8332 11.8645 17.7117 12.9442C17.8348 13.0925 17.981 13.2413 18 13.4441V13.5573C17.9771 13.7166 17.8963 13.8713 17.7602 13.962C17.6467 14.0442 17.5046 14.0604 17.3711 14.0875C16.5994 14.2411 15.8277 14.3965 15.0557 14.5501C14.7343 15.5134 14.413 16.477 14.0924 17.4407C14.0477 17.5721 14.014 17.7149 13.9155 17.8189C13.8234 17.9216 13.6912 17.98 13.5563 18H13.4427C13.2652 17.9771 13.1003 17.8748 13.0103 17.7184C12.0973 16.2735 11.1902 14.8243 10.2741 13.3812C9.43453 13.5401 8.56547 13.5404 7.72629 13.3812C6.80484 14.8303 5.89535 16.2872 4.97672 17.7381C4.88672 17.8854 4.72605 17.9771 4.55695 18H4.44305C4.22965 17.9747 4.03312 17.8277 3.96809 17.62C3.62566 16.5973 3.28605 15.5732 2.94434 14.5501C2.11465 14.3845 1.28461 14.2186 0.455273 14.0523C0.214102 14.0108 0.0263672 13.7981 0 13.5573V13.4437C0.0200391 13.2318 0.178242 13.0802 0.304805 12.9241C1.17773 11.8505 2.06262 10.7866 2.92887 9.7084C2.11148 8.04621 2.02816 6.04441 2.69965 4.31859C3.20977 2.98828 4.15652 1.83199 5.35641 1.06453C6.37172 0.408516 7.56668 0.0439453 8.77324 0ZM8.61926 1.13801C7.16625 1.22801 5.76633 1.91883 4.8027 3.00867C4.04789 3.84926 3.55746 4.92293 3.4193 6.04441C3.2734 7.19648 3.48926 8.39672 4.05 9.4152C4.79039 10.8077 6.14707 11.861 7.68551 12.2164C9.19758 12.594 10.8619 12.2892 12.1479 11.4103C12.8521 10.9308 13.4561 10.2941 13.8734 9.54949C14.7744 8.02863 14.8658 6.07184 14.1395 4.46309C13.6484 3.35812 12.7902 2.42121 11.733 1.83445C10.7923 1.30605 9.69539 1.06313 8.61926 1.13801ZM1.72301 12.9723C1.68187 13.024 1.63125 13.0711 1.61156 13.1365C2.23664 13.2602 2.86137 13.3857 3.48609 13.5109C3.68016 13.5478 3.8482 13.6937 3.90797 13.8825C4.15723 14.6313 4.40859 15.3791 4.65539 16.1286C5.30508 15.1084 5.94387 14.0815 6.59285 13.0612C5.38453 12.5989 4.31473 11.7837 3.55148 10.7392C2.94082 11.4827 2.33297 12.2284 1.72301 12.9723ZM11.4082 13.057C12.0516 14.0818 12.696 15.1066 13.3446 16.1283C13.5918 15.3788 13.8431 14.6303 14.0924 13.8814C14.1525 13.6927 14.3205 13.5475 14.5146 13.5105C15.1421 13.3847 15.7697 13.2595 16.3976 13.134C16.2394 12.9083 16.0502 12.7058 15.8811 12.4886C15.4027 11.906 14.9273 11.321 14.4482 10.7392C13.6849 11.7812 12.6183 12.6025 11.4082 13.057Z" fill="#6F6F9D"/>
<path d="M8.36588 2.63318C8.72061 2.33927 9.27854 2.33927 9.63327 2.63247C9.83612 2.78435 9.93174 3.02552 10.0421 3.24419C10.2615 3.66079 10.4637 4.08654 10.6865 4.50138C11.0979 4.49786 11.5092 4.50138 11.9205 4.49962C12.2457 4.49365 12.5723 4.65431 12.7558 4.92466C12.964 5.21575 12.9974 5.62075 12.8371 5.94138C12.7386 6.1495 12.5484 6.28872 12.3951 6.45325C12.0791 6.76087 11.7676 7.07341 11.4508 7.38032C11.6685 7.882 11.8871 8.38298 12.1051 8.88396C12.1881 9.07345 12.2155 9.28825 12.1708 9.49075C12.0956 9.87431 11.7729 10.1953 11.389 10.2681C11.1439 10.3243 10.8817 10.2737 10.6658 10.1482C10.1107 9.83529 9.55452 9.52451 9.0001 9.21091C8.4376 9.52872 7.8744 9.84478 7.31084 10.1608C6.87139 10.4213 6.2537 10.2733 5.97842 9.84372C5.79104 9.57372 5.75659 9.2074 5.88596 8.90576C6.10604 8.39669 6.32893 7.88904 6.54936 7.38032C6.13979 6.97814 5.72776 6.57806 5.32276 6.17095C4.98702 5.82536 4.97963 5.23368 5.28725 4.86771C5.47499 4.6304 5.77838 4.4947 6.07967 4.49927C6.491 4.50138 6.90268 4.49822 7.31436 4.50103C7.53198 4.09427 7.73061 3.67697 7.94577 3.2688C8.06178 3.0431 8.156 2.79068 8.36588 2.63318ZM8.156 5.34197C8.05686 5.51458 7.86456 5.6299 7.66381 5.62532C7.23526 5.62497 6.8067 5.62462 6.3778 5.62532C6.78948 6.03982 7.20924 6.44552 7.62479 6.85615C7.78721 7.01751 7.8294 7.28048 7.73342 7.4872C7.51229 7.99134 7.29608 8.49759 7.07248 9.00068C7.6262 8.6899 8.1792 8.37771 8.73291 8.06728C8.90448 7.97341 9.12245 7.98009 9.29014 8.07923C9.83541 8.38685 10.381 8.69376 10.927 8.99997C10.7048 8.49759 10.4886 7.99275 10.2675 7.48966C10.1898 7.32091 10.2 7.1156 10.2967 6.95669C10.4056 6.7999 10.56 6.68177 10.6939 6.54642C10.9987 6.23458 11.318 5.93751 11.6224 5.62532C11.1939 5.62462 10.7649 5.62497 10.3364 5.62532C10.136 5.62954 9.9437 5.51529 9.84455 5.34302C9.56225 4.79036 9.28381 4.23595 9.0001 3.68435C8.71639 4.2356 8.43795 4.79001 8.156 5.34197Z" fill="#FF5644"/>
</svg>
