<svg width="74" height="74" viewBox="0 0 74 74" fill="none" xmlns="http://www.w3.org/2000/svg">
<path d="M58.0533 1.58747C59.0084 1.25648 60.1384 1.92901 60.1848 2.95995C60.3492 4.23123 58.631 5.25374 57.6507 4.34086C56.626 3.67254 56.9106 1.9522 58.0533 1.58747Z" fill="#1ABC9C"/>
<path d="M69.01 15.8815C70.0578 15.3207 71.4134 16.3221 71.2321 17.4837C71.1709 18.6222 69.7458 19.261 68.816 18.6475C67.7872 18.0487 67.8863 16.3158 69.01 15.8815Z" fill="#F39C12"/>
<path d="M2.62927 17.4289C3.46836 17.1169 4.50773 17.5069 4.75229 18.4114C5.21611 19.6236 3.77195 20.9919 2.60397 20.3404C1.37907 19.845 1.4107 17.9117 2.62927 17.4289Z" fill="#1ABC9C"/>
<path d="M2.58057 57.001C3.6347 56.417 5.01351 57.4332 4.81955 58.6075C4.75208 59.6763 3.46183 60.3278 2.5363 59.826C1.39573 59.3222 1.4147 57.4669 2.58057 57.001Z" fill="#1ABC9C"/>
<path d="M68.9994 56.9968C70.1125 56.3854 71.5335 57.5534 71.2046 58.7635C71.0149 59.9905 69.2629 60.4143 68.4892 59.4803C67.7977 58.7403 68.0486 57.3826 68.9994 56.9968Z" fill="#1ABC9C"/>
<path d="M12.0867 69.6423C13.1387 69.0794 14.4965 70.0893 14.3067 71.2531C14.2393 72.3852 12.8246 73.0177 11.897 72.4105C10.8639 71.8139 10.9609 70.0788 12.0867 69.6423Z" fill="#F39C12"/>
<path d="M7.70381 4.80035C8.68837 4.61271 9.78888 4.60428 10.6744 5.13978C11.9288 5.82074 12.7889 7.21431 12.7531 8.65003C12.7679 10.5622 11.1951 12.3606 9.27447 12.525C7.32222 12.8286 5.31093 11.4161 4.93988 9.47858C4.43811 7.49681 5.75156 5.34217 7.70381 4.80035Z" fill="#F39C12"/>
<path d="M60.7899 66.4901C62.4343 65.8872 64.4435 66.9856 64.8146 68.7017C65.2699 70.285 64.2495 72.1339 62.6346 72.5218C61.1272 72.9878 59.3499 72.1445 58.8229 70.6455C58.1314 69.0306 59.0885 66.9645 60.7899 66.4901Z" fill="#F39C12"/>
<path d="M32.7646 6.4619C38.3009 5.79569 44.0142 6.62423 49.1226 8.86532C55.4811 11.6292 60.8656 16.5563 64.1966 22.6365C68.2698 29.9627 69.1848 38.9397 66.7687 46.9574C64.886 53.299 60.9352 59.0061 55.6687 63.0118C51.1338 66.4926 45.6313 68.7168 39.9432 69.3113C34.9972 69.8299 29.9247 69.2481 25.2739 67.4645C17.9772 64.7343 11.7916 59.1874 8.27077 52.2386C5.35294 46.5842 4.27983 40.036 5.09995 33.7365C5.77459 28.333 7.93345 23.1298 11.2202 18.791C16.337 11.994 24.2915 7.37056 32.7646 6.4619ZM34.8791 14.214C31.5607 14.4353 28.2887 15.3714 25.3519 16.9315C20.7454 19.3708 16.9863 23.3723 14.8507 28.1285C13.4445 31.2677 12.6939 34.7168 12.7677 38.1617C12.793 44.5983 15.6476 50.9483 20.3954 55.285C24.3294 58.9682 29.5537 61.1397 34.9108 61.5529C35.9438 61.6414 36.9832 61.6414 38.0162 61.5529C40.5525 61.3104 43.0761 60.796 45.4352 59.8115C50.8682 57.602 55.4052 53.2906 57.8993 47.982C60.0919 43.3312 60.7581 37.9488 59.6323 32.9206C58.4917 27.3674 55.2197 22.2949 50.6806 18.9112C47.0417 16.1536 42.5806 14.5091 38.0289 14.214C36.9811 14.1402 35.927 14.1423 34.8791 14.214Z" fill="#1ABC9C"/>
<path d="M34.8788 14.2137C35.9267 14.1421 36.9808 14.1399 38.0286 14.2137C38.0349 16.0859 38.0286 17.9559 38.0455 19.8259C38.0202 20.4226 38.0539 21.1225 37.5837 21.5674C37.0166 22.1218 36.1522 22.0185 35.4291 22.1007C31.8598 22.2715 28.4128 23.8084 25.7796 26.2034C22.7416 28.9737 20.8167 32.9709 20.6797 37.0926C20.6502 37.8663 20.6143 38.8361 19.8237 39.2409C18.8645 39.8017 17.5426 39.0744 17.5194 37.9612C17.4562 34.082 18.6853 30.1923 20.9222 27.0214C23.2939 23.6229 26.8 21.0255 30.7614 19.7901C32.0875 19.3368 33.4832 19.1597 34.862 18.9531C34.921 17.374 34.8894 15.7949 34.8788 14.2137Z" fill="#B0F1E4"/>
<path d="M52.5714 36.9811C53.1154 36.0893 54.608 36.0872 55.1435 36.9895C55.6052 37.7569 55.3838 38.7035 55.3396 39.5489C54.9643 44.107 52.8329 48.4774 49.506 51.6103C46.4195 54.5809 42.2915 56.4024 38.0307 56.7756C38.0223 58.3694 38.0497 59.9611 38.016 61.5529C36.9829 61.6414 35.9436 61.6414 34.9105 61.5529C34.8873 59.4467 34.8684 57.3364 34.9021 55.2302C34.8873 54.545 35.4017 53.9041 36.0743 53.7776C37.1368 53.5815 38.2289 53.6385 39.2915 53.4424C42.7111 52.8162 45.9135 51.0411 48.2242 48.4416C50.5433 45.8527 52.0317 42.4921 52.2193 39.0092C52.2995 38.3325 52.2109 37.5862 52.5714 36.9811Z" fill="#B0F1E4"/>
<path d="M43.7065 30.4328C44.6636 29.4187 46.3059 29.1172 47.514 29.8635C49.287 30.7532 49.6897 33.4033 48.2814 34.7927C43.1963 39.8989 38.0858 44.9819 33.0007 50.0881C32.8384 50.2483 32.5601 50.5582 32.345 50.28C29.8615 47.8491 27.4286 45.3656 24.9598 42.92C24.4369 42.4309 24.0153 41.8153 23.8825 41.1006C23.5557 39.6733 24.3716 38.0837 25.7377 37.5482C26.8488 37.0675 28.2339 37.2931 29.1131 38.1321C30.2958 39.2516 31.39 40.4639 32.598 41.5581C36.2875 37.837 40.0086 34.1454 43.7065 30.4328Z" fill="#1ABC9C"/>
</svg>
