<svg width="99" height="108" viewBox="0 0 99 108" fill="none" xmlns="http://www.w3.org/2000/svg">
<g clip-path="url(#clip0_907_478)">
<path d="M16.5852 9.82859H3.77711C1.67556 9.82859 0 8.14287 0 6.02859V5.7143C0 3.62859 1.67556 1.94287 3.77711 1.94287H16.5852V9.82859Z" fill="#E8505B"/>
<path d="M32.858 1.94287H16.2728V9.82859H32.858V1.94287Z" fill="#E8505B"/>
<g opacity="0.1">
<path d="M32.858 1.94287H16.2728V9.82859H32.858V1.94287Z" fill="white"/>
</g>
<path d="M49.3863 1.94287H32.8011V9.82859H49.3863V1.94287Z" fill="#E8505B"/>
<path d="M65.9148 1.94287H49.3296V9.82859H65.9148V1.94287Z" fill="#E8505B"/>
<g opacity="0.2">
<path d="M65.9148 1.94287H49.3296V9.82859H65.9148V1.94287Z" fill="black"/>
</g>
<path d="M82.4715 1.94287H65.8864V9.82859H82.4715V1.94287Z" fill="#E8505B"/>
<path d="M95.2229 9.82859H82.4148V1.94287H95.2229C97.296 1.94287 99 3.62859 99 5.74287V6.05716C99 8.14287 97.3244 9.82859 95.2229 9.82859Z" fill="#E8505B"/>
<g opacity="0.4">
<path d="M82.4715 1.94287H65.8864V9.82859H82.4715V1.94287Z" fill="black"/>
</g>
<g opacity="0.7">
<path d="M95.2229 9.82859H82.4148V1.94287H95.2229C97.296 1.94287 99 3.62859 99 5.74287V6.05716C99 8.14287 97.3244 9.82859 95.2229 9.82859Z" fill="black"/>
</g>
<path d="M45.2043 7.23528C46.0125 4.15331 44.1844 0.99572 41.121 0.182596C38.0576 -0.630528 34.919 1.20873 34.1108 4.2907C33.3025 7.37266 35.1307 10.5303 38.1941 11.3434C41.2575 12.1565 44.3961 10.3172 45.2043 7.23528Z" fill="#263238"/>
<path d="M45.1608 9.85588C47.401 7.60202 47.401 3.94779 45.1608 1.69393C42.9205 -0.559934 39.2883 -0.559936 37.048 1.69393C34.8077 3.94779 34.8077 7.60202 37.048 9.85588C39.2883 12.1097 42.9205 12.1097 45.1608 9.85588Z" fill="#455A64"/>
<path d="M46.0921 5.77148C46.0637 5.77148 46.0921 5.31433 45.9217 4.5429C45.8365 4.1429 45.6377 3.71433 45.3537 3.22862C45.0698 2.7429 44.6438 2.25719 44.1042 1.82862C43.5362 1.40005 42.8262 1.05719 42.031 0.914332C41.2358 0.771475 40.2987 0.800047 39.4467 1.1429C39.0207 1.28576 38.5947 1.51433 38.1971 1.82862C37.9983 1.97148 37.8279 2.1429 37.6291 2.31433C37.4587 2.48576 37.2883 2.68576 37.1463 2.88576C36.55 3.68576 36.2092 4.7429 36.1808 5.80005C36.1808 6.88576 36.5216 7.91433 37.1463 8.71433C37.2883 8.91433 37.4587 9.11433 37.6291 9.28576C37.7995 9.45719 37.9983 9.62862 38.1971 9.77148C38.5947 10.0572 38.9923 10.2858 39.4467 10.4572C40.3271 10.8 41.2358 10.8286 42.031 10.6858C42.8546 10.5429 43.5362 10.1715 44.1042 9.77148C44.6722 9.34291 45.0698 8.85719 45.3537 8.37148C45.6377 7.88576 45.8081 7.42862 45.9217 7.05719C46.0921 6.20005 46.0637 5.77148 46.0921 5.77148C46.0921 5.77148 46.0921 5.80005 46.0921 5.85719C46.0921 5.91433 46.0921 6.00005 46.0921 6.08576C46.0921 6.20005 46.0921 6.31433 46.0637 6.48576C46.0353 6.62862 46.0353 6.82862 45.9785 7.00005C45.8933 7.40005 45.7229 7.85719 45.4389 8.3429C45.155 8.82862 44.729 9.3429 44.161 9.80005C43.593 10.2286 42.883 10.6 42.031 10.7715C41.2074 10.9143 40.2703 10.8858 39.3615 10.5715C38.9071 10.4286 38.4811 10.1715 38.0835 9.88576C37.8847 9.7429 37.6859 9.57148 37.5155 9.40005C37.3451 9.20005 37.1747 9.02862 37.0044 8.80005C36.3796 7.97148 36.0388 6.88576 36.0104 5.80005C36.0104 4.68576 36.3796 3.62862 37.0044 2.80005C37.1463 2.57148 37.3167 2.40005 37.5155 2.20005C37.7143 2.02862 37.8847 1.85719 38.0835 1.71433C38.4811 1.42862 38.9071 1.17148 39.3615 1.02862C40.2419 0.685761 41.179 0.657189 42.031 0.828618C42.8546 0.971475 43.593 1.3429 44.161 1.80005C44.729 2.22862 45.155 2.7429 45.4389 3.25719C45.7229 3.7429 45.8933 4.22862 45.9785 4.60005C46.0353 4.80005 46.0637 4.97148 46.0637 5.11433C46.0921 5.25719 46.0921 5.40005 46.0921 5.51433C46.0921 5.60005 46.0921 5.68576 46.0921 5.7429V5.77148Z" fill="#263238"/>
<path d="M39.6739 6.85747C39.6455 6.88604 39.1059 6.45747 38.4811 5.91462L38.4243 5.85747L38.4811 5.80033C39.1343 5.25747 39.6739 4.85747 39.7023 4.91462C39.7307 4.94319 39.2195 5.40033 38.5947 5.91462V5.80033C39.2195 6.37176 39.7023 6.8289 39.6739 6.85747Z" fill="#263238"/>
<path d="M43.025 4.91444C43.0534 4.88586 43.593 5.31444 44.2178 5.85729L44.2746 5.91444L44.2178 5.97158C43.5646 6.51444 43.025 6.91444 42.9966 6.85729C42.9682 6.82872 43.4794 6.37158 44.1042 5.85729V5.97158C43.5078 5.40015 42.9966 4.94301 43.025 4.91444Z" fill="#263238"/>
<path d="M44.0474 5.85769C44.0474 5.88626 42.7979 5.9434 41.2927 5.9434C39.7591 5.9434 38.538 5.91483 38.538 5.85769C38.538 5.82912 39.7875 5.77197 41.2927 5.77197C42.7979 5.77197 44.0474 5.82912 44.0474 5.85769Z" fill="#263238"/>
<path d="M25.1618 89.8575C22.4071 87.6004 22.0663 83.7432 22.4355 80.3718C22.4923 79.8004 22.4923 79.2004 22.8047 78.7147C23.1171 78.229 23.7703 77.9432 24.2531 78.229C24.6507 78.4575 24.7927 78.9718 24.9915 79.4004C25.247 79.9718 25.7014 80.4575 26.2126 80.7718C26.5534 81.0004 26.9794 81.1432 27.377 80.9718C27.8882 80.7432 28.0018 80.0575 28.0302 79.5147C28.1154 78.4575 28.1722 77.4004 28.2574 76.3433C28.2858 75.7718 28.3426 75.2004 28.5698 74.6861C28.797 74.1718 29.2229 73.6861 29.7625 73.6004C30.3021 73.4861 30.9553 73.8575 31.0121 74.429C31.0405 74.6575 30.9837 74.8861 30.9837 75.1432C30.9837 75.3718 31.0689 75.6575 31.2961 75.7432C31.5233 75.829 31.7505 75.6861 31.9209 75.5432C32.5457 75.029 33.0001 74.3147 33.426 73.6004C33.852 72.8861 34.278 72.1718 34.846 71.6004C35.414 71.029 36.1808 70.5718 37.0044 70.6004C37.7995 70.629 38.6231 71.1718 38.7651 72.0004C38.9071 72.8004 38.3675 73.5718 37.8279 74.2004C37.0044 75.0861 36.0672 75.8861 35.0164 76.4861C34.8176 76.6004 34.6188 76.7147 34.5336 76.9147C34.3916 77.2861 34.704 77.6861 35.0732 77.829C35.4708 78.0004 35.9252 78.0004 36.3796 78.0861C36.8056 78.1718 37.26 78.4004 37.402 78.829C37.6007 79.429 37.0612 80.0004 36.55 80.3433C35.556 81.0575 34.42 81.6004 33.2273 81.9432C32.8013 82.0575 32.3469 82.1718 32.0061 82.429C31.6369 82.6861 31.4097 83.2004 31.5801 83.6004C31.7505 84.0004 32.2617 84.1718 32.6877 84.1432C33.1137 84.0861 33.5396 83.8861 33.9656 83.7718C34.7608 83.5433 35.7548 83.6861 36.1808 84.3718C36.4648 84.829 36.4648 85.4575 36.2376 85.9718C36.0388 86.4861 35.6696 86.9147 35.272 87.2861C33.9088 88.6575 32.2333 89.6861 30.4157 90.1718C28.5698 90.6004 26.8942 90.6575 25.1618 89.8575Z" fill="#1ABC9C"/>
<g opacity="0.4">
<path d="M25.1618 89.8575C22.4071 87.6004 22.0663 83.7432 22.4355 80.3718C22.4923 79.8004 22.4923 79.2004 22.8047 78.7147C23.1171 78.229 23.7703 77.9432 24.2531 78.229C24.6507 78.4575 24.7927 78.9718 24.9915 79.4004C25.247 79.9718 25.7014 80.4575 26.2126 80.7718C26.5534 81.0004 26.9794 81.1432 27.377 80.9718C27.8882 80.7432 28.0018 80.0575 28.0302 79.5147C28.1154 78.4575 28.1722 77.4004 28.2574 76.3433C28.2858 75.7718 28.3426 75.2004 28.5698 74.6861C28.797 74.1718 29.2229 73.6861 29.7625 73.6004C30.3021 73.4861 30.9553 73.8575 31.0121 74.429C31.0405 74.6575 30.9837 74.8861 30.9837 75.1432C30.9837 75.3718 31.0689 75.6575 31.2961 75.7432C31.5233 75.829 31.7505 75.6861 31.9209 75.5432C32.5457 75.029 33.0001 74.3147 33.426 73.6004C33.852 72.8861 34.278 72.1718 34.846 71.6004C35.414 71.029 36.1808 70.5718 37.0044 70.6004C37.7995 70.629 38.6231 71.1718 38.7651 72.0004C38.9071 72.8004 38.3675 73.5718 37.8279 74.2004C37.0044 75.0861 36.0672 75.8861 35.0164 76.4861C34.8176 76.6004 34.6188 76.7147 34.5336 76.9147C34.3916 77.2861 34.704 77.6861 35.0732 77.829C35.4708 78.0004 35.9252 78.0004 36.3796 78.0861C36.8056 78.1718 37.26 78.4004 37.402 78.829C37.6007 79.429 37.0612 80.0004 36.55 80.3433C35.556 81.0575 34.42 81.6004 33.2273 81.9432C32.8013 82.0575 32.3469 82.1718 32.0061 82.429C31.6369 82.6861 31.4097 83.2004 31.5801 83.6004C31.7505 84.0004 32.2617 84.1718 32.6877 84.1432C33.1137 84.0861 33.5396 83.8861 33.9656 83.7718C34.7608 83.5433 35.7548 83.6861 36.1808 84.3718C36.4648 84.829 36.4648 85.4575 36.2376 85.9718C36.0388 86.4861 35.6696 86.9147 35.272 87.2861C33.9088 88.6575 32.2333 89.6861 30.4157 90.1718C28.5698 90.6004 26.8942 90.6575 25.1618 89.8575Z" fill="black"/>
</g>
<path d="M37.97 71.0859C37.97 71.0859 37.9416 71.1145 37.9132 71.1431C37.8564 71.1717 37.7996 71.2288 37.7428 71.2859C37.5724 71.4002 37.3452 71.5716 37.0612 71.8288C36.4648 72.2859 35.6412 73.0002 34.7324 74.0002C34.278 74.4859 33.7953 75.0574 33.2841 75.6574C32.7729 76.2574 32.2333 76.9145 31.7221 77.6288C31.1825 78.3431 30.6429 79.1145 30.1601 79.9431C29.9045 80.3716 29.6774 80.8002 29.4502 81.2288C29.223 81.6859 28.9958 82.1145 28.7402 82.5717C27.803 84.4002 26.951 86.1716 26.3262 87.8574C25.7015 89.5145 25.2755 91.0859 25.0199 92.4288C24.7927 93.7717 24.7359 94.8574 24.7075 95.6288C24.7075 96.0002 24.7075 96.3145 24.7359 96.4859C24.7359 96.5717 24.7359 96.6574 24.7359 96.7145C24.7359 96.7717 24.7359 96.8002 24.7359 96.8002C24.7359 96.8002 24.7359 96.7717 24.7359 96.7145C24.7359 96.6574 24.7359 96.5717 24.7075 96.4859C24.6791 96.2859 24.6791 96.0002 24.6791 95.6002C24.6791 94.8288 24.7075 93.7431 24.9631 92.4002C25.1903 91.0574 25.6163 89.4859 26.241 87.8288C26.8658 86.1431 27.7178 84.3716 28.655 82.5431C28.8822 82.0859 29.1378 81.6288 29.365 81.2002C29.5922 80.7431 29.8194 80.3145 30.0749 79.8859C30.5861 79.0574 31.1257 78.2859 31.6653 77.5717C32.2049 76.8574 32.7445 76.2002 33.2557 75.6002C33.7669 75.0002 34.2496 74.4288 34.704 73.9431C35.6412 72.9716 36.4648 72.2574 37.0612 71.8002C37.3452 71.5717 37.6008 71.4002 37.7428 71.2859C37.828 71.2288 37.8848 71.2002 37.9132 71.1717C37.97 71.0859 37.97 71.0859 37.97 71.0859Z" fill="#263238"/>
<path d="M30.0749 79.8289C30.0749 79.8289 30.0465 79.7432 30.0465 79.5718C30.0181 79.4004 30.0181 79.1718 29.9897 78.8861C29.9613 78.3147 29.9329 77.5432 29.9045 76.6575C29.8761 75.8004 29.8477 75.0004 29.8193 74.4289C29.7909 74.1432 29.7909 73.9147 29.7625 73.7718C29.7341 73.6004 29.7341 73.5146 29.7625 73.5146C29.7625 73.5146 29.7909 73.6004 29.8193 73.7432C29.8477 73.8861 29.8761 74.1147 29.9045 74.4004C29.9613 74.9718 30.0181 75.7432 30.0465 76.6289C30.0749 77.4861 30.0749 78.2575 30.1033 78.8575C30.1033 79.1147 30.1033 79.3432 30.1317 79.5432C30.1033 79.7432 30.1033 79.8289 30.0749 79.8289Z" fill="#263238"/>
<path d="M37.402 79.0574C37.402 79.0574 37.2884 79.0574 37.118 79.0574C36.9192 79.0574 36.6636 79.0574 36.3228 79.0859C35.6696 79.1145 34.7324 79.1717 33.7101 79.2859C32.6877 79.4002 31.7789 79.5431 31.1257 79.6574C30.7849 79.7145 30.5293 79.7717 30.3589 79.8002C30.1885 79.8288 30.075 79.8574 30.075 79.8574C30.075 79.8574 30.1601 79.8288 30.3589 79.7717C30.5293 79.7145 30.8133 79.6574 31.1257 79.6002C31.7789 79.4574 32.6877 79.3145 33.7101 79.2002C34.7324 79.086 35.6412 79.0288 36.3228 79.0288C36.6636 79.0288 36.9192 79.0288 37.118 79.0574C37.3168 79.0288 37.402 79.0574 37.402 79.0574Z" fill="#263238"/>
<path d="M26.3263 87.6574C26.3263 87.6574 26.2979 87.6288 26.2979 87.5717C26.2695 87.4859 26.2411 87.4002 26.1843 87.2859C26.0991 87.0574 25.9855 86.7145 25.8435 86.2859C25.5595 85.4288 25.2187 84.2288 24.8211 82.8859C24.4519 81.5431 24.1111 80.3431 23.8271 79.4859C23.6851 79.0574 23.5999 78.7145 23.5147 78.4574C23.4863 78.3431 23.4579 78.2574 23.4295 78.1717C23.4011 78.1145 23.4011 78.0859 23.4011 78.0859C23.4011 78.0859 23.4295 78.1145 23.4579 78.1717C23.4863 78.2574 23.5147 78.3431 23.5715 78.4574C23.6567 78.6859 23.7703 79.0288 23.9123 79.4574C24.1963 80.3145 24.5371 81.5145 24.9347 82.8574C25.3039 84.2002 25.6447 85.4002 25.9287 86.2574C26.0707 86.6859 26.1559 87.0288 26.2411 87.2859C26.2695 87.4002 26.2979 87.4859 26.3263 87.5717C26.2979 87.6288 26.3263 87.6574 26.3263 87.6574Z" fill="#263238"/>
<path d="M36.1524 85.3145C36.1524 85.3145 36.124 85.343 36.0672 85.343C35.982 85.3716 35.8968 85.4002 35.7832 85.4287C35.5276 85.4859 35.1584 85.5716 34.7324 85.6859C33.852 85.9144 32.6309 86.2002 31.2677 86.543C29.9045 86.8859 28.6834 87.2002 27.803 87.3716C27.3486 87.4573 26.9794 87.543 26.7522 87.6002C26.6386 87.6287 26.5534 87.6287 26.4682 87.6573C26.4114 87.6573 26.3546 87.6859 26.3546 87.6573C26.3546 87.6573 26.383 87.6287 26.4398 87.6287C26.525 87.6002 26.6102 87.5716 26.7238 87.543C26.9794 87.4859 27.3486 87.4002 27.7746 87.2859C28.655 87.0859 29.8761 86.7716 31.2393 86.4287C32.6025 86.0859 33.8236 85.7716 34.704 85.6002C35.1584 85.5145 35.4992 85.4287 35.7548 85.3716C35.8684 85.343 35.9536 85.343 36.0388 85.3145C36.124 85.3145 36.1524 85.3145 36.1524 85.3145Z" fill="#263238"/>
<path d="M22.6627 86.6287C26.8942 83.1145 27.4622 77.2002 26.8658 71.9716C26.7806 71.0859 26.7806 70.1716 26.3262 69.4287C25.8434 68.6859 24.8494 68.2573 24.0826 68.6859C23.4579 69.0573 23.2307 69.8287 22.9183 70.4859C22.4923 71.3716 21.8391 72.1145 21.0155 72.6002C20.4759 72.943 19.8227 73.1716 19.2264 72.9144C18.4312 72.543 18.2608 71.5145 18.204 70.6573C18.0904 69.0287 17.9768 67.4002 17.8632 65.7716C17.8064 64.8859 17.7212 64.0002 17.4088 63.2002C17.068 62.4002 16.4148 61.6859 15.5628 61.5145C14.7109 61.343 13.7453 61.9144 13.6317 62.7716C13.5749 63.143 13.6885 63.4859 13.6885 63.8573C13.6885 64.2287 13.5465 64.6287 13.2341 64.7716C12.8933 64.9144 12.5241 64.6859 12.2401 64.4573C11.2745 63.6573 10.593 62.5716 9.91138 61.4859C9.25819 60.4002 8.60501 59.2859 7.72463 58.4002C6.84425 57.5144 5.65148 56.8287 4.40191 56.8573C3.15234 56.8859 1.90277 57.7716 1.67558 59.0002C1.44838 60.2573 2.27196 61.4573 3.12394 62.3716C4.40191 63.743 5.85028 64.943 7.44064 65.9144C7.72463 66.0859 8.03702 66.2859 8.17902 66.6002C8.40621 67.1716 7.92343 67.8002 7.35544 68.0287C6.73065 68.2859 6.02067 68.2859 5.33909 68.4287C4.6575 68.5716 3.94752 68.9144 3.74873 69.5716C3.46473 70.4859 4.28831 71.3716 5.0551 71.9144C6.61706 73.0287 8.34942 73.8573 10.1954 74.3716C10.8486 74.543 11.5301 74.7144 12.0981 75.1144C12.6377 75.5144 13.0069 76.2859 12.7513 76.9145C12.4957 77.543 11.7005 77.8002 11.019 77.743C10.3374 77.6573 9.71258 77.343 9.0594 77.1716C7.83823 76.8002 6.30467 77.0287 5.62308 78.1144C5.16869 78.8287 5.19709 79.8002 5.50948 80.5716C5.82188 81.3716 6.38986 82.0287 6.98625 82.6287C9.0594 84.743 11.6437 86.343 14.4837 87.0859C17.4088 87.8002 19.9931 87.8573 22.6627 86.6287Z" fill="#1ABC9C"/>
<path d="M2.89673 57.6572C2.89673 57.6572 2.92513 57.6858 2.98193 57.7429C3.03873 57.8001 3.15232 57.8572 3.26592 57.9429C3.52151 58.1144 3.86231 58.4001 4.31669 58.7715C5.22547 59.4858 6.50344 60.5715 7.89501 62.1144C8.60499 62.8858 9.34337 63.7429 10.1386 64.6858C10.9053 65.6287 11.7289 66.6287 12.5809 67.7429C13.4045 68.8287 14.2565 70.0287 15.0232 71.3144C15.4208 71.9429 15.7616 72.6287 16.1308 73.3144C16.5 74.0001 16.8408 74.6858 17.21 75.4001C18.6583 78.2287 19.9647 80.9715 20.9587 83.5429C21.9527 86.1144 22.6059 88.5144 22.975 90.5715C23.3442 92.6287 23.4294 94.3144 23.4294 95.4858C23.4294 96.0572 23.4294 96.5144 23.401 96.8287C23.401 96.9715 23.401 97.0858 23.401 97.1715C23.401 97.2572 23.401 97.2858 23.401 97.2858C23.401 97.2858 23.401 97.2572 23.4294 97.1715C23.4294 97.0858 23.4578 96.9715 23.4578 96.8287C23.4862 96.5144 23.5146 96.0572 23.5146 95.4858C23.5146 94.3144 23.4578 92.6001 23.0886 90.5429C22.7478 88.4858 22.0947 86.0572 21.1007 83.4572C20.1351 80.8572 18.8287 78.1144 17.352 75.2858C16.9828 74.5715 16.6136 73.8858 16.2728 73.2001C15.9036 72.5144 15.5628 71.8287 15.1652 71.2001C14.3984 69.9144 13.5465 68.7429 12.7229 67.6287C11.8993 66.5429 11.0473 65.5144 10.2805 64.5715C9.48537 63.6287 8.74699 62.7715 8.037 62.0287C6.61704 60.5144 5.31067 59.4287 4.40189 58.7144C3.9475 58.3715 3.57831 58.0858 3.32272 57.9144C3.20912 57.8287 3.09552 57.7715 3.03873 57.7144C2.92513 57.6858 2.89673 57.6572 2.89673 57.6572Z" fill="#263238"/>
<path d="M15.08 71.1718C15.08 71.1718 15.1084 71.0289 15.1368 70.8004C15.1652 70.5432 15.1936 70.2004 15.222 69.7718C15.2788 68.8861 15.3072 67.6861 15.3356 66.3432C15.364 65.0004 15.4208 63.8004 15.4776 62.9146C15.506 62.4861 15.5344 62.1146 15.5628 61.8861C15.5912 61.6289 15.5912 61.5146 15.5912 61.5146C15.5912 61.5146 15.5628 61.6575 15.506 61.8861C15.4492 62.1146 15.4208 62.4861 15.364 62.9146C15.2788 63.8004 15.1936 65.0004 15.1652 66.3432C15.1368 67.6575 15.1084 68.8575 15.08 69.7718C15.08 70.1718 15.0516 70.5432 15.0516 70.8004C15.0516 71.0289 15.08 71.1718 15.08 71.1718Z" fill="#263238"/>
<path d="M3.7771 69.9715C3.7771 69.9715 3.9475 70 4.23149 70C4.51548 70 4.94147 70 5.45266 70.0286C6.47503 70.0572 7.895 70.1429 9.45696 70.3143C11.0189 70.4857 12.4389 70.7143 13.4329 70.8857C13.9441 70.9715 14.3416 71.0572 14.6256 71.1143C14.9096 71.1715 15.08 71.2 15.08 71.2C15.08 71.2 14.938 71.1429 14.654 71.0572C14.37 70.9715 13.9725 70.8857 13.4613 70.7715C12.4389 70.5429 11.0473 70.3143 9.48536 70.1429C7.9234 69.9715 6.50343 69.8857 5.45266 69.8857C4.94147 69.8857 4.51548 69.8857 4.23149 69.9143C3.9191 69.9429 3.7771 69.9429 3.7771 69.9715Z" fill="#263238"/>
<path d="M20.9019 83.2575C20.9019 83.2575 20.9303 83.2004 20.9587 83.1146C21.0155 83.0004 21.0439 82.8575 21.1291 82.6861C21.271 82.3146 21.4414 81.7718 21.6686 81.1146C22.0946 79.8004 22.6626 77.9432 23.2306 75.8861C23.7986 73.8289 24.3382 71.9718 24.7358 70.6575C24.9346 70.0004 25.105 69.4861 25.2186 69.0861C25.2754 68.9146 25.3038 68.7718 25.3605 68.6575C25.3889 68.5718 25.3889 68.5146 25.3889 68.5146C25.3889 68.5146 25.3605 68.5718 25.3321 68.6575C25.2753 68.7718 25.247 68.9146 25.1618 69.0861C25.0198 69.4575 24.8494 70.0004 24.6222 70.6575C24.1962 71.9718 23.6282 73.8289 23.0602 75.8861C22.4922 77.9432 21.9526 79.8004 21.555 81.1146C21.3562 81.7718 21.1858 82.2861 21.0723 82.6861C21.0155 82.8575 20.9871 83.0004 20.9303 83.1146C20.9019 83.2004 20.9019 83.2575 20.9019 83.2575Z" fill="#263238"/>
<path d="M5.70825 79.6285C5.70825 79.6285 5.76505 79.6571 5.85025 79.6857C5.96385 79.7142 6.10584 79.7428 6.30464 79.8C6.70223 79.8857 7.27021 80.0285 7.9234 80.2C9.28656 80.5428 11.1893 81 13.2909 81.5428C15.3924 82.0857 17.2668 82.5428 18.6583 82.8285C19.3399 82.9714 19.9079 83.0857 20.3055 83.1714C20.4759 83.2 20.6463 83.2285 20.7599 83.2571C20.8735 83.2857 20.9303 83.2857 20.9303 83.2857C20.9303 83.2857 20.8735 83.2571 20.7883 83.2285C20.6747 83.2 20.5327 83.1714 20.3339 83.1142C19.9363 83.0285 19.3683 82.8857 18.7151 82.7142C17.352 82.3714 15.4492 81.9142 13.3477 81.3714C11.2461 80.8285 9.37176 80.3714 7.9802 80.0857C7.29861 79.9428 6.73063 79.8285 6.33304 79.7428C6.16264 79.7142 5.99225 79.6857 5.87865 79.6571C5.76505 79.6285 5.73665 79.6 5.70825 79.6285Z" fill="#263238"/>
<path d="M17.4373 96.686L17.8348 107.2H29.081L29.9898 96.686H17.4373Z" fill="#263238"/>
<path d="M31.3245 93.2002H16.358V96.6859H31.3245V93.2002Z" fill="#263238"/>
<path d="M30.1318 96.6289C30.1318 96.6575 27.3202 96.686 23.8271 96.686C20.334 96.686 17.5225 96.6575 17.5225 96.6289C17.5225 96.6003 20.334 96.5718 23.8271 96.5718C27.3202 96.5432 30.1318 96.5718 30.1318 96.6289Z" fill="#455A64"/>
<path d="M69.8623 106L60.3485 56.4857C60.3201 56.4 60.3201 56.3429 60.2917 56.2571C58.8433 50.4286 57.679 49 57.679 49L43.4509 49.4C42.3433 51.4286 42.2013 56.2571 42.2013 56.2571C42.0593 56.8571 44.2461 105.029 44.2461 105.029L50.1531 105L51.7719 59.3143L64.4664 106.114L69.8623 106Z" fill="#263238"/>
<path d="M55.5206 57.7714C55.5206 57.8286 53.9586 58.2571 51.9991 58.7714C50.0395 59.2857 48.4208 59.6571 48.4208 59.6C48.4208 59.5429 49.9827 59.1143 51.9423 58.6C53.9018 58.0857 55.4922 57.7143 55.5206 57.7714Z" fill="#455A64"/>
<path d="M45.3536 105.628C45.3252 105.628 44.956 94.2569 44.5585 80.2284C44.1609 66.1998 43.8769 54.7998 43.9053 54.7998C43.9337 54.7998 44.3029 66.1712 44.7005 80.1998C45.098 94.2284 45.382 105.628 45.3536 105.628Z" fill="#455A64"/>
<path d="M46.9724 104.771C46.944 104.771 46.8588 93.5715 46.802 79.7429C46.7452 65.9144 46.7452 54.7144 46.802 54.7144C46.8304 54.7144 46.9156 65.9144 46.9724 79.7429C47.0008 93.5715 47.0008 104.771 46.9724 104.771Z" fill="#455A64"/>
<path d="M49.4716 54.0571C49.5 54.0571 49.358 65.4 49.1308 79.4286C48.9036 93.4286 48.6764 104.8 48.648 104.8C48.6196 104.8 48.7616 93.4571 48.9888 79.4286C49.216 65.4 49.4432 54.0571 49.4716 54.0571Z" fill="#455A64"/>
<path d="M51.7435 59.3143C51.7151 59.3143 51.6015 58.0858 51.5447 56.5715C51.4879 55.0572 51.4595 53.8286 51.4879 53.8286C51.5163 53.8286 51.6299 55.0572 51.6867 56.5715C51.7719 58.0858 51.8003 59.3143 51.7435 59.3143Z" fill="#455A64"/>
<path d="M65.8296 105.971C65.8012 105.971 62.9612 94.3143 59.5533 79.9143C56.117 65.5143 53.3623 53.8286 53.4191 53.8286C53.4475 53.8286 56.2874 65.4858 59.6953 79.8858C63.1032 94.2572 65.858 105.943 65.8296 105.971Z" fill="#455A64"/>
<path d="M67.5051 105.914C67.4767 105.914 64.8071 94.143 61.5412 79.6287C58.2753 65.1145 55.6909 53.3145 55.7193 53.3145C55.7477 53.3145 58.4173 65.0573 61.6832 79.6002C64.9491 94.1145 67.5619 105.914 67.5051 105.914Z" fill="#455A64"/>
<path d="M68.5843 105.629C68.5559 105.629 66.2271 93.943 63.3872 79.4859C60.5757 65.0287 58.3037 53.3145 58.3605 53.3145C58.3889 53.3145 60.7177 65.0002 63.5576 79.4573C66.3691 93.8859 68.6411 105.629 68.5843 105.629Z" fill="#455A64"/>
<path d="M44.5017 29.2857L35.0447 21.0857L35.2151 9.37145L35.3855 9.11431C35.4707 8.97145 35.5843 8.82859 35.7263 8.65716C35.8683 8.45716 36.0671 8.31431 36.2659 8.17145C36.5215 8.02859 36.8623 7.82859 37.0894 7.77145C37.3734 7.7143 37.4302 7.34288 37.203 7.25716C36.9758 7.17145 36.2375 7.3143 35.4991 7.85716C34.7891 8.40002 35.1299 7.02859 35.2435 6.54288C35.3571 6.05716 35.6695 4.48573 35.5275 4.34288C35.3571 4.11431 35.0731 4.28573 34.9595 4.77145C34.8459 5.28573 34.4199 6.74288 34.1643 6.68573C33.9087 6.62859 34.5619 4.08573 34.5619 4.08573C34.5619 4.08573 34.7891 3.57145 34.4767 3.48573C33.9371 3.31431 33.4543 6.05716 33.4259 6.31431C33.3975 6.48573 33.1135 6.42859 33.1419 6.22859C33.1703 6.02859 33.8519 3.74288 33.3123 3.57145C32.8863 3.42859 32.8863 5.80002 32.4888 6.22859C32.0912 6.62859 32.6876 4.42859 32.2616 4.31431C32.1196 4.28573 32.006 4.25716 31.8356 5.57145C31.7504 6.20002 31.58 7.28573 31.5516 8.31431L29.9044 22.4286L39.4466 33.2L44.5017 29.2857Z" fill="#FFBE9D"/>
<path d="M44.5016 105.114L43.7349 107.714L49.2159 107.657L49.4715 104.886L44.5016 105.114Z" fill="#6F6F9D"/>
<path d="M49.3295 107.114C49.3295 107.143 49.0171 107.171 48.5343 107.171C48.0515 107.171 47.3415 107.171 46.6032 107.171C45.8932 107.143 45.24 107.114 44.672 107.114C44.1892 107.086 43.8768 107.086 43.8768 107.057C43.8768 107.029 44.1892 107 44.672 107C45.1548 107 45.8648 107 46.6032 107C47.3131 107.029 47.9663 107.057 48.5343 107.057C49.0171 107.086 49.3295 107.086 49.3295 107.114Z" fill="#263238"/>
<path d="M46.9724 104.771C47.0292 104.771 47.0292 105.286 47.0008 105.943C46.9724 106.571 46.8872 107.114 46.8588 107.114C46.802 107.114 46.802 106.6 46.8304 105.943C46.8588 105.286 46.9156 104.771 46.9724 104.771Z" fill="#263238"/>
<g opacity="0.6">
<path d="M43.7349 107.714L49.2159 107.657L49.2727 107.114L43.8201 107.057L43.7349 107.657" fill="white"/>
</g>
<path d="M48.9887 3.8284C48.6195 4.0284 49.7555 6.0284 49.2727 5.74268C48.7899 5.45697 48.1651 3.17125 47.7959 3.39983C47.3131 3.71411 48.5343 5.77125 48.6195 5.94268C48.7047 6.11411 48.4491 6.25697 48.3639 6.08554C48.2503 5.85697 47.0859 3.34268 46.6032 3.6284C46.3476 3.79983 46.6884 4.2284 46.6884 4.2284C46.6884 4.2284 47.9663 6.48554 47.7391 6.6284C47.5119 6.77125 46.7168 5.45697 46.4896 4.99983C46.2624 4.54268 45.95 4.45697 45.8364 4.74268C45.7512 4.91411 46.4328 6.34268 46.6884 6.79983C46.9439 7.25697 47.6255 8.45697 46.7736 8.14268C45.95 7.79983 45.1832 7.85697 44.9844 7.99983C44.7856 8.14268 44.9276 8.48554 45.2116 8.45697C45.4388 8.45697 45.808 8.54268 46.092 8.6284C46.3192 8.68554 46.5464 8.79983 46.7452 8.94268C46.9155 9.05697 47.0575 9.17125 47.1995 9.28554L47.4267 9.48554L52.1694 21.257L47.8527 31.3427L54.5266 33.857L57.5369 20.5141L50.6643 7.51411C50.3803 6.51411 49.9259 5.54268 49.6987 4.94268C49.2159 3.71411 49.1307 3.74268 48.9887 3.8284Z" fill="#FFBE9D"/>
<path d="M70.1463 106.485L70.1179 105.914L64.438 106.085L64.4948 107.943H64.8356C66.3975 107.971 72.7874 108.028 73.8098 107.714C75.0025 107.371 70.1463 106.485 70.1463 106.485Z" fill="#6F6F9D"/>
<g opacity="0.6">
<path d="M66.5395 107.857C66.4543 107.428 66.1703 107 65.7728 106.743C65.3752 106.485 64.9208 106.343 64.438 106.4L64.4948 107.885L66.5395 107.857Z" fill="white"/>
</g>
<g opacity="0.6">
<path d="M72.5318 107C72.5318 107 74.2358 107.4 74.037 107.686C73.8382 107.943 67.3631 108.114 64.5232 107.971V107.857L72.049 107.714C72.049 107.686 72.191 107 72.5318 107Z" fill="white"/>
</g>
<path d="M64.4095 107.828C64.4095 107.828 64.4379 107.828 64.4947 107.828C64.5799 107.828 64.6651 107.828 64.7787 107.828C65.0627 107.828 65.4035 107.828 65.8011 107.828C66.6815 107.828 67.8743 107.828 69.209 107.8C70.5438 107.771 71.7366 107.714 72.6169 107.657C73.0145 107.628 73.3553 107.6 73.6393 107.6C73.7529 107.6 73.8381 107.571 73.9233 107.571C73.9801 107.571 74.0085 107.571 74.0085 107.571C74.0085 107.571 73.9801 107.571 73.9233 107.571C73.8381 107.571 73.7529 107.571 73.6393 107.571C73.3553 107.571 73.0145 107.6 72.6169 107.628C71.7366 107.657 70.5438 107.714 69.2374 107.743C67.9027 107.771 66.7099 107.8 65.8295 107.8C65.4319 107.8 65.0911 107.8 64.8071 107.8C64.6935 107.8 64.6083 107.8 64.5231 107.8C64.4663 107.828 64.4095 107.828 64.4095 107.828Z" fill="#263238"/>
<path d="M72.0489 107.771C72.0773 107.771 72.0773 107.543 72.2193 107.314C72.3613 107.086 72.5601 106.943 72.5601 106.943C72.5601 106.914 72.3045 107.028 72.1625 107.286C71.9921 107.514 72.0205 107.771 72.0489 107.771Z" fill="#263238"/>
<path d="M70.345 107.028C70.3734 107.028 70.4302 106.942 70.5154 106.828C70.6006 106.714 70.6574 106.6 70.629 106.6C70.6006 106.6 70.5438 106.685 70.4586 106.8C70.3734 106.914 70.345 107 70.345 107.028Z" fill="#263238"/>
<path d="M69.8906 106.8C69.8906 106.8 70.0042 106.742 70.0894 106.657C70.1746 106.571 70.2598 106.485 70.2314 106.485C70.2314 106.485 70.1178 106.542 70.0326 106.628C69.9474 106.714 69.8622 106.8 69.8906 106.8Z" fill="#263238"/>
<path d="M69.5782 106.314C69.5782 106.343 69.7202 106.343 69.8622 106.343C70.0326 106.343 70.1462 106.314 70.1462 106.314C70.1462 106.286 70.0042 106.286 69.8622 106.286C69.7202 106.286 69.5782 106.286 69.5782 106.314Z" fill="#263238"/>
<path d="M69.4646 105.971C69.4646 106 69.6066 106.057 69.8054 106.057C70.0042 106.057 70.1462 106.028 70.1462 106C70.1462 105.971 70.0042 106 69.8054 106C69.635 105.971 69.4646 105.943 69.4646 105.971Z" fill="#263238"/>
<path d="M70.5154 106.542C70.5154 106.542 70.6574 106.571 70.8846 106.542C70.9982 106.514 71.1402 106.485 71.2822 106.457C71.339 106.428 71.4242 106.4 71.5094 106.371C71.5378 106.342 71.5946 106.314 71.5946 106.257C71.5946 106.2 71.5662 106.142 71.5378 106.114C71.197 105.942 70.8562 106.142 70.7142 106.314C70.6574 106.4 70.629 106.485 70.6006 106.542C70.6006 106.6 70.6006 106.628 70.6006 106.628C70.6006 106.628 70.629 106.485 70.771 106.342C70.8278 106.257 70.9414 106.2 71.0834 106.142C71.197 106.114 71.3958 106.085 71.5094 106.171C71.5662 106.2 71.5378 106.285 71.481 106.314C71.4242 106.342 71.339 106.371 71.2822 106.4C71.1402 106.457 71.0266 106.485 70.913 106.514C70.6574 106.542 70.5154 106.542 70.5154 106.542Z" fill="#263238"/>
<path d="M70.629 106.571C70.629 106.571 70.6858 106.485 70.6574 106.343C70.6574 106.257 70.6006 106.171 70.5438 106.085C70.487 106 70.4018 105.914 70.2314 105.914C70.1462 105.914 70.1178 106.028 70.1178 106.085C70.1178 106.143 70.1462 106.2 70.1746 106.228C70.2314 106.314 70.2882 106.371 70.345 106.428C70.4586 106.543 70.5438 106.571 70.5438 106.571C70.5438 106.571 70.4586 106.514 70.3734 106.4C70.3166 106.343 70.2598 106.285 70.203 106.2C70.1462 106.143 70.1178 106 70.203 105.971C70.2882 105.971 70.4018 106.057 70.4586 106.114C70.5154 106.2 70.5438 106.257 70.5722 106.343C70.629 106.485 70.6006 106.571 70.629 106.571Z" fill="#263238"/>
<path d="M64.4948 106.371C64.4948 106.371 64.6651 106.343 64.9207 106.371C65.1763 106.4 65.5171 106.485 65.8295 106.685C66.1419 106.914 66.3407 107.2 66.4259 107.428C66.5111 107.657 66.5395 107.8 66.5395 107.8C66.5395 107.8 66.5395 107.771 66.5395 107.685C66.5395 107.628 66.5111 107.514 66.4827 107.4C66.3975 107.171 66.1987 106.857 65.8863 106.628C65.5455 106.4 65.1763 106.314 64.9207 106.314C64.7787 106.314 64.6935 106.314 64.6083 106.343C64.5231 106.371 64.4948 106.371 64.4948 106.371Z" fill="#263238"/>
<path d="M67.2495 107.314C67.2495 107.342 67.6187 107.371 68.0731 107.371C68.5275 107.371 68.8967 107.314 68.8967 107.285C68.8967 107.257 68.5275 107.285 68.0731 107.314C67.6187 107.314 67.2495 107.285 67.2495 107.314Z" fill="#263238"/>
<path d="M66.1418 107.342C66.1418 107.342 66.1702 107.428 66.227 107.485C66.2554 107.571 66.2838 107.628 66.3122 107.628C66.3406 107.628 66.3406 107.542 66.2838 107.457C66.227 107.371 66.1418 107.314 66.1418 107.342Z" fill="#263238"/>
<path d="M65.7159 106.857C65.7159 106.857 65.7443 106.914 65.8011 106.971C65.8579 107.028 65.9147 107.057 65.9431 107.057C65.9431 107.057 65.9147 107 65.8579 106.943C65.7727 106.886 65.7159 106.857 65.7159 106.857Z" fill="#263238"/>
<path d="M65.0911 106.657C65.0911 106.686 65.1763 106.686 65.2615 106.686C65.3467 106.714 65.4035 106.743 65.4319 106.743C65.4603 106.743 65.4035 106.657 65.2899 106.629C65.1763 106.6 65.0911 106.629 65.0911 106.657Z" fill="#263238"/>
<path d="M64.6652 106.571C64.6652 106.6 64.6936 106.628 64.7504 106.628C64.8072 106.657 64.8356 106.657 64.8356 106.628C64.8356 106.6 64.8072 106.571 64.7504 106.571C64.722 106.543 64.6936 106.543 64.6652 106.571Z" fill="#263238"/>
<path d="M57.5654 36.3999L56.0318 44.4856C59.2409 48.9999 59.5533 52.857 59.5533 52.857L42.2014 54.8856C42.2014 51.7142 44.5017 46.6285 44.5017 46.6285L41.7186 37.057L36.6919 30.457L41.6902 25.9142C41.605 26.1713 46.3761 28.9427 46.3761 28.9427L53.2487 28.9999C53.2487 28.9999 53.6463 29.0285 54.2427 29.1999L57.5938 20.457C57.5938 20.457 60.5189 23.9142 60.0077 28.9999C59.4397 34.5713 58.7866 33.1999 57.5654 36.3999Z" fill="#6F6F9D"/>
<path d="M48.0516 43.5144C48.0516 43.5144 48.0516 43.5716 47.9948 43.6573C47.938 43.743 47.8812 43.8858 47.7392 44.0287C47.5972 44.1716 47.3984 44.3144 47.1428 44.3144C47.0008 44.3144 46.8588 44.2858 46.7452 44.2001C46.6316 44.143 46.518 44.0287 46.4044 43.9716C46.1772 43.8001 45.95 43.743 45.7228 43.7716C45.4956 43.7716 45.2968 43.8858 45.1548 44.0001C44.8708 44.2287 44.814 44.4573 44.7856 44.4573C44.7856 44.4573 44.7856 44.2001 45.098 43.943C45.24 43.8001 45.4672 43.6858 45.7228 43.6858C45.9784 43.6573 46.2908 43.7144 46.518 43.9144C46.7452 44.0858 46.944 44.2573 47.1712 44.2573C47.3984 44.2573 47.5972 44.143 47.7108 44.0287C47.9096 43.6858 48.0232 43.4858 48.0516 43.5144Z" fill="#FAFAFA"/>
<path d="M56.6282 48.914C56.6282 48.914 56.6282 48.9712 56.5714 49.0569C56.5146 49.1426 56.4578 49.2855 56.3158 49.4283C56.1738 49.5712 55.975 49.714 55.7194 49.714C55.5775 49.714 55.4355 49.6855 55.3219 49.5997C55.2083 49.5426 55.0947 49.4283 54.9811 49.3712C54.7539 49.1997 54.5267 49.1426 54.2995 49.1712C54.0723 49.1712 53.8735 49.2855 53.7315 49.3997C53.4475 49.6283 53.3907 49.8569 53.3623 49.8569C53.3623 49.8569 53.3623 49.5997 53.6747 49.3426C53.8167 49.1997 54.0439 49.0855 54.2995 49.0855C54.5551 49.0569 54.8675 49.114 55.0947 49.314C55.3219 49.4855 55.5207 49.6569 55.7478 49.6569C55.975 49.6569 56.1738 49.5426 56.2874 49.4283C56.4862 49.114 56.5998 48.8855 56.6282 48.914Z" fill="#FAFAFA"/>
<path d="M51.1188 40.3711C51.1188 40.3711 51.1756 40.3997 51.2324 40.4854C51.2892 40.5711 51.4028 40.6854 51.488 40.8568C51.5732 41.0282 51.63 41.2854 51.5448 41.5425C51.5164 41.6854 51.4028 41.7997 51.3176 41.8854C51.204 41.9711 51.0904 42.0568 50.9768 42.1139C50.7496 42.2568 50.6076 42.4854 50.5508 42.6854C50.494 42.9139 50.494 43.114 50.5508 43.2854C50.6644 43.6282 50.8632 43.7711 50.8348 43.7997C50.8348 43.7997 50.6076 43.6854 50.4372 43.3425C50.3804 43.1711 50.3236 42.914 50.4088 42.6568C50.4656 42.3997 50.636 42.1425 50.8916 41.9997C51.1472 41.8568 51.3744 41.714 51.4312 41.514C51.5164 41.314 51.4596 41.0854 51.4028 40.9139C51.2608 40.5711 51.0904 40.3997 51.1188 40.3711Z" fill="#FAFAFA"/>
<path d="M51.9707 48.0855C51.9707 48.0855 51.9707 48.0283 51.9707 47.914C51.9707 47.7998 51.9991 47.6569 52.0843 47.4855C52.1695 47.314 52.2831 47.114 52.5387 46.9712C52.6523 46.914 52.8227 46.8855 52.9363 46.914C53.0783 46.9426 53.2203 46.9712 53.3339 46.9998C53.5895 47.0569 53.8451 47.0283 54.0439 46.914C54.2426 46.7998 54.3846 46.6569 54.4698 46.5141C54.6402 46.1998 54.6118 45.9712 54.6402 45.9712C54.6402 45.9712 54.7254 46.2283 54.555 46.5712C54.4698 46.7426 54.3278 46.9426 54.1007 47.0569C53.8735 47.1712 53.5611 47.2283 53.2771 47.1426C52.9931 47.0569 52.7659 46.9712 52.5387 47.0855C52.3399 47.1712 52.1979 47.3426 52.1127 47.5141C52.0275 47.8569 51.9991 48.1141 51.9707 48.0855Z" fill="#FAFAFA"/>
<path d="M53.0782 52.2283C53.0782 52.2283 53.1066 52.1712 53.1634 52.0855C53.2202 51.9998 53.3338 51.8855 53.5042 51.7712C53.6746 51.6569 53.9018 51.5712 54.1574 51.5998C54.2994 51.6283 54.413 51.6855 54.5266 51.7712C54.6402 51.8569 54.7254 51.9712 54.8106 52.0855C54.981 52.2855 55.2366 52.3998 55.4638 52.4283C55.691 52.4569 55.8898 52.3998 56.0602 52.3426C56.3726 52.1712 56.4862 51.9712 56.5146 51.9712C56.543 51.9712 56.4578 52.2283 56.117 52.4283C55.9466 52.5141 55.7194 52.5998 55.4638 52.5712C55.2082 52.5426 54.9242 52.4283 54.7254 52.1998C54.5266 51.9712 54.3846 51.7712 54.1574 51.7426C53.9302 51.7141 53.7314 51.7712 53.5894 51.8569C53.2486 52.0569 53.0782 52.2569 53.0782 52.2283Z" fill="#FAFAFA"/>
<path d="M43.7349 52.5144C43.7349 52.5144 43.7633 52.4572 43.8485 52.4001C43.9337 52.3429 44.0473 52.2572 44.2461 52.2001C44.4164 52.143 44.672 52.1144 44.9276 52.2001C45.0412 52.2572 45.1548 52.343 45.24 52.4858C45.3252 52.6001 45.382 52.743 45.4388 52.8572C45.5524 53.0858 45.7512 53.2572 45.9784 53.343C46.1772 53.4287 46.4044 53.4287 46.5748 53.4001C46.9156 53.3144 47.086 53.143 47.086 53.1715C47.086 53.1715 46.9724 53.4001 46.5748 53.5144C46.4044 53.5715 46.1488 53.5715 45.8932 53.4858C45.6376 53.4001 45.4104 53.2001 45.2684 52.943C45.1264 52.6858 45.0412 52.4572 44.8424 52.343C44.6436 52.2572 44.4164 52.2572 44.2461 52.3144C43.9337 52.4001 43.7349 52.543 43.7349 52.5144Z" fill="#FAFAFA"/>
<path d="M53.3907 38.2855C53.3907 38.2855 53.4475 38.257 53.5327 38.2284C53.6463 38.1998 53.7883 38.1713 53.9871 38.1998C54.1859 38.1998 54.4131 38.2855 54.6119 38.4855C54.6971 38.5713 54.7823 38.7141 54.7823 38.857C54.8107 38.9998 54.8107 39.1427 54.8107 39.2855C54.8391 39.5427 54.9527 39.7998 55.0947 39.9427C55.2651 40.1141 55.4639 40.1998 55.6343 40.2284C55.9751 40.2855 56.2023 40.1998 56.2023 40.2284C56.2023 40.2284 56.0035 40.3998 55.6059 40.3427C55.4071 40.3141 55.1799 40.2284 55.0095 40.057C54.8107 39.8855 54.6687 39.5998 54.6687 39.3141C54.6403 39.0284 54.6403 38.7713 54.4983 38.5998C54.3563 38.4284 54.1291 38.3713 53.9587 38.3427C53.6179 38.257 53.3907 38.3141 53.3907 38.2855Z" fill="#FAFAFA"/>
<path d="M58.5026 25.2568C58.5026 25.2568 58.5594 25.2854 58.6162 25.3711C58.7014 25.4568 58.7866 25.5711 58.8718 25.7425C58.957 25.914 59.0422 26.1425 58.957 26.4283C58.9286 26.5711 58.8434 26.6854 58.7298 26.7711C58.6162 26.8568 58.5026 26.9425 58.389 27.0283C58.1618 27.1711 58.0482 27.3997 57.9914 27.6283C57.9346 27.8568 57.963 28.0568 58.0198 28.2283C58.1334 28.5711 58.3606 28.6854 58.3322 28.714C58.3322 28.7425 58.105 28.6283 57.9346 28.2568C57.8494 28.0854 57.821 27.8283 57.8778 27.5711C57.9346 27.314 58.0766 27.0568 58.3322 26.8854C58.5594 26.714 58.7866 26.5711 58.8434 26.3711C58.9002 26.1426 58.8718 25.9425 58.7866 25.7711C58.6446 25.4568 58.4742 25.2854 58.5026 25.2568Z" fill="#FAFAFA"/>
<path d="M50.0963 36.5712C50.0963 36.5712 50.1531 36.5426 50.2383 36.514C50.3519 36.4855 50.4939 36.4569 50.6927 36.4855C50.8915 36.4855 51.1187 36.5712 51.3175 36.7712C51.4027 36.8569 51.4879 36.9998 51.4879 37.1426C51.5163 37.2855 51.5163 37.4283 51.5163 37.5712C51.5447 37.8283 51.6583 38.0855 51.8003 38.2283C51.9707 38.3998 52.1695 38.4855 52.3399 38.514C52.6807 38.5712 52.9078 38.4855 52.9078 38.514C52.9078 38.514 52.7091 38.6855 52.3115 38.6283C52.1127 38.5998 51.8855 38.514 51.7151 38.3426C51.5163 38.1712 51.3743 37.8855 51.3743 37.5998C51.3459 37.314 51.3459 37.0569 51.2039 36.8855C51.0619 36.714 50.8347 36.6569 50.6643 36.6283C50.3235 36.5426 50.0963 36.5998 50.0963 36.5712Z" fill="#FAFAFA"/>
<path d="M56.259 29.0858C56.259 29.0858 56.3158 29.0573 56.401 29.0287C56.5146 29.0001 56.6566 28.9715 56.8554 29.0001C57.0542 29.0001 57.2814 29.0858 57.4802 29.2858C57.5654 29.3715 57.6506 29.5144 57.6506 29.6573C57.679 29.8001 57.679 29.943 57.679 30.0858C57.7074 30.343 57.821 30.6001 57.963 30.743C58.1334 30.9144 58.3322 31.0001 58.5026 31.0287C58.8434 31.0858 59.0706 31.0001 59.0706 31.0287C59.0706 31.0287 58.8718 31.2001 58.4742 31.143C58.2754 31.1144 58.0482 31.0287 57.8778 30.8573C57.679 30.6858 57.537 30.4001 57.537 30.1144C57.5086 29.8287 57.5086 29.5715 57.3666 29.4001C57.2246 29.2287 56.9974 29.1715 56.827 29.143C56.5146 29.0573 56.259 29.1144 56.259 29.0858Z" fill="#FAFAFA"/>
<path d="M43.6781 38.3428C43.6781 38.3428 43.7349 38.3428 43.8201 38.3999C43.9053 38.4571 44.0473 38.5142 44.1893 38.6571C44.3313 38.7713 44.4733 38.9713 44.5017 39.2571C44.5301 39.3999 44.4733 39.5428 44.4165 39.6571C44.3597 39.7713 44.2745 39.8856 44.1893 39.9999C44.0473 40.2285 43.9905 40.4856 44.0189 40.7142C44.0473 40.9428 44.1609 41.1428 44.2745 41.2571C44.5017 41.5142 44.7573 41.5713 44.7289 41.5999C44.7289 41.5999 44.4733 41.5999 44.1893 41.3142C44.0473 41.1713 43.9337 40.9713 43.8769 40.7142C43.8485 40.4571 43.8769 40.1428 44.0473 39.9142C44.2177 39.6856 44.3597 39.4571 44.3313 39.2571C44.3029 39.0285 44.1893 38.8571 44.0757 38.7142C43.8769 38.4856 43.6781 38.3713 43.6781 38.3428Z" fill="#FAFAFA"/>
<path d="M40.6678 30.4854C40.6678 30.4854 40.7246 30.4568 40.8098 30.4282C40.9234 30.3997 41.0654 30.3711 41.2642 30.3711C41.463 30.3711 41.6902 30.4282 41.889 30.6282C41.9742 30.7139 42.0594 30.8568 42.0878 30.9997C42.1162 31.1425 42.1162 31.2854 42.1446 31.4282C42.173 31.6854 42.315 31.914 42.457 32.0854C42.6274 32.2568 42.8262 32.3139 42.9966 32.3425C43.3374 32.3997 43.5646 32.2854 43.5646 32.3139C43.5646 32.3139 43.3658 32.4854 42.9682 32.4568C42.7694 32.4282 42.5422 32.3711 42.3434 32.1997C42.1446 32.0282 42.0026 31.7711 41.9742 31.4568C41.9458 31.1711 41.9458 30.9139 41.7754 30.7425C41.6334 30.5711 41.4062 30.514 41.2358 30.514C40.895 30.4282 40.6678 30.5139 40.6678 30.4854Z" fill="#FAFAFA"/>
<path d="M41.0938 27.1714C41.0938 27.1714 41.1505 27.1428 41.2357 27.1143C41.3493 27.0857 41.4913 27.0571 41.6901 27.0571C41.8889 27.0571 42.1161 27.1143 42.3149 27.3143C42.4001 27.4 42.4853 27.5428 42.5137 27.6857C42.5421 27.8286 42.5421 27.9714 42.5705 28.1143C42.5989 28.3714 42.7409 28.6 42.8829 28.7714C43.0533 28.9428 43.2521 29 43.4225 29.0286C43.7633 29.0857 43.9905 28.9714 43.9905 29C43.9905 29 43.7917 29.1714 43.3941 29.1428C43.1953 29.1143 42.9681 29.0571 42.7693 28.8857C42.5705 28.7143 42.4285 28.4571 42.4001 28.1428C42.3717 27.8571 42.3717 27.6 42.2013 27.4286C42.0593 27.2571 41.8321 27.2 41.6617 27.2C41.3493 27.1428 41.1221 27.2 41.0938 27.1714Z" fill="#FAFAFA"/>
<path d="M41.037 34.9141C41.037 34.9141 41.0938 34.8855 41.179 34.8569C41.2926 34.8284 41.4346 34.7998 41.6334 34.7998C41.8322 34.7998 42.0594 34.8569 42.2582 35.0569C42.3434 35.1427 42.4286 35.2855 42.457 35.4284C42.4854 35.5712 42.4854 35.7141 42.5138 35.8569C42.5421 36.1141 42.6841 36.3427 42.8261 36.5141C42.9965 36.6855 43.1953 36.7427 43.3657 36.7712C43.7065 36.8284 43.9337 36.7141 43.9337 36.7427C43.9337 36.7427 43.7349 36.9141 43.3373 36.8855C43.1385 36.8569 42.9113 36.7998 42.7125 36.6284C42.5137 36.4569 42.3718 36.1998 42.3434 35.8855C42.315 35.5998 42.315 35.3427 42.1446 35.1712C42.0026 34.9998 41.7754 34.9427 41.605 34.9427C41.2642 34.8855 41.037 34.9427 41.037 34.9141Z" fill="#FAFAFA"/>
<path d="M38.8502 29.8569C38.8502 29.8569 38.907 29.8569 38.9922 29.9141C39.0774 29.9712 39.2194 30.0284 39.3614 30.1712C39.5034 30.2855 39.6454 30.4855 39.6738 30.7712C39.7022 30.9141 39.6454 31.0569 39.5886 31.1712C39.5318 31.2855 39.4466 31.3998 39.3614 31.5141C39.2194 31.7426 39.1626 31.9998 39.191 32.2284C39.2194 32.4569 39.333 32.6569 39.4466 32.7712C39.6738 33.0284 39.9294 33.0855 39.901 33.1141C39.901 33.1141 39.6454 33.1141 39.3614 32.8284C39.2194 32.6855 39.1058 32.4855 39.049 32.2284C39.0206 31.9712 39.049 31.6569 39.2194 31.4284C39.3898 31.1998 39.5318 30.9712 39.5034 30.7712C39.475 30.5426 39.3614 30.3712 39.2478 30.2284C39.049 29.9712 38.8218 29.8569 38.8502 29.8569Z" fill="#FAFAFA"/>
<path d="M52.908 42.5141C52.908 42.5141 52.9648 42.4855 53.05 42.4569C53.1636 42.4283 53.3055 42.3998 53.5043 42.4283C53.7031 42.4283 53.9303 42.5141 54.1291 42.7141C54.2143 42.7998 54.2995 42.9426 54.2995 43.0855C54.3279 43.2283 54.3279 43.3712 54.3279 43.5141C54.3563 43.7712 54.4699 44.0283 54.6119 44.1712C54.7823 44.3426 54.9811 44.4283 55.1515 44.4569C55.4923 44.5141 55.7195 44.4283 55.7195 44.4569C55.7195 44.4569 55.5207 44.6283 55.1231 44.5712C54.9243 44.5426 54.6971 44.4569 54.5267 44.2855C54.3279 44.1141 54.1859 43.8283 54.1859 43.5426C54.1575 43.2569 54.1575 42.9998 54.0155 42.8283C53.8735 42.6569 53.6463 42.5998 53.4759 42.5712C53.1352 42.5141 52.908 42.5426 52.908 42.5141Z" fill="#FAFAFA"/>
<path d="M44.8141 49.9998C44.8141 49.9998 44.8141 49.9427 44.8709 49.8569C44.8993 49.7712 44.9845 49.6284 45.0981 49.4855C45.2117 49.3427 45.4105 49.1712 45.6661 49.1427C45.8081 49.1141 45.9501 49.1427 46.0637 49.1998C46.2057 49.2569 46.3192 49.3427 46.4328 49.3998C46.66 49.5427 46.9156 49.5712 47.1428 49.5427C47.37 49.5141 47.5404 49.3998 47.6824 49.2855C47.938 49.0284 47.9948 48.7998 47.9948 48.7998C47.9948 48.7998 47.9948 49.0569 47.7392 49.3427C47.5972 49.4855 47.3984 49.6284 47.1428 49.6569C46.8872 49.7141 46.5748 49.6569 46.3193 49.5141C46.0637 49.3712 45.8649 49.1998 45.6377 49.2569C45.4105 49.2855 45.2401 49.3998 45.1265 49.5427C44.9277 49.7998 44.8425 49.9998 44.8141 49.9998Z" fill="#FAFAFA"/>
<path d="M49.9259 52.4854C49.9259 52.4854 49.8975 52.4282 49.8407 52.3425C49.8123 52.2568 49.7555 52.1139 49.7271 51.9139C49.6987 51.7139 49.7271 51.4854 49.8975 51.2568C49.9827 51.1425 50.0963 51.0568 50.2383 51.0282C50.3803 50.9711 50.5223 50.9711 50.6359 50.9139C50.8915 50.8568 51.1187 50.6854 51.2323 50.514C51.3743 50.3425 51.4311 50.114 51.4311 49.9425C51.4311 49.5711 51.2891 49.3711 51.3175 49.3711C51.3175 49.3711 51.5163 49.5425 51.5163 49.9425C51.5163 50.1425 51.4879 50.3711 51.3175 50.5997C51.1755 50.8282 50.9199 50.9997 50.6359 51.0568C50.3519 51.1139 50.0963 51.1711 49.9543 51.3425C49.8123 51.5139 49.7839 51.7425 49.7839 51.9139C49.8691 52.2568 49.9543 52.4568 49.9259 52.4854Z" fill="#FAFAFA"/>
<path d="M46.9156 46.6286C46.9156 46.6286 46.9441 46.5714 47.0292 46.5143C47.1144 46.4572 47.228 46.3429 47.3984 46.2572C47.5688 46.1714 47.796 46.1143 48.08 46.1714C48.222 46.2 48.3356 46.2857 48.4208 46.4C48.506 46.5143 48.5912 46.6286 48.6764 46.7429C48.8184 46.9714 49.0456 47.1143 49.2728 47.1714C49.5 47.2286 49.6988 47.2 49.8692 47.1429C50.21 47.0286 50.352 46.8286 50.352 46.8286C50.3804 46.8286 50.2668 47.0572 49.8976 47.2286C49.7272 47.3143 49.4716 47.3429 49.216 47.2857C48.9604 47.2286 48.7048 47.0572 48.5344 46.8286C48.364 46.6 48.2504 46.3714 48.0232 46.3143C47.8244 46.2572 47.5972 46.2857 47.4268 46.3714C47.1144 46.4857 46.944 46.6286 46.9156 46.6286Z" fill="#FAFAFA"/>
<path d="M45.9216 40.0854C45.9216 40.0854 45.95 40.0283 46.0352 39.9711C46.1204 39.8854 46.234 39.7997 46.4044 39.714C46.5748 39.6283 46.802 39.5426 47.086 39.6283C47.228 39.6568 47.3416 39.7426 47.4268 39.8568C47.512 39.9711 47.5972 40.0854 47.6824 40.1997C47.8528 40.4283 48.0516 40.5426 48.2788 40.5997C48.506 40.6569 48.7048 40.6283 48.8752 40.5711C49.216 40.4283 49.3296 40.2283 49.3579 40.2568C49.3863 40.2568 49.2727 40.514 48.9036 40.6854C48.7332 40.7711 48.4776 40.8283 48.222 40.7711C47.9664 40.714 47.7108 40.5711 47.5404 40.314C47.37 40.0854 47.228 39.8569 47.0292 39.7997C46.802 39.7426 46.6032 39.7997 46.4328 39.8568C46.092 39.9426 45.9216 40.114 45.9216 40.0854Z" fill="#FAFAFA"/>
<path d="M46.7168 15.4572C45.2685 16.1143 44.7005 17.7143 44.5585 19.2001C44.4165 20.6858 44.5585 22.2001 43.9905 23.5715C43.5077 24.7429 42.5421 25.8001 42.6557 27.0286C42.7409 27.9429 43.4225 28.7715 43.5361 29.6858C43.7917 31.4858 41.8889 33.0858 42.2297 34.8572C42.4001 35.6572 42.9965 36.3715 43.7349 36.8572C44.4733 37.3429 45.3253 37.6286 46.1772 37.9143C47.3132 38.2858 48.5912 38.6858 49.7271 38.2858C50.7211 37.9143 51.4027 37.0001 52.4535 36.7429C53.4475 36.4858 54.4982 36.9143 55.549 36.9143C56.5146 36.9429 57.4802 36.6001 58.1049 35.9429C58.7297 35.2858 58.9569 34.3143 58.6445 33.4858C58.1901 32.3429 56.7702 31.6001 56.543 30.4001C56.3442 29.3143 57.2246 28.2286 56.9406 27.1715C56.6282 25.9715 55.0378 25.3429 54.6686 24.1715C54.2142 22.7715 55.691 21.2572 55.0946 19.8858C54.7538 19.0858 53.7882 18.5715 53.5327 17.7429C53.3623 17.1715 53.5327 16.5429 53.4191 15.9715C53.1919 14.9715 52.0843 14.3143 50.9767 14.0858C49.6419 13.8001 48.1652 14.0001 47.0008 14.6572C45.8364 15.3143 45.0413 16.4858 44.9277 17.7429" fill="#263238"/>
<path d="M48.8751 14.4285C50.1815 13.9142 51.7151 14.0285 52.9646 14.7142C54.1858 15.3999 55.0946 16.6571 55.3786 18.0285C55.6058 19.1428 55.4354 20.3714 55.9181 21.3999C56.4577 22.5142 57.6789 23.2856 57.8777 24.5142C58.0481 25.6856 57.1677 26.7714 56.9973 27.9714C56.7985 29.1999 57.3949 30.4571 57.2529 31.6856C57.1109 32.9142 56.2021 34.0285 55.0378 34.3999C53.8734 34.7714 52.4818 34.3999 51.6583 33.4856" fill="#263238"/>
<path d="M52.6522 16.9714C52.7658 16.1143 53.277 15.2857 54.0438 14.8571C54.7822 14.4285 55.7478 14.3428 56.5429 14.6857C56.9973 14.8857 57.4233 15.2 57.6789 15.6571C57.9629 16.2 57.9345 16.8285 57.7925 17.4285C57.5369 18.3143 56.9121 19.1142 56.0601 19.4857C55.2082 19.8571 54.1574 19.7428 53.4474 19.1714C52.7374 18.5714 52.4534 17.4857 52.8226 16.6571" fill="#263238"/>
<path d="M54.8107 19.4857C54.8107 19.4857 54.7255 19.5143 54.5551 19.5143C54.3847 19.5143 54.1575 19.5429 53.8451 19.5143C53.5327 19.4857 53.1635 19.4571 52.7943 19.2857C52.4251 19.1143 52.0559 18.8 51.8571 18.3429C51.6583 17.9143 51.6583 17.4286 51.7435 17.0286C51.8287 16.6286 52.0275 16.3143 52.2263 16.0571C52.4251 15.8286 52.6239 15.6571 52.7659 15.5714C52.9079 15.4857 52.9931 15.4286 52.9931 15.4571C53.0215 15.4857 52.6807 15.6571 52.3115 16.1429C52.1411 16.3714 51.9707 16.6857 51.8855 17.0571C51.8003 17.4286 51.8287 17.8857 51.9991 18.2857C52.1695 18.6857 52.5103 19 52.8511 19.1429C53.1919 19.3143 53.5611 19.3714 53.8451 19.4C54.4415 19.4857 54.8107 19.4571 54.8107 19.4857Z" fill="#6F6F9D"/>
<path d="M55.123 19.1714C55.1514 19.1714 54.9242 19.3714 54.8106 19.8571C54.7538 20.0857 54.7254 20.4 54.7538 20.7429C54.7822 21.0857 54.8958 21.4857 55.0378 21.8857C55.1798 22.3143 55.4354 22.7429 55.6626 23.2C55.8898 23.6857 56.1454 24.2 56.259 24.8C56.3726 25.4 56.3158 26.0857 55.9466 26.6857C55.6058 27.2571 54.981 27.7143 54.271 27.8571L54.1858 27.8857V27.8C54.2142 27.4286 54.2426 27.0571 54.2426 26.6857L54.3846 26.7143C54.2994 26.9143 54.1574 27.1429 53.9586 27.2857C53.5894 27.6 53.0783 27.7143 52.6523 27.6286L52.5671 27.6L52.5955 27.5143C52.9363 26.8571 53.2203 26.2 53.3339 25.5429C53.3907 25.2 53.3907 24.8857 53.3055 24.5714C53.2203 24.2571 53.0783 23.9714 52.9079 23.7143C52.5387 23.2 52.1127 22.8 51.8003 22.3429C51.4879 21.8857 51.2891 21.3714 51.2039 20.9143C51.0051 19.9714 51.1755 19.2 51.3459 18.7143C51.5163 18.2286 51.6867 18 51.6867 18C51.7151 18 51.5447 18.2571 51.3743 18.7429C51.2323 19.2286 51.0903 20 51.2891 20.9143C51.4027 21.3714 51.5731 21.8571 51.8855 22.3143C52.1979 22.7714 52.6239 23.1714 53.0215 23.6857C53.1919 23.9429 53.3623 24.2286 53.4474 24.5714C53.5326 24.9143 53.5326 25.2571 53.4759 25.6C53.3623 26.2857 53.0499 26.9714 52.7375 27.6286L52.6807 27.5143C53.0783 27.6 53.5326 27.4857 53.8734 27.2C54.0438 27.0571 54.1574 26.8857 54.2426 26.6857L54.413 26.2857L54.3846 26.7143C54.3562 27.1143 54.3278 27.4857 54.3278 27.8286L54.2426 27.7429C54.9242 27.6286 55.4922 27.1714 55.833 26.6286C56.2022 26.0857 56.259 25.4286 56.1454 24.8571C56.0318 24.2857 55.8046 23.7429 55.5774 23.2857C55.3502 22.8 55.123 22.3714 54.9526 21.9429C54.7822 21.5143 54.697 21.1143 54.6686 20.7714C54.6402 20.4286 54.6686 20.1143 54.7538 19.8571C54.8106 19.6286 54.9242 19.4571 54.981 19.3429C55.0946 19.2286 55.123 19.1714 55.123 19.1714Z" fill="#455A64"/>
<path d="M56.117 14.6284C56.117 14.6284 56.1454 14.7141 56.2022 14.857C56.2306 14.9998 56.2874 15.2284 56.2874 15.4856C56.3158 16.0284 56.2022 16.7998 55.7763 17.5141C55.3503 18.2284 54.7255 18.7141 54.2711 18.9713C54.0439 19.0856 53.8167 19.1713 53.6747 19.1998C53.5327 19.2284 53.4475 19.257 53.4475 19.2284C53.4475 19.1998 53.7599 19.1141 54.2143 18.857C54.6687 18.5998 55.2367 18.1141 55.6627 17.4284C56.0602 16.7427 56.1738 15.9998 56.1738 15.457C56.1738 14.9713 56.0886 14.6284 56.117 14.6284Z" fill="#455A64"/>
<path d="M55.3218 18.2286C55.3218 18.2572 55.0946 18.2857 54.7254 18.2572C54.3562 18.2286 53.845 18.0572 53.4191 17.6857C52.9931 17.3143 52.7375 16.8572 52.6239 16.4857C52.5103 16.1429 52.5387 15.8857 52.5387 15.8857C52.5671 15.8857 52.5955 16.1143 52.7091 16.4286C52.8227 16.7715 53.0783 17.2 53.5043 17.5429C53.9018 17.8857 54.3846 18.0572 54.7254 18.1143C55.0946 18.2 55.3218 18.2 55.3218 18.2286Z" fill="#455A64"/>
<path d="M49.3864 38.2857C49.3864 38.2571 49.7556 38.2 50.2952 37.7428C50.8064 37.3142 51.4312 36.4571 51.6584 35.2571C51.8856 34.0571 51.63 32.5428 50.8348 31.1428C50.4372 30.4285 49.8976 29.8 49.358 29.0571C49.1024 28.6857 48.8468 28.3142 48.648 27.8857C48.4492 27.4571 48.3356 27 48.3072 26.5142C48.2504 25.5428 48.506 24.6285 48.8468 23.8C49.1876 22.9714 49.6136 22.2285 49.9828 21.5142C50.352 20.8 50.636 20.0571 50.7496 19.3714C50.8916 18.6571 50.8348 18 50.7212 17.4C50.4656 16.2 49.8692 15.3428 49.4148 14.8571C48.932 14.3714 48.5912 14.2 48.5912 14.1714C48.5912 14.1714 48.6196 14.1714 48.648 14.2C48.7048 14.2285 48.7616 14.2571 48.8184 14.3142C48.9604 14.4 49.1876 14.5714 49.4432 14.8C49.926 15.2857 50.5508 16.1428 50.8064 17.3714C50.92 17.9714 50.9768 18.6857 50.8632 19.4C50.7496 20.1142 50.4656 20.8571 50.0964 21.6C49.7556 22.3428 49.3012 23.0857 48.9888 23.8857C48.648 24.6857 48.3924 25.6 48.4492 26.5142C48.506 27.4571 48.932 28.2857 49.4716 28.9714C49.9828 29.6857 50.5508 30.3428 50.9484 31.0571C51.7436 32.4857 51.9992 34.0285 51.772 35.2571C51.5448 36.4857 50.8916 37.3428 50.352 37.7714C50.068 38 49.8408 38.1142 49.6704 38.1714C49.5852 38.2 49.5284 38.2285 49.4716 38.2285C49.4148 38.2857 49.3864 38.2857 49.3864 38.2857Z" fill="#455A64"/>
<path d="M46.9725 38.1713C46.9725 38.1713 46.9441 38.1713 46.9157 38.1427C46.8873 38.1142 46.8305 38.057 46.7737 37.9999C46.6601 37.8856 46.5181 37.6856 46.4045 37.3713C46.2909 37.0856 46.2341 36.6856 46.2625 36.257C46.3193 35.8285 46.4897 35.3142 46.8873 34.9142C47.2849 34.5142 47.8812 34.3142 48.4208 33.9713C48.7048 33.7999 48.932 33.5999 49.1024 33.2856C49.2444 32.9999 49.3296 32.6285 49.2728 32.2856C49.1876 31.5713 48.79 30.8856 48.2504 30.3142C47.7108 29.7427 47.0577 29.1999 46.5749 28.4856C46.3477 28.1427 46.1773 27.7142 46.0921 27.3142C46.0069 26.8856 46.0353 26.4856 46.0921 26.0856C46.2057 25.2856 46.4897 24.5713 46.7737 23.8856C47.0293 23.1999 47.2849 22.5427 47.37 21.9142C47.4552 21.2856 47.3984 20.657 47.1997 20.1713C47.0861 19.9142 46.9725 19.6856 46.8021 19.5142C46.6317 19.3427 46.4613 19.1713 46.2909 19.057C45.9501 18.7999 45.6377 18.5713 45.4389 18.3427C45.2117 18.1142 45.1265 17.8856 45.0981 17.7142C45.0697 17.5427 45.0697 17.457 45.0697 17.457C45.0697 17.457 45.0697 17.5427 45.1265 17.6856C45.1549 17.8285 45.2685 18.057 45.4957 18.2856C45.7229 18.5142 46.0069 18.7142 46.3761 18.9713C46.5465 19.1142 46.7453 19.257 46.9157 19.457C47.0861 19.657 47.228 19.8856 47.3416 20.1427C47.5404 20.657 47.6256 21.2856 47.5404 21.9427C47.4552 22.5999 47.2281 23.257 46.9441 23.9427C46.6885 24.6285 46.4045 25.3427 46.2909 26.1142C46.2341 26.5142 46.2341 26.9142 46.2909 27.2856C46.3477 27.6856 46.5181 28.057 46.7453 28.3999C47.1997 29.0856 47.8528 29.5999 48.3924 30.1999C48.932 30.7713 49.358 31.4856 49.4432 32.257C49.5 32.6285 49.4148 32.9999 49.2444 33.3427C49.074 33.657 48.79 33.8856 48.506 34.057C47.938 34.3999 47.37 34.5713 46.9725 34.9713C46.5749 35.3427 46.4045 35.8285 46.3477 36.257C46.2909 36.6856 46.3477 37.057 46.4613 37.3427C46.6885 37.9427 46.9725 38.1427 46.9725 38.1713Z" fill="#455A64"/>
<path d="M55.0378 36.1713C55.0378 36.1713 55.0094 36.1427 54.9526 36.0284C54.8958 35.9427 54.839 35.7998 54.8106 35.5998C54.7538 35.3998 54.7538 35.1713 54.7822 34.9141C54.8106 34.657 54.8674 34.3427 54.9242 33.9998C54.981 33.657 55.0662 33.3141 55.123 32.9141C55.1514 32.7141 55.1514 32.5141 55.1514 32.3141C55.1514 32.1141 55.0946 31.8855 55.0662 31.6855C54.9526 31.257 54.7254 30.857 54.413 30.4855C54.1006 30.1141 53.7598 29.7713 53.3622 29.4284C52.993 29.0855 52.6238 28.7141 52.3114 28.3427C51.999 27.9713 51.7434 27.5713 51.573 27.1427C51.2607 26.2855 51.3459 25.4284 51.4594 24.7713C51.6014 24.1141 51.7718 23.5713 51.8854 23.2284C51.9422 23.057 51.999 22.9141 52.0274 22.8284C52.0558 22.7427 52.0842 22.6855 52.0842 22.6855C52.0842 22.6855 52.0842 22.7427 52.0558 22.8284C52.0274 22.9427 51.9706 23.0855 51.9422 23.257C51.8286 23.6284 51.6866 24.1427 51.573 24.7998C51.4595 25.457 51.4027 26.2855 51.715 27.1141C52.0274 27.9427 52.7374 28.657 53.4758 29.3427C53.845 29.6855 54.2142 30.057 54.5266 30.4284C54.839 30.7998 55.0946 31.2284 55.2082 31.6855C55.265 31.9141 55.2934 32.1427 55.2934 32.3427C55.2934 32.5713 55.265 32.7713 55.2366 32.9713C55.1798 33.3713 55.0946 33.7141 55.0094 34.057C54.9242 34.3713 54.8674 34.6855 54.839 34.9427C54.8106 35.1998 54.8106 35.4284 54.839 35.6284C54.9242 35.9713 55.0662 36.1427 55.0378 36.1713Z" fill="#455A64"/>
</g>
<defs>
<clipPath id="clip0_907_478">
<rect width="99" height="108" fill="white"/>
</clipPath>
</defs>
</svg>
