<svg width="31" height="31" viewBox="0 0 31 31" fill="none" xmlns="http://www.w3.org/2000/svg">
<g clip-path="url(#clip0_907_190)">
<path d="M20.1343 0H20.552C21.2828 0.0605469 21.9918 0.389922 22.4841 0.937871C22.9812 1.46402 23.2524 2.18695 23.2506 2.90867C23.25 3.87197 23.2488 4.83467 23.2506 5.79736C23.9366 5.80766 24.6529 5.73076 25.3019 6.00504C26.3694 6.41615 27.1111 7.51629 27.1244 8.65578C27.1256 15.1549 27.125 21.6546 27.1244 28.1543C27.1141 28.9232 26.7811 29.6807 26.2174 30.205C25.7252 30.6821 25.0549 30.9576 24.3731 31H6.62927C5.46738 30.9491 4.38722 30.1366 4.02697 29.0298C3.82595 28.4782 3.88166 27.8849 3.875 27.3103C3.875 20.4467 3.8756 13.5837 3.87439 6.7207C3.89074 5.4577 4.75535 4.21527 5.99111 3.87318C10.5085 2.61805 15.0259 1.36352 19.5427 0.108984C19.7371 0.0587305 19.9345 0.0205859 20.1343 0ZM6.56509 5.72895C6.49668 5.75135 6.42947 5.77678 6.36347 5.80523C10.7404 5.82279 15.1179 5.80705 19.4955 5.81311C20.1003 5.78465 20.7064 5.8016 21.3119 5.79736C21.3113 4.81166 21.3161 3.82596 21.3095 2.84025C21.2895 2.26203 20.6659 1.80127 20.107 1.96777C15.5926 3.22049 11.0789 4.47502 6.56509 5.72895ZM5.8125 7.75C5.8125 14.4102 5.8125 21.0697 5.8125 27.7293C5.81492 27.9714 5.78707 28.2257 5.88576 28.4546C6.02623 28.8118 6.39556 29.0601 6.77822 29.0619C12.5919 29.0631 18.4062 29.0625 24.22 29.0619C24.6038 29.0613 24.9762 28.8124 25.1148 28.4528C25.2129 28.2239 25.1845 27.9708 25.1875 27.7293C25.1875 21.3918 25.1875 15.055 25.1875 8.71814C25.1869 8.22772 24.7806 7.75121 24.2763 7.74273C23.3287 7.71609 22.3805 7.75908 21.433 7.73486C20.4043 7.72336 19.3762 7.75787 18.3475 7.75C14.1692 7.75 9.99084 7.75 5.8125 7.75Z" fill="#6F6F9D"/>
<path d="M13.953 10.6219C14.237 10.0509 14.8637 9.66824 15.5024 9.68459C16.1382 9.66945 16.76 10.0509 17.0458 10.6176C17.492 11.5046 17.9467 12.388 18.3935 13.275C19.1038 13.2744 19.8134 13.275 20.5236 13.2744C21.0824 13.2665 21.6467 13.5366 21.9634 14.0028C22.3727 14.5635 22.3896 15.3748 21.9979 15.9494C21.8756 16.1425 21.7018 16.2939 21.5365 16.4495C20.9377 17.0525 20.325 17.6423 19.7226 18.2429C20.0646 19.0294 20.4067 19.8153 20.7494 20.6018C20.833 20.7943 20.9274 20.9863 20.9638 21.1958C21.0794 21.7564 20.8881 22.3722 20.4649 22.7603C19.9544 23.2725 19.111 23.3979 18.4717 23.0618C17.4793 22.509 16.4918 21.9465 15.4994 21.3937C14.5216 21.9411 13.5456 22.4921 12.5689 23.0412C12.2063 23.2368 11.7727 23.301 11.3701 23.2089C10.7507 23.0776 10.2191 22.5829 10.0623 21.9671C9.95695 21.5857 9.99569 21.1703 10.1592 20.8107C10.5346 19.9533 10.9057 19.0942 11.2811 18.2368C10.566 17.5508 9.86794 16.8473 9.16015 16.154C8.634 15.5909 8.57103 14.6694 9.01181 14.0379C9.31333 13.5711 9.85947 13.2859 10.4117 13.2756C11.1431 13.2732 11.8751 13.2756 12.6065 13.275C13.0533 12.3898 13.5068 11.5077 13.953 10.6219ZM14.0505 14.716C13.8889 15.0248 13.5443 15.2252 13.1962 15.2137C12.4527 15.2119 11.7098 15.2119 10.9663 15.2131C11.6123 15.8313 12.2438 16.464 12.8801 17.0925C13.0255 17.2305 13.1877 17.3601 13.2828 17.5405C13.4287 17.7991 13.4457 18.1248 13.3288 18.3973C12.9516 19.274 12.5629 20.1453 12.1899 21.0232C13.1066 20.511 14.0215 19.9951 14.9363 19.4786C15.3153 19.2183 15.8227 19.2837 16.1824 19.5459C17.0573 20.0405 17.9346 20.5322 18.8113 21.025C18.4838 20.25 18.1399 19.4823 17.8081 18.7097C17.7336 18.5293 17.6313 18.3561 17.6058 18.1593C17.5592 17.8602 17.6615 17.5436 17.8747 17.328C18.6006 16.6293 19.3042 15.907 20.0344 15.2137C19.2896 15.2119 18.5443 15.2125 17.7996 15.2131C17.4514 15.224 17.1081 15.0218 16.9477 14.713C16.4609 13.7685 15.9874 12.8173 15.5012 11.8728C15.0108 12.8167 14.5391 13.7709 14.0505 14.716Z" fill="#FF5644"/>
<path d="M10.3783 25.2237C10.4673 25.1971 10.5612 25.188 10.6538 25.1868C13.8828 25.1874 17.1117 25.188 20.3407 25.1868C20.6119 25.1801 20.8808 25.2976 21.0606 25.501C21.3664 25.8201 21.3948 26.3529 21.1405 26.7108C20.9643 26.9699 20.6537 27.1279 20.3413 27.1249C17.1129 27.1249 13.8846 27.1249 10.6568 27.1249C10.3002 27.1285 9.94904 26.919 9.79283 26.5975C9.50705 26.0847 9.8122 25.3727 10.3783 25.2237Z" fill="#6F6F9D"/>
</g>
<defs>
<clipPath id="clip0_907_190">
<rect width="31" height="31" fill="white"/>
</clipPath>
</defs>
</svg>
