<svg width="31" height="31" viewBox="0 0 31 31" fill="none" xmlns="http://www.w3.org/2000/svg">
<g clip-path="url(#clip0_907_177)">
<path d="M22.3491 1.90239C23.4304 1.62871 24.6274 1.84789 25.5338 2.50059C26.2325 2.99284 26.7532 3.72243 27.0094 4.53678C27.9775 4.53981 28.9463 4.53254 29.9144 4.53981C30.4648 4.54707 30.9382 5.01086 31 5.55094V5.77194C30.9504 6.32231 30.466 6.79518 29.9083 6.80244C28.9426 6.8091 27.9769 6.80426 27.0112 6.80426C26.7236 7.71004 26.1096 8.51229 25.2904 8.99909C24.3895 9.54764 23.2597 9.6984 22.2449 9.4102C20.9904 9.06629 19.9532 8.05092 19.5766 6.80668C13.4341 6.80305 7.29227 6.80729 1.14979 6.80487C0.57459 6.82424 0.0557031 6.35016 0 5.78162V5.55821C0.0557031 5.01328 0.53584 4.54526 1.08924 4.5392C7.25352 4.52952 13.4178 4.54707 19.5815 4.53073C19.9605 3.25016 21.054 2.21965 22.3491 1.90239ZM22.9158 4.09842C22.1117 4.27401 21.5402 5.12953 21.6982 5.94086C21.8217 6.79276 22.7111 7.42971 23.5582 7.26381C24.4204 7.14211 25.0604 6.23633 24.8817 5.38262C24.7449 4.49803 23.7834 3.86471 22.9158 4.09842Z" fill="#6F6F9D"/>
<path d="M6.7867 11.7272C7.77664 11.4832 8.86164 11.6467 9.72928 12.1843C10.5364 12.6735 11.1443 13.4667 11.4258 14.3652C17.5683 14.3664 23.7102 14.3646 29.852 14.3664C30.4321 14.3458 30.9546 14.8308 31 15.4054V15.5919C30.9558 16.1665 30.4345 16.6509 29.8557 16.6333C23.7126 16.6351 17.5695 16.6339 11.4264 16.6339C11.1388 17.5457 10.517 18.351 9.69113 18.8372C8.83682 19.3525 7.77785 19.5111 6.80789 19.2774C5.48918 18.9728 4.38359 17.9284 3.99125 16.6345C3.02371 16.6315 2.05617 16.6382 1.08924 16.6315C0.531602 16.623 0.0460156 16.1489 0 15.598V15.3794C0.0611523 14.8393 0.53584 14.3767 1.08621 14.3682C2.05436 14.3616 3.0225 14.3682 3.99064 14.3652C4.38117 13.0786 5.47646 12.0366 6.7867 11.7272ZM7.47512 13.9002C6.72555 13.9971 6.10676 14.6813 6.09344 15.4387C6.05348 16.1501 6.54875 16.841 7.2293 17.0432C7.84021 17.2406 8.55588 17.0263 8.95609 16.5243C9.30908 16.1029 9.41928 15.4956 9.23703 14.9773C9.00453 14.2581 8.22227 13.7773 7.47512 13.9002Z" fill="#FF5644"/>
<path d="M22.2473 21.5878C23.3178 21.2857 24.5154 21.4709 25.4382 22.0934C26.1847 22.5856 26.7411 23.3443 27.01 24.1949C27.9769 24.1962 28.9444 24.1901 29.9114 24.1974C30.4666 24.2046 30.9467 24.6745 31 25.2218V25.4398C30.9431 26.0089 30.4242 26.4836 29.849 26.4624C28.9021 26.4636 27.9557 26.4618 27.0094 26.463C26.732 27.347 26.1399 28.1299 25.3522 28.6197C24.487 29.1689 23.3989 29.3469 22.4023 29.1089C21.0867 28.8074 19.9659 27.7696 19.5845 26.4721C13.6019 26.4503 7.61861 26.4691 1.63598 26.463C1.3066 26.4539 0.956641 26.5072 0.650879 26.354C0.299102 26.1954 0.0641797 25.8455 0 25.4707V25.223C0.0454102 24.8192 0.306973 24.445 0.684785 24.2882C0.943926 24.1683 1.23516 24.1968 1.51186 24.1943C7.53324 24.1937 13.5546 24.1962 19.576 24.1931C19.9526 22.9477 20.9922 21.9323 22.2473 21.5878ZM22.9576 23.7475C22.1723 23.8983 21.5844 24.6957 21.6843 25.4919C21.749 26.3698 22.6318 27.0703 23.5025 26.9311C24.3804 26.8378 25.0561 25.9308 24.8854 25.0626C24.7613 24.1828 23.8234 23.5392 22.9576 23.7475Z" fill="#6F6F9D"/>
</g>
<defs>
<clipPath id="clip0_907_177">
<rect width="31" height="31" fill="white"/>
</clipPath>
</defs>
</svg>
