<svg width="33" height="33" viewBox="0 0 33 33" fill="none" xmlns="http://www.w3.org/2000/svg">
<g clip-path="url(#clip0_907_201)">
<path d="M22.2492 1.55988C22.5612 1.50703 22.8886 1.61788 23.1077 1.8454C23.7896 2.52603 24.4696 3.2073 25.1509 3.88792C25.5505 3.49089 25.9482 3.09257 26.3465 2.69425C26.9511 2.08775 27.7651 1.69523 28.6159 1.59533C29.4164 1.49929 30.2459 1.65978 30.9504 2.05294C31.9385 2.5937 32.6616 3.59337 32.8646 4.70197C33.1212 5.98201 32.6623 7.36066 31.7103 8.24947C30.6139 9.34581 29.5182 10.4435 28.42 11.5385C28.3678 11.5875 28.3207 11.6455 28.3201 11.7216C28.2047 12.5408 28.0854 13.3593 27.9701 14.1792C27.9366 14.4963 27.8811 14.8398 27.6317 15.0654C24.6778 18.0219 21.7207 20.9751 18.7668 23.9322C19.0846 24.5999 19.6569 25.1446 20.3485 25.4114C21.1825 25.7459 22.1719 25.6641 22.9376 25.1929C23.4783 24.8706 23.8438 24.3402 24.3394 23.9612C25.5035 23.0299 27.1122 22.6973 28.5521 23.0808C29.6839 23.365 30.6881 24.0901 31.3455 25.0505C31.9803 25.9715 32.2723 27.1188 32.1653 28.2319C32.0706 29.2876 31.6123 30.304 30.8892 31.0794C30.6442 31.3862 30.2272 31.5641 29.8399 31.4526C29.3468 31.3392 29.0207 30.7932 29.1444 30.3047C29.2114 29.9483 29.5331 29.7394 29.7226 29.4533C30.2878 28.6644 30.4103 27.5867 30.0416 26.6895C29.6671 25.7569 28.7867 25.0427 27.7896 24.8951C26.9266 24.752 26.0068 25.0279 25.3681 25.626C24.9936 25.9812 24.6482 26.373 24.2189 26.6657C23.0671 27.49 21.5447 27.7543 20.1783 27.3901C19.024 27.093 18.003 26.3434 17.3482 25.3508C15.9947 26.7005 14.6457 28.0553 13.2909 29.4049C12.5696 30.13 11.5249 30.5148 10.5059 30.4271C9.66281 30.3659 8.85521 29.9824 8.26096 29.3836C5.92775 27.0543 3.59777 24.7218 1.2665 22.3905C1.02867 22.1539 0.786328 21.918 0.592324 21.6435C0.299062 21.2348 0.101836 20.7618 0 20.2706V18.8991C0.143086 18.2159 0.480176 17.5739 0.977754 17.0815C5.75373 12.3029 10.5291 7.52437 15.3076 2.74904C15.4687 2.5821 15.6847 2.47447 15.9154 2.44804C18.0269 2.15413 20.1377 1.85636 22.2492 1.55988ZM27.7806 4.00072C27.3545 4.41386 26.9375 4.83667 26.5199 5.2582C27.216 5.95494 27.9166 6.64652 28.6056 7.3497C28.8808 7.63974 28.8711 8.06706 28.7912 8.43251C29.3416 7.88466 29.8914 7.33488 30.4393 6.78445C30.8144 6.40869 31.0245 5.87566 30.9987 5.34456C30.9794 4.75353 30.6661 4.18376 30.1802 3.84796C29.4725 3.33427 28.4161 3.39808 27.7806 4.00072ZM21.7961 3.57468C20.0191 3.83249 18.237 4.06453 16.462 4.33265C11.7511 9.03451 7.04795 13.746 2.34029 18.4518C1.72734 19.0331 1.71252 20.1018 2.31129 20.6979C4.75793 23.1491 7.20715 25.5983 9.65765 28.0456C10.2519 28.6611 11.3347 28.6553 11.9251 28.0372C16.636 23.3296 21.3437 18.6193 26.0539 13.911C26.3214 12.049 26.5869 10.1863 26.8518 8.32423C26.2833 7.75833 25.72 7.18792 25.149 6.6246C24.5547 7.22015 23.9598 7.81505 23.3649 8.40931C23.109 8.67163 22.701 8.77476 22.3549 8.64908C21.927 8.51437 21.6466 8.05031 21.7136 7.6088C21.7426 7.34712 21.8986 7.12025 22.0913 6.94816C22.6559 6.38419 23.2218 5.82152 23.7832 5.25433C23.216 4.68521 22.6417 4.12253 22.0816 3.54697C21.9856 3.55277 21.8902 3.55986 21.7961 3.57468Z" fill="#6F6F9D"/>
<path d="M13.4714 11.5024C15.064 11.0944 16.7275 10.9945 18.3634 11.1202C18.8422 11.1473 19.2457 11.5694 19.2599 12.047C19.3669 13.494 19.296 14.9584 18.9982 16.3796C18.7062 17.7466 18.1616 19.1169 17.1458 20.1108C16.3788 20.8642 15.3592 21.3309 14.3015 21.492C13.0524 21.6854 11.7717 21.5294 10.5632 21.1826C10.0218 21.7195 9.48622 22.2616 8.94546 22.7978C8.48269 23.3005 7.54361 23.0904 7.3496 22.4324C7.22521 22.0895 7.32253 21.6841 7.58099 21.4288C8.11853 20.89 8.65929 20.355 9.19489 19.8136C8.80302 18.4575 8.65542 17.0003 8.97511 15.6139C9.21101 14.6039 9.75048 13.6609 10.5336 12.9764C11.365 12.2404 12.4072 11.786 13.4714 11.5024ZM13.9058 13.3883C12.9364 13.6584 11.9342 14.0999 11.3444 14.9552C10.7025 15.8917 10.6496 17.0956 10.814 18.1849C11.8091 17.2194 12.7753 16.2229 13.7633 15.2497C14.0289 15.0067 14.4349 14.9326 14.7688 15.0699C15.2026 15.2291 15.4623 15.7325 15.3515 16.1791C15.3012 16.435 15.1233 16.6354 14.9383 16.8069C14.0186 17.7254 13.0995 18.6438 12.1817 19.5636C13.2303 19.7163 14.3756 19.6821 15.3018 19.1098C16.1507 18.5903 16.6263 17.6532 16.9138 16.7315C17.2812 15.5262 17.3914 14.2558 17.3734 13.0009C16.208 12.9919 15.0337 13.0847 13.9058 13.3883Z" fill="#FF5644"/>
</g>
<defs>
<clipPath id="clip0_907_201">
<rect width="33" height="33" fill="white"/>
</clipPath>
</defs>
</svg>
