<svg width="36" height="36" viewBox="0 0 36 36" fill="none" xmlns="http://www.w3.org/2000/svg">
<g clip-path="url(#clip0_907_165)">
<path d="M8.79188 4.91958C10.4365 4.33317 12.292 4.35919 13.917 4.99833C15.5123 5.61567 16.8708 6.81942 17.6829 8.32481C18.4078 9.65372 18.6947 11.2118 18.5091 12.7123C18.2981 14.4983 17.3904 16.1872 16.0249 17.3558C14.7938 18.4217 13.197 19.058 11.5685 19.1171C12.9642 19.1797 14.355 19.4574 15.641 20.0108C17.6955 20.8777 19.4773 22.3733 20.6888 24.245C21.8735 26.0548 22.5084 28.2162 22.5007 30.379C22.5028 30.7904 22.2616 31.194 21.8911 31.3754C21.5009 31.5835 20.9911 31.5272 20.6536 31.2418C20.378 31.0175 20.2324 30.6575 20.2493 30.3052C20.2423 28.0018 19.3008 25.7187 17.6773 24.084C16.4503 22.8176 14.838 21.9296 13.1119 21.5689C11.3808 21.1997 9.54 21.3579 7.89891 22.0224C6.24586 22.6805 4.80727 23.8512 3.80531 25.32C2.79352 26.7987 2.24789 28.5861 2.24859 30.3769C2.2718 31.0104 1.67063 31.5617 1.04273 31.4984C0.504844 31.471 0.0478125 31.0125 0 30.4789V29.9867C0.0590625 28.56 0.369141 27.1404 0.951328 25.834C1.90617 23.6551 3.5768 21.7995 5.64047 20.6168C7.23938 19.6873 9.07313 19.1888 10.9181 19.1199C9.13078 19.0447 7.38563 18.2846 6.11578 17.0246C4.90359 15.8356 4.12453 14.2135 3.97055 12.5211C3.79195 10.7429 4.29188 8.90349 5.36133 7.46981C6.21844 6.30544 7.42781 5.40192 8.79188 4.91958ZM10.518 6.80466C9.40008 6.96638 8.34469 7.51974 7.57336 8.3438C6.82664 9.12849 6.34289 10.1614 6.22195 11.2379C6.05602 12.5956 6.48914 14.0096 7.37016 15.053C8.13375 15.9699 9.22922 16.6062 10.4077 16.8017C11.5109 16.9965 12.6759 16.7968 13.6575 16.2589C14.6046 15.7463 15.3823 14.9229 15.8344 13.9456C16.2963 12.9711 16.4306 11.8433 16.2049 10.7879C15.956 9.56513 15.2297 8.45067 14.2193 7.72013C13.1667 6.95021 11.809 6.60427 10.518 6.80466Z" fill="#6F6F9D"/>
<path d="M24.1278 9.50682C25.4876 8.91339 27.0633 8.83745 28.4752 9.29026C29.7915 9.70581 30.9544 10.5812 31.7236 11.7259C32.5322 12.9149 32.9 14.3949 32.746 15.8251C32.5287 18.2755 30.6893 20.4875 28.3107 21.1267C30.1817 21.455 31.9374 22.3944 33.2698 23.7451C34.9271 25.389 35.9051 27.6735 36 30.0022V30.481C35.9529 31.0154 35.4924 31.4703 34.9545 31.4985C34.3568 31.5568 33.7761 31.059 33.7557 30.4571C33.7515 29.6289 33.6263 28.7999 33.3514 28.0173C32.6412 25.9578 30.9397 24.2732 28.8711 23.589C27.3453 23.0715 25.643 23.0933 24.1313 23.6516C23.7896 23.7873 23.3867 23.7409 23.0822 23.5363C22.7018 23.2839 22.5113 22.7818 22.6224 22.3389C22.7047 21.9676 22.9943 21.6554 23.3529 21.5345C23.8515 21.3573 24.3612 21.2061 24.8843 21.1253C22.6653 20.5445 20.9054 18.5799 20.5067 16.3285C20.2599 14.9891 20.4554 13.5674 21.084 12.3566C21.7294 11.0931 22.8242 10.0665 24.1278 9.50682ZM26.0473 11.2885C24.9209 11.4418 23.8796 12.114 23.2742 13.0759C22.7243 13.921 22.5268 14.9863 22.7356 15.9721C22.9198 16.9051 23.4675 17.7573 24.2262 18.3282C25.084 18.9821 26.2231 19.262 27.2841 19.0602C28.215 18.8992 29.0708 18.3782 29.6607 17.6434C30.3645 16.775 30.6732 15.5938 30.465 14.4941C30.2801 13.4394 29.6389 12.4782 28.7424 11.8953C27.957 11.3764 26.9797 11.1514 26.0473 11.2885Z" fill="#FF5644"/>
</g>
<defs>
<clipPath id="clip0_907_165">
<rect width="36" height="36" fill="white"/>
</clipPath>
</defs>
</svg>
