<svg width="33" height="33" viewBox="0 0 33 33" fill="none" xmlns="http://www.w3.org/2000/svg">
<path d="M14.0444 1.60559C15.269 0.99329 16.7256 0.870829 18.0404 1.2511C19.51 1.67005 20.7733 2.72708 21.4822 4.08059C22.6424 3.73899 23.9186 3.78411 25.0465 4.22239C26.3871 4.73157 27.5086 5.77571 28.1274 7.07122C28.7848 8.39251 28.9008 9.95872 28.5012 11.3767C29.526 11.9632 30.3703 12.8656 30.8731 13.929C31.4983 15.2181 31.6207 16.7327 31.234 18.112C30.8344 19.588 29.8354 20.89 28.5012 21.6376C28.817 22.7656 28.8106 23.9837 28.4625 25.1052C28.0565 26.42 27.1735 27.5931 25.994 28.315C24.6662 29.1529 22.984 29.3784 21.4822 28.9273C20.9215 29.9843 20.0321 30.8738 18.9557 31.4023C17.9438 31.9115 16.7772 32.0855 15.6621 31.9115C13.9026 31.6601 12.3363 30.4935 11.5178 28.9273C11.0215 29.0691 10.5059 29.1593 9.99025 29.14C8.84943 29.1851 7.70861 28.8113 6.77404 28.1667C5.6719 27.4126 4.85979 26.2525 4.49885 24.9698C4.18947 23.887 4.19592 22.7204 4.49885 21.6376C3.41604 21.0253 2.53947 20.0521 2.04963 18.9048C1.49533 17.6415 1.39865 16.1784 1.77893 14.8507C2.18498 13.3941 3.184 12.1115 4.49885 11.3702C4.09924 9.95227 4.21525 8.39251 4.87268 7.07122C5.39475 5.98196 6.27131 5.07317 7.33479 4.50599C8.60451 3.82278 10.1385 3.67454 11.5242 4.08059C12.0785 3.01712 12.968 2.12766 14.0444 1.60559ZM15.8942 3.14602C14.7147 3.35227 13.6963 4.20306 13.2258 5.29876C13.0904 5.5888 13.0518 5.93684 12.8069 6.16243C12.5426 6.43313 12.1301 6.51048 11.7756 6.40735C11.6209 6.35579 11.4791 6.272 11.3309 6.20755C10.5897 5.87884 9.73889 5.82727 8.959 6.05931C7.8633 6.37513 6.97385 7.25813 6.58068 8.32161C6.21975 9.27552 6.25197 10.3777 6.67736 11.3058C6.78049 11.5185 6.87717 11.7441 6.85139 11.9825C6.82561 12.4015 6.52268 12.7753 6.12307 12.8978C5.23361 13.1943 4.48596 13.8581 4.06057 14.6896C3.59006 15.5661 3.48693 16.6361 3.77053 17.59C4.06701 18.6277 4.82111 19.5365 5.80725 19.9747C6.05217 20.0907 6.34221 20.1359 6.53557 20.3421C6.87072 20.645 6.94807 21.1671 6.74182 21.5603C6.2133 22.6173 6.20041 23.9257 6.71604 24.9892C7.15432 25.9109 7.97932 26.6521 8.959 26.9357C9.80979 27.1935 10.7572 27.1032 11.5436 26.6843C11.9367 26.4523 12.4846 26.4974 12.8069 26.8325C12.9809 26.9872 13.0582 27.2128 13.1227 27.4255C13.4965 28.5277 14.4182 29.4364 15.5397 29.7652C16.384 30.0165 17.325 29.9263 18.1049 29.5073C18.9879 29.0562 19.6518 28.2247 19.9418 27.2773C20.0643 26.839 20.5026 26.5167 20.9602 26.5425C21.276 26.5361 21.5338 26.7423 21.8238 26.8454C22.8358 27.2515 24.0281 27.1226 24.9434 26.5361C25.7555 26.0204 26.342 25.1825 26.5676 24.248C26.7996 23.3392 26.6772 22.3531 26.2582 21.5152C26.0004 20.9931 26.284 20.297 26.8383 20.1165C27.7664 19.82 28.5463 19.1304 28.9846 18.2603C29.4293 17.3902 29.526 16.346 29.2553 15.405C28.9588 14.3673 28.2047 13.4585 27.2186 13.0138C26.9737 12.8978 26.6836 12.8527 26.4903 12.6464C26.1938 12.3757 26.0971 11.9245 26.2324 11.5507C26.3162 11.3445 26.4194 11.1447 26.4838 10.932C26.8125 9.96516 26.7416 8.86946 26.2905 7.95423C25.8457 7.03255 25.0078 6.29778 24.0153 6.02708C23.1774 5.78216 22.2492 5.88528 21.4758 6.29778C21.0955 6.51692 20.5799 6.4847 20.2512 6.18177C20.0901 6.04641 19.9934 5.85306 19.9289 5.65325C19.6453 4.77669 19.0395 3.99681 18.2338 3.53919C17.5248 3.15247 16.6869 3.00423 15.8942 3.14602Z" fill="#6F6F9D"/>
<path d="M12.4072 9.32026C13.142 9.20425 13.9154 9.35893 14.5471 9.75854C15.2238 10.1839 15.733 10.8865 15.907 11.6664C16.1455 12.6718 15.849 13.7933 15.1143 14.5281C14.4569 15.2306 13.4514 15.5722 12.4975 15.4433C11.8078 15.3595 11.1504 15.0373 10.667 14.5281C9.91935 13.7804 9.62287 12.6267 9.88712 11.6083C10.1707 10.4353 11.2084 9.49429 12.4072 9.32026ZM12.6522 11.3763C12.0979 11.4923 11.724 12.124 11.9045 12.6654C12.0463 13.1939 12.6522 13.5355 13.1807 13.3615C13.7092 13.2197 14.0508 12.6203 13.8832 12.0982C13.7543 11.5826 13.1742 11.2345 12.6522 11.3763Z" fill="#FF5644"/>
<path d="M21.8754 10.3521C22.3524 10.1974 22.9131 10.4552 23.1129 10.9193C23.2805 11.2867 23.2096 11.7507 22.9324 12.0408C19.4842 15.489 16.036 18.9373 12.5942 22.3855C12.1237 22.8947 11.1826 22.7271 10.9248 22.089C10.7508 21.7087 10.8282 21.2189 11.1311 20.9353C14.5664 17.4999 18.0082 14.0582 21.4436 10.6228C21.5596 10.4939 21.7143 10.3972 21.8754 10.3521Z" fill="#FF5644"/>
<path d="M20.6573 17.5644C21.4049 17.4484 22.2041 17.6096 22.8358 18.0285C23.4932 18.4603 23.983 19.1435 24.1571 19.9105C24.402 20.916 24.0991 22.0439 23.3643 22.7787C22.7004 23.4748 21.7014 23.8164 20.7475 23.6875C20.0579 23.6037 19.4004 23.2814 18.9235 22.7787C18.1758 22.031 17.8793 20.8773 18.1436 19.8525C18.4272 18.6859 19.4584 17.7385 20.6573 17.5644ZM20.9022 19.6269C20.3608 19.743 19.987 20.3424 20.1416 20.8773C20.2641 21.4252 20.8957 21.7926 21.4307 21.6121C21.9528 21.4703 22.2944 20.8644 22.1268 20.3488C21.9979 19.8332 21.4178 19.4851 20.9022 19.6269Z" fill="#FF5644"/>
</svg>
