<svg width="112" height="102" viewBox="0 0 112 102" fill="none" xmlns="http://www.w3.org/2000/svg">
<g clip-path="url(#clip0_907_396)">
<path d="M111.687 65.5429C113.276 57.7274 108.216 50.1066 100.387 48.5211C92.5572 46.9357 84.9226 51.9861 83.3343 59.8016C81.746 67.617 86.8056 75.2379 94.6351 76.8233C102.465 78.4087 110.099 73.3583 111.687 65.5429Z" fill="#EBEBEB"/>
<path opacity="0.5" d="M100.302 76.8406C92.4783 78.3509 84.8763 73.2675 83.3264 65.4213C81.8134 57.612 86.906 50.0237 94.7663 48.4766C97.7923 47.8872 100.745 48.2924 103.365 49.4343C101.187 48.5871 98.7887 48.3292 96.3162 48.7713C89.4892 50.0974 85.0608 56.6911 86.3893 63.5058C87.7179 70.3206 94.3235 74.7409 101.15 73.4148C107.977 72.0887 112.406 65.495 111.077 58.6803C110.708 56.8385 109.97 55.1808 108.937 53.7442C110.302 55.4755 111.262 57.5383 111.705 59.859C113.255 67.742 108.125 75.3303 100.302 76.8406Z" fill="#DBDBDB"/>
<path d="M88.3452 62.3641C88.1238 61.8484 88.1607 61.1853 88.419 60.6328C88.5297 60.3381 88.7511 60.0802 89.0095 59.896C89.2678 59.675 89.563 59.5645 89.8951 59.4908C90.2273 59.4172 90.5594 59.454 90.8546 59.5277C91.1498 59.6382 91.445 59.7855 91.6665 60.0065C92.1093 60.4117 92.3676 61.0011 92.3676 61.5905C92.1093 61.0748 91.7772 60.6696 91.3343 60.4118C90.9284 60.1171 90.4487 60.0434 90.0058 60.1171C89.563 60.1907 89.1571 60.4854 88.8619 60.8906C88.6035 61.2958 88.419 61.8115 88.3452 62.3641Z" fill="#C7C7C7"/>
<path d="M105.763 58.1648C105.985 59.2699 105.247 60.3381 104.14 60.5592C103.033 60.7802 101.962 60.0435 101.741 58.9384C101.52 57.8333 102.258 56.765 103.365 56.544C104.472 56.3598 105.542 57.0597 105.763 58.1648Z" fill="#C7C7C7"/>
<path d="M93.8806 61.001C93.8806 61.001 94.6925 62.3271 96.9067 62.3271C96.9067 62.3271 96.2055 66.4159 93.6961 65.2003C91.1498 63.9847 93.8806 61.001 93.8806 61.001Z" fill="#DBDBDB"/>
<path d="M93.1794 59.7119C93.5854 60.5223 94.1758 61.2221 94.877 61.6273C95.615 62.0325 96.4638 62.1062 97.3126 61.9589C98.1613 61.8115 98.8994 61.4432 99.4529 60.7801C99.9696 60.1171 100.302 59.2698 100.449 58.3857C100.597 59.2698 100.412 60.2644 99.8589 61.0748C99.6005 61.48 99.2315 61.8115 98.7887 62.0694C98.3458 62.3272 97.903 62.4746 97.4233 62.5851C96.9435 62.6588 96.4638 62.6956 95.9841 62.5851C95.5043 62.5114 95.0246 62.3272 94.6187 62.0325C93.8437 61.48 93.364 60.5959 93.1794 59.7119Z" fill="#C7C7C7"/>
<path d="M94.2865 64.169C94.3234 63.7638 94.471 63.3954 94.6555 63.0639C94.84 62.7324 95.0246 62.364 95.2829 62.0693C95.246 62.4745 95.0984 62.8429 94.9139 63.1744C94.7293 63.5428 94.5448 63.8743 94.2865 64.169Z" fill="#C7C7C7"/>
<path d="M75.245 32.3749C80.3953 30.0176 82.656 23.939 80.2944 18.798C77.9329 13.657 71.8434 11.4003 66.6931 13.7576C61.5428 16.1149 59.2821 22.1935 61.6436 27.3345C64.0052 32.4755 70.0947 34.7322 75.245 32.3749Z" fill="#EBEBEB"/>
<path opacity="0.5" d="M68.5285 33.0055C63.03 31.6425 59.6718 26.1171 61.0003 20.6285C62.3657 15.1398 67.9012 11.7877 73.3997 13.1138C75.5031 13.6295 77.3114 14.7715 78.6399 16.2818C77.4959 15.103 76.0198 14.1821 74.3223 13.7769C69.5249 12.5981 64.7275 15.545 63.5466 20.2969C62.3657 25.0857 65.318 29.8744 70.0784 31.0532C74.8758 32.2319 79.6732 29.285 80.8541 24.5331C81.1862 23.2438 81.1862 21.9546 80.9648 20.739C81.3338 22.2493 81.3338 23.8701 80.9279 25.4909C79.5994 30.9795 74.027 34.3316 68.5285 33.0055Z" fill="#DBDBDB"/>
<path d="M73.6948 21.1813C73.5841 21.697 73.2889 22.1022 72.9199 22.3969C72.4033 22.7653 71.739 22.9495 71.0748 22.7653C70.4105 22.6179 69.8939 22.1391 69.6355 21.5865C69.451 21.1445 69.3772 20.6656 69.4879 20.1499L73.6948 21.1813Z" fill="#C7C7C7"/>
<path d="M72.883 22.3967C72.3663 22.7651 71.7021 22.9493 71.0378 22.7651C70.3736 22.6178 69.857 22.1389 69.5986 21.5863C70.1153 21.3285 70.7426 21.218 71.4069 21.3653C72.0342 21.5127 72.5509 21.9179 72.883 22.3967Z" fill="#DBDBDB"/>
<path d="M64.8751 19.5973C65.2072 20.7761 66.3881 21.6233 66.3881 21.6233C66.3881 21.6233 67.7535 21.2181 68.4915 20.2235C69.082 19.4131 68.9713 18.3817 68.307 18.0502C67.3476 17.5713 66.794 19.2658 66.794 19.2658C66.794 19.2658 66.8309 17.4608 65.7607 17.6082C65.0227 17.7187 64.5798 18.6396 64.8751 19.5973Z" fill="#DBDBDB"/>
<path d="M77.9756 22.8019C77.1268 23.686 75.6876 23.907 75.6876 23.907C75.6876 23.907 74.6543 22.9124 74.4698 21.6968C74.3222 20.7022 74.8758 19.855 75.6507 19.855C76.7209 19.855 76.4257 21.66 76.4257 21.66C76.4257 21.66 77.2006 20.0392 78.0863 20.6654C78.7136 21.0337 78.7136 22.0652 77.9756 22.8019Z" fill="#DBDBDB"/>
<path d="M21.3118 99.0246C32.1806 98.1591 40.2888 88.6625 39.4218 77.8132C38.5548 66.9638 29.041 58.8703 18.1721 59.7357C7.30327 60.6012 -0.804858 70.0978 0.0621294 80.9471C0.929117 91.7965 10.4429 99.89 21.3118 99.0246Z" fill="#FFCD4D"/>
<path opacity="0.1" d="M13.1006 97.9482C2.84158 94.2645 -2.50933 82.9926 1.18095 72.7521C4.87123 62.5115 16.1635 57.1703 26.4225 60.8539C30.3711 62.2537 33.5816 64.7954 35.8327 67.9633C33.9137 65.4585 31.2567 63.4693 28.0462 62.2905C19.1157 59.0858 9.29957 63.7271 6.08902 72.6416C2.87848 81.556 7.52823 91.3545 16.4587 94.5592C25.3892 97.764 35.2053 93.1226 38.4159 84.2082C39.2646 81.8138 39.5599 79.3458 39.3753 76.9514C39.7444 79.9352 39.4492 83.0294 38.379 86.05C34.6518 96.2905 23.3595 101.632 13.1006 97.9482Z" fill="black"/>
<path d="M9.59473 71.6101C9.74234 70.8365 10.2221 70.1366 10.9232 69.6946C11.2554 69.4736 11.6613 69.2894 12.1041 69.2525C12.547 69.1789 12.9898 69.2525 13.3957 69.3999C13.8016 69.5472 14.1707 69.8051 14.4659 70.0998C14.7611 70.4313 14.9825 70.7997 15.0932 71.2049C15.3147 71.9784 15.2778 72.8625 14.8718 73.5256C14.9825 72.752 14.8349 72.0153 14.5397 71.389C14.2445 70.7628 13.7647 70.284 13.1374 70.0629C12.51 69.8419 11.8458 69.8788 11.2184 70.2103C10.5542 70.4681 10.0007 70.947 9.59473 71.6101Z" fill="#263238"/>
<path d="M27.3081 77.946C27.4557 77.1724 27.9355 76.4725 28.6366 76.0305C28.9687 75.8095 29.3747 75.6253 29.8175 75.5885C30.2603 75.5148 30.7032 75.5885 31.1091 75.7358C31.515 75.8832 31.8841 76.141 32.1793 76.4357C32.4745 76.7672 32.6959 77.1356 32.8066 77.5408C33.028 78.3144 32.9911 79.1984 32.5852 79.8615C32.6959 79.0879 32.5483 78.3512 32.2531 77.725C31.9579 77.0988 31.4781 76.6199 30.8508 76.3989C30.2234 76.1779 29.5592 76.2147 28.9318 76.5462C28.3045 76.8409 27.7509 77.3198 27.3081 77.946Z" fill="#263238"/>
<path d="M17.4182 73.5254C17.3444 74.5568 17.5289 75.5882 18.0086 76.3986C18.4884 77.209 19.3002 77.7984 20.1859 78.0931C21.0716 78.4246 22.068 78.4983 22.9536 78.1299C23.8393 77.7984 24.6511 77.1354 25.2785 76.325C24.9095 77.2827 24.1714 78.1668 23.175 78.6456C22.6953 78.9035 22.1049 79.014 21.5513 79.0509C20.9978 79.0509 20.4442 78.9403 19.9276 78.7562C19.411 78.572 18.9312 78.3141 18.4884 77.9458C18.0824 77.5774 17.7134 77.1354 17.492 76.6196C17.0492 75.6251 17.0492 74.4831 17.4182 73.5254Z" fill="#263238"/>
<path d="M83.2795 87.6478C84.4321 78.6478 78.0574 70.4191 69.0411 69.2686C60.0249 68.1181 51.7814 74.4814 50.6288 83.4814C49.4762 92.4814 55.851 100.71 64.8672 101.861C73.8834 103.011 82.1269 96.6478 83.2795 87.6478Z" fill="#FFCD4D"/>
<path opacity="0.1" d="M70.8533 101.521C62.0335 103.695 53.1031 98.2797 50.9258 89.4758C48.7485 80.6719 54.1732 71.7575 62.993 69.5841C66.3881 68.7369 69.7831 69.0316 72.8092 70.2104C70.2998 69.3631 67.5321 69.1789 64.7643 69.8788C57.0886 71.7575 52.4019 79.4931 54.2839 87.1551C56.166 94.8171 63.9156 99.4953 71.5914 97.6167C79.2671 95.738 83.9907 88.0024 82.0718 80.3404C81.5551 78.2775 80.6325 76.4357 79.3779 74.8518C81.0016 76.7304 82.2194 79.0511 82.8836 81.6297C85.0978 90.4704 79.71 99.348 70.8533 101.521Z" fill="black"/>
<path d="M69.3772 80.8931C69.5618 81.7035 69.4879 82.5139 69.1558 83.2138C68.713 84.1347 67.9011 84.8714 66.8309 85.1293C65.7608 85.3871 64.6906 85.1292 63.8787 84.503C63.2514 84.0242 62.8085 83.3611 62.624 82.5507L69.3772 80.8931Z" fill="#263238"/>
<path d="M69.1558 83.1769C68.7129 84.0978 67.9011 84.8345 66.8309 85.0924C65.7607 85.3502 64.6905 85.0924 63.8787 84.4661C64.4322 83.6926 65.2441 83.1032 66.2773 82.8453C67.3106 82.6243 68.3439 82.7717 69.1558 83.1769Z" fill="#FF5644"/>
<path d="M55.6863 85.1657C57.0517 86.5655 59.3397 86.9339 59.3397 86.9339C59.3397 86.9339 61.0003 85.3131 61.2955 83.3607C61.5538 81.7399 60.6313 80.377 59.4135 80.4138C57.679 80.4507 58.1588 83.2871 58.1588 83.2871C58.1588 83.2871 56.9041 80.7085 55.4649 81.6663C54.5054 82.3661 54.5423 83.9869 55.6863 85.1657Z" fill="#FF5644"/>
<path d="M76.7578 80.0089C76.2043 81.8876 74.3222 83.2874 74.3222 83.2874C74.3222 83.2874 72.1081 82.6243 70.9272 81.0404C69.9677 79.7142 70.1522 78.0934 71.2224 77.5409C72.7723 76.7673 73.658 79.5301 73.658 79.5301C73.658 79.5301 73.5842 76.6568 75.2817 76.841C76.4995 76.9515 77.2007 78.425 76.7578 80.0089Z" fill="#FF5644"/>
<path d="M65.3521 13.5156C67.3527 8.42005 64.8362 2.67047 59.7315 0.67352C54.6268 -1.32343 48.8669 1.18847 46.8663 6.28399C44.8658 11.3795 47.3822 17.1291 52.4869 19.126C57.5916 21.123 63.3516 18.6111 65.3521 13.5156Z" fill="#FFCD4D"/>
<path opacity="0.1" d="M58.5648 19.4865C53.2508 20.8495 47.863 17.6447 46.4976 12.3771C45.1322 7.07266 48.3427 1.69454 53.6198 0.331597C55.6495 -0.184113 57.716 -0.0367674 59.5243 0.626288C58.0112 0.110578 56.3506 0.0369054 54.69 0.478942C50.0771 1.65771 47.3094 6.33593 48.4903 10.9405C49.6712 15.545 54.3579 18.3078 58.9707 17.129C63.5836 15.9502 66.3513 11.272 65.1704 6.66746C64.8383 5.41502 64.2847 4.30993 63.5098 3.38902C64.5061 4.53095 65.2442 5.89389 65.6501 7.44102C67.0524 12.7086 63.8788 18.1236 58.5648 19.4865Z" fill="black"/>
<path d="M57.5315 7.07275C57.6422 7.55163 57.6053 8.0305 57.4208 8.47254C57.1625 9.02508 56.6827 9.46712 56.0185 9.6513C55.3911 9.79865 54.7269 9.6513 54.2471 9.28294C53.8781 8.98825 53.5829 8.61988 53.4722 8.14101L57.5315 7.07275Z" fill="#263238"/>
<path d="M57.4207 8.47242C57.1624 9.02497 56.6827 9.467 56.0184 9.65118C55.3911 9.79853 54.7268 9.65118 54.2471 9.28282C54.5792 8.80395 55.0589 8.43558 55.6863 8.28824C56.2767 8.10406 56.9041 8.21456 57.4207 8.47242Z" fill="#FF5644"/>
<path d="M48.9331 5.74658L50.5568 6.70433L52.4389 6.48331L52.033 8.32513L52.8079 10.0564L50.9259 10.2406L49.5236 11.4931L48.7855 9.76175L47.1249 8.84084L48.5641 7.5884L48.9331 5.74658Z" fill="#FFCD4D"/>
<path opacity="0.5" d="M48.9331 5.74658L50.5568 6.70433L52.4389 6.48331L52.033 8.32513L52.8079 10.0564L50.9259 10.2406L49.5236 11.4931L48.7855 9.76175L47.1249 8.84084L48.5641 7.5884L48.9331 5.74658Z" fill="white"/>
<path d="M60.4469 2.91016L59.4874 4.53096L57.7161 5.19401L58.9339 6.63063L59.0446 8.54613L60.779 7.8094L62.5872 8.28827L62.4396 6.40961L63.4729 4.82565L61.6647 4.38361L60.4469 2.91016Z" fill="#FFCD4D"/>
<path opacity="0.5" d="M60.4469 2.91016L59.4874 4.53096L57.7161 5.19401L58.9339 6.63063L59.0446 8.54613L60.779 7.8094L62.5872 8.28827L62.4396 6.40961L63.4729 4.82565L61.6647 4.38361L60.4469 2.91016Z" fill="white"/>
<path d="M73.477 57.8152C79.1118 52.1906 79.1118 43.0712 73.477 37.4465C67.8422 31.8218 58.7063 31.8218 53.0715 37.4465C47.4367 43.0712 47.4367 52.1906 53.0715 57.8152C58.7063 63.4399 67.8422 63.4399 73.477 57.8152Z" fill="#FFCD4D"/>
<path opacity="0.1" d="M64.6537 61.9586C56.7196 62.6953 49.7081 56.912 48.9331 48.9922C48.1951 41.0724 53.9888 34.0366 61.9229 33.2999C64.9858 33.0052 67.8642 33.7051 70.3736 35.1049C68.3071 34.0366 65.9453 33.5577 63.4728 33.7787C56.572 34.4418 51.5163 40.5198 52.1806 47.4082C52.8448 54.2966 58.9338 59.3432 65.8346 58.6802C72.7354 58.0171 77.7911 51.9391 77.1269 45.0507C76.9423 43.2089 76.3888 41.4776 75.5031 39.9673C76.684 41.8091 77.4221 43.9456 77.6435 46.3031C78.3815 54.1861 72.5878 61.2219 64.6537 61.9586Z" fill="black"/>
<path d="M58.1957 45.2719C58.3065 46.377 57.4946 47.3716 56.3506 47.4821C55.2435 47.5926 54.2471 46.7822 54.1364 45.6403C54.0257 44.5352 54.8376 43.5406 55.9816 43.4301C57.0887 43.3196 58.085 44.1668 58.1957 45.2719Z" fill="#263238"/>
<path d="M71.84 44.6729C72.1149 43.5881 71.4567 42.4863 70.37 42.2119C69.2832 41.9376 68.1794 42.5945 67.9045 43.6793C67.6297 44.7641 68.2879 45.866 69.3746 46.1403C70.4614 46.4147 71.5652 45.7577 71.84 44.6729Z" fill="#263238"/>
<path d="M66.0191 47.0767C66.2037 49.029 65.0966 50.7235 63.5836 50.8709C62.0706 51.0182 60.6682 49.5447 60.4837 47.5924C60.2992 45.6401 61.4063 43.9088 62.9193 43.7983C64.4323 43.6141 65.8346 45.0875 66.0191 47.0767Z" fill="#263238"/>
<path d="M53.2876 42.8408C53.2876 42.8408 54.5792 40.5938 57.5683 41.6621L53.2876 42.8408Z" fill="#263238"/>
<path d="M72.1819 41.036C72.1819 41.036 70.4843 39.0468 67.7535 40.6676L72.1819 41.036Z" fill="#263238"/>
<path d="M107.64 23.4777C108.586 14.6784 102.207 6.77973 93.3916 5.83547C84.5765 4.8912 76.6636 11.2589 75.7176 20.0582C74.7716 28.8575 81.1508 36.7562 89.966 37.7005C98.7811 38.6447 106.694 32.277 107.64 23.4777Z" fill="#FFCD4D"/>
<path opacity="0.1" d="M90.1905 37.7207C81.3707 36.9103 74.8758 29.101 75.6877 20.2971C76.4995 11.4932 84.3229 5.00996 93.1427 5.82036C96.5378 6.15189 99.5638 7.478 101.999 9.504C99.9697 7.92004 97.4603 6.88862 94.6926 6.63077C87.0168 5.93087 80.2267 11.5668 79.4887 19.2288C78.7875 26.8908 84.4336 33.6687 92.1094 34.4054C99.7852 35.1053 106.575 29.4693 107.313 21.8074C107.498 19.7445 107.24 17.7554 106.575 15.9135C107.461 18.1974 107.867 20.7023 107.609 23.2808C106.834 32.0479 99.0102 38.5311 90.1905 37.7207Z" fill="black"/>
<path d="M81.998 18.5655C81.9242 17.9392 82.1825 17.2762 82.6253 16.7605C82.8467 16.5026 83.142 16.2816 83.4741 16.1343C83.8062 15.9869 84.1753 15.9501 84.5443 15.9869C84.9133 16.0238 85.2454 16.1343 85.5407 16.3553C85.8359 16.5763 86.0942 16.8342 86.2418 17.1288C86.5739 17.7182 86.6846 18.4181 86.5001 19.0075C86.3894 18.3813 86.1311 17.8656 85.799 17.4235C85.4299 16.9815 84.9871 16.7605 84.4705 16.6868C83.9538 16.65 83.4372 16.7973 83.0313 17.1288C82.5884 17.4972 82.2194 18.0129 81.998 18.5655Z" fill="#263238"/>
<path d="M101.852 19.5233C101.741 20.7757 100.634 21.6598 99.3792 21.5493C98.1245 21.4387 97.2388 20.3337 97.3495 19.0812C97.4603 17.8288 98.5673 16.9447 99.822 17.0552C101.04 17.1657 101.962 18.2708 101.852 19.5233Z" fill="#263238"/>
<path d="M88.3084 18.8599C88.3084 18.8599 88.7513 20.5175 91.0761 21.2174C91.0761 21.2174 89.0465 25.3431 86.7585 23.2802C84.4705 21.1806 88.3084 18.8599 88.3084 18.8599Z" fill="#FF5644"/>
<path d="M87.9763 17.2393C88.1608 18.2338 88.5668 19.1548 89.1941 19.8178C89.8584 20.4809 90.744 20.8492 91.6666 20.9229C92.5892 21.0334 93.5487 20.8492 94.2867 20.3335C95.0617 19.8178 95.6521 19.0074 96.0949 18.0865C95.9473 19.0811 95.4676 20.0757 94.6188 20.7756C94.2129 21.1439 93.6963 21.3649 93.1796 21.5123C92.663 21.6596 92.1094 21.6596 91.5559 21.6228C91.0393 21.5491 90.4857 21.4386 90.006 21.1808C89.5262 20.9229 89.0834 20.5914 88.7513 20.1493C88.1239 19.3389 87.8656 18.2707 87.9763 17.2393Z" fill="#263238"/>
<path d="M87.718 22.3593C87.9025 21.9541 88.1609 21.5858 88.4561 21.2911C88.7513 20.9596 89.0465 20.6649 89.4524 20.4438C89.2679 20.849 89.0096 21.2174 88.7144 21.5121C88.4561 21.8068 88.1239 22.1015 87.718 22.3593Z" fill="#263238"/>
<path d="M30.8094 52.1748C39.176 49.2482 43.5816 40.1055 40.6497 31.754C37.7179 23.4025 28.5587 19.0048 20.1922 21.9314C11.8256 24.858 7.41997 34.0007 10.3518 42.3522C13.2837 50.7036 22.4429 55.1014 30.8094 52.1748Z" fill="#FFCD4D"/>
<path opacity="0.1" d="M25.4999 53.0809C16.6432 53.0809 9.44714 45.8978 9.44714 37.057C9.44714 28.2163 16.6432 21.0332 25.4999 21.0332C28.8949 21.0332 32.0686 22.1015 34.6518 23.9064C32.4745 22.5067 29.8913 21.6963 27.1236 21.6963C19.4109 21.6963 13.1743 27.9216 13.1743 35.6204C13.1743 43.3192 19.4109 49.5446 27.1236 49.5446C34.8363 49.5446 41.0728 43.3192 41.0728 35.6204C41.0728 33.5576 40.63 31.5684 39.8182 29.8003C40.9252 31.9736 41.5526 34.4417 41.5526 37.0202C41.5526 45.8978 34.3565 53.0809 25.4999 53.0809Z" fill="black"/>
<path d="M20.0751 33.8891C20.0751 35.1415 19.0788 36.1361 17.8241 36.1361C16.5694 36.1361 15.573 35.1415 15.573 33.8891C15.573 32.6367 16.5694 31.6421 17.8241 31.6421C19.0788 31.6052 20.0751 32.6367 20.0751 33.8891Z" fill="#263238"/>
<path d="M35.4267 33.8891C35.4267 35.1415 34.4303 36.1361 33.1756 36.1361C31.9209 36.1361 30.9246 35.1415 30.9246 33.8891C30.9246 32.6367 31.9209 31.6421 33.1756 31.6421C34.3934 31.6052 35.4267 32.6367 35.4267 33.8891Z" fill="#263238"/>
<path d="M28.895 33.1895C28.895 33.9999 28.5998 34.7366 28.1569 35.326C27.5296 36.0995 26.5701 36.5784 25.4999 36.5784C24.4297 36.5784 23.4703 36.0995 22.8429 35.326C22.3632 34.7366 22.1049 33.9999 22.1049 33.1895H28.895Z" fill="#263238"/>
<path d="M28.1569 35.3261C27.5296 36.0997 26.5701 36.5786 25.4999 36.5786C24.4297 36.5786 23.4702 36.0997 22.8429 35.3261C23.544 34.6999 24.4666 34.3315 25.4999 34.3315C26.5332 34.3315 27.4557 34.7367 28.1569 35.3261Z" fill="#FF5644"/>
</g>
<defs>
<clipPath id="clip0_907_396">
<rect width="112" height="102" fill="white"/>
</clipPath>
</defs>
</svg>
