<svg width="166" height="94" viewBox="0 0 166 94" fill="none" xmlns="http://www.w3.org/2000/svg">
<g clip-path="url(#clip0_907_820)">
<path d="M33.829 79.7236C41.9114 74.1149 43.74 63.6623 43.4475 54.266C43.4109 52.6999 43.5572 51.061 42.8257 49.6771C42.0943 48.2931 40.3388 47.3462 38.9125 48.0382C37.7422 48.5845 37.2302 49.932 36.5719 51.061C35.6942 52.5542 34.4142 53.7925 32.8782 54.5573C31.8907 55.0672 30.6473 55.395 29.6598 54.8487C28.3067 54.1203 28.1604 52.2265 28.1604 50.6604C28.197 47.7468 28.197 44.8332 28.197 41.956C28.197 40.39 28.197 38.8239 27.7215 37.3307C27.2461 35.8375 26.1489 34.4899 24.6861 34.0529C23.1866 33.6523 21.358 34.4899 21.0289 36.0196C20.8826 36.6387 21.0289 37.3307 20.9923 37.9498C20.9557 38.6054 20.6631 39.2974 20.0414 39.4795C19.4197 39.6616 18.798 39.2245 18.3225 38.7511C16.7134 37.185 15.6162 35.1455 14.5922 33.1424C13.5682 31.1393 12.5807 29.0634 11.1179 27.3516C9.65499 25.6399 7.60696 24.2923 5.37607 24.1467C3.10861 24.0374 0.694867 25.4214 0.146288 27.6066C-0.438863 29.7918 0.877726 32.0498 2.26746 33.798C4.35206 36.4202 6.80238 38.7875 9.54527 40.7178C10.0207 41.082 10.5693 41.4461 10.7521 42.0289C11.0813 43.085 10.0939 44.1048 9.06984 44.4326C7.89954 44.8332 6.61952 44.6875 5.41265 44.8332C4.20577 44.9789 2.85261 45.5252 2.41375 46.6542C1.75545 48.2567 3.10861 49.932 4.4252 51.0246C7.05838 53.2098 10.0573 54.958 13.2756 56.1234C14.4093 56.5604 15.6528 56.9246 16.5671 57.7259C17.4814 58.5271 18.0665 59.9475 17.4814 61.0401C16.9328 62.1327 15.4699 62.4969 14.2631 62.2784C13.0562 62.0599 11.9956 61.4043 10.8253 60.9673C8.66755 60.166 5.88808 60.3117 4.53492 62.1691C3.62062 63.371 3.54748 65.0827 4.02291 66.5395C4.49835 67.9963 5.41265 69.2346 6.40009 70.4C9.83785 74.4427 14.2631 77.684 19.2368 79.3958C24.2472 81.0711 28.8553 81.5081 33.829 79.7236Z" fill="#EDEDF3"/>
<path d="M33.9388 86.6796C33.6096 82.9648 32.7685 78.558 31.3787 73.8234C29.989 69.0888 28.0507 64.0264 25.8198 58.7819C25.2712 57.4708 24.6861 56.1961 24.1741 54.9214C23.6255 53.6467 23.0769 52.4084 22.4552 51.2066C21.2483 48.8029 19.8952 46.5812 18.5786 44.5417C17.2254 42.4658 15.8722 40.5719 14.6288 38.7874C13.3488 37.0028 12.1419 35.3639 10.935 33.9435C8.59443 31.0663 6.43668 28.954 4.86409 27.57C4.09608 26.878 3.47436 26.3681 3.03549 26.0039C2.81606 25.8218 2.66977 25.7126 2.56006 25.6033C2.45034 25.5305 2.3772 25.4576 2.3772 25.4941C2.3772 25.4941 2.41377 25.5305 2.52349 25.6397C2.6332 25.749 2.77949 25.8947 2.99892 26.0404C3.40121 26.4046 4.02293 26.9509 4.79094 27.6428C6.32697 29.0632 8.44814 31.1756 10.7522 34.0528C11.9225 35.5096 13.1293 37.1485 14.4094 38.8966C15.6894 40.6812 17.006 42.575 18.3591 44.651C19.6757 46.7269 21.0289 48.9121 22.2358 51.3158C22.8209 52.5177 23.3695 53.756 23.9181 55.0307C24.4666 56.3054 25.0152 57.5801 25.5638 58.8912C27.7947 64.0993 29.733 69.1616 31.1227 73.8962C32.5125 78.5944 33.3536 82.9648 33.7193 86.6796" fill="#C2C2CD"/>
<path d="M22.382 51.2068C22.4186 51.2068 22.4552 50.9882 22.5283 50.5512C22.6015 50.1142 22.7112 49.495 22.8209 48.7302C23.0403 47.1641 23.2598 45.0154 23.5158 42.6481C23.7718 40.2808 24.0278 38.132 24.2838 36.6023C24.3935 35.8375 24.5032 35.2184 24.5763 34.7813C24.6495 34.3443 24.6861 34.1258 24.6495 34.0894C24.6129 34.0894 24.5763 34.3079 24.4666 34.7449C24.3569 35.182 24.2106 35.8011 24.0643 36.5659C23.7718 38.0956 23.4792 40.2443 23.2232 42.6481C22.9672 44.9789 22.7843 47.1277 22.6015 48.7302C22.5283 49.4586 22.4552 50.0777 22.4186 50.5876C22.382 50.9518 22.3455 51.2068 22.382 51.2068Z" fill="#C2C2CD"/>
<path d="M2.26746 47.4556C2.26746 47.492 2.56003 47.492 3.07204 47.5648C3.58405 47.6012 4.35206 47.6741 5.26635 47.7833C7.09495 47.9654 9.65499 48.3296 12.4345 48.8759C15.2139 49.3858 17.7008 49.9685 19.4928 50.442C20.4071 50.6605 21.102 50.879 21.614 51.0247C22.126 51.1704 22.382 51.2432 22.382 51.2068C22.382 51.1704 22.126 51.0976 21.614 50.9155C21.1386 50.7334 20.4071 50.5148 19.5294 50.2599C17.7374 49.75 15.2505 49.1309 12.471 48.5846C9.69156 48.0747 7.13152 47.7469 5.26635 47.6012C4.35206 47.5284 3.58405 47.492 3.07204 47.492C2.52346 47.4191 2.26746 47.4191 2.26746 47.4556Z" fill="#C2C2CD"/>
<path d="M31.1227 73.4594C31.1227 73.4594 31.1959 73.3866 31.269 73.2045C31.3787 73.0224 31.4885 72.7674 31.5982 72.4761C31.8908 71.8569 32.293 70.91 32.7685 69.781C33.7559 67.4865 34.9628 64.2816 36.316 60.7124C37.6325 57.1433 38.8394 53.9383 39.7537 51.6074C40.1926 50.4784 40.5949 49.5679 40.8509 48.8759C40.9606 48.5846 41.0703 48.3296 41.1435 48.1475C41.2166 47.9654 41.2532 47.8926 41.2166 47.8926C41.2166 47.8926 41.1435 47.9654 41.0703 48.1475C40.9606 48.3296 40.8509 48.5846 40.7412 48.8759C40.4486 49.4951 40.0463 50.442 39.5709 51.571C38.5834 53.8655 37.3765 57.0704 36.0234 60.6396C34.7068 64.2087 33.4999 67.4137 32.5856 69.7446C32.1468 70.8736 31.7445 71.7841 31.4885 72.4761C31.3787 72.7674 31.269 73.0224 31.1959 73.2045C31.1593 73.3866 31.1227 73.4594 31.1227 73.4594Z" fill="#C2C2CD"/>
<path d="M4.38861 64.9008C4.38861 64.9008 4.46175 64.9372 4.64461 65.0101C4.86405 65.0829 5.12005 65.1558 5.41262 65.265C6.14406 65.4835 7.09493 65.8113 8.26524 66.1755C10.679 66.9403 14.007 68.0694 17.7008 69.3076C21.358 70.5459 24.7226 71.6385 27.1364 72.3669C28.3432 72.7311 29.3307 73.0225 30.0255 73.2046C30.3547 73.2774 30.6107 73.3503 30.8301 73.4231C31.013 73.4595 31.1227 73.4959 31.1227 73.4595C31.1227 73.4595 31.0495 73.4231 30.8667 73.3503C30.6473 73.2774 30.3913 73.2046 30.0987 73.0953C29.3672 72.8768 28.4164 72.549 27.2461 72.1848C24.8323 71.42 21.5043 70.291 17.8105 69.0527C14.1533 67.8144 10.7887 66.7218 8.37495 65.9934C7.16808 65.6292 6.18064 65.3379 5.48577 65.1558C5.15662 65.0829 4.90062 65.0101 4.68119 64.9372C4.49833 64.9008 4.38861 64.8644 4.38861 64.9008Z" fill="#C2C2CD"/>
<path d="M166 4.1883V89.7753C166 92.1062 164.098 93.9636 161.794 93.9636H34.7433C32.4027 93.9636 30.5376 92.0697 30.5376 89.7753V4.1883C30.501 1.89384 32.4027 0 34.7433 0H161.758C164.098 0 166 1.89384 166 4.1883Z" fill="#263238"/>
<path d="M39.7911 2.9892L39.7911 91.0527H152.908V2.9892H39.7911Z" fill="white"/>
<path d="M162.717 47.8401C163.174 45.9015 161.967 43.9607 160.021 43.5051C158.074 43.0495 156.125 44.2516 155.668 46.1902C155.21 48.1287 156.417 50.0695 158.364 50.5252C160.31 50.9808 162.259 49.7786 162.717 47.8401Z" fill="#455A64"/>
<path d="M35.9136 33.2876V60.7119C35.9136 60.9668 35.7308 61.1489 35.4748 61.1489H34.853C34.597 61.1489 34.4142 60.9668 34.4142 60.7119V33.2876C34.4142 33.0327 34.597 32.8506 34.853 32.8506H35.4748C35.7308 32.8506 35.9136 33.0327 35.9136 33.2876Z" fill="#455A64"/>
<path d="M71.881 54.6364C74.6573 50.4361 73.4886 44.7898 69.2707 42.0251C65.0528 39.2604 59.383 40.4242 56.6068 44.6246C53.8305 48.8249 54.9992 54.4712 59.2171 57.2359C63.435 60.0006 69.1048 58.8368 71.881 54.6364Z" fill="#FFA400"/>
<path opacity="0.3" d="M71.881 54.6364C74.6573 50.4361 73.4886 44.7898 69.2707 42.0251C65.0528 39.2604 59.383 40.4242 56.6068 44.6246C53.8305 48.8249 54.9992 54.4712 59.2171 57.2359C63.435 60.0006 69.1048 58.8368 71.881 54.6364Z" fill="white"/>
<path d="M61.0751 47.3461C61.4043 47.3096 61.7334 47.7103 61.77 48.1837C61.8066 48.6936 61.5506 49.0942 61.2214 49.1306C60.8923 49.1671 60.5631 48.7664 60.5266 48.293C60.49 47.8195 60.746 47.3825 61.0751 47.3461Z" fill="#263238"/>
<path d="M66.89 47.2368C66.5609 47.2368 66.2317 47.601 66.2317 48.1109C66.1952 48.6208 66.4877 49.0214 66.8169 49.0578C67.146 49.0578 67.4752 48.6936 67.4752 48.1837C67.5118 47.6739 67.2557 47.2368 66.89 47.2368Z" fill="#263238"/>
<path d="M67.914 51.4617C67.914 51.571 66.1952 51.6438 64.1106 51.6438C62.026 51.6438 60.3071 51.571 60.3071 51.4617C60.3071 51.3524 62.026 51.2796 64.1106 51.2796C66.1952 51.2432 67.914 51.3524 67.914 51.4617Z" fill="#263238"/>
<path d="M61.7699 46.3261C61.7334 46.4353 61.3311 46.4353 60.8191 46.5082C60.3071 46.581 59.9048 46.7267 59.8316 46.6174C59.7585 46.5446 60.1608 46.2168 60.7459 46.1075C61.3677 46.0347 61.8065 46.2168 61.7699 46.3261Z" fill="#263238"/>
<path d="M68.5358 46.7634C68.4626 46.8362 68.0603 46.6541 67.5483 46.5085C67.0363 46.3628 66.5975 46.29 66.5975 46.1807C66.5975 46.0714 67.0729 45.9622 67.6581 46.1443C68.2798 46.2899 68.6089 46.6906 68.5358 46.7634Z" fill="#263238"/>
<path d="M139.75 50.3588C140.573 45.2138 137.052 40.3787 131.885 39.5592C126.719 38.7397 121.864 42.2462 121.041 47.3912C120.218 52.5362 123.739 57.3713 128.905 58.1908C134.072 59.0103 138.927 55.5038 139.75 50.3588Z" fill="#FFA400"/>
<path opacity="0.3" d="M139.75 50.3588C140.573 45.2138 137.052 40.3787 131.885 39.5592C126.719 38.7397 121.864 42.2462 121.041 47.3912C120.218 52.5362 123.739 57.3713 128.905 58.1908C134.072 59.0103 138.927 55.5038 139.75 50.3588Z" fill="black"/>
<path d="M127.124 46.5082C127.49 46.4717 127.819 46.8724 127.855 47.3822C127.892 47.8921 127.636 48.3292 127.27 48.3656C126.905 48.402 126.575 48.0014 126.539 47.4915C126.539 46.9816 126.795 46.5446 127.124 46.5082Z" fill="#263238"/>
<path d="M133.158 46.3989C132.793 46.3989 132.5 46.7995 132.464 47.3094C132.427 47.8193 132.72 48.2563 133.085 48.2563C133.451 48.2563 133.744 47.8557 133.78 47.3458C133.78 46.836 133.524 46.3989 133.158 46.3989Z" fill="#263238"/>
<path d="M134.182 50.7693C134.146 50.8057 133.744 50.5508 133.085 50.1866C132.427 49.8588 131.403 49.4582 130.269 49.4946C129.136 49.531 128.111 49.8952 127.453 50.223C126.758 50.5508 126.356 50.8057 126.319 50.7693C126.283 50.7329 126.649 50.4051 127.307 50.0045C127.965 49.6039 129.026 49.1668 130.269 49.1304C131.513 49.094 132.573 49.5674 133.232 49.9681C133.89 50.3687 134.219 50.7329 134.182 50.7693Z" fill="#263238"/>
<path d="M127.855 45.4153C127.892 45.4517 127.819 45.561 127.673 45.7067C127.526 45.8523 127.27 45.998 126.941 46.0344C126.612 46.1073 126.319 46.0344 126.137 45.9616C125.954 45.8888 125.844 45.7795 125.881 45.7067C125.917 45.5974 126.393 45.7431 126.905 45.6702C127.38 45.5974 127.782 45.3425 127.855 45.4153Z" fill="#263238"/>
<path d="M134.877 45.8888C134.877 45.9252 134.804 46.0345 134.585 46.1073C134.365 46.1802 134.073 46.1802 133.744 46.0709C133.414 45.9616 133.195 45.7795 133.049 45.5974C132.902 45.4518 132.866 45.3061 132.902 45.2697C132.976 45.1968 133.378 45.5246 133.89 45.7067C134.365 45.8888 134.841 45.7795 134.877 45.8888Z" fill="#263238"/>
<path d="M112.239 75.0617L114.434 74.0056L116.591 75.171L116.226 72.7673L118.018 71.092L115.604 70.6913L114.58 68.4697L113.446 70.6549L110.996 70.9463L112.715 72.6944L112.239 75.0617Z" fill="#E0E0E0"/>
<path d="M103.316 75.0617L105.51 74.0056L107.631 75.171L107.265 72.7673L109.058 71.092L106.644 70.6913L105.62 68.4697L104.486 70.6549L102.072 70.9463L103.755 72.6944L103.316 75.0617Z" fill="#FFA400"/>
<path d="M94.3556 75.0617L96.5499 74.0056L98.671 75.171L98.3419 72.7673L100.134 71.092L97.7202 70.6913L96.6596 68.4697L95.5259 70.6549L93.1121 70.9463L94.831 72.6944L94.3556 75.0617Z" fill="#FFA400"/>
<path d="M85.3955 75.0617L87.5898 74.0056L89.711 75.171L89.3818 72.7673L91.1738 71.092L88.7601 70.6913L87.7361 68.4697L86.5658 70.6549L84.152 70.9463L85.8709 72.6944L85.3955 75.0617Z" fill="#FFA400"/>
<path d="M76.4353 75.0617L78.6297 74.0056L80.7874 75.171L80.4217 72.7673L82.2137 71.092L79.8 70.6913L78.7759 68.4697L77.6422 70.6549L75.1919 70.9463L76.9108 72.6944L76.4353 75.0617Z" fill="#FFA400"/>
<path d="M118.127 21.4149C118.127 21.4513 108.289 21.5242 96.1842 21.5242C84.0789 21.5242 74.241 21.4878 74.241 21.4149C74.241 21.3785 84.0789 21.3057 96.1842 21.3057C108.289 21.3057 118.127 21.3421 118.127 21.4149Z" fill="#263238"/>
<path d="M107.339 18.7929C107.339 18.8293 102.475 18.9021 96.5133 18.9021C90.5155 18.9021 85.688 18.8657 85.688 18.7929C85.688 18.7564 90.5521 18.6836 96.5133 18.6836C102.475 18.6836 107.339 18.72 107.339 18.7929Z" fill="#263238"/>
<path d="M109.93 50.5429C112.042 44.0146 108.44 37.0175 101.884 34.9146C95.3284 32.8116 88.3022 36.3991 86.1904 42.9274C84.0787 49.4558 87.6812 56.4528 94.2367 58.5558C100.792 60.6587 107.819 57.0712 109.93 50.5429Z" fill="#FFA400"/>
<path d="M93.7704 43.5951C94.2458 43.5587 94.6847 44.0686 94.7213 44.7605C94.7944 45.4525 94.4287 46.0352 93.9533 46.0717C93.4778 46.1081 93.039 45.5982 93.0024 44.9062C92.9292 44.2142 93.295 43.6315 93.7704 43.5951Z" fill="#263238"/>
<path d="M101.706 43.4129C101.231 43.3764 100.829 43.9227 100.792 44.6147C100.756 45.3067 101.121 45.853 101.597 45.8894C102.072 45.9258 102.474 45.3795 102.511 44.6876C102.511 44.032 102.145 43.4493 101.706 43.4129Z" fill="#263238"/>
<path d="M103.06 47.4918C103.096 47.5282 102.987 47.6374 102.767 47.856C102.584 48.0745 102.255 48.3658 101.816 48.6936C101.377 48.985 100.829 49.3492 100.17 49.6041C99.5122 49.8591 98.7076 50.0047 97.8665 49.9683C97.0253 49.9319 96.2573 49.7134 95.599 49.4584C94.9407 49.2035 94.3921 48.8757 93.9533 48.5844C93.0755 48.0016 92.6001 47.5282 92.6367 47.4918C92.6732 47.4553 93.2218 47.8195 94.0995 48.3294C94.575 48.5844 95.087 48.8757 95.7453 49.0942C96.367 49.3128 97.0984 49.5313 97.903 49.5677C98.671 49.6041 99.4025 49.4584 100.061 49.2763C100.719 49.0578 101.231 48.7665 101.67 48.4751C102.109 48.1837 102.438 47.9288 102.657 47.7467C102.877 47.5646 103.023 47.4918 103.06 47.4918Z" fill="#263238"/>
<path d="M94.319 40.7908C94.2824 40.9 93.6973 40.8636 93.0024 40.9729C92.3075 41.0821 91.7224 41.3007 91.6858 41.1914C91.6127 41.1186 92.1612 40.7179 92.9292 40.5723C93.7338 40.463 94.3555 40.6815 94.319 40.7908Z" fill="#263238"/>
<path d="M104.376 41.3731C104.303 41.4459 103.791 41.1546 103.06 40.936C102.365 40.7175 101.743 40.6811 101.743 40.5718C101.743 40.4626 102.401 40.3169 103.169 40.5718C103.974 40.7904 104.449 41.3002 104.376 41.3731Z" fill="#263238"/>
<path d="M92.8561 46.6177C92.8927 46.6177 92.9658 46.7269 93.0024 46.9819C93.0024 47.2004 92.9292 47.5282 92.7464 47.856C92.527 48.1473 92.2344 48.3294 92.015 48.4023C91.7955 48.4751 91.6492 48.4387 91.6492 48.4023C91.6492 48.293 92.1247 48.1473 92.4538 47.6374C92.7464 47.1276 92.7464 46.6177 92.8561 46.6177Z" fill="#263238"/>
<path d="M104.12 47.7468C104.12 47.7832 104.011 47.8561 103.828 47.8925C103.645 47.8925 103.352 47.8561 103.133 47.674C102.877 47.4919 102.767 47.2369 102.731 47.0548C102.694 46.8727 102.731 46.7271 102.767 46.7271C102.877 46.7271 102.987 47.0912 103.352 47.3462C103.681 47.6375 104.084 47.6376 104.12 47.7468Z" fill="#263238"/>
<path d="M113.336 46.6177C113.336 46.6177 113.336 46.5448 113.3 46.3627C113.3 46.1806 113.263 45.9621 113.263 45.6343C113.263 45.4886 113.227 45.3065 113.227 45.088C113.19 44.9059 113.154 44.6874 113.117 44.4325C113.08 44.2139 113.044 43.959 113.007 43.6676C112.971 43.4127 112.861 43.1213 112.788 42.83C112.532 41.6281 111.947 40.2442 111.069 38.7509C110.191 37.2577 108.875 35.6917 107.156 34.3805C106.936 34.2349 106.717 34.0528 106.497 33.8707C106.278 33.725 106.022 33.5793 105.766 33.4336C105.51 33.2879 105.291 33.1058 104.998 32.9966C104.742 32.8873 104.449 32.7416 104.193 32.596C104.047 32.5231 103.937 32.4503 103.791 32.4139C103.645 32.3774 103.499 32.3046 103.352 32.2682C103.06 32.1589 102.767 32.0497 102.475 31.9404C102.182 31.8311 101.853 31.7947 101.56 31.6855C101.268 31.6126 100.939 31.5034 100.609 31.4669C99.9877 31.3941 99.3294 31.2484 98.6711 31.2484C98.3419 31.2484 98.0128 31.212 97.6836 31.212C97.3545 31.212 96.9888 31.2484 96.6596 31.2484C96.4768 31.2484 96.3305 31.2484 96.1476 31.2848L95.6356 31.3577C95.3065 31.4305 94.9407 31.4669 94.6116 31.5398C93.9167 31.7219 93.2219 31.8676 92.5636 32.1225C91.8687 32.341 91.2104 32.6688 90.5521 32.9966C90.223 33.1787 89.9304 33.3608 89.6012 33.5793C89.4549 33.6886 89.2721 33.7614 89.1258 33.8707L88.6869 34.1984C88.0652 34.6355 87.5166 35.1454 86.9315 35.6917C86.6755 35.983 86.4195 36.2744 86.1635 36.5657L85.9806 36.7843L85.7978 37.0028L85.432 37.4762L85.0663 37.9497L84.7737 38.4596L84.4812 38.9695L84.3349 39.2244L84.1886 39.4793C84.0057 39.8435 83.8229 40.2077 83.6766 40.5719C83.5303 40.9361 83.384 41.3368 83.2743 41.701C82.7623 43.2306 82.5063 44.8695 82.4697 46.5448C82.5063 48.2201 82.7623 49.859 83.2743 51.3887C83.4206 51.7529 83.5669 52.1535 83.6766 52.5177C83.8594 52.8819 84.0423 53.2461 84.1886 53.6103L84.3349 53.8652L84.4812 54.1202L84.7737 54.6301L85.0663 55.1399L85.432 55.6134L85.7978 56.0869L85.9806 56.3054L86.1635 56.5239C86.4195 56.8153 86.6755 57.1066 86.9315 57.398C87.5166 57.9079 88.0652 58.4542 88.6869 58.8912L89.1258 59.219C89.2721 59.3282 89.4549 59.4011 89.6012 59.5103C89.9304 59.6924 90.223 59.911 90.5521 60.0931C91.2104 60.4208 91.8687 60.7486 92.5636 60.9671C93.2219 61.2585 93.9533 61.3678 94.6116 61.5499C94.9407 61.6227 95.3065 61.6591 95.6356 61.732L96.1476 61.8048C96.3305 61.8412 96.4768 61.8412 96.6596 61.8412C96.9888 61.8412 97.3545 61.8776 97.6836 61.8776C98.0128 61.8776 98.3419 61.8412 98.6711 61.8412C99.3294 61.8412 99.9877 61.6955 100.609 61.6227C100.939 61.5863 101.231 61.477 101.56 61.4042C101.853 61.3313 102.182 61.2585 102.475 61.1492C102.767 61.04 103.06 60.9307 103.352 60.8215C103.499 60.785 103.645 60.7122 103.791 60.6758C103.937 60.6029 104.047 60.5301 104.193 60.4937C104.449 60.348 104.742 60.2387 104.998 60.0931C105.254 59.9838 105.51 59.8017 105.766 59.656C106.022 59.5103 106.241 59.3647 106.497 59.219C106.717 59.0369 106.936 58.8912 107.156 58.7091C108.911 57.398 110.191 55.8319 111.069 54.3387C111.947 52.8455 112.495 51.4251 112.788 50.2597C112.861 49.9683 112.971 49.6769 113.007 49.422C113.044 49.1671 113.08 48.9121 113.117 48.6572C113.154 48.4387 113.19 48.2201 113.227 48.0016C113.227 47.8195 113.263 47.6374 113.263 47.4553C113.3 47.1275 113.3 46.909 113.3 46.7269C113.3 46.6905 113.336 46.6177 113.336 46.6177C113.336 46.6177 113.336 46.6905 113.336 46.8726C113.336 47.0547 113.336 47.2732 113.3 47.601C113.3 47.7467 113.3 47.9288 113.263 48.1473C113.263 48.3294 113.19 48.5479 113.19 48.8029C113.154 49.0214 113.117 49.2763 113.08 49.5677C113.044 49.8226 112.971 50.114 112.898 50.4053C112.642 51.6072 112.093 53.0276 111.215 54.5208C110.338 56.014 109.057 57.5801 107.265 58.9276C107.046 59.1097 106.827 59.2554 106.607 59.4375C106.388 59.5832 106.132 59.7289 105.876 59.8745C105.62 60.0202 105.4 60.2023 105.108 60.3116C104.852 60.4573 104.559 60.5665 104.303 60.7122C104.157 60.785 104.047 60.8579 103.901 60.8943C103.755 60.9307 103.608 61.0036 103.462 61.04C103.169 61.1492 102.877 61.2585 102.584 61.3678C102.292 61.477 101.963 61.5134 101.67 61.6227C101.341 61.6955 101.048 61.8048 100.719 61.8412C100.061 61.9505 99.4391 62.0597 98.7442 62.0597C98.4151 62.0597 98.0859 62.0962 97.7202 62.0962C97.3911 62.0962 97.0253 62.0597 96.6962 62.0597C96.5133 62.0597 96.3305 62.0597 96.1842 62.0233L95.6722 61.9505C95.343 61.8776 94.9773 61.8412 94.6116 61.7684C93.9167 61.5863 93.2219 61.4406 92.527 61.1492C91.8321 60.9307 91.1738 60.5665 90.479 60.2752C90.1498 60.0931 89.8207 59.8745 89.4915 59.6924C89.3452 59.5832 89.1624 59.5103 89.0161 59.4011L88.5407 59.0733C87.9189 58.6363 87.3338 58.09 86.7852 57.5801C86.5292 57.2887 86.2732 56.9974 85.9806 56.706L85.7978 56.4875L85.6149 56.269L85.2492 55.7955L84.8835 55.322L84.5543 54.8122L84.2252 54.3023L84.0789 54.0473L83.9326 53.7924C83.7497 53.4282 83.5669 53.064 83.384 52.6998C83.2377 52.3356 83.0914 51.935 82.9451 51.5344C82.4331 49.9683 82.1771 48.3294 82.1406 46.6177C82.1771 44.9423 82.4331 43.267 82.9451 41.701C83.0914 41.3003 83.2377 40.9361 83.384 40.5355C83.5669 40.1713 83.7497 39.8071 83.896 39.4429L84.0423 39.188L84.1886 38.933L84.5177 38.4232L84.8469 37.9133L85.2126 37.4398L85.5783 36.9664L85.7612 36.7478L85.944 36.5293C86.2 36.238 86.4926 35.9466 86.7486 35.6552C87.3338 35.1454 87.8824 34.5991 88.5041 34.162L88.9795 33.8342C89.1258 33.725 89.3087 33.6157 89.455 33.5429C89.7841 33.3608 90.1132 33.1423 90.4424 32.9602C91.1373 32.6324 91.7955 32.3046 92.4904 32.0861C93.1853 31.7947 93.8802 31.649 94.575 31.4669C94.9407 31.3941 95.2699 31.3577 95.6356 31.2848L96.1476 31.212C96.3305 31.1756 96.5133 31.1756 96.6596 31.1756C96.9888 31.1756 97.3545 31.1392 97.6836 31.1392C98.0128 31.1392 98.3785 31.1756 98.7076 31.1756C99.3659 31.1756 100.024 31.3213 100.683 31.3941C101.012 31.4305 101.304 31.5398 101.633 31.6126C101.926 31.6855 102.255 31.7583 102.548 31.8676C102.84 31.9768 103.133 32.0861 103.425 32.1953C103.572 32.2318 103.718 32.3046 103.864 32.341C104.011 32.4139 104.157 32.4867 104.267 32.5231C104.523 32.6688 104.815 32.7781 105.071 32.9237C105.327 33.033 105.583 33.2151 105.839 33.3608C106.095 33.5065 106.351 33.6521 106.571 33.7978C106.79 33.9799 107.009 34.1256 107.229 34.3077C108.984 35.6552 110.264 37.2213 111.179 38.7145C112.056 40.2077 112.605 41.6281 112.861 42.83C112.934 43.1213 113.044 43.4127 113.044 43.6676C113.08 43.9226 113.117 44.1775 113.154 44.4325C113.19 44.651 113.227 44.8695 113.227 45.088C113.227 45.2701 113.227 45.4522 113.263 45.6343C113.263 45.9621 113.3 46.1806 113.3 46.3627C113.336 46.5084 113.336 46.6177 113.336 46.6177Z" fill="#FFA400"/>
<path d="M152.907 2.9502H39.7903V8.55887H152.907V2.9502Z" fill="#E0E0E0"/>
<path d="M43.4475 5.60857C43.4475 6.04561 43.1183 6.37339 42.6794 6.37339C42.2406 6.37339 41.9114 6.04561 41.9114 5.60857C41.9114 5.17153 42.2406 4.84375 42.6794 4.84375C43.1183 4.84375 43.4475 5.20795 43.4475 5.60857Z" fill="white"/>
<path d="M45.9709 5.60857C45.9709 6.04561 45.6417 6.37339 45.2029 6.37339C44.764 6.37339 44.4349 6.04561 44.4349 5.60857C44.4349 5.17153 44.764 4.84375 45.2029 4.84375C45.6417 4.84375 45.9709 5.20795 45.9709 5.60857Z" fill="white"/>
<path d="M48.531 5.60857C48.531 6.04561 48.2018 6.37339 47.7629 6.37339C47.3241 6.37339 46.9949 6.04561 46.9949 5.60857C46.9949 5.17153 47.3241 4.84375 47.7629 4.84375C48.1652 4.84375 48.531 5.20795 48.531 5.60857Z" fill="white"/>
<path d="M140.436 25.8583C140.436 25.8947 120.797 25.9675 96.5865 25.9675C72.3759 25.9675 52.7368 25.9311 52.7368 25.8583C52.7368 25.8219 72.3759 25.749 96.5865 25.749C120.834 25.749 140.436 25.7854 140.436 25.8583Z" fill="#E0E0E0"/>
<path d="M140.436 28.0072C140.436 28.0436 120.797 28.1165 96.5865 28.1165C72.3759 28.1165 52.7368 28.0801 52.7368 28.0072C52.7368 27.9344 72.3759 27.8979 96.5865 27.8979C120.834 27.8979 140.436 27.9708 140.436 28.0072Z" fill="#E0E0E0"/>
<path d="M145.849 74.333C144.935 75.6441 143.179 75.207 142.338 74.4058C141.533 73.6046 141.168 72.4755 140.838 71.3829C140.107 68.87 139.376 66.2477 139.924 63.6983C140.07 62.9335 140.363 62.1687 140.912 61.6224C141.46 61.0397 142.265 60.7119 143.033 60.9304C143.911 61.1489 144.496 62.023 144.898 62.8607C146.068 65.3008 146.69 67.9959 146.727 70.7274C146.727 71.9657 146.58 73.2768 145.849 74.333Z" fill="#1ABC9C"/>
<g opacity="0.2">
<path d="M145.849 74.333C144.935 75.6441 143.179 75.207 142.338 74.4058C141.533 73.6046 141.168 72.4755 140.838 71.3829C140.107 68.87 139.376 66.2477 139.924 63.6983C140.07 62.9335 140.363 62.1687 140.912 61.6224C141.46 61.0397 142.265 60.7119 143.033 60.9304C143.911 61.1489 144.496 62.023 144.898 62.8607C146.068 65.3008 146.69 67.9959 146.727 70.7274C146.727 71.9657 146.58 73.2768 145.849 74.333Z" fill="black"/>
</g>
<path d="M142.448 80.8884C140.948 80.1235 139.193 80.0143 137.547 80.3056C136.669 80.4513 135.718 80.7062 135.133 81.3982C134.512 82.0538 134.402 83.2192 135.097 83.802C135.499 84.1297 136.084 84.2026 136.633 84.2026C137.913 84.2026 139.376 83.9476 140.4 84.7489C140.985 85.1859 141.387 85.9143 142.082 86.1328C142.777 86.3513 143.545 85.9507 143.911 85.3316C144.276 84.7124 144.276 83.9476 144.13 83.2192C144.13 83.1828 143.947 81.6532 142.448 80.8884Z" fill="#1ABC9C"/>
<path d="M148.372 76.1903C147.385 75.0249 147.202 73.3132 147.641 71.8564C148.08 70.3996 149.067 69.1249 150.237 68.1051C151.591 66.9032 153.163 65.9927 154.882 65.3736C155.54 65.1551 156.272 64.9366 156.967 65.0094C157.662 65.0822 158.393 65.4464 158.722 66.0656C159.198 66.9761 158.759 68.1051 158.247 69.0156C157.369 70.6181 156.345 72.1841 155.211 73.6409C154.297 74.8064 153.273 75.9718 151.883 76.4817C150.493 77.028 149.067 76.9552 148.299 75.9718" fill="#1ABC9C"/>
<path d="M145.922 93.927C145.922 93.927 145.885 93.7085 145.849 93.3443C145.812 92.9072 145.739 92.3609 145.703 91.7418C145.629 91.0498 145.52 90.2486 145.337 89.3745C145.154 88.5004 144.861 87.5535 144.459 86.5702C144.057 85.6232 143.581 84.7492 143.033 84.0572C142.484 83.3652 141.826 82.8553 141.241 82.564C140.619 82.2726 140.107 82.1633 139.705 82.0905C139.339 82.0541 139.12 82.0177 139.12 82.0177C139.12 82.0177 139.339 81.9812 139.705 82.0177C140.107 82.0541 140.656 82.1269 141.277 82.4183C141.899 82.7096 142.594 83.2195 143.179 83.9115C143.764 84.6035 144.276 85.514 144.679 86.4973C145.081 87.4807 145.337 88.4276 145.52 89.3381C145.703 90.2486 145.776 91.0498 145.849 91.7418C145.885 92.4338 145.922 92.9801 145.922 93.3443C145.922 93.7085 145.922 93.927 145.922 93.927Z" fill="#263238"/>
<path d="M145.812 92.6884C145.812 92.6884 145.812 92.5792 145.812 92.3971C145.812 92.1786 145.812 91.9236 145.812 91.6323C145.812 90.9403 145.812 89.9569 145.776 88.7551C145.703 86.3149 145.52 82.9643 145.117 79.2859C144.715 75.6075 144.167 72.2932 143.691 69.8895C143.581 69.3068 143.472 68.7605 143.362 68.2871C143.252 67.8136 143.179 67.413 143.069 67.0852C142.996 66.7938 142.923 66.5389 142.887 66.3204C142.85 66.1383 142.813 66.0654 142.85 66.0654C142.85 66.0654 142.887 66.1383 142.96 66.3204C143.033 66.5025 143.106 66.7574 143.179 67.0852C143.289 67.413 143.399 67.8136 143.508 68.2871C143.618 68.7605 143.764 69.3068 143.874 69.8895C144.423 72.2568 144.971 75.571 145.373 79.2859C145.776 82.9643 145.959 86.3514 145.995 88.7915C145.995 89.9934 145.995 90.9767 145.959 91.6687C145.922 91.9965 145.922 92.2514 145.922 92.4335C145.812 92.5792 145.812 92.6884 145.812 92.6884Z" fill="#263238"/>
<path d="M145.776 86.1697C145.776 86.1697 145.776 85.8783 145.776 85.3684C145.812 84.8585 145.885 84.0937 146.032 83.1468C146.178 82.2363 146.397 81.1073 146.763 79.9054C147.092 78.7036 147.531 77.3925 148.116 76.0813C149.25 73.4227 150.786 71.2375 152.103 69.8899C152.432 69.5257 152.761 69.2708 153.054 69.0159C153.2 68.9066 153.31 68.7609 153.456 68.6881C153.602 68.6152 153.712 68.506 153.822 68.4331C154.26 68.1418 154.516 67.9961 154.516 67.9961C154.553 68.0325 153.529 68.6517 152.249 69.9992C150.969 71.3467 149.469 73.5319 148.372 76.1542C147.787 77.4653 147.348 78.74 147.019 79.9419C146.653 81.1437 146.434 82.2363 146.251 83.1468C146.068 84.0573 145.995 84.8221 145.922 85.332C145.849 85.9147 145.812 86.2061 145.776 86.1697Z" fill="#263238"/>
</g>
<defs>
<clipPath id="clip0_907_820">
<rect width="166" height="94" fill="white"/>
</clipPath>
</defs>
</svg>
